<?xml version="1.0" encoding="UTF-8" standalone="no"?>
<!-- Created with matplotlib (http://matplotlib.org/) -->

<svg
   xmlns:dc="http://purl.org/dc/elements/1.1/"
   xmlns:cc="http://creativecommons.org/ns#"
   xmlns:rdf="http://www.w3.org/1999/02/22-rdf-syntax-ns#"
   xmlns:svg="http://www.w3.org/2000/svg"
   xmlns="http://www.w3.org/2000/svg"
   xmlns:xlink="http://www.w3.org/1999/xlink"
   xmlns:sodipodi="http://sodipodi.sourceforge.net/DTD/sodipodi-0.dtd"
   xmlns:inkscape="http://www.inkscape.org/namespaces/inkscape"
   height="542.63129pt"
   version="1.1"
   viewBox="0 0 508.7816 542.63127"
   width="508.78162pt"
   id="svg203"
   sodipodi:docname="loss.svg"
   inkscape:version="0.92.3 (2405546, 2018-03-11)">
  <metadata
     id="metadata207">
    <rdf:RDF>
      <cc:Work
         rdf:about="">
        <dc:format>image/svg+xml</dc:format>
        <dc:type
           rdf:resource="http://purl.org/dc/dcmitype/StillImage" />
      </cc:Work>
    </rdf:RDF>
  </metadata>
  <sodipodi:namedview
     pagecolor="#ffffff"
     bordercolor="#666666"
     borderopacity="1"
     objecttolerance="10"
     gridtolerance="10"
     guidetolerance="10"
     inkscape:pageopacity="0"
     inkscape:pageshadow="2"
     inkscape:window-width="1414"
     inkscape:window-height="918"
     id="namedview205"
     showgrid="false"
     inkscape:zoom="0.37285136"
     inkscape:cx="207.24513"
     inkscape:cy="-46.489005"
     inkscape:window-x="57"
     inkscape:window-y="27"
     inkscape:window-maximized="0"
     inkscape:current-layer="legend_1" />
  <defs
     id="defs4"
     style="stroke-linecap:butt;stroke-linejoin:round">
    <style
       type="text/css"
       id="style2">
*{stroke-linecap:butt;stroke-linejoin:round;}
  </style>
  </defs>
  <g
     id="figure_1"
     transform="translate(-72.855986,101.57394)"
     style="stroke-linecap:butt;stroke-linejoin:round">
    <g
       id="axes_1"
       style="stroke-linecap:butt;stroke-linejoin:round">
      <g
         id="patch_2"
         style="stroke-linecap:butt;stroke-linejoin:round">
        <path
           d="M 138.31165,345.7649 H 521.73329 V 36.2934 H 138.31165 Z"
           style="fill:#ffffff;stroke-linecap:butt;stroke-linejoin:round"
           id="path9"
           inkscape:connector-curvature="0" />
      </g>
      <g
         id="matplotlib.axis_1"
         style="stroke-linecap:butt;stroke-linejoin:round">
        <g
           id="text_3"
           style="stroke-linecap:butt;stroke-linejoin:round"
           transform="translate(4.0230509,31.465424)">
          <!-- samples -->
          <defs
             id="defs52">
            <path
               d="m 6.59375,0 v 51.859375 h 7.859375 v -7.28125 q 2.4375,3.8125 6.484375,6.125 4.0625,2.328125 9.234375,2.328125 5.765625,0 9.453125,-2.390625 3.6875,-2.390625 5.203125,-6.6875 6.15625,9.078125 16.015625,9.078125 7.71875,0 11.859375,-4.28125 4.15625,-4.265625 4.15625,-13.15625 V 0 h -8.75 v 32.671875 q 0,5.265625 -0.859375,7.578125 -0.84375,2.328125 -3.09375,3.734375 -2.234375,1.421875 -5.265625,1.421875 -5.46875,0 -9.09375,-3.640625 Q 46.1875,38.140625 46.1875,30.125 V 0 h -8.78125 v 33.6875 q 0,5.859375 -2.15625,8.78125 -2.140625,2.9375 -7.03125,2.9375 -3.703125,0 -6.859375,-1.953125 Q 18.21875,41.5 16.796875,37.734375 15.375,33.984375 15.375,26.90625 V 0 Z"
               id="ArialMT-6d"
               inkscape:connector-curvature="0"
               style="stroke-linecap:butt;stroke-linejoin:round" />
            <path
               d="m 6.59375,-19.875 v 71.734375 h 8 V 45.125 Q 17.4375,49.078125 21,51.046875 q 3.5625,1.984375 8.640625,1.984375 6.640625,0 11.71875,-3.421875 5.078125,-3.421875 7.65625,-9.65625 2.59375,-6.21875 2.59375,-13.640625 0,-7.953125 -2.859375,-14.328125 Q 45.90625,5.609375 40.453125,2.21875 35.015625,-1.171875 29,-1.171875 q -4.390625,0 -7.890625,1.859375 Q 17.625,2.546875 15.375,5.375 v -25.25 z m 7.953125,45.515625 q 0,-10.015625 4.046875,-14.796875 4.0625,-4.78125 9.828125,-4.78125 5.859375,0 10.03125,4.953125 Q 42.625,15.96875 42.625,26.375 q 0,9.90625 -4.078125,14.828125 -4.078125,4.9375 -9.734375,4.9375 -5.625,0 -9.953125,-5.25 -4.3125,-5.25 -4.3125,-15.25 z"
               id="ArialMT-70"
               inkscape:connector-curvature="0"
               style="stroke-linecap:butt;stroke-linejoin:round" />
          </defs>
          <g
             style="fill:#262626;stroke-linecap:butt;stroke-linejoin:round"
             transform="matrix(0.27,0,0,-0.27,279.75606,404.22564)"
             id="g68">
            <path
               style="stroke-linecap:butt;stroke-linejoin:round"
               inkscape:connector-curvature="0"
               id="use54"
               d="m 3.078125,15.484375 8.6875,1.359375 Q 12.5,11.625 15.84375,8.84375 19.1875,6.0625 25.203125,6.0625 q 6.046875,0 8.96875,2.453125 2.9375,2.46875 2.9375,5.796875 0,2.96875 -2.59375,4.6875 Q 32.71875,20.171875 25.53125,21.96875 15.875,24.421875 12.140625,26.203125 8.40625,27.984375 6.46875,31.125 q -1.921875,3.15625 -1.921875,6.96875 0,3.453125 1.578125,6.40625 1.59375,2.96875 4.328125,4.921875 2.046875,1.5 5.578125,2.546875 3.546875,1.0625 7.609375,1.0625 6.09375,0 10.703125,-1.765625 4.625,-1.75 6.8125,-4.765625 2.203125,-3 3.03125,-8.015625 L 35.59375,37.3125 q -0.578125,4 -3.390625,6.234375 -2.8125,2.25 -7.9375,2.25 -6.046875,0 -8.640625,-2 -2.59375,-2 -2.59375,-4.6875 0,-1.703125 1.078125,-3.078125 1.078125,-1.40625 3.375,-2.34375 1.3125,-0.484375 7.765625,-2.234375 9.328125,-2.5 13,-4.09375 3.6875,-1.578125 5.78125,-4.609375 2.109375,-3.015625 2.109375,-7.515625 0,-4.390625 -2.5625,-8.28125 -2.5625,-3.875 -7.40625,-6 -4.828125,-2.125 -10.921875,-2.125 -10.109375,0 -15.40625,4.203125 -5.296875,4.203125 -6.765625,12.453125 z" />
            <path
               style="stroke-linecap:butt;stroke-linejoin:round"
               inkscape:connector-curvature="0"
               id="use56"
               d="M 90.4375,6.390625 Q 85.546875,2.25 81.03125,0.53125 q -4.515625,-1.703125 -9.6875,-1.703125 -8.546875,0 -13.140625,4.171875 -4.59375,4.171875 -4.59375,10.671875 0,3.8125 1.734375,6.953125 1.734375,3.15625 4.546875,5.0625 2.8125,1.90625 6.328125,2.875 2.578125,0.6875 7.8125,1.328125 10.640625,1.265625 15.671875,3.015625 0.04687,1.8125 0.04687,2.296875 0,5.375 -2.5,7.578125 -3.359375,2.96875 -10,2.96875 -6.203125,0 -9.15625,-2.171875 -2.953125,-2.171875 -4.375,-7.6875 L 55.125,37.0625 q 1.171875,5.515625 3.859375,8.90625 2.6875,3.390625 7.765625,5.21875 5.078125,1.84375 11.765625,1.84375 6.640625,0 10.78125,-1.5625 4.15625,-1.5625 6.109375,-3.9375 1.953125,-2.359375 2.734375,-5.984375 0.4375,-2.234375 0.4375,-8.09375 v -11.71875 q 0,-12.265625 0.5625,-15.515625 Q 99.703125,2.984375 101.375,0 h -9.1875 q -1.359375,2.734375 -1.75,6.390625 z M 89.703125,26.03125 Q 84.90625,24.078125 75.34375,22.703125 69.921875,21.921875 67.671875,20.9375 65.4375,19.96875 64.203125,18.09375 q -1.21875,-1.875 -1.21875,-4.171875 0,-3.515625 2.65625,-5.859375 2.671875,-2.34375 7.796875,-2.34375 5.078125,0 9.03125,2.21875 3.953125,2.21875 5.8125,6.078125 1.421875,2.984375 1.421875,8.78125 z" />
            <use
               x="105.61523"
               xlink:href="#ArialMT-6d"
               id="use58"
               style="stroke-linecap:butt;stroke-linejoin:round"
               y="0"
               width="100%"
               height="100%" />
            <use
               x="188.91602"
               xlink:href="#ArialMT-70"
               id="use60"
               style="stroke-linecap:butt;stroke-linejoin:round"
               y="0"
               width="100%"
               height="100%" />
            <path
               style="stroke-linecap:butt;stroke-linejoin:round"
               inkscape:connector-curvature="0"
               id="use62"
               d="m 250.92187,0 v 71.578125 h 8.79688 V 0 Z" />
            <path
               style="stroke-linecap:butt;stroke-linejoin:round"
               inkscape:connector-curvature="0"
               id="use64"
               d="m 308.8418,16.703125 9.07812,-1.125 Q 315.7793,7.625 309.9668,3.21875 q -5.8125,-4.390625 -14.84375,-4.390625 -11.375,0 -18.04688,7 -6.67187,7.015625 -6.67187,19.65625 0,13.09375 6.73437,20.3125 6.75,7.234375 17.48438,7.234375 10.40625,0 17,-7.078125 6.59375,-7.078125 6.59375,-19.921875 0,-0.78125 -0.0469,-2.34375 h -38.67188 q 0.48437,-8.546875 4.82812,-13.09375 4.34375,-4.53125 10.84375,-4.53125 4.82813,0 8.25,2.53125 3.42188,2.546875 5.42188,8.109375 z M 279.98242,30.90625 h 28.95313 q -0.57813,6.546875 -3.3125,9.8125 -4.20313,5.078125 -10.89063,5.078125 -6.0625,0 -10.1875,-4.046875 -4.125,-4.046875 -4.5625,-10.84375 z" />
            <path
               style="stroke-linecap:butt;stroke-linejoin:round"
               inkscape:connector-curvature="0"
               id="use66"
               d="m 325.44141,15.484375 8.6875,1.359375 q 0.73437,-5.21875 4.07812,-8 3.34375,-2.78125 9.35938,-2.78125 6.04687,0 8.96875,2.453125 2.9375,2.46875 2.9375,5.796875 0,2.96875 -2.59375,4.6875 -1.79688,1.171875 -8.98438,2.96875 -9.65625,2.453125 -13.39062,4.234375 -3.73438,1.78125 -5.67188,4.921875 -1.92187,3.15625 -1.92187,6.96875 0,3.453125 1.57812,6.40625 1.59375,2.96875 4.32813,4.921875 2.04687,1.5 5.57812,2.546875 3.54688,1.0625 7.60938,1.0625 6.09375,0 10.70312,-1.765625 4.625,-1.75 6.8125,-4.765625 2.20313,-3 3.03125,-8.015625 L 357.95703,37.3125 q -0.57812,4 -3.39062,6.234375 -2.8125,2.25 -7.9375,2.25 -6.04688,0 -8.64063,-2 -2.59375,-2 -2.59375,-4.6875 0,-1.703125 1.07813,-3.078125 1.07812,-1.40625 3.375,-2.34375 1.3125,-0.484375 7.76562,-2.234375 9.32813,-2.5 13,-4.09375 3.6875,-1.578125 5.78125,-4.609375 2.10938,-3.015625 2.10938,-7.515625 0,-4.390625 -2.5625,-8.28125 -2.5625,-3.875 -7.40625,-6 -4.82813,-2.125 -10.92188,-2.125 -10.10937,0 -15.40625,4.203125 -5.29687,4.203125 -6.76562,12.453125 z" />
          </g>
        </g>
        <text
           xml:space="preserve"
           style="font-style:normal;font-weight:normal;font-size:30px;line-height:1.25;font-family:sans-serif;letter-spacing:0px;word-spacing:0px;fill:#000000;fill-opacity:1;stroke:none;stroke-width:0.75;stroke-linecap:butt;stroke-linejoin:round"
           x="369.09592"
           y="377.14349"
           id="text291-7"><tspan
             sodipodi:role="line"
             id="tspan289-5"
             style="font-size:24px;stroke-width:0.75;stroke-linecap:butt;stroke-linejoin:round"
             x="369.09592"
             y="377.14349">with repl.</tspan></text>
      </g>
      <g
         id="matplotlib.axis_2"
         style="stroke-linecap:butt;stroke-linejoin:round">
        <g
           id="ytick_1"
           style="stroke-linecap:butt;stroke-linejoin:round">
          <g
             id="line2d_1"
             style="stroke-linecap:butt;stroke-linejoin:round">
            <path
               clip-path="url(#pdd48dd69a3)"
               d="M 138.31165,345.7649 H 521.73329"
               style="fill:none;stroke:#cccccc;stroke-width:1.5;stroke-linecap:round;stroke-linejoin:round"
               id="path72"
               inkscape:connector-curvature="0" />
          </g>
          <g
             id="text_4"
             style="stroke-linecap:butt;stroke-linejoin:round">
            <!-- 0 -->
            <defs
               id="defs76">
              <path
                 d="m 4.15625,35.296875 q 0,12.703125 2.609375,20.4375 2.609375,7.75 7.75,11.9375 5.15625,4.203125 12.96875,4.203125 5.765625,0 10.109375,-2.328125 4.34375,-2.3125 7.171875,-6.6875 Q 47.609375,58.5 49.21875,52.21875 q 1.609375,-6.265625 1.609375,-16.921875 0,-12.59375 -2.59375,-20.328125 Q 45.65625,7.234375 40.5,3 35.359375,-1.21875 27.484375,-1.21875 q -10.34375,0 -16.25,7.421875 -7.078125,8.9375 -7.078125,29.09375 z m 9.03125,0 q 0,-17.625 4.125,-23.46875 Q 21.4375,6 27.484375,6 q 6.0625,0 10.1875,5.859375 4.125,5.859375 4.125,23.4375 0,17.6875 -4.125,23.484375 -4.125,5.8125 -10.28125,5.8125 -6.046875,0 -9.671875,-5.125 Q 13.1875,52.9375 13.1875,35.296875 Z"
                 id="ArialMT-30"
                 inkscape:connector-curvature="0"
                 style="stroke-linecap:butt;stroke-linejoin:round" />
            </defs>
            <g
               style="fill:#262626;stroke-linecap:butt;stroke-linejoin:round"
               transform="matrix(0.2475,0,0,-0.2475,112.04833,354.62269)"
               id="g80">
              <use
                 xlink:href="#ArialMT-30"
                 id="use78"
                 style="stroke-linecap:butt;stroke-linejoin:round"
                 x="0"
                 y="0"
                 width="100%"
                 height="100%" />
            </g>
          </g>
        </g>
        <g
           id="ytick_2"
           style="stroke-linecap:butt;stroke-linejoin:round">
          <g
             id="line2d_2"
             style="stroke-linecap:butt;stroke-linejoin:round">
            <path
               clip-path="url(#pdd48dd69a3)"
               d="M 138.31165,259.73813 H 521.73329"
               style="fill:none;stroke:#cccccc;stroke-width:1.5;stroke-linecap:round;stroke-linejoin:round"
               id="path84"
               inkscape:connector-curvature="0" />
          </g>
          <g
             id="text_5"
             style="stroke-linecap:butt;stroke-linejoin:round">
            <!-- 2 -->
            <defs
               id="defs88">
              <path
                 d="M 50.34375,8.453125 V 0 H 3.03125 Q 2.9375,3.171875 4.046875,6.109375 5.859375,10.9375 9.828125,15.625 13.8125,20.3125 21.34375,26.46875 q 11.671875,9.5625 15.765625,15.15625 4.109375,5.59375 4.109375,10.578125 0,5.21875 -3.75,8.796875 -3.734375,3.59375 -9.734375,3.59375 -6.34375,0 -10.15625,-3.8125 Q 13.765625,56.984375 13.71875,50.25 L 4.6875,51.171875 q 0.921875,10.109375 6.96875,15.40625 6.0625,5.296875 16.28125,5.296875 10.296875,0 16.296875,-5.71875 Q 50.25,60.453125 50.25,52 50.25,47.703125 48.484375,43.546875 46.734375,39.40625 42.65625,34.8125 38.578125,30.21875 29.109375,22.21875 21.1875,15.578125 18.9375,13.203125 q -2.234375,-2.359375 -3.703125,-4.75 z"
                 id="ArialMT-32"
                 inkscape:connector-curvature="0"
                 style="stroke-linecap:butt;stroke-linejoin:round" />
            </defs>
            <g
               style="fill:#262626;stroke-linecap:butt;stroke-linejoin:round"
               transform="matrix(0.2475,0,0,-0.2475,112.04833,268.59593)"
               id="g92">
              <use
                 xlink:href="#ArialMT-32"
                 id="use90"
                 style="stroke-linecap:butt;stroke-linejoin:round"
                 x="0"
                 y="0"
                 width="100%"
                 height="100%" />
            </g>
          </g>
        </g>
        <g
           id="ytick_3"
           style="stroke-linecap:butt;stroke-linejoin:round">
          <g
             id="line2d_3"
             style="stroke-linecap:butt;stroke-linejoin:round">
            <path
               clip-path="url(#pdd48dd69a3)"
               d="M 138.31165,173.71136 H 521.73329"
               style="fill:none;stroke:#cccccc;stroke-width:1.5;stroke-linecap:round;stroke-linejoin:round"
               id="path96"
               inkscape:connector-curvature="0" />
          </g>
          <g
             id="text_6"
             style="stroke-linecap:butt;stroke-linejoin:round">
            <!-- 4 -->
            <defs
               id="defs100">
              <path
                 d="m 32.328125,0 v 17.140625 h -31.0625 v 8.0625 l 32.671875,46.375 h 7.171875 v -46.375 h 9.671875 v -8.0625 H 41.109375 V 0 Z m 0,25.203125 V 57.46875 L 9.90625,25.203125 Z"
                 id="ArialMT-34"
                 inkscape:connector-curvature="0"
                 style="stroke-linecap:butt;stroke-linejoin:round" />
            </defs>
            <g
               style="fill:#262626;stroke-linecap:butt;stroke-linejoin:round"
               transform="matrix(0.2475,0,0,-0.2475,112.04833,182.56916)"
               id="g104">
              <use
                 xlink:href="#ArialMT-34"
                 id="use102"
                 style="stroke-linecap:butt;stroke-linejoin:round"
                 x="0"
                 y="0"
                 width="100%"
                 height="100%" />
            </g>
          </g>
        </g>
        <g
           id="ytick_4"
           style="stroke-linecap:butt;stroke-linejoin:round">
          <g
             id="line2d_4"
             style="stroke-linecap:butt;stroke-linejoin:round">
            <path
               clip-path="url(#pdd48dd69a3)"
               d="M 138.31165,87.684597 H 521.73329"
               style="fill:none;stroke:#cccccc;stroke-width:1.5;stroke-linecap:round;stroke-linejoin:round"
               id="path108"
               inkscape:connector-curvature="0" />
          </g>
          <g
             id="text_7"
             style="stroke-linecap:butt;stroke-linejoin:round">
            <!-- 6 -->
            <defs
               id="defs112">
              <path
                 d="M 49.75,54.046875 41.015625,53.375 q -1.171875,5.171875 -3.3125,7.515625 -3.578125,3.765625 -8.796875,3.765625 -4.203125,0 -7.375,-2.34375 Q 17.390625,59.28125 14.984375,53.46875 12.59375,47.65625 12.5,36.921875 15.671875,41.75 20.265625,44.09375 q 4.59375,2.34375 9.625,2.34375 8.78125,0 14.953125,-6.46875 Q 51.03125,33.5 51.03125,23.25 51.03125,16.5 48.125,10.71875 45.21875,4.9375 40.140625,1.859375 35.0625,-1.21875 28.609375,-1.21875 17.625,-1.21875 10.6875,6.859375 3.765625,14.9375 3.765625,33.5 q 0,20.75 7.65625,30.171875 6.6875,8.203125 18.015625,8.203125 8.453125,0 13.84375,-4.734375 Q 48.6875,62.40625 49.75,54.046875 Z M 13.875,23.1875 q 0,-4.53125 1.921875,-8.6875 Q 17.71875,10.359375 21.1875,8.171875 24.65625,6 28.46875,6 q 5.5625,0 9.5625,4.484375 4.015625,4.5 4.015625,12.21875 0,7.421875 -3.96875,11.6875 -3.953125,4.28125 -9.953125,4.28125 -5.953125,0 -10.109375,-4.28125 Q 13.875,30.125 13.875,23.1875 Z"
                 id="ArialMT-36"
                 inkscape:connector-curvature="0"
                 style="stroke-linecap:butt;stroke-linejoin:round" />
            </defs>
            <g
               style="fill:#262626;stroke-linecap:butt;stroke-linejoin:round"
               transform="matrix(0.2475,0,0,-0.2475,112.04833,96.54239)"
               id="g116">
              <use
                 xlink:href="#ArialMT-36"
                 id="use114"
                 style="stroke-linecap:butt;stroke-linejoin:round"
                 x="0"
                 y="0"
                 width="100%"
                 height="100%" />
            </g>
          </g>
        </g>
        <g
           id="text_8"
           style="stroke-linecap:butt;stroke-linejoin:round"
           transform="translate(-10.5)">
          <!-- loss -->
          <defs
             id="defs121">
            <path
               d="m 3.328125,25.921875 q 0,14.40625 8,21.34375 6.6875,5.765625 16.3125,5.765625 10.6875,0 17.46875,-7.015625 6.796875,-7 6.796875,-19.359375 0,-10 -3,-15.75 -3,-5.734375 -8.75,-8.90625 Q 34.421875,-1.171875 27.640625,-1.171875 16.75,-1.171875 10.03125,5.8125 3.328125,12.796875 3.328125,25.921875 Z m 9.03125,0 q 0,-9.953125 4.34375,-14.90625 4.34375,-4.953125 10.9375,-4.953125 6.546875,0 10.890625,4.96875 4.34375,4.984375 4.34375,15.1875 0,9.625 -4.375,14.578125 Q 34.125,45.75 27.640625,45.75 q -6.59375,0 -10.9375,-4.9375 -4.34375,-4.921875 -4.34375,-14.890625 z"
               id="ArialMT-6f"
               inkscape:connector-curvature="0"
               style="stroke-linecap:butt;stroke-linejoin:round" />
          </defs>
          <g
             style="fill:#262626;stroke-linecap:butt;stroke-linejoin:round"
             transform="matrix(0,-0.27,-0.27,0,102.68208,215.03595)"
             id="g131">
            <path
               style="stroke-linecap:butt;stroke-linejoin:round"
               inkscape:connector-curvature="0"
               id="use123"
               d="M 6.390625,0 V 71.578125 H 15.1875 V 0 Z" />
            <use
               x="22.216797"
               xlink:href="#ArialMT-6f"
               id="use125"
               style="stroke-linecap:butt;stroke-linejoin:round"
               y="0"
               width="100%"
               height="100%" />
            <path
               style="stroke-linecap:butt;stroke-linejoin:round"
               inkscape:connector-curvature="0"
               id="use127"
               d="m 80.910156,15.484375 8.6875,1.359375 q 0.734375,-5.21875 4.078125,-8 3.34375,-2.78125 9.359379,-2.78125 6.04687,0 8.96875,2.453125 2.9375,2.46875 2.9375,5.796875 0,2.96875 -2.59375,4.6875 -1.79688,1.171875 -8.98438,2.96875 -9.656249,2.453125 -13.390624,4.234375 -3.734375,1.78125 -5.671875,4.921875 -1.921875,3.15625 -1.921875,6.96875 0,3.453125 1.578125,6.40625 1.59375,2.96875 4.328125,4.921875 2.046875,1.5 5.578125,2.546875 3.546875,1.0625 7.609379,1.0625 6.09375,0 10.70312,-1.765625 4.625,-1.75 6.8125,-4.765625 2.20313,-3 3.03125,-8.015625 L 113.42578,37.3125 q -0.57812,4 -3.39062,6.234375 -2.8125,2.25 -7.9375,2.25 -6.046879,0 -8.640629,-2 -2.59375,-2 -2.59375,-4.6875 0,-1.703125 1.078125,-3.078125 1.078125,-1.40625 3.375,-2.34375 1.3125,-0.484375 7.765624,-2.234375 9.32813,-2.5 13,-4.09375 3.6875,-1.578125 5.78125,-4.609375 2.10938,-3.015625 2.10938,-7.515625 0,-4.390625 -2.5625,-8.28125 -2.5625,-3.875 -7.40625,-6 -4.82813,-2.125 -10.92188,-2.125 -10.109374,0 -15.406249,4.203125 -5.296875,4.203125 -6.765625,12.453125 z" />
            <path
               style="stroke-linecap:butt;stroke-linejoin:round"
               inkscape:connector-curvature="0"
               id="use129"
               d="m 130.91016,15.484375 8.6875,1.359375 q 0.73437,-5.21875 4.07812,-8 3.34375,-2.78125 9.35938,-2.78125 6.04687,0 8.96875,2.453125 2.9375,2.46875 2.9375,5.796875 0,2.96875 -2.59375,4.6875 -1.79688,1.171875 -8.98438,2.96875 -9.65625,2.453125 -13.39062,4.234375 -3.73438,1.78125 -5.67188,4.921875 -1.92187,3.15625 -1.92187,6.96875 0,3.453125 1.57812,6.40625 1.59375,2.96875 4.32813,4.921875 2.04687,1.5 5.57812,2.546875 3.54688,1.0625 7.60938,1.0625 6.09375,0 10.70312,-1.765625 4.625,-1.75 6.8125,-4.765625 2.20313,-3 3.03125,-8.015625 L 163.42578,37.3125 q -0.57812,4 -3.39062,6.234375 -2.8125,2.25 -7.9375,2.25 -6.04688,0 -8.64063,-2 -2.59375,-2 -2.59375,-4.6875 0,-1.703125 1.07813,-3.078125 1.07812,-1.40625 3.375,-2.34375 1.3125,-0.484375 7.76562,-2.234375 9.32813,-2.5 13,-4.09375 3.6875,-1.578125 5.78125,-4.609375 2.10938,-3.015625 2.10938,-7.515625 0,-4.390625 -2.5625,-8.28125 -2.5625,-3.875 -7.40625,-6 -4.82813,-2.125 -10.92188,-2.125 -10.10937,0 -15.40625,4.203125 -5.29687,4.203125 -6.76562,12.453125 z" />
          </g>
        </g>
      </g>
      <g
         id="patch_3"
         style="stroke-linecap:butt;stroke-linejoin:round">
        <path
           clip-path="url(#pdd48dd69a3)"
           d="m 157.48273,345.7649 h 76.68433 V 211.94702 h -76.68433 z"
           style="fill:#cb6d67;stroke:#ffffff;stroke-width:1.5;stroke-linecap:butt;stroke-linejoin:miter"
           id="path135"
           inkscape:connector-curvature="0" />
      </g>
      <g
         id="patch_4"
         style="stroke-linecap:butt;stroke-linejoin:round">
        <path
           clip-path="url(#pdd48dd69a3)"
           d="m 349.19355,345.7649 h 76.68433 V 100.12117 h -76.68433 z"
           style="fill:#cb6d67;stroke:#ffffff;stroke-width:1.5;stroke-linecap:butt;stroke-linejoin:miter"
           id="path138"
           inkscape:connector-curvature="0" />
      </g>
      <g
         id="patch_5"
         style="stroke-linecap:butt;stroke-linejoin:round">
        <path
           clip-path="url(#pdd48dd69a3)"
           d="m 234.16706,345.7649 h 76.68433 V 215.31757 h -76.68433 z"
           style="fill:#cbb867;stroke:#ffffff;stroke-width:1.5;stroke-linecap:butt;stroke-linejoin:miter"
           id="path141"
           inkscape:connector-curvature="0" />
      </g>
      <g
         id="patch_6"
         style="stroke-linecap:butt;stroke-linejoin:round">
        <path
           clip-path="url(#pdd48dd69a3)"
           d="m 425.87788,345.7649 h 76.68433 V 103.26541 h -76.68433 z"
           style="fill:#cbb867;stroke:#ffffff;stroke-width:1.5;stroke-linecap:butt;stroke-linejoin:miter"
           id="path144"
           inkscape:connector-curvature="0" />
      </g>
      <g
         id="line2d_5"
         style="stroke-linecap:butt;stroke-linejoin:round">
        <path
           clip-path="url(#pdd48dd69a3)"
           d="M 195.8249,251.37326 V 169.36307"
           style="fill:none;stroke:#424242;stroke-width:4.05000019;stroke-linecap:round;stroke-linejoin:round"
           id="path147"
           inkscape:connector-curvature="0" />
      </g>
      <g
         id="line2d_6"
         style="stroke-linecap:butt;stroke-linejoin:round">
        <path
           clip-path="url(#pdd48dd69a3)"
           d="M 387.53572,147.05188 V 51.030138"
           style="fill:none;stroke:#424242;stroke-width:4.05000019;stroke-linecap:round;stroke-linejoin:round"
           id="path150"
           inkscape:connector-curvature="0" />
      </g>
      <g
         id="line2d_7"
         style="stroke-linecap:butt;stroke-linejoin:round">
        <path
           clip-path="url(#pdd48dd69a3)"
           d="M 272.50923,255.08278 V 164.27767"
           style="fill:none;stroke:#424242;stroke-width:4.05000019;stroke-linecap:round;stroke-linejoin:round"
           id="path153"
           inkscape:connector-curvature="0" />
      </g>
      <g
         id="line2d_8"
         style="stroke-linecap:butt;stroke-linejoin:round">
        <path
           clip-path="url(#pdd48dd69a3)"
           d="M 464.22005,148.31554 V 57.224843"
           style="fill:none;stroke:#424242;stroke-width:4.05000019;stroke-linecap:round;stroke-linejoin:round"
           id="path156"
           inkscape:connector-curvature="0" />
      </g>
      <g
         id="patch_7"
         style="stroke-linecap:butt;stroke-linejoin:round">
        <path
           d="M 138.31165,345.7649 V 36.2934"
           style="fill:none;stroke:#cccccc;stroke-width:1.875;stroke-linecap:square;stroke-linejoin:miter"
           id="path159"
           inkscape:connector-curvature="0" />
      </g>
      <g
         id="patch_8"
         style="stroke-linecap:butt;stroke-linejoin:round">
        <path
           d="M 138.31165,345.7649 H 521.73329"
           style="fill:none;stroke:#cccccc;stroke-width:1.875;stroke-linecap:square;stroke-linejoin:miter"
           id="path162"
           inkscape:connector-curvature="0" />
      </g>
    </g>
  </g>
  <defs
     id="defs201">
    <clipPath
       id="pdd48dd69a3"
       style="stroke-linecap:butt;stroke-linejoin:round">
      <rect
         height="309.4715"
         width="383.42163"
         x="138.31165"
         y="36.2934"
         id="rect198"
         style="stroke-linecap:butt;stroke-linejoin:round" />
    </clipPath>
  </defs>
  <g
     transform="translate(-87.297488,-31.989617)"
     id="legend_1"
     style="stroke-linecap:butt;stroke-linejoin:round">
    <g
       id="g378"
       transform="translate(-180.03153,-97.558983)"
       style="stroke-linecap:butt;stroke-linejoin:round">
      <rect
         y="0.33339521"
         x="460.86465"
         height="139.42004"
         width="227.6151"
         id="rect4058"
         style="fill:#ffffff;stroke:#000000;stroke-width:0.66679043;stroke-linecap:butt;stroke-linejoin:round"
         transform="translate(87.297488,129.5486)" />
      <text
         id="text3978"
         y="30.647774"
         x="467.55917"
         style="font-style:normal;font-weight:normal;font-size:30px;line-height:1.25;font-family:sans-serif;letter-spacing:0px;word-spacing:0px;fill:#000000;fill-opacity:1;stroke:none;stroke-width:0.75;stroke-linecap:butt;stroke-linejoin:round"
         xml:space="preserve"
         transform="translate(87.297488,129.5486)"><tspan
           y="30.647774"
           x="467.55917"
           style="font-size:24px;stroke-width:0.75;stroke-linecap:butt;stroke-linejoin:round"
           id="tspan3976"
           sodipodi:role="line">tracks</tspan></text>
      <g
         style="stroke-linecap:butt;stroke-linejoin:round"
         id="patch_9">
        <path
           id="path166"
           style="fill:#cb6d67;stroke:#ffffff;stroke-width:1.5;stroke-linecap:butt;stroke-linejoin:miter"
           d="m 559.98738,208.85344 h 49.5 v -17.325 h -49.5 z"
           inkscape:connector-curvature="0" />
      </g>
      <g
         style="stroke-linecap:butt;stroke-linejoin:round"
         id="patch_10">
        <path
           id="path182"
           style="fill:#cbb867;stroke:#ffffff;stroke-width:1.5;stroke-linecap:butt;stroke-linejoin:miter"
           d="m 559.98738,243.86309 h 49.5 v -17.325 h -49.5 z"
           inkscape:connector-curvature="0" />
      </g>
      <text
         id="text287"
         y="209.64964"
         x="614.69879"
         style="font-style:normal;font-weight:normal;font-size:30px;line-height:1.25;font-family:sans-serif;letter-spacing:0px;word-spacing:0px;fill:#000000;fill-opacity:1;stroke:none;stroke-width:0.75;stroke-linecap:butt;stroke-linejoin:round"
         xml:space="preserve"><tspan
           y="209.64964"
           x="614.69879"
           style="font-size:24px;stroke-width:0.75;stroke-linecap:butt;stroke-linejoin:round"
           id="tspan285"
           sodipodi:role="line">without repl.</tspan></text>
      <text
         id="text291"
         y="241.35713"
         x="615.70453"
         style="font-style:normal;font-weight:normal;font-size:30px;line-height:1.25;font-family:sans-serif;letter-spacing:0px;word-spacing:0px;fill:#000000;fill-opacity:1;stroke:none;stroke-width:0.75;stroke-linecap:butt;stroke-linejoin:round"
         xml:space="preserve"><tspan
           y="241.35713"
           x="615.70453"
           style="font-size:24px;stroke-width:0.75;stroke-linecap:butt;stroke-linejoin:round"
           id="tspan289"
           sodipodi:role="line">with repl.</tspan></text>
    </g>
    <text
       xml:space="preserve"
       style="font-style:normal;font-weight:normal;font-size:30px;line-height:1.25;font-family:sans-serif;letter-spacing:0px;word-spacing:0px;fill:#000000;fill-opacity:1;stroke:none;stroke-width:0.75;stroke-linecap:butt;stroke-linejoin:round"
       x="173.78419"
       y="509.70126"
       id="text287-3"><tspan
         sodipodi:role="line"
         id="tspan285-6"
         style="font-size:24px;stroke-width:0.75;stroke-linecap:butt;stroke-linejoin:round"
         x="173.78419"
         y="509.70126">without repl.</tspan></text>
  </g>
</svg>
