<?xml version="1.0" encoding="utf-8" standalone="no"?>
<!DOCTYPE svg PUBLIC "-//W3C//DTD SVG 1.1//EN"
  "http://www.w3.org/Graphics/SVG/1.1/DTD/svg11.dtd">
<!-- Created with matplotlib (http://matplotlib.org/) -->
<svg height="410.466375pt" version="1.1" viewBox="0 0 1189.763828 410.466375" width="1189.763828pt" xmlns="http://www.w3.org/2000/svg" xmlns:xlink="http://www.w3.org/1999/xlink">
 <defs>
  <style type="text/css">
*{stroke-linecap:butt;stroke-linejoin:round;}
  </style>
 </defs>
 <g id="figure_1">
  <g id="patch_1">
   <path d="M 0 410.466375 
L 1189.763828 410.466375 
L 1189.763828 0 
L 0 0 
z
" style="fill:#ffffff;"/>
  </g>
  <g id="axes_1">
   <g id="patch_2">
    <path d="M 48.199828 365.199672 
L 312.00541 365.199672 
L 312.00541 23.435672 
L 48.199828 23.435672 
z
" style="fill:#eaeaf2;"/>
   </g>
   <g id="matplotlib.axis_1">
    <g id="xtick_1">
     <g id="line2d_1"/>
     <g id="text_1">
      <!-- vanilla -->
      <defs>
       <path d="M 21 0 
L 1.265625 51.859375 
L 10.546875 51.859375 
L 21.6875 20.796875 
Q 23.484375 15.765625 25 10.359375 
Q 26.171875 14.453125 28.265625 20.21875 
L 39.796875 51.859375 
L 48.828125 51.859375 
L 29.203125 0 
z
" id="ArialMT-76"/>
       <path d="M 40.4375 6.390625 
Q 35.546875 2.25 31.03125 0.53125 
Q 26.515625 -1.171875 21.34375 -1.171875 
Q 12.796875 -1.171875 8.203125 3 
Q 3.609375 7.171875 3.609375 13.671875 
Q 3.609375 17.484375 5.34375 20.625 
Q 7.078125 23.78125 9.890625 25.6875 
Q 12.703125 27.59375 16.21875 28.5625 
Q 18.796875 29.25 24.03125 29.890625 
Q 34.671875 31.15625 39.703125 32.90625 
Q 39.75 34.71875 39.75 35.203125 
Q 39.75 40.578125 37.25 42.78125 
Q 33.890625 45.75 27.25 45.75 
Q 21.046875 45.75 18.09375 43.578125 
Q 15.140625 41.40625 13.71875 35.890625 
L 5.125 37.0625 
Q 6.296875 42.578125 8.984375 45.96875 
Q 11.671875 49.359375 16.75 51.1875 
Q 21.828125 53.03125 28.515625 53.03125 
Q 35.15625 53.03125 39.296875 51.46875 
Q 43.453125 49.90625 45.40625 47.53125 
Q 47.359375 45.171875 48.140625 41.546875 
Q 48.578125 39.3125 48.578125 33.453125 
L 48.578125 21.734375 
Q 48.578125 9.46875 49.140625 6.21875 
Q 49.703125 2.984375 51.375 0 
L 42.1875 0 
Q 40.828125 2.734375 40.4375 6.390625 
z
M 39.703125 26.03125 
Q 34.90625 24.078125 25.34375 22.703125 
Q 19.921875 21.921875 17.671875 20.9375 
Q 15.4375 19.96875 14.203125 18.09375 
Q 12.984375 16.21875 12.984375 13.921875 
Q 12.984375 10.40625 15.640625 8.0625 
Q 18.3125 5.71875 23.4375 5.71875 
Q 28.515625 5.71875 32.46875 7.9375 
Q 36.421875 10.15625 38.28125 14.015625 
Q 39.703125 17 39.703125 22.796875 
z
" id="ArialMT-61"/>
       <path d="M 6.59375 0 
L 6.59375 51.859375 
L 14.5 51.859375 
L 14.5 44.484375 
Q 20.21875 53.03125 31 53.03125 
Q 35.6875 53.03125 39.625 51.34375 
Q 43.5625 49.65625 45.515625 46.921875 
Q 47.46875 44.1875 48.25 40.4375 
Q 48.734375 37.984375 48.734375 31.890625 
L 48.734375 0 
L 39.9375 0 
L 39.9375 31.546875 
Q 39.9375 36.921875 38.90625 39.578125 
Q 37.890625 42.234375 35.28125 43.8125 
Q 32.671875 45.40625 29.15625 45.40625 
Q 23.53125 45.40625 19.453125 41.84375 
Q 15.375 38.28125 15.375 28.328125 
L 15.375 0 
z
" id="ArialMT-6e"/>
       <path d="M 6.640625 61.46875 
L 6.640625 71.578125 
L 15.4375 71.578125 
L 15.4375 61.46875 
z
M 6.640625 0 
L 6.640625 51.859375 
L 15.4375 51.859375 
L 15.4375 0 
z
" id="ArialMT-69"/>
       <path d="M 6.390625 0 
L 6.390625 71.578125 
L 15.1875 71.578125 
L 15.1875 0 
z
" id="ArialMT-6c"/>
      </defs>
      <g style="fill:#262626;" transform="translate(95.724739 383.604828)scale(0.13 -0.13)">
       <use xlink:href="#ArialMT-76"/>
       <use x="50" xlink:href="#ArialMT-61"/>
       <use x="105.615234" xlink:href="#ArialMT-6e"/>
       <use x="161.230469" xlink:href="#ArialMT-69"/>
       <use x="183.447266" xlink:href="#ArialMT-6c"/>
       <use x="205.664062" xlink:href="#ArialMT-6c"/>
       <use x="227.880859" xlink:href="#ArialMT-61"/>
      </g>
     </g>
    </g>
    <g id="xtick_2">
     <g id="line2d_2"/>
     <g id="text_2">
      <!-- best -->
      <defs>
       <path d="M 14.703125 0 
L 6.546875 0 
L 6.546875 71.578125 
L 15.328125 71.578125 
L 15.328125 46.046875 
Q 20.90625 53.03125 29.546875 53.03125 
Q 34.328125 53.03125 38.59375 51.09375 
Q 42.875 49.171875 45.625 45.671875 
Q 48.390625 42.1875 49.953125 37.25 
Q 51.515625 32.328125 51.515625 26.703125 
Q 51.515625 13.375 44.921875 6.09375 
Q 38.328125 -1.171875 29.109375 -1.171875 
Q 19.921875 -1.171875 14.703125 6.5 
z
M 14.59375 26.3125 
Q 14.59375 17 17.140625 12.84375 
Q 21.296875 6.0625 28.375 6.0625 
Q 34.125 6.0625 38.328125 11.0625 
Q 42.53125 16.0625 42.53125 25.984375 
Q 42.53125 36.140625 38.5 40.96875 
Q 34.46875 45.796875 28.765625 45.796875 
Q 23 45.796875 18.796875 40.796875 
Q 14.59375 35.796875 14.59375 26.3125 
z
" id="ArialMT-62"/>
       <path d="M 42.09375 16.703125 
L 51.171875 15.578125 
Q 49.03125 7.625 43.21875 3.21875 
Q 37.40625 -1.171875 28.375 -1.171875 
Q 17 -1.171875 10.328125 5.828125 
Q 3.65625 12.84375 3.65625 25.484375 
Q 3.65625 38.578125 10.390625 45.796875 
Q 17.140625 53.03125 27.875 53.03125 
Q 38.28125 53.03125 44.875 45.953125 
Q 51.46875 38.875 51.46875 26.03125 
Q 51.46875 25.25 51.421875 23.6875 
L 12.75 23.6875 
Q 13.234375 15.140625 17.578125 10.59375 
Q 21.921875 6.0625 28.421875 6.0625 
Q 33.25 6.0625 36.671875 8.59375 
Q 40.09375 11.140625 42.09375 16.703125 
z
M 13.234375 30.90625 
L 42.1875 30.90625 
Q 41.609375 37.453125 38.875 40.71875 
Q 34.671875 45.796875 27.984375 45.796875 
Q 21.921875 45.796875 17.796875 41.75 
Q 13.671875 37.703125 13.234375 30.90625 
z
" id="ArialMT-65"/>
       <path d="M 3.078125 15.484375 
L 11.765625 16.84375 
Q 12.5 11.625 15.84375 8.84375 
Q 19.1875 6.0625 25.203125 6.0625 
Q 31.25 6.0625 34.171875 8.515625 
Q 37.109375 10.984375 37.109375 14.3125 
Q 37.109375 17.28125 34.515625 19 
Q 32.71875 20.171875 25.53125 21.96875 
Q 15.875 24.421875 12.140625 26.203125 
Q 8.40625 27.984375 6.46875 31.125 
Q 4.546875 34.28125 4.546875 38.09375 
Q 4.546875 41.546875 6.125 44.5 
Q 7.71875 47.46875 10.453125 49.421875 
Q 12.5 50.921875 16.03125 51.96875 
Q 19.578125 53.03125 23.640625 53.03125 
Q 29.734375 53.03125 34.34375 51.265625 
Q 38.96875 49.515625 41.15625 46.5 
Q 43.359375 43.5 44.1875 38.484375 
L 35.59375 37.3125 
Q 35.015625 41.3125 32.203125 43.546875 
Q 29.390625 45.796875 24.265625 45.796875 
Q 18.21875 45.796875 15.625 43.796875 
Q 13.03125 41.796875 13.03125 39.109375 
Q 13.03125 37.40625 14.109375 36.03125 
Q 15.1875 34.625 17.484375 33.6875 
Q 18.796875 33.203125 25.25 31.453125 
Q 34.578125 28.953125 38.25 27.359375 
Q 41.9375 25.78125 44.03125 22.75 
Q 46.140625 19.734375 46.140625 15.234375 
Q 46.140625 10.84375 43.578125 6.953125 
Q 41.015625 3.078125 36.171875 0.953125 
Q 31.34375 -1.171875 25.25 -1.171875 
Q 15.140625 -1.171875 9.84375 3.03125 
Q 4.546875 7.234375 3.078125 15.484375 
z
" id="ArialMT-73"/>
       <path d="M 25.78125 7.859375 
L 27.046875 0.09375 
Q 23.34375 -0.6875 20.40625 -0.6875 
Q 15.625 -0.6875 12.984375 0.828125 
Q 10.359375 2.34375 9.28125 4.8125 
Q 8.203125 7.28125 8.203125 15.1875 
L 8.203125 45.015625 
L 1.765625 45.015625 
L 1.765625 51.859375 
L 8.203125 51.859375 
L 8.203125 64.703125 
L 16.9375 69.96875 
L 16.9375 51.859375 
L 25.78125 51.859375 
L 25.78125 45.015625 
L 16.9375 45.015625 
L 16.9375 14.703125 
Q 16.9375 10.9375 17.40625 9.859375 
Q 17.875 8.796875 18.921875 8.15625 
Q 19.96875 7.515625 21.921875 7.515625 
Q 23.390625 7.515625 25.78125 7.859375 
z
" id="ArialMT-74"/>
      </defs>
      <g style="fill:#262626;" transform="translate(233.769014 383.604828)scale(0.13 -0.13)">
       <use xlink:href="#ArialMT-62"/>
       <use x="55.615234" xlink:href="#ArialMT-65"/>
       <use x="111.230469" xlink:href="#ArialMT-73"/>
       <use x="161.230469" xlink:href="#ArialMT-74"/>
      </g>
     </g>
    </g>
    <g id="text_3">
     <!-- method -->
     <defs>
      <path d="M 6.59375 0 
L 6.59375 51.859375 
L 14.453125 51.859375 
L 14.453125 44.578125 
Q 16.890625 48.390625 20.9375 50.703125 
Q 25 53.03125 30.171875 53.03125 
Q 35.9375 53.03125 39.625 50.640625 
Q 43.3125 48.25 44.828125 43.953125 
Q 50.984375 53.03125 60.84375 53.03125 
Q 68.5625 53.03125 72.703125 48.75 
Q 76.859375 44.484375 76.859375 35.59375 
L 76.859375 0 
L 68.109375 0 
L 68.109375 32.671875 
Q 68.109375 37.9375 67.25 40.25 
Q 66.40625 42.578125 64.15625 43.984375 
Q 61.921875 45.40625 58.890625 45.40625 
Q 53.421875 45.40625 49.796875 41.765625 
Q 46.1875 38.140625 46.1875 30.125 
L 46.1875 0 
L 37.40625 0 
L 37.40625 33.6875 
Q 37.40625 39.546875 35.25 42.46875 
Q 33.109375 45.40625 28.21875 45.40625 
Q 24.515625 45.40625 21.359375 43.453125 
Q 18.21875 41.5 16.796875 37.734375 
Q 15.375 33.984375 15.375 26.90625 
L 15.375 0 
z
" id="ArialMT-6d"/>
      <path d="M 6.59375 0 
L 6.59375 71.578125 
L 15.375 71.578125 
L 15.375 45.90625 
Q 21.53125 53.03125 30.90625 53.03125 
Q 36.671875 53.03125 40.921875 50.75 
Q 45.171875 48.484375 47 44.484375 
Q 48.828125 40.484375 48.828125 32.859375 
L 48.828125 0 
L 40.046875 0 
L 40.046875 32.859375 
Q 40.046875 39.453125 37.1875 42.453125 
Q 34.328125 45.453125 29.109375 45.453125 
Q 25.203125 45.453125 21.75 43.421875 
Q 18.3125 41.40625 16.84375 37.9375 
Q 15.375 34.46875 15.375 28.375 
L 15.375 0 
z
" id="ArialMT-68"/>
      <path d="M 3.328125 25.921875 
Q 3.328125 40.328125 11.328125 47.265625 
Q 18.015625 53.03125 27.640625 53.03125 
Q 38.328125 53.03125 45.109375 46.015625 
Q 51.90625 39.015625 51.90625 26.65625 
Q 51.90625 16.65625 48.90625 10.90625 
Q 45.90625 5.171875 40.15625 2 
Q 34.421875 -1.171875 27.640625 -1.171875 
Q 16.75 -1.171875 10.03125 5.8125 
Q 3.328125 12.796875 3.328125 25.921875 
z
M 12.359375 25.921875 
Q 12.359375 15.96875 16.703125 11.015625 
Q 21.046875 6.0625 27.640625 6.0625 
Q 34.1875 6.0625 38.53125 11.03125 
Q 42.875 16.015625 42.875 26.21875 
Q 42.875 35.84375 38.5 40.796875 
Q 34.125 45.75 27.640625 45.75 
Q 21.046875 45.75 16.703125 40.8125 
Q 12.359375 35.890625 12.359375 25.921875 
z
" id="ArialMT-6f"/>
      <path d="M 40.234375 0 
L 40.234375 6.546875 
Q 35.296875 -1.171875 25.734375 -1.171875 
Q 19.53125 -1.171875 14.328125 2.25 
Q 9.125 5.671875 6.265625 11.796875 
Q 3.421875 17.921875 3.421875 25.875 
Q 3.421875 33.640625 6 39.96875 
Q 8.59375 46.296875 13.765625 49.65625 
Q 18.953125 53.03125 25.34375 53.03125 
Q 30.03125 53.03125 33.6875 51.046875 
Q 37.359375 49.078125 39.65625 45.90625 
L 39.65625 71.578125 
L 48.390625 71.578125 
L 48.390625 0 
z
M 12.453125 25.875 
Q 12.453125 15.921875 16.640625 10.984375 
Q 20.84375 6.0625 26.5625 6.0625 
Q 32.328125 6.0625 36.34375 10.765625 
Q 40.375 15.484375 40.375 25.140625 
Q 40.375 35.796875 36.265625 40.765625 
Q 32.171875 45.75 26.171875 45.75 
Q 20.3125 45.75 16.375 40.96875 
Q 12.453125 36.1875 12.453125 25.875 
z
" id="ArialMT-64"/>
     </defs>
     <g style="fill:#262626;" transform="translate(156.256252 400.42425)scale(0.143 -0.143)">
      <use xlink:href="#ArialMT-6d"/>
      <use x="83.300781" xlink:href="#ArialMT-65"/>
      <use x="138.916016" xlink:href="#ArialMT-74"/>
      <use x="166.699219" xlink:href="#ArialMT-68"/>
      <use x="222.314453" xlink:href="#ArialMT-6f"/>
      <use x="277.929688" xlink:href="#ArialMT-64"/>
     </g>
    </g>
   </g>
   <g id="matplotlib.axis_2">
    <g id="ytick_1">
     <g id="line2d_3">
      <path clip-path="url(#pf3388d6dd8)" d="M 48.199828 340.755928 
L 312.00541 340.755928 
" style="fill:none;stroke:#ffffff;stroke-linecap:round;stroke-width:1.3;"/>
     </g>
     <g id="line2d_4"/>
     <g id="text_4">
      <!-- −2 -->
      <defs>
       <path d="M 52.828125 31.203125 
L 5.5625 31.203125 
L 5.5625 39.40625 
L 52.828125 39.40625 
z
" id="ArialMT-2212"/>
       <path d="M 50.34375 8.453125 
L 50.34375 0 
L 3.03125 0 
Q 2.9375 3.171875 4.046875 6.109375 
Q 5.859375 10.9375 9.828125 15.625 
Q 13.8125 20.3125 21.34375 26.46875 
Q 33.015625 36.03125 37.109375 41.625 
Q 41.21875 47.21875 41.21875 52.203125 
Q 41.21875 57.421875 37.46875 61 
Q 33.734375 64.59375 27.734375 64.59375 
Q 21.390625 64.59375 17.578125 60.78125 
Q 13.765625 56.984375 13.71875 50.25 
L 4.6875 51.171875 
Q 5.609375 61.28125 11.65625 66.578125 
Q 17.71875 71.875 27.9375 71.875 
Q 38.234375 71.875 44.234375 66.15625 
Q 50.25 60.453125 50.25 52 
Q 50.25 47.703125 48.484375 43.546875 
Q 46.734375 39.40625 42.65625 34.8125 
Q 38.578125 30.21875 29.109375 22.21875 
Q 21.1875 15.578125 18.9375 13.203125 
Q 16.703125 10.84375 15.234375 8.453125 
z
" id="ArialMT-32"/>
      </defs>
      <g style="fill:#262626;" transform="translate(24.277797 345.408507)scale(0.13 -0.13)">
       <use xlink:href="#ArialMT-2212"/>
       <use x="58.398438" xlink:href="#ArialMT-32"/>
      </g>
     </g>
    </g>
    <g id="ytick_2">
     <g id="line2d_5">
      <path clip-path="url(#pf3388d6dd8)" d="M 48.199828 283.894707 
L 312.00541 283.894707 
" style="fill:none;stroke:#ffffff;stroke-linecap:round;stroke-width:1.3;"/>
     </g>
     <g id="line2d_6"/>
     <g id="text_5">
      <!-- 0 -->
      <defs>
       <path d="M 4.15625 35.296875 
Q 4.15625 48 6.765625 55.734375 
Q 9.375 63.484375 14.515625 67.671875 
Q 19.671875 71.875 27.484375 71.875 
Q 33.25 71.875 37.59375 69.546875 
Q 41.9375 67.234375 44.765625 62.859375 
Q 47.609375 58.5 49.21875 52.21875 
Q 50.828125 45.953125 50.828125 35.296875 
Q 50.828125 22.703125 48.234375 14.96875 
Q 45.65625 7.234375 40.5 3 
Q 35.359375 -1.21875 27.484375 -1.21875 
Q 17.140625 -1.21875 11.234375 6.203125 
Q 4.15625 15.140625 4.15625 35.296875 
z
M 13.1875 35.296875 
Q 13.1875 17.671875 17.3125 11.828125 
Q 21.4375 6 27.484375 6 
Q 33.546875 6 37.671875 11.859375 
Q 41.796875 17.71875 41.796875 35.296875 
Q 41.796875 52.984375 37.671875 58.78125 
Q 33.546875 64.59375 27.390625 64.59375 
Q 21.34375 64.59375 17.71875 59.46875 
Q 13.1875 52.9375 13.1875 35.296875 
z
" id="ArialMT-30"/>
      </defs>
      <g style="fill:#262626;" transform="translate(31.870609 288.547285)scale(0.13 -0.13)">
       <use xlink:href="#ArialMT-30"/>
      </g>
     </g>
    </g>
    <g id="ytick_3">
     <g id="line2d_7">
      <path clip-path="url(#pf3388d6dd8)" d="M 48.199828 227.033486 
L 312.00541 227.033486 
" style="fill:none;stroke:#ffffff;stroke-linecap:round;stroke-width:1.3;"/>
     </g>
     <g id="line2d_8"/>
     <g id="text_6">
      <!-- 2 -->
      <g style="fill:#262626;" transform="translate(31.870609 231.686064)scale(0.13 -0.13)">
       <use xlink:href="#ArialMT-32"/>
      </g>
     </g>
    </g>
    <g id="ytick_4">
     <g id="line2d_9">
      <path clip-path="url(#pf3388d6dd8)" d="M 48.199828 170.172265 
L 312.00541 170.172265 
" style="fill:none;stroke:#ffffff;stroke-linecap:round;stroke-width:1.3;"/>
     </g>
     <g id="line2d_10"/>
     <g id="text_7">
      <!-- 4 -->
      <defs>
       <path d="M 32.328125 0 
L 32.328125 17.140625 
L 1.265625 17.140625 
L 1.265625 25.203125 
L 33.9375 71.578125 
L 41.109375 71.578125 
L 41.109375 25.203125 
L 50.78125 25.203125 
L 50.78125 17.140625 
L 41.109375 17.140625 
L 41.109375 0 
z
M 32.328125 25.203125 
L 32.328125 57.46875 
L 9.90625 25.203125 
z
" id="ArialMT-34"/>
      </defs>
      <g style="fill:#262626;" transform="translate(31.870609 174.824843)scale(0.13 -0.13)">
       <use xlink:href="#ArialMT-34"/>
      </g>
     </g>
    </g>
    <g id="ytick_5">
     <g id="line2d_11">
      <path clip-path="url(#pf3388d6dd8)" d="M 48.199828 113.311044 
L 312.00541 113.311044 
" style="fill:none;stroke:#ffffff;stroke-linecap:round;stroke-width:1.3;"/>
     </g>
     <g id="line2d_12"/>
     <g id="text_8">
      <!-- 6 -->
      <defs>
       <path d="M 49.75 54.046875 
L 41.015625 53.375 
Q 39.84375 58.546875 37.703125 60.890625 
Q 34.125 64.65625 28.90625 64.65625 
Q 24.703125 64.65625 21.53125 62.3125 
Q 17.390625 59.28125 14.984375 53.46875 
Q 12.59375 47.65625 12.5 36.921875 
Q 15.671875 41.75 20.265625 44.09375 
Q 24.859375 46.4375 29.890625 46.4375 
Q 38.671875 46.4375 44.84375 39.96875 
Q 51.03125 33.5 51.03125 23.25 
Q 51.03125 16.5 48.125 10.71875 
Q 45.21875 4.9375 40.140625 1.859375 
Q 35.0625 -1.21875 28.609375 -1.21875 
Q 17.625 -1.21875 10.6875 6.859375 
Q 3.765625 14.9375 3.765625 33.5 
Q 3.765625 54.25 11.421875 63.671875 
Q 18.109375 71.875 29.4375 71.875 
Q 37.890625 71.875 43.28125 67.140625 
Q 48.6875 62.40625 49.75 54.046875 
z
M 13.875 23.1875 
Q 13.875 18.65625 15.796875 14.5 
Q 17.71875 10.359375 21.1875 8.171875 
Q 24.65625 6 28.46875 6 
Q 34.03125 6 38.03125 10.484375 
Q 42.046875 14.984375 42.046875 22.703125 
Q 42.046875 30.125 38.078125 34.390625 
Q 34.125 38.671875 28.125 38.671875 
Q 22.171875 38.671875 18.015625 34.390625 
Q 13.875 30.125 13.875 23.1875 
z
" id="ArialMT-36"/>
      </defs>
      <g style="fill:#262626;" transform="translate(31.870609 117.963622)scale(0.13 -0.13)">
       <use xlink:href="#ArialMT-36"/>
      </g>
     </g>
    </g>
    <g id="ytick_6">
     <g id="line2d_13">
      <path clip-path="url(#pf3388d6dd8)" d="M 48.199828 56.449823 
L 312.00541 56.449823 
" style="fill:none;stroke:#ffffff;stroke-linecap:round;stroke-width:1.3;"/>
     </g>
     <g id="line2d_14"/>
     <g id="text_9">
      <!-- 8 -->
      <defs>
       <path d="M 17.671875 38.8125 
Q 12.203125 40.828125 9.5625 44.53125 
Q 6.9375 48.25 6.9375 53.421875 
Q 6.9375 61.234375 12.546875 66.546875 
Q 18.171875 71.875 27.484375 71.875 
Q 36.859375 71.875 42.578125 66.421875 
Q 48.296875 60.984375 48.296875 53.171875 
Q 48.296875 48.1875 45.671875 44.5 
Q 43.0625 40.828125 37.75 38.8125 
Q 44.34375 36.671875 47.78125 31.875 
Q 51.21875 27.09375 51.21875 20.453125 
Q 51.21875 11.28125 44.71875 5.03125 
Q 38.234375 -1.21875 27.640625 -1.21875 
Q 17.046875 -1.21875 10.546875 5.046875 
Q 4.046875 11.328125 4.046875 20.703125 
Q 4.046875 27.6875 7.59375 32.390625 
Q 11.140625 37.109375 17.671875 38.8125 
z
M 15.921875 53.71875 
Q 15.921875 48.640625 19.1875 45.40625 
Q 22.46875 42.1875 27.6875 42.1875 
Q 32.765625 42.1875 36.015625 45.375 
Q 39.265625 48.578125 39.265625 53.21875 
Q 39.265625 58.0625 35.90625 61.359375 
Q 32.5625 64.65625 27.59375 64.65625 
Q 22.5625 64.65625 19.234375 61.421875 
Q 15.921875 58.203125 15.921875 53.71875 
z
M 13.09375 20.65625 
Q 13.09375 16.890625 14.875 13.375 
Q 16.65625 9.859375 20.171875 7.921875 
Q 23.6875 6 27.734375 6 
Q 34.03125 6 38.125 10.046875 
Q 42.234375 14.109375 42.234375 20.359375 
Q 42.234375 26.703125 38.015625 30.859375 
Q 33.796875 35.015625 27.4375 35.015625 
Q 21.234375 35.015625 17.15625 30.90625 
Q 13.09375 26.8125 13.09375 20.65625 
z
" id="ArialMT-38"/>
      </defs>
      <g style="fill:#262626;" transform="translate(31.870609 61.102401)scale(0.13 -0.13)">
       <use xlink:href="#ArialMT-38"/>
      </g>
     </g>
    </g>
    <g id="text_10">
     <!-- score -->
     <defs>
      <path d="M 40.4375 19 
L 49.078125 17.875 
Q 47.65625 8.9375 41.8125 3.875 
Q 35.984375 -1.171875 27.484375 -1.171875 
Q 16.84375 -1.171875 10.375 5.78125 
Q 3.90625 12.75 3.90625 25.734375 
Q 3.90625 34.125 6.6875 40.421875 
Q 9.46875 46.734375 15.15625 49.875 
Q 20.84375 53.03125 27.546875 53.03125 
Q 35.984375 53.03125 41.359375 48.75 
Q 46.734375 44.484375 48.25 36.625 
L 39.703125 35.296875 
Q 38.484375 40.53125 35.375 43.15625 
Q 32.28125 45.796875 27.875 45.796875 
Q 21.234375 45.796875 17.078125 41.03125 
Q 12.9375 36.28125 12.9375 25.984375 
Q 12.9375 15.53125 16.9375 10.796875 
Q 20.953125 6.0625 27.390625 6.0625 
Q 32.5625 6.0625 36.03125 9.234375 
Q 39.5 12.40625 40.4375 19 
z
" id="ArialMT-63"/>
      <path d="M 6.5 0 
L 6.5 51.859375 
L 14.40625 51.859375 
L 14.40625 44 
Q 17.4375 49.515625 20 51.265625 
Q 22.5625 53.03125 25.640625 53.03125 
Q 30.078125 53.03125 34.671875 50.203125 
L 31.640625 42.046875 
Q 28.421875 43.953125 25.203125 43.953125 
Q 22.3125 43.953125 20.015625 42.21875 
Q 17.71875 40.484375 16.75 37.40625 
Q 15.28125 32.71875 15.28125 27.15625 
L 15.28125 0 
z
" id="ArialMT-72"/>
     </defs>
     <g style="fill:#262626;" transform="translate(17.435672 211.800539)rotate(-90)scale(0.143 -0.143)">
      <use xlink:href="#ArialMT-73"/>
      <use x="50" xlink:href="#ArialMT-63"/>
      <use x="100" xlink:href="#ArialMT-6f"/>
      <use x="155.615234" xlink:href="#ArialMT-72"/>
      <use x="188.916016" xlink:href="#ArialMT-65"/>
     </g>
    </g>
   </g>
   <g id="patch_3">
    <path clip-path="url(#pf3388d6dd8)" d="M 61.390107 233.199233 
L 166.91234 233.199233 
L 166.91234 203.110792 
L 140.531782 194.442767 
L 166.91234 185.774741 
L 166.91234 155.119998 
L 61.390107 155.119998 
L 61.390107 185.774741 
L 87.770665 194.442767 
L 61.390107 203.110792 
L 61.390107 233.199233 
z
" style="fill:#5875a4;stroke:#4c4c4c;stroke-linejoin:miter;stroke-width:2.275;"/>
   </g>
   <g id="patch_4">
    <path clip-path="url(#pf3388d6dd8)" d="M 193.292898 226.21305 
L 298.81513 226.21305 
L 298.81513 196.932885 
L 272.434572 188.564454 
L 298.81513 180.196022 
L 298.81513 150.832484 
L 193.292898 150.832484 
L 193.292898 180.196022 
L 219.673456 188.564454 
L 193.292898 196.932885 
L 193.292898 226.21305 
z
" style="fill:#5875a4;stroke:#4c4c4c;stroke-linejoin:miter;stroke-width:2.275;"/>
   </g>
   <g id="line2d_15">
    <path clip-path="url(#pf3388d6dd8)" d="M 114.151223 233.199233 
L 114.151223 349.664945 
" style="fill:none;stroke:#4c4c4c;stroke-linecap:round;stroke-width:2.275;"/>
   </g>
   <g id="line2d_16">
    <path clip-path="url(#pf3388d6dd8)" d="M 114.151223 155.119998 
L 114.151223 38.970399 
" style="fill:none;stroke:#4c4c4c;stroke-linecap:round;stroke-width:2.275;"/>
   </g>
   <g id="line2d_17">
    <path clip-path="url(#pf3388d6dd8)" d="M 87.770665 349.664945 
L 140.531782 349.664945 
" style="fill:none;stroke:#4c4c4c;stroke-linecap:round;stroke-width:2.275;"/>
   </g>
   <g id="line2d_18">
    <path clip-path="url(#pf3388d6dd8)" d="M 87.770665 38.970399 
L 140.531782 38.970399 
" style="fill:none;stroke:#4c4c4c;stroke-linecap:round;stroke-width:2.275;"/>
   </g>
   <g id="line2d_19">
    <path clip-path="url(#pf3388d6dd8)" d="M 246.054014 226.21305 
L 246.054014 321.333557 
" style="fill:none;stroke:#4c4c4c;stroke-linecap:round;stroke-width:2.275;"/>
   </g>
   <g id="line2d_20">
    <path clip-path="url(#pf3388d6dd8)" d="M 246.054014 150.832484 
L 246.054014 40.97959 
" style="fill:none;stroke:#4c4c4c;stroke-linecap:round;stroke-width:2.275;"/>
   </g>
   <g id="line2d_21">
    <path clip-path="url(#pf3388d6dd8)" d="M 219.673456 321.333557 
L 272.434572 321.333557 
" style="fill:none;stroke:#4c4c4c;stroke-linecap:round;stroke-width:2.275;"/>
   </g>
   <g id="line2d_22">
    <path clip-path="url(#pf3388d6dd8)" d="M 219.673456 40.97959 
L 272.434572 40.97959 
" style="fill:none;stroke:#4c4c4c;stroke-linecap:round;stroke-width:2.275;"/>
   </g>
   <g id="line2d_23">
    <path clip-path="url(#pf3388d6dd8)" d="M 87.770665 194.442767 
L 140.531782 194.442767 
" style="fill:none;stroke:#4c4c4c;stroke-linecap:round;stroke-width:2.275;"/>
   </g>
   <g id="line2d_24">
    <path clip-path="url(#pf3388d6dd8)" d="M 219.673456 188.564454 
L 272.434572 188.564454 
" style="fill:none;stroke:#4c4c4c;stroke-linecap:round;stroke-width:2.275;"/>
   </g>
   <g id="patch_5">
    <path d="M 48.199828 365.199672 
L 48.199828 23.435672 
" style="fill:none;"/>
   </g>
   <g id="patch_6">
    <path d="M 48.199828 365.199672 
L 312.00541 365.199672 
" style="fill:none;"/>
   </g>
   <g id="text_11">
    <!-- metric = SDR -->
    <defs>
     <path id="ArialMT-20"/>
     <path d="M 52.828125 42.09375 
L 5.5625 42.09375 
L 5.5625 50.296875 
L 52.828125 50.296875 
z
M 52.828125 20.359375 
L 5.5625 20.359375 
L 5.5625 28.5625 
L 52.828125 28.5625 
z
" id="ArialMT-3d"/>
     <path d="M 4.5 23 
L 13.421875 23.78125 
Q 14.0625 18.40625 16.375 14.96875 
Q 18.703125 11.53125 23.578125 9.40625 
Q 28.46875 7.28125 34.578125 7.28125 
Q 39.984375 7.28125 44.140625 8.890625 
Q 48.296875 10.5 50.3125 13.296875 
Q 52.34375 16.109375 52.34375 19.4375 
Q 52.34375 22.796875 50.390625 25.3125 
Q 48.4375 27.828125 43.953125 29.546875 
Q 41.0625 30.671875 31.203125 33.03125 
Q 21.34375 35.40625 17.390625 37.5 
Q 12.25 40.1875 9.734375 44.15625 
Q 7.234375 48.140625 7.234375 53.078125 
Q 7.234375 58.5 10.296875 63.203125 
Q 13.375 67.921875 19.28125 70.359375 
Q 25.203125 72.796875 32.421875 72.796875 
Q 40.375 72.796875 46.453125 70.234375 
Q 52.546875 67.671875 55.8125 62.6875 
Q 59.078125 57.71875 59.328125 51.421875 
L 50.25 50.734375 
Q 49.515625 57.515625 45.28125 60.984375 
Q 41.0625 64.453125 32.8125 64.453125 
Q 24.21875 64.453125 20.28125 61.296875 
Q 16.359375 58.15625 16.359375 53.71875 
Q 16.359375 49.859375 19.140625 47.359375 
Q 21.875 44.875 33.421875 42.265625 
Q 44.96875 39.65625 49.265625 37.703125 
Q 55.515625 34.8125 58.484375 30.390625 
Q 61.46875 25.984375 61.46875 20.21875 
Q 61.46875 14.5 58.203125 9.4375 
Q 54.9375 4.390625 48.796875 1.578125 
Q 42.671875 -1.21875 35.015625 -1.21875 
Q 25.296875 -1.21875 18.71875 1.609375 
Q 12.15625 4.4375 8.421875 10.125 
Q 4.6875 15.828125 4.5 23 
z
" id="ArialMT-53"/>
     <path d="M 7.71875 0 
L 7.71875 71.578125 
L 32.375 71.578125 
Q 40.71875 71.578125 45.125 70.5625 
Q 51.265625 69.140625 55.609375 65.4375 
Q 61.28125 60.640625 64.078125 53.1875 
Q 66.890625 45.75 66.890625 36.1875 
Q 66.890625 28.03125 64.984375 21.734375 
Q 63.09375 15.4375 60.109375 11.296875 
Q 57.125 7.171875 53.578125 4.796875 
Q 50.046875 2.4375 45.046875 1.21875 
Q 40.046875 0 33.546875 0 
z
M 17.1875 8.453125 
L 32.46875 8.453125 
Q 39.546875 8.453125 43.578125 9.765625 
Q 47.609375 11.078125 50 13.484375 
Q 53.375 16.84375 55.25 22.53125 
Q 57.125 28.21875 57.125 36.328125 
Q 57.125 47.5625 53.4375 53.59375 
Q 49.75 59.625 44.484375 61.671875 
Q 40.671875 63.140625 32.234375 63.140625 
L 17.1875 63.140625 
z
" id="ArialMT-44"/>
     <path d="M 7.859375 0 
L 7.859375 71.578125 
L 39.59375 71.578125 
Q 49.171875 71.578125 54.140625 69.640625 
Q 59.125 67.71875 62.109375 62.828125 
Q 65.09375 57.953125 65.09375 52.046875 
Q 65.09375 44.4375 60.15625 39.203125 
Q 55.21875 33.984375 44.921875 32.5625 
Q 48.6875 30.765625 50.640625 29 
Q 54.78125 25.203125 58.5 19.484375 
L 70.953125 0 
L 59.03125 0 
L 49.5625 14.890625 
Q 45.40625 21.34375 42.71875 24.75 
Q 40.046875 28.171875 37.921875 29.53125 
Q 35.796875 30.90625 33.59375 31.453125 
Q 31.984375 31.78125 28.328125 31.78125 
L 17.328125 31.78125 
L 17.328125 0 
z
M 17.328125 39.984375 
L 37.703125 39.984375 
Q 44.1875 39.984375 47.84375 41.328125 
Q 51.515625 42.671875 53.421875 45.625 
Q 55.328125 48.578125 55.328125 52.046875 
Q 55.328125 57.125 51.640625 60.390625 
Q 47.953125 63.671875 39.984375 63.671875 
L 17.328125 63.671875 
z
" id="ArialMT-52"/>
    </defs>
    <g style="fill:#262626;" transform="translate(137.394775 17.435672)scale(0.143 -0.143)">
     <use xlink:href="#ArialMT-6d"/>
     <use x="83.300781" xlink:href="#ArialMT-65"/>
     <use x="138.916016" xlink:href="#ArialMT-74"/>
     <use x="166.699219" xlink:href="#ArialMT-72"/>
     <use x="200" xlink:href="#ArialMT-69"/>
     <use x="222.216797" xlink:href="#ArialMT-63"/>
     <use x="272.216797" xlink:href="#ArialMT-20"/>
     <use x="300" xlink:href="#ArialMT-3d"/>
     <use x="358.398438" xlink:href="#ArialMT-20"/>
     <use x="386.181641" xlink:href="#ArialMT-53"/>
     <use x="452.880859" xlink:href="#ArialMT-44"/>
     <use x="525.097656" xlink:href="#ArialMT-52"/>
    </g>
   </g>
  </g>
  <g id="axes_2">
   <g id="patch_7">
    <path d="M 338.385968 365.199672 
L 602.191549 365.199672 
L 602.191549 23.435672 
L 338.385968 23.435672 
z
" style="fill:#eaeaf2;"/>
   </g>
   <g id="matplotlib.axis_3">
    <g id="xtick_3">
     <g id="line2d_25"/>
     <g id="text_12">
      <!-- vanilla -->
      <g style="fill:#262626;" transform="translate(385.910879 383.604828)scale(0.13 -0.13)">
       <use xlink:href="#ArialMT-76"/>
       <use x="50" xlink:href="#ArialMT-61"/>
       <use x="105.615234" xlink:href="#ArialMT-6e"/>
       <use x="161.230469" xlink:href="#ArialMT-69"/>
       <use x="183.447266" xlink:href="#ArialMT-6c"/>
       <use x="205.664062" xlink:href="#ArialMT-6c"/>
       <use x="227.880859" xlink:href="#ArialMT-61"/>
      </g>
     </g>
    </g>
    <g id="xtick_4">
     <g id="line2d_26"/>
     <g id="text_13">
      <!-- best -->
      <g style="fill:#262626;" transform="translate(523.955154 383.604828)scale(0.13 -0.13)">
       <use xlink:href="#ArialMT-62"/>
       <use x="55.615234" xlink:href="#ArialMT-65"/>
       <use x="111.230469" xlink:href="#ArialMT-73"/>
       <use x="161.230469" xlink:href="#ArialMT-74"/>
      </g>
     </g>
    </g>
    <g id="text_14">
     <!-- method -->
     <g style="fill:#262626;" transform="translate(446.442391 400.42425)scale(0.143 -0.143)">
      <use xlink:href="#ArialMT-6d"/>
      <use x="83.300781" xlink:href="#ArialMT-65"/>
      <use x="138.916016" xlink:href="#ArialMT-74"/>
      <use x="166.699219" xlink:href="#ArialMT-68"/>
      <use x="222.314453" xlink:href="#ArialMT-6f"/>
      <use x="277.929688" xlink:href="#ArialMT-64"/>
     </g>
    </g>
   </g>
   <g id="matplotlib.axis_4">
    <g id="ytick_7">
     <g id="line2d_27">
      <path clip-path="url(#p86a6ca31b4)" d="M 338.385968 303.746065 
L 602.191549 303.746065 
" style="fill:none;stroke:#ffffff;stroke-linecap:round;stroke-width:1.3;"/>
     </g>
     <g id="line2d_28"/>
     <g id="text_15">
      <!-- −5 -->
      <defs>
       <path d="M 4.15625 18.75 
L 13.375 19.53125 
Q 14.40625 12.796875 18.140625 9.390625 
Q 21.875 6 27.15625 6 
Q 33.5 6 37.890625 10.78125 
Q 42.28125 15.578125 42.28125 23.484375 
Q 42.28125 31 38.0625 35.34375 
Q 33.84375 39.703125 27 39.703125 
Q 22.75 39.703125 19.328125 37.765625 
Q 15.921875 35.84375 13.96875 32.765625 
L 5.71875 33.84375 
L 12.640625 70.609375 
L 48.25 70.609375 
L 48.25 62.203125 
L 19.671875 62.203125 
L 15.828125 42.96875 
Q 22.265625 47.46875 29.34375 47.46875 
Q 38.71875 47.46875 45.15625 40.96875 
Q 51.609375 34.46875 51.609375 24.265625 
Q 51.609375 14.546875 45.953125 7.46875 
Q 39.0625 -1.21875 27.15625 -1.21875 
Q 17.390625 -1.21875 11.203125 4.25 
Q 5.03125 9.71875 4.15625 18.75 
z
" id="ArialMT-35"/>
      </defs>
      <g style="fill:#262626;" transform="translate(314.463936 308.398644)scale(0.13 -0.13)">
       <use xlink:href="#ArialMT-2212"/>
       <use x="58.398438" xlink:href="#ArialMT-35"/>
      </g>
     </g>
    </g>
    <g id="ytick_8">
     <g id="line2d_29">
      <path clip-path="url(#p86a6ca31b4)" d="M 338.385968 240.059183 
L 602.191549 240.059183 
" style="fill:none;stroke:#ffffff;stroke-linecap:round;stroke-width:1.3;"/>
     </g>
     <g id="line2d_30"/>
     <g id="text_16">
      <!-- 0 -->
      <g style="fill:#262626;" transform="translate(322.056749 244.711761)scale(0.13 -0.13)">
       <use xlink:href="#ArialMT-30"/>
      </g>
     </g>
    </g>
    <g id="ytick_9">
     <g id="line2d_31">
      <path clip-path="url(#p86a6ca31b4)" d="M 338.385968 176.372301 
L 602.191549 176.372301 
" style="fill:none;stroke:#ffffff;stroke-linecap:round;stroke-width:1.3;"/>
     </g>
     <g id="line2d_32"/>
     <g id="text_17">
      <!-- 5 -->
      <g style="fill:#262626;" transform="translate(322.056749 181.024879)scale(0.13 -0.13)">
       <use xlink:href="#ArialMT-35"/>
      </g>
     </g>
    </g>
    <g id="ytick_10">
     <g id="line2d_33">
      <path clip-path="url(#p86a6ca31b4)" d="M 338.385968 112.685418 
L 602.191549 112.685418 
" style="fill:none;stroke:#ffffff;stroke-linecap:round;stroke-width:1.3;"/>
     </g>
     <g id="line2d_34"/>
     <g id="text_18">
      <!-- 10 -->
      <defs>
       <path d="M 37.25 0 
L 28.46875 0 
L 28.46875 56 
Q 25.296875 52.984375 20.140625 49.953125 
Q 14.984375 46.921875 10.890625 45.40625 
L 10.890625 53.90625 
Q 18.265625 57.375 23.78125 62.296875 
Q 29.296875 67.234375 31.59375 71.875 
L 37.25 71.875 
z
" id="ArialMT-31"/>
      </defs>
      <g style="fill:#262626;" transform="translate(314.82753 117.337996)scale(0.13 -0.13)">
       <use xlink:href="#ArialMT-31"/>
       <use x="55.615234" xlink:href="#ArialMT-30"/>
      </g>
     </g>
    </g>
    <g id="ytick_11">
     <g id="line2d_35">
      <path clip-path="url(#p86a6ca31b4)" d="M 338.385968 48.998536 
L 602.191549 48.998536 
" style="fill:none;stroke:#ffffff;stroke-linecap:round;stroke-width:1.3;"/>
     </g>
     <g id="line2d_36"/>
     <g id="text_19">
      <!-- 15 -->
      <g style="fill:#262626;" transform="translate(314.82753 53.651114)scale(0.13 -0.13)">
       <use xlink:href="#ArialMT-31"/>
       <use x="55.615234" xlink:href="#ArialMT-35"/>
      </g>
     </g>
    </g>
   </g>
   <g id="patch_8">
    <path clip-path="url(#p86a6ca31b4)" d="M 351.576247 236.147535 
L 457.098479 236.147535 
L 457.098479 206.342216 
L 430.717921 197.811821 
L 457.098479 189.281425 
L 457.098479 159.308037 
L 351.576247 159.308037 
L 351.576247 189.281425 
L 377.956805 197.811821 
L 351.576247 206.342216 
L 351.576247 236.147535 
z
" style="fill:#5875a4;stroke:#4c4c4c;stroke-linejoin:miter;stroke-width:2.275;"/>
   </g>
   <g id="patch_9">
    <path clip-path="url(#p86a6ca31b4)" d="M 483.479037 233.022579 
L 589.00127 233.022579 
L 589.00127 203.744193 
L 562.620712 194.869901 
L 589.00127 185.995608 
L 589.00127 153.085351 
L 483.479037 153.085351 
L 483.479037 185.995608 
L 509.859596 194.869901 
L 483.479037 203.744193 
L 483.479037 233.022579 
z
" style="fill:#5875a4;stroke:#4c4c4c;stroke-linejoin:miter;stroke-width:2.275;"/>
   </g>
   <g id="line2d_37">
    <path clip-path="url(#p86a6ca31b4)" d="M 404.337363 236.147535 
L 404.337363 337.257211 
" style="fill:none;stroke:#4c4c4c;stroke-linecap:round;stroke-width:2.275;"/>
   </g>
   <g id="line2d_38">
    <path clip-path="url(#p86a6ca31b4)" d="M 404.337363 159.308037 
L 404.337363 56.468115 
" style="fill:none;stroke:#4c4c4c;stroke-linecap:round;stroke-width:2.275;"/>
   </g>
   <g id="line2d_39">
    <path clip-path="url(#p86a6ca31b4)" d="M 377.956805 337.257211 
L 430.717921 337.257211 
" style="fill:none;stroke:#4c4c4c;stroke-linecap:round;stroke-width:2.275;"/>
   </g>
   <g id="line2d_40">
    <path clip-path="url(#p86a6ca31b4)" d="M 377.956805 56.468115 
L 430.717921 56.468115 
" style="fill:none;stroke:#4c4c4c;stroke-linecap:round;stroke-width:2.275;"/>
   </g>
   <g id="line2d_41">
    <path clip-path="url(#p86a6ca31b4)" d="M 536.240154 233.022579 
L 536.240154 349.664945 
" style="fill:none;stroke:#4c4c4c;stroke-linecap:round;stroke-width:2.275;"/>
   </g>
   <g id="line2d_42">
    <path clip-path="url(#p86a6ca31b4)" d="M 536.240154 153.085351 
L 536.240154 38.970399 
" style="fill:none;stroke:#4c4c4c;stroke-linecap:round;stroke-width:2.275;"/>
   </g>
   <g id="line2d_43">
    <path clip-path="url(#p86a6ca31b4)" d="M 509.859596 349.664945 
L 562.620712 349.664945 
" style="fill:none;stroke:#4c4c4c;stroke-linecap:round;stroke-width:2.275;"/>
   </g>
   <g id="line2d_44">
    <path clip-path="url(#p86a6ca31b4)" d="M 509.859596 38.970399 
L 562.620712 38.970399 
" style="fill:none;stroke:#4c4c4c;stroke-linecap:round;stroke-width:2.275;"/>
   </g>
   <g id="line2d_45">
    <path clip-path="url(#p86a6ca31b4)" d="M 377.956805 197.811821 
L 430.717921 197.811821 
" style="fill:none;stroke:#4c4c4c;stroke-linecap:round;stroke-width:2.275;"/>
   </g>
   <g id="line2d_46">
    <path clip-path="url(#p86a6ca31b4)" d="M 509.859596 194.869901 
L 562.620712 194.869901 
" style="fill:none;stroke:#4c4c4c;stroke-linecap:round;stroke-width:2.275;"/>
   </g>
   <g id="patch_10">
    <path d="M 338.385968 365.199672 
L 338.385968 23.435672 
" style="fill:none;"/>
   </g>
   <g id="patch_11">
    <path d="M 338.385968 365.199672 
L 602.191549 365.199672 
" style="fill:none;"/>
   </g>
   <g id="text_20">
    <!-- metric = SIR -->
    <defs>
     <path d="M 9.328125 0 
L 9.328125 71.578125 
L 18.796875 71.578125 
L 18.796875 0 
z
" id="ArialMT-49"/>
    </defs>
    <g style="fill:#262626;" transform="translate(430.758196 17.435672)scale(0.143 -0.143)">
     <use xlink:href="#ArialMT-6d"/>
     <use x="83.300781" xlink:href="#ArialMT-65"/>
     <use x="138.916016" xlink:href="#ArialMT-74"/>
     <use x="166.699219" xlink:href="#ArialMT-72"/>
     <use x="200" xlink:href="#ArialMT-69"/>
     <use x="222.216797" xlink:href="#ArialMT-63"/>
     <use x="272.216797" xlink:href="#ArialMT-20"/>
     <use x="300" xlink:href="#ArialMT-3d"/>
     <use x="358.398438" xlink:href="#ArialMT-20"/>
     <use x="386.181641" xlink:href="#ArialMT-53"/>
     <use x="452.880859" xlink:href="#ArialMT-49"/>
     <use x="480.664062" xlink:href="#ArialMT-52"/>
    </g>
   </g>
  </g>
  <g id="axes_3">
   <g id="patch_12">
    <path d="M 628.572107 365.199672 
L 892.377689 365.199672 
L 892.377689 23.435672 
L 628.572107 23.435672 
z
" style="fill:#eaeaf2;"/>
   </g>
   <g id="matplotlib.axis_5">
    <g id="xtick_5">
     <g id="line2d_47"/>
     <g id="text_21">
      <!-- vanilla -->
      <g style="fill:#262626;" transform="translate(676.097018 383.604828)scale(0.13 -0.13)">
       <use xlink:href="#ArialMT-76"/>
       <use x="50" xlink:href="#ArialMT-61"/>
       <use x="105.615234" xlink:href="#ArialMT-6e"/>
       <use x="161.230469" xlink:href="#ArialMT-69"/>
       <use x="183.447266" xlink:href="#ArialMT-6c"/>
       <use x="205.664062" xlink:href="#ArialMT-6c"/>
       <use x="227.880859" xlink:href="#ArialMT-61"/>
      </g>
     </g>
    </g>
    <g id="xtick_6">
     <g id="line2d_48"/>
     <g id="text_22">
      <!-- best -->
      <g style="fill:#262626;" transform="translate(814.141293 383.604828)scale(0.13 -0.13)">
       <use xlink:href="#ArialMT-62"/>
       <use x="55.615234" xlink:href="#ArialMT-65"/>
       <use x="111.230469" xlink:href="#ArialMT-73"/>
       <use x="161.230469" xlink:href="#ArialMT-74"/>
      </g>
     </g>
    </g>
    <g id="text_23">
     <!-- method -->
     <g style="fill:#262626;" transform="translate(736.628531 400.42425)scale(0.143 -0.143)">
      <use xlink:href="#ArialMT-6d"/>
      <use x="83.300781" xlink:href="#ArialMT-65"/>
      <use x="138.916016" xlink:href="#ArialMT-74"/>
      <use x="166.699219" xlink:href="#ArialMT-68"/>
      <use x="222.314453" xlink:href="#ArialMT-6f"/>
      <use x="277.929688" xlink:href="#ArialMT-64"/>
     </g>
    </g>
   </g>
   <g id="matplotlib.axis_6">
    <g id="ytick_12">
     <g id="line2d_49">
      <path clip-path="url(#pe750508df6)" d="M 628.572107 354.089529 
L 892.377689 354.089529 
" style="fill:none;stroke:#ffffff;stroke-linecap:round;stroke-width:1.3;"/>
     </g>
     <g id="line2d_50"/>
     <g id="text_24">
      <!-- 0 -->
      <g style="fill:#262626;" transform="translate(612.242888 358.742107)scale(0.13 -0.13)">
       <use xlink:href="#ArialMT-30"/>
      </g>
     </g>
    </g>
    <g id="ytick_13">
     <g id="line2d_51">
      <path clip-path="url(#pe750508df6)" d="M 628.572107 295.821482 
L 892.377689 295.821482 
" style="fill:none;stroke:#ffffff;stroke-linecap:round;stroke-width:1.3;"/>
     </g>
     <g id="line2d_52"/>
     <g id="text_25">
      <!-- 2 -->
      <g style="fill:#262626;" transform="translate(612.242888 300.474061)scale(0.13 -0.13)">
       <use xlink:href="#ArialMT-32"/>
      </g>
     </g>
    </g>
    <g id="ytick_14">
     <g id="line2d_53">
      <path clip-path="url(#pe750508df6)" d="M 628.572107 237.553436 
L 892.377689 237.553436 
" style="fill:none;stroke:#ffffff;stroke-linecap:round;stroke-width:1.3;"/>
     </g>
     <g id="line2d_54"/>
     <g id="text_26">
      <!-- 4 -->
      <g style="fill:#262626;" transform="translate(612.242888 242.206014)scale(0.13 -0.13)">
       <use xlink:href="#ArialMT-34"/>
      </g>
     </g>
    </g>
    <g id="ytick_15">
     <g id="line2d_55">
      <path clip-path="url(#pe750508df6)" d="M 628.572107 179.28539 
L 892.377689 179.28539 
" style="fill:none;stroke:#ffffff;stroke-linecap:round;stroke-width:1.3;"/>
     </g>
     <g id="line2d_56"/>
     <g id="text_27">
      <!-- 6 -->
      <g style="fill:#262626;" transform="translate(612.242888 183.937968)scale(0.13 -0.13)">
       <use xlink:href="#ArialMT-36"/>
      </g>
     </g>
    </g>
    <g id="ytick_16">
     <g id="line2d_57">
      <path clip-path="url(#pe750508df6)" d="M 628.572107 121.017344 
L 892.377689 121.017344 
" style="fill:none;stroke:#ffffff;stroke-linecap:round;stroke-width:1.3;"/>
     </g>
     <g id="line2d_58"/>
     <g id="text_28">
      <!-- 8 -->
      <g style="fill:#262626;" transform="translate(612.242888 125.669922)scale(0.13 -0.13)">
       <use xlink:href="#ArialMT-38"/>
      </g>
     </g>
    </g>
    <g id="ytick_17">
     <g id="line2d_59">
      <path clip-path="url(#pe750508df6)" d="M 628.572107 62.749297 
L 892.377689 62.749297 
" style="fill:none;stroke:#ffffff;stroke-linecap:round;stroke-width:1.3;"/>
     </g>
     <g id="line2d_60"/>
     <g id="text_29">
      <!-- 10 -->
      <g style="fill:#262626;" transform="translate(605.01367 67.401876)scale(0.13 -0.13)">
       <use xlink:href="#ArialMT-31"/>
       <use x="55.615234" xlink:href="#ArialMT-30"/>
      </g>
     </g>
    </g>
   </g>
   <g id="patch_13">
    <path clip-path="url(#pe750508df6)" d="M 641.762386 235.590677 
L 747.284619 235.590677 
L 747.284619 199.099932 
L 720.904061 190.335634 
L 747.284619 181.571335 
L 747.284619 156.644248 
L 641.762386 156.644248 
L 641.762386 181.571335 
L 668.142944 190.335634 
L 641.762386 199.099932 
L 641.762386 235.590677 
z
" style="fill:#5875a4;stroke:#4c4c4c;stroke-linejoin:miter;stroke-width:2.275;"/>
   </g>
   <g id="patch_14">
    <path clip-path="url(#pe750508df6)" d="M 773.665177 222.508554 
L 879.18741 222.508554 
L 879.18741 192.94458 
L 852.806851 184.476782 
L 879.18741 176.008983 
L 879.18741 146.232914 
L 773.665177 146.232914 
L 773.665177 176.008983 
L 800.045735 184.476782 
L 773.665177 192.94458 
L 773.665177 222.508554 
z
" style="fill:#5875a4;stroke:#4c4c4c;stroke-linejoin:miter;stroke-width:2.275;"/>
   </g>
   <g id="line2d_61">
    <path clip-path="url(#pe750508df6)" d="M 694.523503 235.590677 
L 694.523503 349.664945 
" style="fill:none;stroke:#4c4c4c;stroke-linecap:round;stroke-width:2.275;"/>
   </g>
   <g id="line2d_62">
    <path clip-path="url(#pe750508df6)" d="M 694.523503 156.644248 
L 694.523503 38.970399 
" style="fill:none;stroke:#4c4c4c;stroke-linecap:round;stroke-width:2.275;"/>
   </g>
   <g id="line2d_63">
    <path clip-path="url(#pe750508df6)" d="M 668.142944 349.664945 
L 720.904061 349.664945 
" style="fill:none;stroke:#4c4c4c;stroke-linecap:round;stroke-width:2.275;"/>
   </g>
   <g id="line2d_64">
    <path clip-path="url(#pe750508df6)" d="M 668.142944 38.970399 
L 720.904061 38.970399 
" style="fill:none;stroke:#4c4c4c;stroke-linecap:round;stroke-width:2.275;"/>
   </g>
   <g id="line2d_65">
    <path clip-path="url(#pe750508df6)" d="M 826.426293 222.508554 
L 826.426293 331.408692 
" style="fill:none;stroke:#4c4c4c;stroke-linecap:round;stroke-width:2.275;"/>
   </g>
   <g id="line2d_66">
    <path clip-path="url(#pe750508df6)" d="M 826.426293 146.232914 
L 826.426293 47.983009 
" style="fill:none;stroke:#4c4c4c;stroke-linecap:round;stroke-width:2.275;"/>
   </g>
   <g id="line2d_67">
    <path clip-path="url(#pe750508df6)" d="M 800.045735 331.408692 
L 852.806851 331.408692 
" style="fill:none;stroke:#4c4c4c;stroke-linecap:round;stroke-width:2.275;"/>
   </g>
   <g id="line2d_68">
    <path clip-path="url(#pe750508df6)" d="M 800.045735 47.983009 
L 852.806851 47.983009 
" style="fill:none;stroke:#4c4c4c;stroke-linecap:round;stroke-width:2.275;"/>
   </g>
   <g id="line2d_69">
    <path clip-path="url(#pe750508df6)" d="M 668.142944 190.335634 
L 720.904061 190.335634 
" style="fill:none;stroke:#4c4c4c;stroke-linecap:round;stroke-width:2.275;"/>
   </g>
   <g id="line2d_70">
    <path clip-path="url(#pe750508df6)" d="M 800.045735 184.476782 
L 852.806851 184.476782 
" style="fill:none;stroke:#4c4c4c;stroke-linecap:round;stroke-width:2.275;"/>
   </g>
   <g id="patch_15">
    <path d="M 628.572107 365.199672 
L 628.572107 23.435672 
" style="fill:none;"/>
   </g>
   <g id="patch_16">
    <path d="M 628.572107 365.199672 
L 892.377689 365.199672 
" style="fill:none;"/>
   </g>
   <g id="text_30">
    <!-- metric = SAR -->
    <defs>
     <path d="M -0.140625 0 
L 27.34375 71.578125 
L 37.546875 71.578125 
L 66.84375 0 
L 56.0625 0 
L 47.703125 21.6875 
L 17.78125 21.6875 
L 9.90625 0 
z
M 20.515625 29.390625 
L 44.78125 29.390625 
L 37.3125 49.21875 
Q 33.890625 58.25 32.234375 64.0625 
Q 30.859375 57.171875 28.375 50.390625 
z
" id="ArialMT-41"/>
    </defs>
    <g style="fill:#262626;" transform="translate(718.161421 17.435672)scale(0.143 -0.143)">
     <use xlink:href="#ArialMT-6d"/>
     <use x="83.300781" xlink:href="#ArialMT-65"/>
     <use x="138.916016" xlink:href="#ArialMT-74"/>
     <use x="166.699219" xlink:href="#ArialMT-72"/>
     <use x="200" xlink:href="#ArialMT-69"/>
     <use x="222.216797" xlink:href="#ArialMT-63"/>
     <use x="272.216797" xlink:href="#ArialMT-20"/>
     <use x="300" xlink:href="#ArialMT-3d"/>
     <use x="358.398438" xlink:href="#ArialMT-20"/>
     <use x="386.181641" xlink:href="#ArialMT-53"/>
     <use x="452.880859" xlink:href="#ArialMT-41"/>
     <use x="519.580078" xlink:href="#ArialMT-52"/>
    </g>
   </g>
  </g>
  <g id="axes_4">
   <g id="patch_17">
    <path d="M 918.758247 365.199672 
L 1182.563828 365.199672 
L 1182.563828 23.435672 
L 918.758247 23.435672 
z
" style="fill:#eaeaf2;"/>
   </g>
   <g id="matplotlib.axis_7">
    <g id="xtick_7">
     <g id="line2d_71"/>
     <g id="text_31">
      <!-- vanilla -->
      <g style="fill:#262626;" transform="translate(966.283158 383.604828)scale(0.13 -0.13)">
       <use xlink:href="#ArialMT-76"/>
       <use x="50" xlink:href="#ArialMT-61"/>
       <use x="105.615234" xlink:href="#ArialMT-6e"/>
       <use x="161.230469" xlink:href="#ArialMT-69"/>
       <use x="183.447266" xlink:href="#ArialMT-6c"/>
       <use x="205.664062" xlink:href="#ArialMT-6c"/>
       <use x="227.880859" xlink:href="#ArialMT-61"/>
      </g>
     </g>
    </g>
    <g id="xtick_8">
     <g id="line2d_72"/>
     <g id="text_32">
      <!-- best -->
      <g style="fill:#262626;" transform="translate(1104.327433 383.604828)scale(0.13 -0.13)">
       <use xlink:href="#ArialMT-62"/>
       <use x="55.615234" xlink:href="#ArialMT-65"/>
       <use x="111.230469" xlink:href="#ArialMT-73"/>
       <use x="161.230469" xlink:href="#ArialMT-74"/>
      </g>
     </g>
    </g>
    <g id="text_33">
     <!-- method -->
     <g style="fill:#262626;" transform="translate(1026.81467 400.42425)scale(0.143 -0.143)">
      <use xlink:href="#ArialMT-6d"/>
      <use x="83.300781" xlink:href="#ArialMT-65"/>
      <use x="138.916016" xlink:href="#ArialMT-74"/>
      <use x="166.699219" xlink:href="#ArialMT-68"/>
      <use x="222.314453" xlink:href="#ArialMT-6f"/>
      <use x="277.929688" xlink:href="#ArialMT-64"/>
     </g>
    </g>
   </g>
   <g id="matplotlib.axis_8">
    <g id="ytick_18">
     <g id="line2d_73">
      <path clip-path="url(#pa54c268865)" d="M 918.758247 327.035249 
L 1182.563828 327.035249 
" style="fill:none;stroke:#ffffff;stroke-linecap:round;stroke-width:1.3;"/>
     </g>
     <g id="line2d_74"/>
     <g id="text_34">
      <!-- 2 -->
      <g style="fill:#262626;" transform="translate(902.429028 331.687827)scale(0.13 -0.13)">
       <use xlink:href="#ArialMT-32"/>
      </g>
     </g>
    </g>
    <g id="ytick_19">
     <g id="line2d_75">
      <path clip-path="url(#pa54c268865)" d="M 918.758247 276.659157 
L 1182.563828 276.659157 
" style="fill:none;stroke:#ffffff;stroke-linecap:round;stroke-width:1.3;"/>
     </g>
     <g id="line2d_76"/>
     <g id="text_35">
      <!-- 4 -->
      <g style="fill:#262626;" transform="translate(902.429028 281.311735)scale(0.13 -0.13)">
       <use xlink:href="#ArialMT-34"/>
      </g>
     </g>
    </g>
    <g id="ytick_20">
     <g id="line2d_77">
      <path clip-path="url(#pa54c268865)" d="M 918.758247 226.283065 
L 1182.563828 226.283065 
" style="fill:none;stroke:#ffffff;stroke-linecap:round;stroke-width:1.3;"/>
     </g>
     <g id="line2d_78"/>
     <g id="text_36">
      <!-- 6 -->
      <g style="fill:#262626;" transform="translate(902.429028 230.935643)scale(0.13 -0.13)">
       <use xlink:href="#ArialMT-36"/>
      </g>
     </g>
    </g>
    <g id="ytick_21">
     <g id="line2d_79">
      <path clip-path="url(#pa54c268865)" d="M 918.758247 175.906974 
L 1182.563828 175.906974 
" style="fill:none;stroke:#ffffff;stroke-linecap:round;stroke-width:1.3;"/>
     </g>
     <g id="line2d_80"/>
     <g id="text_37">
      <!-- 8 -->
      <g style="fill:#262626;" transform="translate(902.429028 180.559552)scale(0.13 -0.13)">
       <use xlink:href="#ArialMT-38"/>
      </g>
     </g>
    </g>
    <g id="ytick_22">
     <g id="line2d_81">
      <path clip-path="url(#pa54c268865)" d="M 918.758247 125.530882 
L 1182.563828 125.530882 
" style="fill:none;stroke:#ffffff;stroke-linecap:round;stroke-width:1.3;"/>
     </g>
     <g id="line2d_82"/>
     <g id="text_38">
      <!-- 10 -->
      <g style="fill:#262626;" transform="translate(895.199809 130.18346)scale(0.13 -0.13)">
       <use xlink:href="#ArialMT-31"/>
       <use x="55.615234" xlink:href="#ArialMT-30"/>
      </g>
     </g>
    </g>
    <g id="ytick_23">
     <g id="line2d_83">
      <path clip-path="url(#pa54c268865)" d="M 918.758247 75.15479 
L 1182.563828 75.15479 
" style="fill:none;stroke:#ffffff;stroke-linecap:round;stroke-width:1.3;"/>
     </g>
     <g id="line2d_84"/>
     <g id="text_39">
      <!-- 12 -->
      <g style="fill:#262626;" transform="translate(895.199809 79.807368)scale(0.13 -0.13)">
       <use xlink:href="#ArialMT-31"/>
       <use x="55.615234" xlink:href="#ArialMT-32"/>
      </g>
     </g>
    </g>
    <g id="ytick_24">
     <g id="line2d_85">
      <path clip-path="url(#pa54c268865)" d="M 918.758247 24.778698 
L 1182.563828 24.778698 
" style="fill:none;stroke:#ffffff;stroke-linecap:round;stroke-width:1.3;"/>
     </g>
     <g id="line2d_86"/>
     <g id="text_40">
      <!-- 14 -->
      <g style="fill:#262626;" transform="translate(895.199809 29.431277)scale(0.13 -0.13)">
       <use xlink:href="#ArialMT-31"/>
       <use x="55.615234" xlink:href="#ArialMT-34"/>
      </g>
     </g>
    </g>
   </g>
   <g id="patch_18">
    <path clip-path="url(#pa54c268865)" d="M 931.948526 248.865124 
L 1037.470758 248.865124 
L 1037.470758 226.247055 
L 1011.0902 218.11433 
L 1037.470758 209.981605 
L 1037.470758 175.60774 
L 931.948526 175.60774 
L 931.948526 209.981605 
L 958.329084 218.11433 
L 931.948526 226.247055 
L 931.948526 248.865124 
z
" style="fill:#5875a4;stroke:#4c4c4c;stroke-linejoin:miter;stroke-width:2.275;"/>
   </g>
   <g id="patch_19">
    <path clip-path="url(#pa54c268865)" d="M 1063.851316 255.152533 
L 1169.373549 255.152533 
L 1169.373549 224.76006 
L 1142.992991 214.980559 
L 1169.373549 205.201059 
L 1169.373549 167.061436 
L 1063.851316 167.061436 
L 1063.851316 205.201059 
L 1090.231875 214.980559 
L 1063.851316 224.76006 
L 1063.851316 255.152533 
z
" style="fill:#5875a4;stroke:#4c4c4c;stroke-linejoin:miter;stroke-width:2.275;"/>
   </g>
   <g id="line2d_87">
    <path clip-path="url(#pa54c268865)" d="M 984.709642 248.865124 
L 984.709642 349.664945 
" style="fill:none;stroke:#4c4c4c;stroke-linecap:round;stroke-width:2.275;"/>
   </g>
   <g id="line2d_88">
    <path clip-path="url(#pa54c268865)" d="M 984.709642 175.60774 
L 984.709642 77.9824 
" style="fill:none;stroke:#4c4c4c;stroke-linecap:round;stroke-width:2.275;"/>
   </g>
   <g id="line2d_89">
    <path clip-path="url(#pa54c268865)" d="M 958.329084 349.664945 
L 1011.0902 349.664945 
" style="fill:none;stroke:#4c4c4c;stroke-linecap:round;stroke-width:2.275;"/>
   </g>
   <g id="line2d_90">
    <path clip-path="url(#pa54c268865)" d="M 958.329084 77.9824 
L 1011.0902 77.9824 
" style="fill:none;stroke:#4c4c4c;stroke-linecap:round;stroke-width:2.275;"/>
   </g>
   <g id="line2d_91">
    <path clip-path="url(#pa54c268865)" d="M 1116.612433 255.152533 
L 1116.612433 346.319216 
" style="fill:none;stroke:#4c4c4c;stroke-linecap:round;stroke-width:2.275;"/>
   </g>
   <g id="line2d_92">
    <path clip-path="url(#pa54c268865)" d="M 1116.612433 167.061436 
L 1116.612433 38.970399 
" style="fill:none;stroke:#4c4c4c;stroke-linecap:round;stroke-width:2.275;"/>
   </g>
   <g id="line2d_93">
    <path clip-path="url(#pa54c268865)" d="M 1090.231875 346.319216 
L 1142.992991 346.319216 
" style="fill:none;stroke:#4c4c4c;stroke-linecap:round;stroke-width:2.275;"/>
   </g>
   <g id="line2d_94">
    <path clip-path="url(#pa54c268865)" d="M 1090.231875 38.970399 
L 1142.992991 38.970399 
" style="fill:none;stroke:#4c4c4c;stroke-linecap:round;stroke-width:2.275;"/>
   </g>
   <g id="line2d_95">
    <path clip-path="url(#pa54c268865)" d="M 958.329084 218.11433 
L 1011.0902 218.11433 
" style="fill:none;stroke:#4c4c4c;stroke-linecap:round;stroke-width:2.275;"/>
   </g>
   <g id="line2d_96">
    <path clip-path="url(#pa54c268865)" d="M 1090.231875 214.980559 
L 1142.992991 214.980559 
" style="fill:none;stroke:#4c4c4c;stroke-linecap:round;stroke-width:2.275;"/>
   </g>
   <g id="patch_20">
    <path d="M 918.758247 365.199672 
L 918.758247 23.435672 
" style="fill:none;"/>
   </g>
   <g id="patch_21">
    <path d="M 918.758247 365.199672 
L 1182.563828 365.199672 
" style="fill:none;"/>
   </g>
   <g id="text_41">
    <!-- metric = ISR -->
    <g style="fill:#262626;" transform="translate(1011.130475 17.435672)scale(0.143 -0.143)">
     <use xlink:href="#ArialMT-6d"/>
     <use x="83.300781" xlink:href="#ArialMT-65"/>
     <use x="138.916016" xlink:href="#ArialMT-74"/>
     <use x="166.699219" xlink:href="#ArialMT-72"/>
     <use x="200" xlink:href="#ArialMT-69"/>
     <use x="222.216797" xlink:href="#ArialMT-63"/>
     <use x="272.216797" xlink:href="#ArialMT-20"/>
     <use x="300" xlink:href="#ArialMT-3d"/>
     <use x="358.398438" xlink:href="#ArialMT-20"/>
     <use x="386.181641" xlink:href="#ArialMT-49"/>
     <use x="413.964844" xlink:href="#ArialMT-53"/>
     <use x="480.664062" xlink:href="#ArialMT-52"/>
    </g>
   </g>
  </g>
 </g>
 <defs>
  <clipPath id="pf3388d6dd8">
   <rect height="341.764" width="263.805581" x="48.199828" y="23.435672"/>
  </clipPath>
  <clipPath id="p86a6ca31b4">
   <rect height="341.764" width="263.805581" x="338.385968" y="23.435672"/>
  </clipPath>
  <clipPath id="pe750508df6">
   <rect height="341.764" width="263.805581" x="628.572107" y="23.435672"/>
  </clipPath>
  <clipPath id="pa54c268865">
   <rect height="341.764" width="263.805581" x="918.758247" y="23.435672"/>
  </clipPath>
 </defs>
</svg>
