<?xml version="1.0" encoding="UTF-8" standalone="no"?>
<!-- Created with matplotlib (http://matplotlib.org/) -->

<svg
   xmlns:dc="http://purl.org/dc/elements/1.1/"
   xmlns:cc="http://creativecommons.org/ns#"
   xmlns:rdf="http://www.w3.org/1999/02/22-rdf-syntax-ns#"
   xmlns:svg="http://www.w3.org/2000/svg"
   xmlns="http://www.w3.org/2000/svg"
   xmlns:xlink="http://www.w3.org/1999/xlink"
   xmlns:sodipodi="http://sodipodi.sourceforge.net/DTD/sodipodi-0.dtd"
   xmlns:inkscape="http://www.inkscape.org/namespaces/inkscape"
   height="396.02164pt"
   version="1.1"
   viewBox="0 0 453.81939 396.02164"
   width="453.8194pt"
   id="svg265"
   sodipodi:docname="loss.svg"
   inkscape:version="0.92.3 (2405546, 2018-03-11)">
  <metadata
     id="metadata269">
    <rdf:RDF>
      <cc:Work
         rdf:about="">
        <dc:format>image/svg+xml</dc:format>
        <dc:type
           rdf:resource="http://purl.org/dc/dcmitype/StillImage" />
      </cc:Work>
    </rdf:RDF>
  </metadata>
  <sodipodi:namedview
     pagecolor="#ffffff"
     bordercolor="#666666"
     borderopacity="1"
     objecttolerance="10"
     gridtolerance="10"
     guidetolerance="10"
     inkscape:pageopacity="0"
     inkscape:pageshadow="2"
     inkscape:window-width="1492"
     inkscape:window-height="889"
     id="namedview267"
     showgrid="false"
     inkscape:zoom="0.81672203"
     inkscape:cx="327.30273"
     inkscape:cy="349.13583"
     inkscape:window-x="57"
     inkscape:window-y="27"
     inkscape:window-maximized="0"
     inkscape:current-layer="axes_1" />
  <defs
     id="defs4"
     style="stroke-linecap:butt;stroke-linejoin:round">
    <style
       type="text/css"
       id="style2">
*{stroke-linecap:butt;stroke-linejoin:round;}
  </style>
  </defs>
  <g
     id="figure_1"
     style="stroke-linecap:butt;stroke-linejoin:round"
     transform="translate(-47.834086,-8.37575)">
    <g
       id="axes_1"
       style="stroke-linecap:butt;stroke-linejoin:round">
      <g
         id="patch_2"
         style="stroke-linecap:butt;stroke-linejoin:round">
        <path
           d="M 102.78975,340.55892 H 500.71597 V 54.782 H 102.78975 Z"
           style="fill:#ffffff;stroke-linecap:butt;stroke-linejoin:round"
           id="path9"
           inkscape:connector-curvature="0" />
      </g>
      <g
         id="matplotlib.axis_1"
         transform="translate(-1.2986795)"
         style="stroke-linecap:butt;stroke-linejoin:round">
        <g
           id="xtick_2"
           style="stroke-linecap:butt;stroke-linejoin:round">
          <text
             xml:space="preserve"
             style="font-style:normal;font-weight:normal;font-size:30px;line-height:1.25;font-family:sans-serif;letter-spacing:0px;word-spacing:0px;fill:#000000;fill-opacity:1;stroke:none;stroke-width:0.75;stroke-linecap:butt;stroke-linejoin:round"
             x="298.35547"
             y="365.90866"
             id="text291"><tspan
               sodipodi:role="line"
               id="tspan289"
               style="font-size:24px;text-align:center;text-anchor:middle;stroke-width:0.75;stroke-linecap:butt;stroke-linejoin:round"
               x="298.35547"
               y="365.90866">no</tspan><tspan
               sodipodi:role="line"
               style="font-size:24px;text-align:center;text-anchor:middle;stroke-width:0.75;stroke-linecap:butt;stroke-linejoin:round"
               x="298.35547"
               y="403.40866"
               id="tspan323">norm</tspan></text>
          <text
             xml:space="preserve"
             style="font-style:normal;font-weight:normal;font-size:30px;line-height:1.25;font-family:sans-serif;letter-spacing:0px;word-spacing:0px;fill:#000000;fill-opacity:1;stroke:none;stroke-width:0.75;stroke-linecap:butt;stroke-linejoin:round"
             x="427.67596"
             y="366.55753"
             id="text291-3"><tspan
               sodipodi:role="line"
               id="tspan289-6"
               style="font-size:24px;text-align:center;text-anchor:middle;stroke-width:0.75;stroke-linecap:butt;stroke-linejoin:round"
               x="427.67596"
               y="366.55753">batch</tspan><tspan
               sodipodi:role="line"
               style="font-size:24px;text-align:center;text-anchor:middle;stroke-width:0.75;stroke-linecap:butt;stroke-linejoin:round"
               x="427.67596"
               y="404.05753"
               id="tspan321">norm</tspan></text>
          <text
             xml:space="preserve"
             style="font-style:normal;font-weight:normal;font-size:30px;line-height:1.25;font-family:sans-serif;letter-spacing:0px;word-spacing:0px;fill:#000000;fill-opacity:1;stroke:none;stroke-width:0.75;stroke-linecap:butt;stroke-linejoin:round"
             x="168.39729"
             y="364.52866"
             id="text291-7"><tspan
               sodipodi:role="line"
               id="tspan289-5"
               style="font-size:24px;text-align:center;text-anchor:middle;stroke-width:0.75;stroke-linecap:butt;stroke-linejoin:round"
               x="168.39729"
               y="364.52866">layer</tspan><tspan
               sodipodi:role="line"
               style="font-size:24px;text-align:center;text-anchor:middle;stroke-width:0.75;stroke-linecap:butt;stroke-linejoin:round"
               x="168.39729"
               y="402.02866"
               id="tspan323-3">norm</tspan></text>
        </g>
      </g>
      <g
         id="matplotlib.axis_2"
         style="stroke-linecap:butt;stroke-linejoin:round">
        <g
           id="ytick_1"
           style="stroke-linecap:butt;stroke-linejoin:round">
          <g
             id="line2d_1"
             style="stroke-linecap:butt;stroke-linejoin:round">
            <path
               clip-path="url(#p3203909a6a)"
               d="M 102.78975,340.55892 H 500.71597"
               style="fill:none;stroke:#cccccc;stroke-width:1.5;stroke-linecap:round;stroke-linejoin:round"
               id="path108"
               inkscape:connector-curvature="0" />
          </g>
          <g
             id="text_5"
             style="stroke-linecap:butt;stroke-linejoin:round">
            <!-- 0 -->
            <defs
               id="defs112">
              <path
                 d="m 4.15625,35.296875 q 0,12.703125 2.609375,20.4375 2.609375,7.75 7.75,11.9375 5.15625,4.203125 12.96875,4.203125 5.765625,0 10.109375,-2.328125 4.34375,-2.3125 7.171875,-6.6875 Q 47.609375,58.5 49.21875,52.21875 q 1.609375,-6.265625 1.609375,-16.921875 0,-12.59375 -2.59375,-20.328125 Q 45.65625,7.234375 40.5,3 35.359375,-1.21875 27.484375,-1.21875 q -10.34375,0 -16.25,7.421875 -7.078125,8.9375 -7.078125,29.09375 z m 9.03125,0 q 0,-17.625 4.125,-23.46875 Q 21.4375,6 27.484375,6 q 6.0625,0 10.1875,5.859375 4.125,5.859375 4.125,23.4375 0,17.6875 -4.125,23.484375 -4.125,5.8125 -10.28125,5.8125 -6.046875,0 -9.671875,-5.125 Q 13.1875,52.9375 13.1875,35.296875 Z"
                 id="ArialMT-30"
                 inkscape:connector-curvature="0"
                 style="stroke-linecap:butt;stroke-linejoin:round" />
            </defs>
            <g
               style="fill:#262626;stroke-linecap:butt;stroke-linejoin:round"
               transform="matrix(0.2475,0,0,-0.2475,76.52643,349.41672)"
               id="g116">
              <use
                 xlink:href="#ArialMT-30"
                 id="use114"
                 style="stroke-linecap:butt;stroke-linejoin:round"
                 x="0"
                 y="0"
                 width="100%"
                 height="100%" />
            </g>
          </g>
        </g>
        <g
           id="ytick_2"
           style="stroke-linecap:butt;stroke-linejoin:round">
          <g
             id="line2d_2"
             style="stroke-linecap:butt;stroke-linejoin:round">
            <path
               clip-path="url(#p3203909a6a)"
               d="M 102.78975,275.78324 H 500.71597"
               style="fill:none;stroke:#cccccc;stroke-width:1.5;stroke-linecap:round;stroke-linejoin:round"
               id="path120"
               inkscape:connector-curvature="0" />
          </g>
          <g
             id="text_6"
             style="stroke-linecap:butt;stroke-linejoin:round">
            <!-- 2 -->
            <defs
               id="defs124">
              <path
                 d="M 50.34375,8.453125 V 0 H 3.03125 Q 2.9375,3.171875 4.046875,6.109375 5.859375,10.9375 9.828125,15.625 13.8125,20.3125 21.34375,26.46875 q 11.671875,9.5625 15.765625,15.15625 4.109375,5.59375 4.109375,10.578125 0,5.21875 -3.75,8.796875 -3.734375,3.59375 -9.734375,3.59375 -6.34375,0 -10.15625,-3.8125 Q 13.765625,56.984375 13.71875,50.25 L 4.6875,51.171875 q 0.921875,10.109375 6.96875,15.40625 6.0625,5.296875 16.28125,5.296875 10.296875,0 16.296875,-5.71875 Q 50.25,60.453125 50.25,52 50.25,47.703125 48.484375,43.546875 46.734375,39.40625 42.65625,34.8125 38.578125,30.21875 29.109375,22.21875 21.1875,15.578125 18.9375,13.203125 q -2.234375,-2.359375 -3.703125,-4.75 z"
                 id="ArialMT-32"
                 inkscape:connector-curvature="0"
                 style="stroke-linecap:butt;stroke-linejoin:round" />
            </defs>
            <g
               style="fill:#262626;stroke-linecap:butt;stroke-linejoin:round"
               transform="matrix(0.2475,0,0,-0.2475,76.52643,284.64103)"
               id="g128">
              <use
                 xlink:href="#ArialMT-32"
                 id="use126"
                 style="stroke-linecap:butt;stroke-linejoin:round"
                 x="0"
                 y="0"
                 width="100%"
                 height="100%" />
            </g>
          </g>
        </g>
        <g
           id="ytick_3"
           style="stroke-linecap:butt;stroke-linejoin:round">
          <g
             id="line2d_3"
             style="stroke-linecap:butt;stroke-linejoin:round">
            <path
               clip-path="url(#p3203909a6a)"
               d="M 102.78975,211.00755 H 500.71597"
               style="fill:none;stroke:#cccccc;stroke-width:1.5;stroke-linecap:round;stroke-linejoin:round"
               id="path132"
               inkscape:connector-curvature="0" />
          </g>
          <g
             id="text_7"
             style="stroke-linecap:butt;stroke-linejoin:round">
            <!-- 4 -->
            <defs
               id="defs136">
              <path
                 d="m 32.328125,0 v 17.140625 h -31.0625 v 8.0625 l 32.671875,46.375 h 7.171875 v -46.375 h 9.671875 v -8.0625 H 41.109375 V 0 Z m 0,25.203125 V 57.46875 L 9.90625,25.203125 Z"
                 id="ArialMT-34"
                 inkscape:connector-curvature="0"
                 style="stroke-linecap:butt;stroke-linejoin:round" />
            </defs>
            <g
               style="fill:#262626;stroke-linecap:butt;stroke-linejoin:round"
               transform="matrix(0.2475,0,0,-0.2475,76.52643,219.86534)"
               id="g140">
              <use
                 xlink:href="#ArialMT-34"
                 id="use138"
                 style="stroke-linecap:butt;stroke-linejoin:round"
                 x="0"
                 y="0"
                 width="100%"
                 height="100%" />
            </g>
          </g>
        </g>
        <g
           id="ytick_4"
           style="stroke-linecap:butt;stroke-linejoin:round">
          <g
             id="line2d_4"
             style="stroke-linecap:butt;stroke-linejoin:round">
            <path
               clip-path="url(#p3203909a6a)"
               d="M 102.78975,146.23186 H 500.71597"
               style="fill:none;stroke:#cccccc;stroke-width:1.5;stroke-linecap:round;stroke-linejoin:round"
               id="path144"
               inkscape:connector-curvature="0" />
          </g>
          <g
             id="text_8"
             style="stroke-linecap:butt;stroke-linejoin:round">
            <!-- 6 -->
            <defs
               id="defs148">
              <path
                 d="M 49.75,54.046875 41.015625,53.375 q -1.171875,5.171875 -3.3125,7.515625 -3.578125,3.765625 -8.796875,3.765625 -4.203125,0 -7.375,-2.34375 Q 17.390625,59.28125 14.984375,53.46875 12.59375,47.65625 12.5,36.921875 15.671875,41.75 20.265625,44.09375 q 4.59375,2.34375 9.625,2.34375 8.78125,0 14.953125,-6.46875 Q 51.03125,33.5 51.03125,23.25 51.03125,16.5 48.125,10.71875 45.21875,4.9375 40.140625,1.859375 35.0625,-1.21875 28.609375,-1.21875 17.625,-1.21875 10.6875,6.859375 3.765625,14.9375 3.765625,33.5 q 0,20.75 7.65625,30.171875 6.6875,8.203125 18.015625,8.203125 8.453125,0 13.84375,-4.734375 Q 48.6875,62.40625 49.75,54.046875 Z M 13.875,23.1875 q 0,-4.53125 1.921875,-8.6875 Q 17.71875,10.359375 21.1875,8.171875 24.65625,6 28.46875,6 q 5.5625,0 9.5625,4.484375 4.015625,4.5 4.015625,12.21875 0,7.421875 -3.96875,11.6875 -3.953125,4.28125 -9.953125,4.28125 -5.953125,0 -10.109375,-4.28125 Q 13.875,30.125 13.875,23.1875 Z"
                 id="ArialMT-36"
                 inkscape:connector-curvature="0"
                 style="stroke-linecap:butt;stroke-linejoin:round" />
            </defs>
            <g
               style="fill:#262626;stroke-linecap:butt;stroke-linejoin:round"
               transform="matrix(0.2475,0,0,-0.2475,76.52643,155.08965)"
               id="g152">
              <use
                 xlink:href="#ArialMT-36"
                 id="use150"
                 style="stroke-linecap:butt;stroke-linejoin:round"
                 x="0"
                 y="0"
                 width="100%"
                 height="100%" />
            </g>
          </g>
        </g>
        <g
           id="ytick_5"
           style="stroke-linecap:butt;stroke-linejoin:round">
          <g
             id="line2d_5"
             style="stroke-linecap:butt;stroke-linejoin:round">
            <path
               clip-path="url(#p3203909a6a)"
               d="M 102.78975,81.456168 H 500.71597"
               style="fill:none;stroke:#cccccc;stroke-width:1.5;stroke-linecap:round;stroke-linejoin:round"
               id="path156"
               inkscape:connector-curvature="0" />
          </g>
          <g
             id="text_9"
             style="stroke-linecap:butt;stroke-linejoin:round">
            <!-- 8 -->
            <defs
               id="defs160">
              <path
                 d="m 17.671875,38.8125 q -5.46875,2.015625 -8.109375,5.71875 -2.625,3.71875 -2.625,8.890625 0,7.8125 5.609375,13.125 5.625,5.328125 14.9375,5.328125 9.375,0 15.09375,-5.453125 5.71875,-5.4375 5.71875,-13.25 0,-4.984375 -2.625,-8.671875 Q 43.0625,40.828125 37.75,38.8125 q 6.59375,-2.140625 10.03125,-6.9375 3.4375,-4.78125 3.4375,-11.421875 0,-9.171875 -6.5,-15.421875 -6.484375,-6.25 -17.078125,-6.25 -10.59375,0 -17.09375,6.265625 -6.5,6.28125 -6.5,15.65625 0,6.984375 3.546875,11.6875 3.546875,4.71875 10.078125,6.421875 z m -1.75,14.90625 q 0,-5.078125 3.265625,-8.3125 3.28125,-3.21875 8.5,-3.21875 5.078125,0 8.328125,3.1875 3.25,3.203125 3.25,7.84375 0,4.84375 -3.359375,8.140625 -3.34375,3.296875 -8.3125,3.296875 -5.03125,0 -8.359375,-3.234375 -3.3125,-3.21875 -3.3125,-7.703125 z M 13.09375,20.65625 q 0,-3.765625 1.78125,-7.28125 Q 16.65625,9.859375 20.171875,7.921875 23.6875,6 27.734375,6 34.03125,6 38.125,10.046875 q 4.109375,4.0625 4.109375,10.3125 0,6.34375 -4.21875,10.5 -4.21875,4.15625 -10.578125,4.15625 -6.203125,0 -10.28125,-4.109375 -4.0625,-4.09375 -4.0625,-10.25 z"
                 id="ArialMT-38"
                 inkscape:connector-curvature="0"
                 style="stroke-linecap:butt;stroke-linejoin:round" />
            </defs>
            <g
               style="fill:#262626;stroke-linecap:butt;stroke-linejoin:round"
               transform="matrix(0.2475,0,0,-0.2475,76.52643,90.313961)"
               id="g164">
              <use
                 xlink:href="#ArialMT-38"
                 id="use162"
                 style="stroke-linecap:butt;stroke-linejoin:round"
                 x="0"
                 y="0"
                 width="100%"
                 height="100%" />
            </g>
          </g>
        </g>
        <g
           id="text_10"
           style="stroke-linecap:butt;stroke-linejoin:round">
          <!-- loss -->
          <g
             style="fill:#262626;stroke-linecap:butt;stroke-linejoin:round"
             transform="matrix(0,-0.27,-0.27,0,67.16018,221.67726)"
             id="g176">
            <path
               id="use168"
               d="M 6.390625,0 V 71.578125 H 15.1875 V 0 Z"
               inkscape:connector-curvature="0"
               style="stroke-linecap:butt;stroke-linejoin:round" />
            <path
               id="use170"
               d="m 25.544922,25.921875 q 0,14.40625 8,21.34375 6.6875,5.765625 16.3125,5.765625 10.6875,0 17.46875,-7.015625 6.796875,-7 6.796875,-19.359375 0,-10 -3,-15.75 -3,-5.734375 -8.75,-8.90625 -5.734375,-3.171875 -12.515625,-3.171875 -10.890625,0 -17.609375,6.984375 -6.703125,6.984375 -6.703125,20.109375 z m 9.03125,0 q 0,-9.953125 4.34375,-14.90625 4.34375,-4.953125 10.9375,-4.953125 6.546875,0 10.890625,4.96875 4.34375,4.984375 4.34375,15.1875 0,9.625 -4.375,14.578125 -4.375,4.953125 -10.859375,4.953125 -6.59375,0 -10.9375,-4.9375 -4.34375,-4.921875 -4.34375,-14.890625 z"
               inkscape:connector-curvature="0"
               style="stroke-linecap:butt;stroke-linejoin:round" />
            <path
               id="use172"
               d="m 80.910156,15.484375 8.6875,1.359375 q 0.734375,-5.21875 4.078125,-8 3.34375,-2.78125 9.359379,-2.78125 6.04687,0 8.96875,2.453125 2.9375,2.46875 2.9375,5.796875 0,2.96875 -2.59375,4.6875 -1.79688,1.171875 -8.98438,2.96875 -9.656249,2.453125 -13.390624,4.234375 -3.734375,1.78125 -5.671875,4.921875 -1.921875,3.15625 -1.921875,6.96875 0,3.453125 1.578125,6.40625 1.59375,2.96875 4.328125,4.921875 2.046875,1.5 5.578125,2.546875 3.546875,1.0625 7.609379,1.0625 6.09375,0 10.70312,-1.765625 4.625,-1.75 6.8125,-4.765625 2.20313,-3 3.03125,-8.015625 L 113.42578,37.3125 q -0.57812,4 -3.39062,6.234375 -2.8125,2.25 -7.9375,2.25 -6.046879,0 -8.640629,-2 -2.59375,-2 -2.59375,-4.6875 0,-1.703125 1.078125,-3.078125 1.078125,-1.40625 3.375,-2.34375 1.3125,-0.484375 7.765624,-2.234375 9.32813,-2.5 13,-4.09375 3.6875,-1.578125 5.78125,-4.609375 2.10938,-3.015625 2.10938,-7.515625 0,-4.390625 -2.5625,-8.28125 -2.5625,-3.875 -7.40625,-6 -4.82813,-2.125 -10.92188,-2.125 -10.109374,0 -15.406249,4.203125 -5.296875,4.203125 -6.765625,12.453125 z"
               inkscape:connector-curvature="0"
               style="stroke-linecap:butt;stroke-linejoin:round" />
            <path
               id="use174"
               d="m 130.91016,15.484375 8.6875,1.359375 q 0.73437,-5.21875 4.07812,-8 3.34375,-2.78125 9.35938,-2.78125 6.04687,0 8.96875,2.453125 2.9375,2.46875 2.9375,5.796875 0,2.96875 -2.59375,4.6875 -1.79688,1.171875 -8.98438,2.96875 -9.65625,2.453125 -13.39062,4.234375 -3.73438,1.78125 -5.67188,4.921875 -1.92187,3.15625 -1.92187,6.96875 0,3.453125 1.57812,6.40625 1.59375,2.96875 4.32813,4.921875 2.04687,1.5 5.57812,2.546875 3.54688,1.0625 7.60938,1.0625 6.09375,0 10.70312,-1.765625 4.625,-1.75 6.8125,-4.765625 2.20313,-3 3.03125,-8.015625 L 163.42578,37.3125 q -0.57812,4 -3.39062,6.234375 -2.8125,2.25 -7.9375,2.25 -6.04688,0 -8.64063,-2 -2.59375,-2 -2.59375,-4.6875 0,-1.703125 1.07813,-3.078125 1.07812,-1.40625 3.375,-2.34375 1.3125,-0.484375 7.76562,-2.234375 9.32813,-2.5 13,-4.09375 3.6875,-1.578125 5.78125,-4.609375 2.10938,-3.015625 2.10938,-7.515625 0,-4.390625 -2.5625,-8.28125 -2.5625,-3.875 -7.40625,-6 -4.82813,-2.125 -10.92188,-2.125 -10.10937,0 -15.40625,4.203125 -5.29687,4.203125 -6.76562,12.453125 z"
               inkscape:connector-curvature="0"
               style="stroke-linecap:butt;stroke-linejoin:round" />
          </g>
        </g>
      </g>
      <g
         id="patch_3"
         style="stroke-linecap:butt;stroke-linejoin:round">
        <path
           clip-path="url(#p3203909a6a)"
           d="M 116.05396,340.55892 H 222.16761 V 220.96331 H 116.05396 Z"
           style="fill:#cb6d67;stroke:#ffffff;stroke-width:1.5;stroke-linecap:butt;stroke-linejoin:miter"
           id="path180"
           inkscape:connector-curvature="0" />
      </g>
      <g
         id="patch_4"
         style="stroke-linecap:butt;stroke-linejoin:round">
        <path
           clip-path="url(#p3203909a6a)"
           d="M 248.69603,340.55892 H 354.80969 V 218.37764 H 248.69603 Z"
           style="fill:#cbb867;stroke:#ffffff;stroke-width:1.5;stroke-linecap:butt;stroke-linejoin:miter"
           id="path183"
           inkscape:connector-curvature="0" />
      </g>
      <g
         id="patch_5"
         style="stroke-linecap:butt;stroke-linejoin:round">
        <path
           clip-path="url(#p3203909a6a)"
           d="M 381.3381,340.55892 H 487.45176 V 114.65466 H 381.3381 Z"
           style="fill:#93cb67;stroke:#ffffff;stroke-width:1.5;stroke-linecap:butt;stroke-linejoin:miter"
           id="path186"
           inkscape:connector-curvature="0" />
      </g>
      <g
         id="line2d_6"
         style="stroke-linecap:butt;stroke-linejoin:round">
        <path
           clip-path="url(#p3203909a6a)"
           d="M 169.11079,260.52585 V 181.40076"
           style="fill:none;stroke:#424242;stroke-width:4.05000019;stroke-linecap:round;stroke-linejoin:round"
           id="path189"
           inkscape:connector-curvature="0" />
      </g>
      <g
         id="line2d_7"
         style="stroke-linecap:butt;stroke-linejoin:round">
        <path
           clip-path="url(#p3203909a6a)"
           d="M 301.75286,262.29951 V 148.69915"
           style="fill:none;stroke:#424242;stroke-width:4.05000019;stroke-linecap:round;stroke-linejoin:round"
           id="path192"
           inkscape:connector-curvature="0" />
      </g>
      <g
         id="line2d_8"
         style="stroke-linecap:butt;stroke-linejoin:round">
        <path
           clip-path="url(#p3203909a6a)"
           d="M 434.39493,151.28705 V 68.390425"
           style="fill:none;stroke:#424242;stroke-width:4.05000019;stroke-linecap:round;stroke-linejoin:round"
           id="path195"
           inkscape:connector-curvature="0" />
      </g>
      <g
         id="patch_6"
         style="stroke-linecap:butt;stroke-linejoin:round">
        <path
           d="M 102.78975,340.55892 V 54.782"
           style="fill:none;stroke:#cccccc;stroke-width:1.875;stroke-linecap:square;stroke-linejoin:miter"
           id="path198"
           inkscape:connector-curvature="0" />
      </g>
      <g
         id="patch_7"
         style="stroke-linecap:butt;stroke-linejoin:round">
        <path
           d="M 102.78975,340.55892 H 500.71597"
           style="fill:none;stroke:#cccccc;stroke-width:1.875;stroke-linecap:square;stroke-linejoin:miter"
           id="path201"
           inkscape:connector-curvature="0" />
      </g>
      <g
         id="text_11"
         transform="translate(0,-21)"
         style="stroke-linecap:butt;stroke-linejoin:round">
        <!-- learning_rate = 0.001 -->
        <defs
           id="defs210">
          <path
             d="M 40.4375,6.390625 Q 35.546875,2.25 31.03125,0.53125 q -4.515625,-1.703125 -9.6875,-1.703125 -8.546875,0 -13.140625,4.171875 -4.59375,4.171875 -4.59375,10.671875 0,3.8125 1.734375,6.953125 1.734375,3.15625 4.546875,5.0625 2.8125,1.90625 6.328125,2.875 2.578125,0.6875 7.8125,1.328125 10.640625,1.265625 15.671875,3.015625 0.04687,1.8125 0.04687,2.296875 0,5.375 -2.5,7.578125 -3.359375,2.96875 -10,2.96875 -6.203125,0 -9.15625,-2.171875 -2.953125,-2.171875 -4.375,-7.6875 L 5.125,37.0625 q 1.171875,5.515625 3.859375,8.90625 2.6875,3.390625 7.765625,5.21875 5.078125,1.84375 11.765625,1.84375 6.640625,0 10.78125,-1.5625 4.15625,-1.5625 6.109375,-3.9375 1.953125,-2.359375 2.734375,-5.984375 0.4375,-2.234375 0.4375,-8.09375 v -11.71875 q 0,-12.265625 0.5625,-15.515625 Q 49.703125,2.984375 51.375,0 h -9.1875 q -1.359375,2.734375 -1.75,6.390625 z M 39.703125,26.03125 Q 34.90625,24.078125 25.34375,22.703125 19.921875,21.921875 17.671875,20.9375 15.4375,19.96875 14.203125,18.09375 q -1.21875,-1.875 -1.21875,-4.171875 0,-3.515625 2.65625,-5.859375 2.671875,-2.34375 7.796875,-2.34375 5.078125,0 9.03125,2.21875 3.953125,2.21875 5.8125,6.078125 1.421875,2.984375 1.421875,8.78125 z"
             id="ArialMT-61"
             inkscape:connector-curvature="0"
             style="stroke-linecap:butt;stroke-linejoin:round" />
          <path
             d="M 4.984375,-4.296875 13.53125,-5.5625 q 0.53125,-3.953125 2.96875,-5.765625 3.28125,-2.4375 8.9375,-2.4375 6.109375,0 9.421875,2.4375 3.328125,2.4375 4.5,6.828125 0.6875,2.6875 0.625,11.28125 Q 34.234375,0 25.640625,0 14.9375,0 9.078125,7.71875 q -5.859375,7.71875 -5.859375,18.5 0,7.421875 2.6875,13.6875 2.6875,6.28125 7.78125,9.703125 5.109375,3.421875 12,3.421875 9.171875,0 15.140625,-7.421875 v 6.25 h 8.09375 V 7.03125 q 0,-12.109375 -2.46875,-17.15625 -2.453125,-5.0625 -7.8125,-7.984375 -5.34375,-2.9375 -13.15625,-2.9375 -9.265625,0 -14.984375,4.171875 -5.71875,4.171875 -5.515625,12.578125 z M 12.25,26.859375 q 0,-10.203125 4.046875,-14.890625 4.0625,-4.6875 10.171875,-4.6875 6.046875,0 10.140625,4.65625 4.109375,4.671875 4.109375,14.625 0,9.515625 -4.21875,14.34375 Q 32.28125,45.75 26.3125,45.75 q -5.859375,0 -9.96875,-4.765625 -4.09375,-4.75 -4.09375,-14.125 z"
             id="ArialMT-67"
             inkscape:connector-curvature="0"
             style="stroke-linecap:butt;stroke-linejoin:round" />
          <path
             id="ArialMT-20"
             d=""
             inkscape:connector-curvature="0"
             style="stroke-linecap:butt;stroke-linejoin:round" />
          <path
             d="M 52.828125,42.09375 H 5.5625 v 8.203125 h 47.265625 z m 0,-21.734375 H 5.5625 V 28.5625 h 47.265625 z"
             id="ArialMT-3d"
             inkscape:connector-curvature="0"
             style="stroke-linecap:butt;stroke-linejoin:round" />
          <path
             d="M 9.078125,0 V 10.015625 H 19.09375 V 0 Z"
             id="ArialMT-2e"
             inkscape:connector-curvature="0"
             style="stroke-linecap:butt;stroke-linejoin:round" />
          <path
             d="m 37.25,0 h -8.78125 v 56 q -3.171875,-3.015625 -8.328125,-6.046875 -5.15625,-3.03125 -9.25,-4.546875 v 8.5 q 7.375,3.46875 12.890625,8.390625 5.515625,4.9375 7.8125,9.578125 H 37.25 Z"
             id="ArialMT-31"
             inkscape:connector-curvature="0"
             style="stroke-linecap:butt;stroke-linejoin:round" />
        </defs>
        <g
           style="fill:#262626;stroke-linecap:butt;stroke-linejoin:round"
           transform="matrix(0.27,0,0,-0.27,173.78973,48.782)"
           id="g254">
          <path
             id="use212"
             d="M 6.390625,0 V 71.578125 H 15.1875 V 0 Z"
             inkscape:connector-curvature="0"
             style="stroke-linecap:butt;stroke-linejoin:round" />
          <path
             id="use214"
             d="m 64.310547,16.703125 9.078125,-1.125 Q 71.248047,7.625 65.435547,3.21875 q -5.8125,-4.390625 -14.84375,-4.390625 -11.375,0 -18.046875,7 -6.671875,7.015625 -6.671875,19.65625 0,13.09375 6.734375,20.3125 6.75,7.234375 17.484375,7.234375 10.40625,0 17,-7.078125 6.59375,-7.078125 6.59375,-19.921875 0,-0.78125 -0.04687,-2.34375 h -38.67188 q 0.484375,-8.546875 4.828125,-13.09375 4.34375,-4.53125 10.84375,-4.53125 4.828125,0 8.25,2.53125 3.421875,2.546875 5.421875,8.109375 z M 35.451172,30.90625 h 28.953125 q -0.578125,6.546875 -3.3125,9.8125 -4.203125,5.078125 -10.890625,5.078125 -6.0625,0 -10.1875,-4.046875 -4.125,-4.046875 -4.5625,-10.84375 z"
             inkscape:connector-curvature="0"
             style="stroke-linecap:butt;stroke-linejoin:round" />
          <use
             x="77.832031"
             xlink:href="#ArialMT-61"
             id="use216"
             style="stroke-linecap:butt;stroke-linejoin:round"
             y="0"
             width="100%"
             height="100%" />
          <path
             id="use218"
             d="m 139.94727,0 v 51.859375 h 7.90625 V 44 q 3.03125,5.515625 5.59375,7.265625 2.5625,1.765625 5.64062,1.765625 4.4375,0 9.03125,-2.828125 l -3.03125,-8.15625 q -3.21875,1.90625 -6.4375,1.90625 -2.89062,0 -5.1875,-1.734375 -2.29687,-1.734375 -3.26562,-4.8125 -1.46875,-4.6875 -1.46875,-10.25 V 0 Z"
             inkscape:connector-curvature="0"
             style="stroke-linecap:butt;stroke-linejoin:round" />
          <path
             id="use220"
             d="m 173.3418,0 v 51.859375 h 7.90625 v -7.375 q 5.71875,8.546875 16.5,8.546875 4.6875,0 8.625,-1.6875 3.9375,-1.6875 5.89062,-4.421875 1.95313,-2.734375 2.73438,-6.484375 0.48437,-2.453125 0.48437,-8.546875 V 0 h -8.79687 v 31.546875 q 0,5.375 -1.03125,8.03125 -1.01563,2.65625 -3.625,4.234375 -2.60938,1.59375 -6.125,1.59375 -5.625,0 -9.70313,-3.5625 -4.07812,-3.5625 -4.07812,-13.515625 V 0 Z"
             inkscape:connector-curvature="0"
             style="stroke-linecap:butt;stroke-linejoin:round" />
          <path
             id="use222"
             d="m 229.00391,61.46875 v 10.109375 h 8.79687 V 61.46875 Z m 0,-61.46875 v 51.859375 h 8.79687 V 0 Z"
             inkscape:connector-curvature="0"
             style="stroke-linecap:butt;stroke-linejoin:round" />
          <path
             id="use224"
             d="m 251.17383,0 v 51.859375 h 7.90625 v -7.375 q 5.71875,8.546875 16.5,8.546875 4.6875,0 8.625,-1.6875 3.9375,-1.6875 5.89062,-4.421875 1.95313,-2.734375 2.73438,-6.484375 0.48437,-2.453125 0.48437,-8.546875 V 0 h -8.79687 v 31.546875 q 0,5.375 -1.03125,8.03125 -1.01563,2.65625 -3.625,4.234375 -2.60938,1.59375 -6.125,1.59375 -5.625,0 -9.70313,-3.5625 -4.07812,-3.5625 -4.07812,-13.515625 V 0 Z"
             inkscape:connector-curvature="0"
             style="stroke-linecap:butt;stroke-linejoin:round" />
          <use
             x="300.19531"
             xlink:href="#ArialMT-67"
             id="use226"
             style="stroke-linecap:butt;stroke-linejoin:round"
             y="0"
             width="100%"
             height="100%" />
          <path
             id="use228"
             d="m 354.29492,-19.875 v 6.34375 h 58.25 V -19.875 Z"
             inkscape:connector-curvature="0"
             style="stroke-linecap:butt;stroke-linejoin:round" />
          <path
             id="use230"
             d="m 417.92578,0 v 51.859375 h 7.90625 V 44 q 3.03125,5.515625 5.59375,7.265625 2.5625,1.765625 5.64063,1.765625 4.4375,0 9.03125,-2.828125 l -3.03125,-8.15625 q -3.21875,1.90625 -6.4375,1.90625 -2.89063,0 -5.1875,-1.734375 -2.29688,-1.734375 -3.26563,-4.8125 -1.46875,-4.6875 -1.46875,-10.25 V 0 Z"
             inkscape:connector-curvature="0"
             style="stroke-linecap:butt;stroke-linejoin:round" />
          <use
             x="444.72656"
             xlink:href="#ArialMT-61"
             id="use232"
             style="stroke-linecap:butt;stroke-linejoin:round"
             y="0"
             width="100%"
             height="100%" />
          <path
             id="use234"
             d="m 526.12305,7.859375 1.26562,-7.765625 q -3.70312,-0.78125 -6.64062,-0.78125 -4.78125,0 -7.42188,1.515625 -2.625,1.515625 -3.70312,3.984375 -1.07813,2.46875 -1.07813,10.375 v 29.828125 h -6.4375 v 6.84375 h 6.4375 v 12.84375 l 8.73438,5.265625 V 51.859375 h 8.84375 v -6.84375 h -8.84375 v -30.3125 q 0,-3.765625 0.46875,-4.84375 0.46875,-1.0625 1.51562,-1.703125 1.04688,-0.640625 3,-0.640625 1.46875,0 3.85938,0.34375 z"
             inkscape:connector-curvature="0"
             style="stroke-linecap:butt;stroke-linejoin:round" />
          <path
             id="use236"
             d="m 570.21875,16.703125 9.07812,-1.125 Q 577.15625,7.625 571.34375,3.21875 565.53125,-1.171875 556.5,-1.171875 q -11.375,0 -18.04688,7 -6.67187,7.015625 -6.67187,19.65625 0,13.09375 6.73437,20.3125 6.75,7.234375 17.48438,7.234375 10.40625,0 17,-7.078125 6.59375,-7.078125 6.59375,-19.921875 0,-0.78125 -0.0469,-2.34375 H 540.875 q 0.48437,-8.546875 4.82812,-13.09375 4.34375,-4.53125 10.84375,-4.53125 4.82813,0 8.25,2.53125 3.42188,2.546875 5.42188,8.109375 z M 541.35937,30.90625 h 28.95313 q -0.57813,6.546875 -3.3125,9.8125 -4.20313,5.078125 -10.89063,5.078125 -6.0625,0 -10.1875,-4.046875 -4.125,-4.046875 -4.5625,-10.84375 z"
             inkscape:connector-curvature="0"
             style="stroke-linecap:butt;stroke-linejoin:round" />
          <use
             x="583.74023"
             xlink:href="#ArialMT-20"
             id="use238"
             style="stroke-linecap:butt;stroke-linejoin:round"
             y="0"
             width="100%"
             height="100%" />
          <use
             x="611.52344"
             xlink:href="#ArialMT-3d"
             id="use240"
             style="stroke-linecap:butt;stroke-linejoin:round"
             y="0"
             width="100%"
             height="100%" />
          <use
             x="669.92188"
             xlink:href="#ArialMT-20"
             id="use242"
             style="stroke-linecap:butt;stroke-linejoin:round"
             y="0"
             width="100%"
             height="100%" />
          <use
             x="697.70508"
             xlink:href="#ArialMT-30"
             id="use244"
             style="stroke-linecap:butt;stroke-linejoin:round"
             y="0"
             width="100%"
             height="100%" />
          <use
             x="753.32031"
             xlink:href="#ArialMT-2e"
             id="use246"
             style="stroke-linecap:butt;stroke-linejoin:round"
             y="0"
             width="100%"
             height="100%" />
          <use
             x="781.10352"
             xlink:href="#ArialMT-30"
             id="use248"
             style="stroke-linecap:butt;stroke-linejoin:round"
             y="0"
             width="100%"
             height="100%" />
          <use
             x="836.71875"
             xlink:href="#ArialMT-30"
             id="use250"
             style="stroke-linecap:butt;stroke-linejoin:round"
             y="0"
             width="100%"
             height="100%" />
          <use
             x="892.33398"
             xlink:href="#ArialMT-31"
             id="use252"
             style="stroke-linecap:butt;stroke-linejoin:round"
             y="0"
             width="100%"
             height="100%" />
        </g>
      </g>
    </g>
    <g
       id="legend_1"
       style="stroke-linecap:butt;stroke-linejoin:round" />
  </g>
  <defs
     id="defs263">
    <clipPath
       id="p3203909a6a"
       style="stroke-linecap:butt;stroke-linejoin:round">
      <rect
         height="285.77692"
         width="397.92621"
         x="102.78975"
         y="54.782001"
         id="rect260"
         style="stroke-linecap:butt;stroke-linejoin:round" />
    </clipPath>
  </defs>
</svg>
