<?xml version="1.0" encoding="UTF-8" standalone="no"?>
<!-- Created with matplotlib (http://matplotlib.org/) -->

<svg
   xmlns:dc="http://purl.org/dc/elements/1.1/"
   xmlns:cc="http://creativecommons.org/ns#"
   xmlns:rdf="http://www.w3.org/1999/02/22-rdf-syntax-ns#"
   xmlns:svg="http://www.w3.org/2000/svg"
   xmlns="http://www.w3.org/2000/svg"
   xmlns:xlink="http://www.w3.org/1999/xlink"
   xmlns:sodipodi="http://sodipodi.sourceforge.net/DTD/sodipodi-0.dtd"
   xmlns:inkscape="http://www.inkscape.org/namespaces/inkscape"
   height="396.36002pt"
   version="1.1"
   viewBox="0 0 558.25305 396.36001"
   width="558.25305pt"
   id="svg267"
   sodipodi:docname="loss.svg"
   inkscape:version="0.92.3 (2405546, 2018-03-11)">
  <metadata
     id="metadata271">
    <rdf:RDF>
      <cc:Work
         rdf:about="">
        <dc:format>image/svg+xml</dc:format>
        <dc:type
           rdf:resource="http://purl.org/dc/dcmitype/StillImage" />
      </cc:Work>
    </rdf:RDF>
  </metadata>
  <sodipodi:namedview
     pagecolor="#ffffff"
     bordercolor="#666666"
     borderopacity="1"
     objecttolerance="10"
     gridtolerance="10"
     guidetolerance="10"
     inkscape:pageopacity="0"
     inkscape:pageshadow="2"
     inkscape:window-width="1210"
     inkscape:window-height="615"
     id="namedview269"
     showgrid="false"
     inkscape:zoom="0.62900273"
     inkscape:cx="501.38152"
     inkscape:cy="255.94026"
     inkscape:window-x="57"
     inkscape:window-y="27"
     inkscape:window-maximized="0"
     inkscape:current-layer="axes_1" />
  <defs
     id="defs4"
     style="stroke-linecap:butt;stroke-linejoin:round">
    <style
       type="text/css"
       id="style2">
*{stroke-linecap:butt;stroke-linejoin:round;}
  </style>
    <path
       inkscape:connector-curvature="0"
       d="M 8.203125,0 V 71.578125 H 56.5 v -8.4375 H 17.671875 V 40.96875 h 33.59375 V 32.515625 H 17.671875 V 0 Z"
       id="ArialMT-46"
       style="stroke-linecap:butt;stroke-linejoin:round" />
    <path
       inkscape:connector-curvature="0"
       d="M 25.921875,0 V 63.140625 H 2.34375 v 8.4375 h 56.734375 v -8.4375 H 35.40625 V 0 Z"
       id="ArialMT-54"
       style="stroke-linecap:butt;stroke-linejoin:round" />
    <path
       inkscape:connector-curvature="0"
       d="M 8.203125,0 V 71.578125 H 56.5 v -8.4375 H 17.671875 V 40.96875 h 33.59375 V 32.515625 H 17.671875 V 0 Z"
       id="path398"
       style="stroke-linecap:butt;stroke-linejoin:round" />
    <path
       inkscape:connector-curvature="0"
       d="M 25.921875,0 V 63.140625 H 2.34375 v 8.4375 h 56.734375 v -8.4375 H 35.40625 V 0 Z"
       id="path410"
       style="stroke-linecap:butt;stroke-linejoin:round" />
    <path
       inkscape:connector-curvature="0"
       d="M 8.203125,0 V 71.578125 H 56.5 v -8.4375 H 17.671875 V 40.96875 h 33.59375 V 32.515625 H 17.671875 V 0 Z"
       id="path480"
       style="stroke-linecap:butt;stroke-linejoin:round" />
    <path
       inkscape:connector-curvature="0"
       d="M 25.921875,0 V 63.140625 H 2.34375 v 8.4375 h 56.734375 v -8.4375 H 35.40625 V 0 Z"
       id="path492"
       style="stroke-linecap:butt;stroke-linejoin:round" />
  </defs>
  <g
     id="figure_1"
     style="stroke-linecap:butt;stroke-linejoin:round"
     transform="translate(-93.400387,-15.638791)">
    <g
       id="axes_1"
       style="stroke-linecap:butt;stroke-linejoin:round">
      <g
         id="patch_2"
         style="stroke-linecap:butt;stroke-linejoin:round">
        <path
           d="M 152.85605,340.6718 H 576.59706 V 35.7588 H 152.85605 Z"
           style="fill:#ffffff;stroke-linecap:butt;stroke-linejoin:round"
           id="path9"
           inkscape:connector-curvature="0" />
      </g>
      <g
         id="matplotlib.axis_1"
         style="stroke-linecap:butt;stroke-linejoin:round">
        <g
           id="xtick_1"
           style="stroke-linecap:butt;stroke-linejoin:round">
          <g
             id="text_1"
             style="stroke-linecap:butt;stroke-linejoin:round">
            <!-- drums -->
            <defs
               id="defs17">
              <path
                 d="m 40.234375,0 v 6.546875 q -4.9375,-7.71875 -14.5,-7.71875 -6.203125,0 -11.40625,3.421875 -5.203125,3.421875 -8.0625,9.546875 -2.84375,6.125 -2.84375,14.078125 0,7.765625 2.578125,14.09375 2.59375,6.328125 7.765625,9.6875 5.1875,3.375 11.578125,3.375 4.6875,0 8.34375,-1.984375 3.671875,-1.96875 5.96875,-5.140625 v 25.671875 h 8.734375 V 0 Z m -27.78125,25.875 q 0,-9.953125 4.1875,-14.890625 Q 20.84375,6.0625 26.5625,6.0625 q 5.765625,0 9.78125,4.703125 4.03125,4.71875 4.03125,14.375 0,10.65625 -4.109375,15.625 Q 32.171875,45.75 26.171875,45.75 20.3125,45.75 16.375,40.96875 12.453125,36.1875 12.453125,25.875 Z"
                 id="ArialMT-64"
                 inkscape:connector-curvature="0"
                 style="stroke-linecap:butt;stroke-linejoin:round" />
              <path
                 d="m 6.5,0 v 51.859375 h 7.90625 V 44 Q 17.4375,49.515625 20,51.265625 q 2.5625,1.765625 5.640625,1.765625 4.4375,0 9.03125,-2.828125 l -3.03125,-8.15625 q -3.21875,1.90625 -6.4375,1.90625 -2.890625,0 -5.1875,-1.734375 -2.296875,-1.734375 -3.265625,-4.8125 -1.46875,-4.6875 -1.46875,-10.25 V 0 Z"
                 id="ArialMT-72"
                 inkscape:connector-curvature="0"
                 style="stroke-linecap:butt;stroke-linejoin:round" />
              <path
                 d="m 40.578125,0 v 7.625 q -6.0625,-8.796875 -16.453125,-8.796875 -4.59375,0 -8.578125,1.75 Q 11.578125,2.34375 9.640625,5 7.71875,7.671875 6.9375,11.53125 6.390625,14.109375 6.390625,19.734375 v 32.125 H 15.1875 V 23.09375 q 0,-6.875 0.53125,-9.28125 0.828125,-3.453125 3.515625,-5.4375 2.6875,-1.984375 6.640625,-1.984375 3.953125,0 7.421875,2.03125 3.46875,2.03125 4.90625,5.515625 1.453125,3.5 1.453125,10.140625 v 27.78125 H 48.4375 V 0 Z"
                 id="ArialMT-75"
                 inkscape:connector-curvature="0"
                 style="stroke-linecap:butt;stroke-linejoin:round" />
              <path
                 d="m 6.59375,0 v 51.859375 h 7.859375 v -7.28125 q 2.4375,3.8125 6.484375,6.125 4.0625,2.328125 9.234375,2.328125 5.765625,0 9.453125,-2.390625 3.6875,-2.390625 5.203125,-6.6875 6.15625,9.078125 16.015625,9.078125 7.71875,0 11.859375,-4.28125 4.15625,-4.265625 4.15625,-13.15625 V 0 h -8.75 v 32.671875 q 0,5.265625 -0.859375,7.578125 -0.84375,2.328125 -3.09375,3.734375 -2.234375,1.421875 -5.265625,1.421875 -5.46875,0 -9.09375,-3.640625 Q 46.1875,38.140625 46.1875,30.125 V 0 h -8.78125 v 33.6875 q 0,5.859375 -2.15625,8.78125 -2.140625,2.9375 -7.03125,2.9375 -3.703125,0 -6.859375,-1.953125 Q 18.21875,41.5 16.796875,37.734375 15.375,33.984375 15.375,26.90625 V 0 Z"
                 id="ArialMT-6d"
                 inkscape:connector-curvature="0"
                 style="stroke-linecap:butt;stroke-linejoin:round" />
              <path
                 d="m 3.078125,15.484375 8.6875,1.359375 Q 12.5,11.625 15.84375,8.84375 19.1875,6.0625 25.203125,6.0625 q 6.046875,0 8.96875,2.453125 2.9375,2.46875 2.9375,5.796875 0,2.96875 -2.59375,4.6875 Q 32.71875,20.171875 25.53125,21.96875 15.875,24.421875 12.140625,26.203125 8.40625,27.984375 6.46875,31.125 q -1.921875,3.15625 -1.921875,6.96875 0,3.453125 1.578125,6.40625 1.59375,2.96875 4.328125,4.921875 2.046875,1.5 5.578125,2.546875 3.546875,1.0625 7.609375,1.0625 6.09375,0 10.703125,-1.765625 4.625,-1.75 6.8125,-4.765625 2.203125,-3 3.03125,-8.015625 L 35.59375,37.3125 q -0.578125,4 -3.390625,6.234375 -2.8125,2.25 -7.9375,2.25 -6.046875,0 -8.640625,-2 -2.59375,-2 -2.59375,-4.6875 0,-1.703125 1.078125,-3.078125 1.078125,-1.40625 3.375,-2.34375 1.3125,-0.484375 7.765625,-2.234375 9.328125,-2.5 13,-4.09375 3.6875,-1.578125 5.78125,-4.609375 2.109375,-3.015625 2.109375,-7.515625 0,-4.390625 -2.5625,-8.28125 -2.5625,-3.875 -7.40625,-6 -4.828125,-2.125 -10.921875,-2.125 -10.109375,0 -15.40625,4.203125 -5.296875,4.203125 -6.765625,12.453125 z"
                 id="ArialMT-73"
                 inkscape:connector-curvature="0"
                 style="stroke-linecap:butt;stroke-linejoin:round" />
            </defs>
            <g
               style="fill:#262626;stroke-linecap:butt;stroke-linejoin:round"
               transform="matrix(0.2475,0,0,-0.2475,171.44438,370.88739)"
               id="g29">
              <use
                 xlink:href="#ArialMT-64"
                 id="use19"
                 style="stroke-linecap:butt;stroke-linejoin:round"
                 x="0"
                 y="0"
                 width="100%"
                 height="100%" />
              <use
                 x="55.615234"
                 xlink:href="#ArialMT-72"
                 id="use21"
                 style="stroke-linecap:butt;stroke-linejoin:round"
                 y="0"
                 width="100%"
                 height="100%" />
              <use
                 x="88.916016"
                 xlink:href="#ArialMT-75"
                 id="use23"
                 style="stroke-linecap:butt;stroke-linejoin:round"
                 y="0"
                 width="100%"
                 height="100%" />
              <use
                 x="144.53125"
                 xlink:href="#ArialMT-6d"
                 id="use25"
                 style="stroke-linecap:butt;stroke-linejoin:round"
                 y="0"
                 width="100%"
                 height="100%" />
              <use
                 x="227.83203"
                 xlink:href="#ArialMT-73"
                 id="use27"
                 style="stroke-linecap:butt;stroke-linejoin:round"
                 y="0"
                 width="100%"
                 height="100%" />
            </g>
          </g>
        </g>
        <g
           id="xtick_2"
           style="stroke-linecap:butt;stroke-linejoin:round">
          <g
             id="text_2"
             style="stroke-linecap:butt;stroke-linejoin:round">
            <!-- vocals -->
            <defs
               id="defs38">
              <path
                 d="M 21,0 1.265625,51.859375 h 9.28125 L 21.6875,20.796875 q 1.796875,-5.03125 3.3125,-10.4375 1.171875,4.09375 3.265625,9.859375 l 11.53125,31.640625 h 9.03125 L 29.203125,0 Z"
                 id="ArialMT-76"
                 inkscape:connector-curvature="0"
                 style="stroke-linecap:butt;stroke-linejoin:round" />
              <path
                 d="m 3.328125,25.921875 q 0,14.40625 8,21.34375 6.6875,5.765625 16.3125,5.765625 10.6875,0 17.46875,-7.015625 6.796875,-7 6.796875,-19.359375 0,-10 -3,-15.75 -3,-5.734375 -8.75,-8.90625 Q 34.421875,-1.171875 27.640625,-1.171875 16.75,-1.171875 10.03125,5.8125 3.328125,12.796875 3.328125,25.921875 Z m 9.03125,0 q 0,-9.953125 4.34375,-14.90625 4.34375,-4.953125 10.9375,-4.953125 6.546875,0 10.890625,4.96875 4.34375,4.984375 4.34375,15.1875 0,9.625 -4.375,14.578125 Q 34.125,45.75 27.640625,45.75 q -6.59375,0 -10.9375,-4.9375 -4.34375,-4.921875 -4.34375,-14.890625 z"
                 id="ArialMT-6f"
                 inkscape:connector-curvature="0"
                 style="stroke-linecap:butt;stroke-linejoin:round" />
              <path
                 d="m 40.4375,19 8.640625,-1.125 Q 47.65625,8.9375 41.8125,3.875 35.984375,-1.171875 27.484375,-1.171875 16.84375,-1.171875 10.375,5.78125 3.90625,12.75 3.90625,25.734375 q 0,8.390625 2.78125,14.6875 2.78125,6.3125 8.46875,9.453125 5.6875,3.15625 12.390625,3.15625 8.4375,0 13.8125,-4.28125 5.375,-4.265625 6.890625,-12.125 l -8.546875,-1.328125 q -1.21875,5.234375 -4.328125,7.859375 -3.09375,2.640625 -7.5,2.640625 -6.640625,0 -10.796875,-4.765625 -4.140625,-4.75 -4.140625,-15.046875 0,-10.453125 4,-15.1875 Q 20.953125,6.0625 27.390625,6.0625 32.5625,6.0625 36.03125,9.234375 39.5,12.40625 40.4375,19 Z"
                 id="ArialMT-63"
                 inkscape:connector-curvature="0"
                 style="stroke-linecap:butt;stroke-linejoin:round" />
              <path
                 d="M 40.4375,6.390625 Q 35.546875,2.25 31.03125,0.53125 q -4.515625,-1.703125 -9.6875,-1.703125 -8.546875,0 -13.140625,4.171875 -4.59375,4.171875 -4.59375,10.671875 0,3.8125 1.734375,6.953125 1.734375,3.15625 4.546875,5.0625 2.8125,1.90625 6.328125,2.875 2.578125,0.6875 7.8125,1.328125 10.640625,1.265625 15.671875,3.015625 0.04687,1.8125 0.04687,2.296875 0,5.375 -2.5,7.578125 -3.359375,2.96875 -10,2.96875 -6.203125,0 -9.15625,-2.171875 -2.953125,-2.171875 -4.375,-7.6875 L 5.125,37.0625 q 1.171875,5.515625 3.859375,8.90625 2.6875,3.390625 7.765625,5.21875 5.078125,1.84375 11.765625,1.84375 6.640625,0 10.78125,-1.5625 4.15625,-1.5625 6.109375,-3.9375 1.953125,-2.359375 2.734375,-5.984375 0.4375,-2.234375 0.4375,-8.09375 v -11.71875 q 0,-12.265625 0.5625,-15.515625 Q 49.703125,2.984375 51.375,0 h -9.1875 q -1.359375,2.734375 -1.75,6.390625 z M 39.703125,26.03125 Q 34.90625,24.078125 25.34375,22.703125 19.921875,21.921875 17.671875,20.9375 15.4375,19.96875 14.203125,18.09375 q -1.21875,-1.875 -1.21875,-4.171875 0,-3.515625 2.65625,-5.859375 2.671875,-2.34375 7.796875,-2.34375 5.078125,0 9.03125,2.21875 3.953125,2.21875 5.8125,6.078125 1.421875,2.984375 1.421875,8.78125 z"
                 id="ArialMT-61"
                 inkscape:connector-curvature="0"
                 style="stroke-linecap:butt;stroke-linejoin:round" />
              <path
                 d="M 6.390625,0 V 71.578125 H 15.1875 V 0 Z"
                 id="ArialMT-6c"
                 inkscape:connector-curvature="0"
                 style="stroke-linecap:butt;stroke-linejoin:round" />
            </defs>
            <g
               style="fill:#262626;stroke-linecap:butt;stroke-linejoin:round"
               transform="matrix(0.2475,0,0,-0.2475,276.68354,370.88739)"
               id="g52">
              <use
                 xlink:href="#ArialMT-76"
                 id="use40"
                 style="stroke-linecap:butt;stroke-linejoin:round"
                 x="0"
                 y="0"
                 width="100%"
                 height="100%" />
              <use
                 x="50"
                 xlink:href="#ArialMT-6f"
                 id="use42"
                 style="stroke-linecap:butt;stroke-linejoin:round"
                 y="0"
                 width="100%"
                 height="100%" />
              <use
                 x="105.61523"
                 xlink:href="#ArialMT-63"
                 id="use44"
                 style="stroke-linecap:butt;stroke-linejoin:round"
                 y="0"
                 width="100%"
                 height="100%" />
              <use
                 x="155.61523"
                 xlink:href="#ArialMT-61"
                 id="use46"
                 style="stroke-linecap:butt;stroke-linejoin:round"
                 y="0"
                 width="100%"
                 height="100%" />
              <use
                 x="211.23047"
                 xlink:href="#ArialMT-6c"
                 id="use48"
                 style="stroke-linecap:butt;stroke-linejoin:round"
                 y="0"
                 width="100%"
                 height="100%" />
              <use
                 x="233.44727"
                 xlink:href="#ArialMT-73"
                 id="use50"
                 style="stroke-linecap:butt;stroke-linejoin:round"
                 y="0"
                 width="100%"
                 height="100%" />
            </g>
          </g>
        </g>
        <g
           id="xtick_3"
           style="stroke-linecap:butt;stroke-linejoin:round">
          <g
             id="text_3"
             style="stroke-linecap:butt;stroke-linejoin:round">
            <!-- other -->
            <defs
               id="defs59">
              <path
                 d="M 25.78125,7.859375 27.046875,0.09375 Q 23.34375,-0.6875 20.40625,-0.6875 15.625,-0.6875 12.984375,0.828125 10.359375,2.34375 9.28125,4.8125 8.203125,7.28125 8.203125,15.1875 v 29.828125 h -6.4375 v 6.84375 h 6.4375 v 12.84375 L 16.9375,69.96875 V 51.859375 h 8.84375 v -6.84375 H 16.9375 v -30.3125 q 0,-3.765625 0.46875,-4.84375 0.46875,-1.0625 1.515625,-1.703125 1.046875,-0.640625 3,-0.640625 1.46875,0 3.859375,0.34375 z"
                 id="ArialMT-74"
                 inkscape:connector-curvature="0"
                 style="stroke-linecap:butt;stroke-linejoin:round" />
              <path
                 d="M 6.59375,0 V 71.578125 H 15.375 V 45.90625 q 6.15625,7.125 15.53125,7.125 5.765625,0 10.015625,-2.28125 4.25,-2.265625 6.078125,-6.265625 1.828125,-4 1.828125,-11.625 V 0 h -8.78125 v 32.859375 q 0,6.59375 -2.859375,9.59375 -2.859375,3 -8.078125,3 -3.90625,0 -7.359375,-2.03125 Q 18.3125,41.40625 16.84375,37.9375 15.375,34.46875 15.375,28.375 V 0 Z"
                 id="ArialMT-68"
                 inkscape:connector-curvature="0"
                 style="stroke-linecap:butt;stroke-linejoin:round" />
              <path
                 d="m 42.09375,16.703125 9.078125,-1.125 Q 49.03125,7.625 43.21875,3.21875 37.40625,-1.171875 28.375,-1.171875 q -11.375,0 -18.046875,7 -6.671875,7.015625 -6.671875,19.65625 0,13.09375 6.734375,20.3125 6.75,7.234375 17.484375,7.234375 10.40625,0 17,-7.078125 6.59375,-7.078125 6.59375,-19.921875 0,-0.78125 -0.04687,-2.34375 H 12.75 q 0.484375,-8.546875 4.828125,-13.09375 4.34375,-4.53125 10.84375,-4.53125 4.828125,0 8.25,2.53125 3.421875,2.546875 5.421875,8.109375 z M 13.234375,30.90625 H 42.1875 q -0.578125,6.546875 -3.3125,9.8125 -4.203125,5.078125 -10.890625,5.078125 -6.0625,0 -10.1875,-4.046875 -4.125,-4.046875 -4.5625,-10.84375 z"
                 id="ArialMT-65"
                 inkscape:connector-curvature="0"
                 style="stroke-linecap:butt;stroke-linejoin:round" />
            </defs>
            <g
               style="fill:#262626;stroke-linecap:butt;stroke-linejoin:round"
               transform="matrix(0.2475,0,0,-0.2475,389.49078,370.88739)"
               id="g71">
              <use
                 xlink:href="#ArialMT-6f"
                 id="use61"
                 style="stroke-linecap:butt;stroke-linejoin:round"
                 x="0"
                 y="0"
                 width="100%"
                 height="100%" />
              <use
                 x="55.615234"
                 xlink:href="#ArialMT-74"
                 id="use63"
                 style="stroke-linecap:butt;stroke-linejoin:round"
                 y="0"
                 width="100%"
                 height="100%" />
              <use
                 x="83.398438"
                 xlink:href="#ArialMT-68"
                 id="use65"
                 style="stroke-linecap:butt;stroke-linejoin:round"
                 y="0"
                 width="100%"
                 height="100%" />
              <use
                 x="139.01367"
                 xlink:href="#ArialMT-65"
                 id="use67"
                 style="stroke-linecap:butt;stroke-linejoin:round"
                 y="0"
                 width="100%"
                 height="100%" />
              <use
                 x="194.62891"
                 xlink:href="#ArialMT-72"
                 id="use69"
                 style="stroke-linecap:butt;stroke-linejoin:round"
                 y="0"
                 width="100%"
                 height="100%" />
            </g>
          </g>
        </g>
        <g
           id="xtick_4"
           style="stroke-linecap:butt;stroke-linejoin:round">
          <g
             id="text_4"
             style="stroke-linecap:butt;stroke-linejoin:round">
            <!-- bass -->
            <defs
               id="defs76">
              <path
                 d="m 14.703125,0 h -8.15625 v 71.578125 h 8.78125 v -25.53125 q 5.578125,6.984375 14.21875,6.984375 4.78125,0 9.046875,-1.9375 Q 42.875,49.171875 45.625,45.671875 48.390625,42.1875 49.953125,37.25 q 1.5625,-4.921875 1.5625,-10.546875 0,-13.328125 -6.59375,-20.609375 -6.59375,-7.265625 -15.8125,-7.265625 -9.1875,0 -14.40625,7.671875 z M 14.59375,26.3125 Q 14.59375,17 17.140625,12.84375 21.296875,6.0625 28.375,6.0625 q 5.75,0 9.953125,5 4.203125,5 4.203125,14.921875 0,10.15625 -4.03125,14.984375 -4.03125,4.828125 -9.734375,4.828125 -5.765625,0 -9.96875,-5 -4.203125,-5 -4.203125,-14.484375 z"
                 id="ArialMT-62"
                 inkscape:connector-curvature="0"
                 style="stroke-linecap:butt;stroke-linejoin:round" />
            </defs>
            <g
               style="fill:#262626;stroke-linecap:butt;stroke-linejoin:round"
               transform="matrix(0.2475,0,0,-0.2475,497.49111,370.88739)"
               id="g86">
              <use
                 xlink:href="#ArialMT-62"
                 id="use78"
                 style="stroke-linecap:butt;stroke-linejoin:round"
                 x="0"
                 y="0"
                 width="100%"
                 height="100%" />
              <use
                 x="55.615234"
                 xlink:href="#ArialMT-61"
                 id="use80"
                 style="stroke-linecap:butt;stroke-linejoin:round"
                 y="0"
                 width="100%"
                 height="100%" />
              <use
                 x="111.23047"
                 xlink:href="#ArialMT-73"
                 id="use82"
                 style="stroke-linecap:butt;stroke-linejoin:round"
                 y="0"
                 width="100%"
                 height="100%" />
              <use
                 x="161.23047"
                 xlink:href="#ArialMT-73"
                 id="use84"
                 style="stroke-linecap:butt;stroke-linejoin:round"
                 y="0"
                 width="100%"
                 height="100%" />
            </g>
          </g>
        </g>
        <g
           id="text_5"
           style="stroke-linecap:butt;stroke-linejoin:round"
           transform="translate(0,7.4999995)">
          <!-- target -->
          <defs
             id="defs91">
            <path
               d="M 4.984375,-4.296875 13.53125,-5.5625 q 0.53125,-3.953125 2.96875,-5.765625 3.28125,-2.4375 8.9375,-2.4375 6.109375,0 9.421875,2.4375 3.328125,2.4375 4.5,6.828125 0.6875,2.6875 0.625,11.28125 Q 34.234375,0 25.640625,0 14.9375,0 9.078125,7.71875 q -5.859375,7.71875 -5.859375,18.5 0,7.421875 2.6875,13.6875 2.6875,6.28125 7.78125,9.703125 5.109375,3.421875 12,3.421875 9.171875,0 15.140625,-7.421875 v 6.25 h 8.09375 V 7.03125 q 0,-12.109375 -2.46875,-17.15625 -2.453125,-5.0625 -7.8125,-7.984375 -5.34375,-2.9375 -13.15625,-2.9375 -9.265625,0 -14.984375,4.171875 -5.71875,4.171875 -5.515625,12.578125 z M 12.25,26.859375 q 0,-10.203125 4.046875,-14.890625 4.0625,-4.6875 10.171875,-4.6875 6.046875,0 10.140625,4.65625 4.109375,4.671875 4.109375,14.625 0,9.515625 -4.21875,14.34375 Q 32.28125,45.75 26.3125,45.75 q -5.859375,0 -9.96875,-4.765625 -4.09375,-4.75 -4.09375,-14.125 z"
               id="ArialMT-67"
               inkscape:connector-curvature="0"
               style="stroke-linecap:butt;stroke-linejoin:round" />
          </defs>
          <g
             style="fill:#262626;stroke-linecap:butt;stroke-linejoin:round"
             transform="matrix(0.27,0,0,-0.27,330.20874,398.81614)"
             id="g105">
            <use
               xlink:href="#ArialMT-74"
               id="use93"
               style="stroke-linecap:butt;stroke-linejoin:round"
               x="0"
               y="0"
               width="100%"
               height="100%" />
            <use
               x="27.783203"
               xlink:href="#ArialMT-61"
               id="use95"
               style="stroke-linecap:butt;stroke-linejoin:round"
               y="0"
               width="100%"
               height="100%" />
            <use
               x="83.398438"
               xlink:href="#ArialMT-72"
               id="use97"
               style="stroke-linecap:butt;stroke-linejoin:round"
               y="0"
               width="100%"
               height="100%" />
            <use
               x="116.69922"
               xlink:href="#ArialMT-67"
               id="use99"
               style="stroke-linecap:butt;stroke-linejoin:round"
               y="0"
               width="100%"
               height="100%" />
            <use
               x="172.31445"
               xlink:href="#ArialMT-65"
               id="use101"
               style="stroke-linecap:butt;stroke-linejoin:round"
               y="0"
               width="100%"
               height="100%" />
            <use
               x="227.92969"
               xlink:href="#ArialMT-74"
               id="use103"
               style="stroke-linecap:butt;stroke-linejoin:round"
               y="0"
               width="100%"
               height="100%" />
          </g>
        </g>
      </g>
      <g
         id="matplotlib.axis_2"
         style="stroke-linecap:butt;stroke-linejoin:round">
        <g
           id="ytick_1"
           style="stroke-linecap:butt;stroke-linejoin:round">
          <g
             id="line2d_1"
             style="stroke-linecap:butt;stroke-linejoin:round">
            <path
               clip-path="url(#p1dda561dfa)"
               d="M 152.85605,340.6718 H 576.59706"
               style="fill:none;stroke:#cccccc;stroke-width:1.5;stroke-linecap:round;stroke-linejoin:round"
               id="path109"
               inkscape:connector-curvature="0" />
          </g>
          <g
             id="text_6"
             style="stroke-linecap:butt;stroke-linejoin:round">
            <!-- 0 -->
            <defs
               id="defs113">
              <path
                 d="m 4.15625,35.296875 q 0,12.703125 2.609375,20.4375 2.609375,7.75 7.75,11.9375 5.15625,4.203125 12.96875,4.203125 5.765625,0 10.109375,-2.328125 4.34375,-2.3125 7.171875,-6.6875 Q 47.609375,58.5 49.21875,52.21875 q 1.609375,-6.265625 1.609375,-16.921875 0,-12.59375 -2.59375,-20.328125 Q 45.65625,7.234375 40.5,3 35.359375,-1.21875 27.484375,-1.21875 q -10.34375,0 -16.25,7.421875 -7.078125,8.9375 -7.078125,29.09375 z m 9.03125,0 q 0,-17.625 4.125,-23.46875 Q 21.4375,6 27.484375,6 q 6.0625,0 10.1875,5.859375 4.125,5.859375 4.125,23.4375 0,17.6875 -4.125,23.484375 -4.125,5.8125 -10.28125,5.8125 -6.046875,0 -9.671875,-5.125 Q 13.1875,52.9375 13.1875,35.296875 Z"
                 id="ArialMT-30"
                 inkscape:connector-curvature="0"
                 style="stroke-linecap:butt;stroke-linejoin:round" />
            </defs>
            <g
               style="fill:#262626;stroke-linecap:butt;stroke-linejoin:round"
               transform="matrix(0.2475,0,0,-0.2475,126.59273,349.52959)"
               id="g117">
              <use
                 xlink:href="#ArialMT-30"
                 id="use115"
                 style="stroke-linecap:butt;stroke-linejoin:round"
                 x="0"
                 y="0"
                 width="100%"
                 height="100%" />
            </g>
          </g>
        </g>
        <g
           id="ytick_2"
           style="stroke-linecap:butt;stroke-linejoin:round">
          <g
             id="line2d_2"
             style="stroke-linecap:butt;stroke-linejoin:round">
            <path
               clip-path="url(#p1dda561dfa)"
               d="M 152.85605,254.85342 H 576.59706"
               style="fill:none;stroke:#cccccc;stroke-width:1.5;stroke-linecap:round;stroke-linejoin:round"
               id="path121"
               inkscape:connector-curvature="0" />
          </g>
          <g
             id="text_7"
             style="stroke-linecap:butt;stroke-linejoin:round">
            <!-- 2 -->
            <defs
               id="defs125">
              <path
                 d="M 50.34375,8.453125 V 0 H 3.03125 Q 2.9375,3.171875 4.046875,6.109375 5.859375,10.9375 9.828125,15.625 13.8125,20.3125 21.34375,26.46875 q 11.671875,9.5625 15.765625,15.15625 4.109375,5.59375 4.109375,10.578125 0,5.21875 -3.75,8.796875 -3.734375,3.59375 -9.734375,3.59375 -6.34375,0 -10.15625,-3.8125 Q 13.765625,56.984375 13.71875,50.25 L 4.6875,51.171875 q 0.921875,10.109375 6.96875,15.40625 6.0625,5.296875 16.28125,5.296875 10.296875,0 16.296875,-5.71875 Q 50.25,60.453125 50.25,52 50.25,47.703125 48.484375,43.546875 46.734375,39.40625 42.65625,34.8125 38.578125,30.21875 29.109375,22.21875 21.1875,15.578125 18.9375,13.203125 q -2.234375,-2.359375 -3.703125,-4.75 z"
                 id="ArialMT-32"
                 inkscape:connector-curvature="0"
                 style="stroke-linecap:butt;stroke-linejoin:round" />
            </defs>
            <g
               style="fill:#262626;stroke-linecap:butt;stroke-linejoin:round"
               transform="matrix(0.2475,0,0,-0.2475,126.59273,263.71121)"
               id="g129">
              <use
                 xlink:href="#ArialMT-32"
                 id="use127"
                 style="stroke-linecap:butt;stroke-linejoin:round"
                 x="0"
                 y="0"
                 width="100%"
                 height="100%" />
            </g>
          </g>
        </g>
        <g
           id="ytick_3"
           style="stroke-linecap:butt;stroke-linejoin:round">
          <g
             id="line2d_3"
             style="stroke-linecap:butt;stroke-linejoin:round">
            <path
               clip-path="url(#p1dda561dfa)"
               d="M 152.85605,169.03504 H 576.59706"
               style="fill:none;stroke:#cccccc;stroke-width:1.5;stroke-linecap:round;stroke-linejoin:round"
               id="path133"
               inkscape:connector-curvature="0" />
          </g>
          <g
             id="text_8"
             style="stroke-linecap:butt;stroke-linejoin:round">
            <!-- 4 -->
            <defs
               id="defs137">
              <path
                 d="m 32.328125,0 v 17.140625 h -31.0625 v 8.0625 l 32.671875,46.375 h 7.171875 v -46.375 h 9.671875 v -8.0625 H 41.109375 V 0 Z m 0,25.203125 V 57.46875 L 9.90625,25.203125 Z"
                 id="ArialMT-34"
                 inkscape:connector-curvature="0"
                 style="stroke-linecap:butt;stroke-linejoin:round" />
            </defs>
            <g
               style="fill:#262626;stroke-linecap:butt;stroke-linejoin:round"
               transform="matrix(0.2475,0,0,-0.2475,126.59273,177.89284)"
               id="g141">
              <use
                 xlink:href="#ArialMT-34"
                 id="use139"
                 style="stroke-linecap:butt;stroke-linejoin:round"
                 x="0"
                 y="0"
                 width="100%"
                 height="100%" />
            </g>
          </g>
        </g>
        <g
           id="ytick_4"
           style="stroke-linecap:butt;stroke-linejoin:round">
          <g
             id="line2d_4"
             style="stroke-linecap:butt;stroke-linejoin:round">
            <path
               clip-path="url(#p1dda561dfa)"
               d="M 152.85605,83.216667 H 576.59706"
               style="fill:none;stroke:#cccccc;stroke-width:1.5;stroke-linecap:round;stroke-linejoin:round"
               id="path145"
               inkscape:connector-curvature="0" />
          </g>
          <g
             id="text_9"
             style="stroke-linecap:butt;stroke-linejoin:round">
            <!-- 6 -->
            <defs
               id="defs149">
              <path
                 d="M 49.75,54.046875 41.015625,53.375 q -1.171875,5.171875 -3.3125,7.515625 -3.578125,3.765625 -8.796875,3.765625 -4.203125,0 -7.375,-2.34375 Q 17.390625,59.28125 14.984375,53.46875 12.59375,47.65625 12.5,36.921875 15.671875,41.75 20.265625,44.09375 q 4.59375,2.34375 9.625,2.34375 8.78125,0 14.953125,-6.46875 Q 51.03125,33.5 51.03125,23.25 51.03125,16.5 48.125,10.71875 45.21875,4.9375 40.140625,1.859375 35.0625,-1.21875 28.609375,-1.21875 17.625,-1.21875 10.6875,6.859375 3.765625,14.9375 3.765625,33.5 q 0,20.75 7.65625,30.171875 6.6875,8.203125 18.015625,8.203125 8.453125,0 13.84375,-4.734375 Q 48.6875,62.40625 49.75,54.046875 Z M 13.875,23.1875 q 0,-4.53125 1.921875,-8.6875 Q 17.71875,10.359375 21.1875,8.171875 24.65625,6 28.46875,6 q 5.5625,0 9.5625,4.484375 4.015625,4.5 4.015625,12.21875 0,7.421875 -3.96875,11.6875 -3.953125,4.28125 -9.953125,4.28125 -5.953125,0 -10.109375,-4.28125 Q 13.875,30.125 13.875,23.1875 Z"
                 id="ArialMT-36"
                 inkscape:connector-curvature="0"
                 style="stroke-linecap:butt;stroke-linejoin:round" />
            </defs>
            <g
               style="fill:#262626;stroke-linecap:butt;stroke-linejoin:round"
               transform="matrix(0.2475,0,0,-0.2475,126.59273,92.07446)"
               id="g153">
              <use
                 xlink:href="#ArialMT-36"
                 id="use151"
                 style="stroke-linecap:butt;stroke-linejoin:round"
                 x="0"
                 y="0"
                 width="100%"
                 height="100%" />
            </g>
          </g>
        </g>
        <g
           id="text_10"
           style="stroke-linecap:butt;stroke-linejoin:round"
           transform="translate(-4.4999997)">
          <!-- loss -->
          <g
             style="fill:#262626;stroke-linecap:butt;stroke-linejoin:round"
             transform="matrix(0,-0.27,-0.27,0,117.22648,212.2221)"
             id="g165">
            <use
               xlink:href="#ArialMT-6c"
               id="use157"
               style="stroke-linecap:butt;stroke-linejoin:round"
               x="0"
               y="0"
               width="100%"
               height="100%" />
            <use
               x="22.216797"
               xlink:href="#ArialMT-6f"
               id="use159"
               style="stroke-linecap:butt;stroke-linejoin:round"
               y="0"
               width="100%"
               height="100%" />
            <use
               x="77.832031"
               xlink:href="#ArialMT-73"
               id="use161"
               style="stroke-linecap:butt;stroke-linejoin:round"
               y="0"
               width="100%"
               height="100%" />
            <use
               x="127.83203"
               xlink:href="#ArialMT-73"
               id="use163"
               style="stroke-linecap:butt;stroke-linejoin:round"
               y="0"
               width="100%"
               height="100%" />
          </g>
        </g>
      </g>
      <g
         id="patch_3"
         style="stroke-linecap:butt;stroke-linejoin:round">
        <path
           clip-path="url(#p1dda561dfa)"
           d="m 163.44957,340.6718 h 42.37411 v -82.50056 h -42.37411 z"
           style="fill:#cb6d67;stroke:#ffffff;stroke-width:1.5;stroke-linecap:butt;stroke-linejoin:miter"
           id="path169"
           inkscape:connector-curvature="0" />
      </g>
      <g
         id="patch_4"
         style="stroke-linecap:butt;stroke-linejoin:round">
        <path
           clip-path="url(#p1dda561dfa)"
           d="m 269.38483,340.6718 h 42.3741 V 203.66143 h -42.3741 z"
           style="fill:#cb6d67;stroke:#ffffff;stroke-width:1.5;stroke-linecap:butt;stroke-linejoin:miter"
           id="path172"
           inkscape:connector-curvature="0" />
      </g>
      <g
         id="patch_5"
         style="stroke-linecap:butt;stroke-linejoin:round">
        <path
           clip-path="url(#p1dda561dfa)"
           d="m 375.32008,340.6718 h 42.3741 V 53.780514 h -42.3741 z"
           style="fill:#cb6d67;stroke:#ffffff;stroke-width:1.5;stroke-linecap:butt;stroke-linejoin:miter"
           id="path175"
           inkscape:connector-curvature="0" />
      </g>
      <g
         id="patch_6"
         style="stroke-linecap:butt;stroke-linejoin:round">
        <path
           clip-path="url(#p1dda561dfa)"
           d="m 481.25533,340.6718 h 42.3741 V 236.20112 h -42.3741 z"
           style="fill:#cb6d67;stroke:#ffffff;stroke-width:1.5;stroke-linecap:butt;stroke-linejoin:miter"
           id="path178"
           inkscape:connector-curvature="0" />
      </g>
      <g
         id="patch_7"
         style="stroke-linecap:butt;stroke-linejoin:round">
        <path
           clip-path="url(#p1dda561dfa)"
           d="m 205.82368,340.6718 h 42.3741 v -89.17941 h -42.3741 z"
           style="fill:#cbb867;stroke:#ffffff;stroke-width:1.5;stroke-linecap:butt;stroke-linejoin:miter"
           id="path181"
           inkscape:connector-curvature="0" />
      </g>
      <g
         id="patch_8"
         style="stroke-linecap:butt;stroke-linejoin:round">
        <path
           clip-path="url(#p1dda561dfa)"
           d="m 311.75893,340.6718 h 42.3741 V 205.26942 h -42.3741 z"
           style="fill:#cbb867;stroke:#ffffff;stroke-width:1.5;stroke-linecap:butt;stroke-linejoin:miter"
           id="path184"
           inkscape:connector-curvature="0" />
      </g>
      <g
         id="patch_9"
         style="stroke-linecap:butt;stroke-linejoin:round">
        <path
           clip-path="url(#p1dda561dfa)"
           d="m 417.69418,340.6718 h 42.3741 V 50.278467 h -42.3741 z"
           style="fill:#cbb867;stroke:#ffffff;stroke-width:1.5;stroke-linecap:butt;stroke-linejoin:miter"
           id="path187"
           inkscape:connector-curvature="0" />
      </g>
      <g
         id="patch_10"
         style="stroke-linecap:butt;stroke-linejoin:round">
        <path
           clip-path="url(#p1dda561dfa)"
           d="m 523.62943,340.6718 h 42.3741 v -86.84873 h -42.3741 z"
           style="fill:#cbb867;stroke:#ffffff;stroke-width:1.5;stroke-linecap:butt;stroke-linejoin:miter"
           id="path190"
           inkscape:connector-curvature="0" />
      </g>
      <g
         id="line2d_5"
         style="stroke-linecap:butt;stroke-linejoin:round">
        <path
           clip-path="url(#p1dda561dfa)"
           d="M 0,0"
           style="fill:none;stroke:#424242;stroke-width:4.05000019;stroke-linecap:round;stroke-linejoin:round"
           id="path193"
           inkscape:connector-curvature="0" />
      </g>
      <g
         id="line2d_6"
         style="stroke-linecap:butt;stroke-linejoin:round">
        <path
           clip-path="url(#p1dda561dfa)"
           d="M 0,0"
           style="fill:none;stroke:#424242;stroke-width:4.05000019;stroke-linecap:round;stroke-linejoin:round"
           id="path196"
           inkscape:connector-curvature="0" />
      </g>
      <g
         id="line2d_7"
         style="stroke-linecap:butt;stroke-linejoin:round">
        <path
           clip-path="url(#p1dda561dfa)"
           d="M 0,0"
           style="fill:none;stroke:#424242;stroke-width:4.05000019;stroke-linecap:round;stroke-linejoin:round"
           id="path199"
           inkscape:connector-curvature="0" />
      </g>
      <g
         id="line2d_8"
         style="stroke-linecap:butt;stroke-linejoin:round">
        <path
           clip-path="url(#p1dda561dfa)"
           d="M 0,0"
           style="fill:none;stroke:#424242;stroke-width:4.05000019;stroke-linecap:round;stroke-linejoin:round"
           id="path202"
           inkscape:connector-curvature="0" />
      </g>
      <g
         id="line2d_9"
         style="stroke-linecap:butt;stroke-linejoin:round">
        <path
           clip-path="url(#p1dda561dfa)"
           d="M 0,0"
           style="fill:none;stroke:#424242;stroke-width:4.05000019;stroke-linecap:round;stroke-linejoin:round"
           id="path205"
           inkscape:connector-curvature="0" />
      </g>
      <g
         id="line2d_10"
         style="stroke-linecap:butt;stroke-linejoin:round">
        <path
           clip-path="url(#p1dda561dfa)"
           d="M 0,0"
           style="fill:none;stroke:#424242;stroke-width:4.05000019;stroke-linecap:round;stroke-linejoin:round"
           id="path208"
           inkscape:connector-curvature="0" />
      </g>
      <g
         id="line2d_11"
         style="stroke-linecap:butt;stroke-linejoin:round">
        <path
           clip-path="url(#p1dda561dfa)"
           d="M 0,0"
           style="fill:none;stroke:#424242;stroke-width:4.05000019;stroke-linecap:round;stroke-linejoin:round"
           id="path211"
           inkscape:connector-curvature="0" />
      </g>
      <g
         id="line2d_12"
         style="stroke-linecap:butt;stroke-linejoin:round">
        <path
           clip-path="url(#p1dda561dfa)"
           d="M 0,0"
           style="fill:none;stroke:#424242;stroke-width:4.05000019;stroke-linecap:round;stroke-linejoin:round"
           id="path214"
           inkscape:connector-curvature="0" />
      </g>
      <g
         id="patch_11"
         style="stroke-linecap:butt;stroke-linejoin:round">
        <path
           d="M 152.85605,340.6718 V 35.7588"
           style="fill:none;stroke:#cccccc;stroke-width:1.875;stroke-linecap:square;stroke-linejoin:miter"
           id="path217"
           inkscape:connector-curvature="0" />
      </g>
      <g
         id="patch_12"
         style="stroke-linecap:butt;stroke-linejoin:round">
        <path
           d="M 152.85605,340.6718 H 576.59706"
           style="fill:none;stroke:#cccccc;stroke-width:1.875;stroke-linecap:square;stroke-linejoin:miter"
           id="path220"
           inkscape:connector-curvature="0" />
      </g>
    </g>
  </g>
  <defs
     id="defs265">
    <clipPath
       id="p1dda561dfa"
       style="stroke-linecap:butt;stroke-linejoin:round">
      <rect
         height="304.91299"
         width="423.741"
         x="152.85605"
         y="35.758801"
         id="rect262"
         style="stroke-linecap:butt;stroke-linejoin:round" />
    </clipPath>
  </defs>
  <rect
     style="fill:#ffffff;stroke:#000000;stroke-width:0.52855706;stroke-linecap:butt;stroke-linejoin:round"
     id="rect4058"
     width="157.34055"
     height="126.73331"
     x="400.64822"
     y="0.26427853" />
  <text
     xml:space="preserve"
     style="font-style:normal;font-weight:normal;font-size:30px;line-height:1.25;font-family:sans-serif;letter-spacing:0px;word-spacing:0px;fill:#000000;fill-opacity:1;stroke:none;stroke-width:0.75;stroke-linecap:butt;stroke-linejoin:round"
     x="413.41196"
     y="30.647726"
     id="text3978"><tspan
       sodipodi:role="line"
       id="tspan3976"
       style="font-size:24px;stroke-width:0.75;stroke-linecap:butt;stroke-linejoin:round"
       x="413.41196"
       y="30.647726">BLSTM</tspan></text>
  <g
     transform="translate(-222.55239,-138.03556)"
     id="legend_1"
     style="stroke-linecap:butt;stroke-linejoin:round">
    <g
       id="patch_13"
       style="stroke-linecap:butt;stroke-linejoin:round">
      <path
         inkscape:connector-curvature="0"
         d="m 634.86738,205.61344 h 49.5 v -17.325 h -49.5 z"
         style="fill:#cb6d67;stroke:#ffffff;stroke-width:1.5;stroke-linecap:butt;stroke-linejoin:miter"
         id="path224" />
    </g>
    <g
       id="text_11"
       style="stroke-linecap:butt;stroke-linejoin:round">
      <!-- False -->
      <defs
         id="defs228">
        <path
           inkscape:connector-curvature="0"
           d="M 8.203125,0 V 71.578125 H 56.5 v -8.4375 H 17.671875 V 40.96875 h 33.59375 V 32.515625 H 17.671875 V 0 Z"
           id="path562"
           style="stroke-linecap:butt;stroke-linejoin:round" />
      </defs>
      <g
         style="fill:#262626;stroke-linecap:butt;stroke-linejoin:round"
         transform="matrix(0.2475,0,0,-0.2475,704.16738,205.61344)"
         id="g240">
        <use
           height="100%"
           width="100%"
           y="0"
           x="0"
           xlink:href="#ArialMT-46"
           id="use230"
           style="stroke-linecap:butt;stroke-linejoin:round" />
        <use
           height="100%"
           width="100%"
           y="0"
           x="61.083984"
           xlink:href="#ArialMT-61"
           id="use232"
           style="stroke-linecap:butt;stroke-linejoin:round" />
        <use
           height="100%"
           width="100%"
           y="0"
           x="116.69922"
           xlink:href="#ArialMT-6c"
           id="use234"
           style="stroke-linecap:butt;stroke-linejoin:round" />
        <use
           height="100%"
           width="100%"
           y="0"
           x="138.91602"
           xlink:href="#ArialMT-73"
           id="use236"
           style="stroke-linecap:butt;stroke-linejoin:round" />
        <use
           height="100%"
           width="100%"
           y="0"
           x="188.91602"
           xlink:href="#ArialMT-65"
           id="use238"
           style="stroke-linecap:butt;stroke-linejoin:round" />
      </g>
    </g>
    <g
       id="patch_14"
       style="stroke-linecap:butt;stroke-linejoin:round">
      <path
         inkscape:connector-curvature="0"
         d="m 634.86738,240.62309 h 49.5 v -17.325 h -49.5 z"
         style="fill:#cbb867;stroke:#ffffff;stroke-width:1.5;stroke-linecap:butt;stroke-linejoin:miter"
         id="path243" />
    </g>
    <g
       id="text_12"
       style="stroke-linecap:butt;stroke-linejoin:round">
      <!-- True -->
      <defs
         id="defs247">
        <path
           inkscape:connector-curvature="0"
           d="M 25.921875,0 V 63.140625 H 2.34375 v 8.4375 h 56.734375 v -8.4375 H 35.40625 V 0 Z"
           id="path574"
           style="stroke-linecap:butt;stroke-linejoin:round" />
      </defs>
      <g
         style="fill:#262626;stroke-linecap:butt;stroke-linejoin:round"
         transform="matrix(0.2475,0,0,-0.2475,704.16738,240.62309)"
         id="g257">
        <use
           height="100%"
           width="100%"
           y="0"
           x="0"
           xlink:href="#ArialMT-54"
           id="use249"
           style="stroke-linecap:butt;stroke-linejoin:round" />
        <use
           height="100%"
           width="100%"
           y="0"
           x="61.037109"
           xlink:href="#ArialMT-72"
           id="use251"
           style="stroke-linecap:butt;stroke-linejoin:round" />
        <use
           height="100%"
           width="100%"
           y="0"
           x="94.337891"
           xlink:href="#ArialMT-75"
           id="use253"
           style="stroke-linecap:butt;stroke-linejoin:round" />
        <use
           height="100%"
           width="100%"
           y="0"
           x="149.95312"
           xlink:href="#ArialMT-65"
           id="use255"
           style="stroke-linecap:butt;stroke-linejoin:round" />
      </g>
    </g>
  </g>
</svg>
