<?xml version="1.0" encoding="UTF-8" standalone="no"?><!DOCTYPE svg PUBLIC "-//W3C//DTD SVG 1.1//EN" "http://www.w3.org/Graphics/SVG/1.1/DTD/svg11.dtd"><svg width="100%" height="100%" viewBox="0 0 191 202" version="1.1" xmlns="http://www.w3.org/2000/svg" xmlns:xlink="http://www.w3.org/1999/xlink" xml:space="preserve" xmlns:serif="http://www.serif.com/" style="fill-rule:evenodd;clip-rule:evenodd;stroke-linejoin:round;stroke-miterlimit:1.41421;"><g id="g3"><path id="rect2902" d="M179.733,-0.003c0,-6.2 -5.033,-11.233 -11.233,-11.233l-146.034,0c-6.2,0 -11.233,5.033 -11.233,11.233l0,178.767c0,6.2 5.033,11.233 11.233,11.233l146.034,0c6.2,0 11.233,-5.033 11.233,-11.233l0,-178.767Z" style="fill:#fff;"/><g id="g15"><path id="polygon17" d="M178.083,93.386l0.037,69.111l-165.704,0l-0.036,-69.111l165.703,0Z" style="fill:#fff;fill-rule:nonzero;"/><g id="g19"><path id="path30" d="M50.337,107.102c2.047,-1.234 4.155,-2.886 6.047,-4.805c1.48,-1.502 -5.031,-0.832 -6.597,0.506c-1.684,1.439 -3.417,3.03 -5.002,4.888c-0.928,1.081 3.521,0.634 5.552,-0.589Zm58.631,16.592c2.045,-1.234 5.895,-4.223 7.789,-6.141c1.48,-1.504 -5.031,-0.832 -6.598,0.504c-1.688,1.441 -4.488,4.023 -6.074,5.883c-0.924,1.084 2.852,0.974 4.883,-0.246Zm59.162,12.806c-8.346,-5.196 -31.154,3.859 -39.807,4.893c-1.625,0.193 -2.211,-0.216 -1.828,-1.316c0.729,-2.121 3.623,-6.022 4.205,-7.366c0.549,-1.282 0.477,-5.694 -6.049,-5.694c-5.332,0 -10.221,2.477 -13.66,5.591c-3.275,2.795 -9.619,8.321 -13.527,8.321c-4.006,0 7.801,-12.218 8.455,-12.834c1.76,-1.651 -3.789,-1.246 -6.121,0.533c-0.932,0.708 -4.619,4.689 -6.948,8.545c-6.735,4.656 -13.439,5.736 -10.25,1.865c1.697,-2.061 4.567,-4.822 6.541,-7.012c2.755,-3.055 2.258,-5.064 -3.825,-5.064c-8.144,0 -9.006,0.705 -13.601,6.086c-0.853,1.001 -0.412,3.507 0.469,2.637c5.512,-5.453 5.386,-5.008 12.682,-5.008c-1.173,1.248 -3.263,2.49 -6.809,6.991c-3.16,4.014 -1.094,7.259 3.395,7.259c2.481,0 6.186,-1.164 9.574,-3.55c-0.406,2.091 0.432,3.589 3.629,3.589c3.667,0 7.894,-2.202 11.396,-4.651c-0.438,2.657 0.928,4.651 4.848,4.651c3.016,0 6.527,-1.184 10.15,-4.326c-0.02,2.4 1.674,4.309 4.83,4.309c7.686,0 34.236,-9.643 43.471,-4.074c1.159,0.694 1.108,-2.925 -1.22,-4.375Zm-55.164,5.006c-5.039,0 5.053,-11.518 11.625,-11.518c3.935,0.001 -6.766,11.518 -11.625,11.518Zm-43.753,-5.546c-1.973,1.929 -6.294,5.153 -10.07,5.153c-2.793,0 2.771,-5.004 5.527,-9.039c2.629,-3.854 0.478,-5.008 -1.694,-5.008c-5.378,0 -10.63,3.774 -14.192,6.43c1.077,-1.441 2.75,-3.287 4.538,-5.645c0.989,-1.309 -4.94,-0.842 -6.457,1.158c-0.485,0.631 -1.017,1.34 -1.584,2.1c-5.148,6.184 -12.92,10.357 -16.736,10.357c-2.126,0 -2.9,-1.465 -1.576,-4.23c3.189,-6.674 14.182,-19.355 20.156,-24.908c2.712,-2.541 -5.438,-1.506 -7.308,0.371c-8.277,8.332 -16.611,17.629 -18.96,24.863c-1.299,4.002 -0.1,7.594 4.87,7.594c4.082,0 8.602,-2.021 12.439,-4.422c-0.943,1.287 -1.807,2.457 -2.499,3.4c-1.083,1.466 4.409,0.931 5.569,-0.549c4.342,-5.555 14.78,-12.393 17.688,-12.393c2.643,0 -6.466,6.826 -6.381,11.006c0.105,5.488 12.818,2.125 17.132,-3.523c0.676,-0.878 0.147,-3.304 -0.462,-2.715Z" style="fill:url(#_Radial1);fill-rule:nonzero;"/><g id="g32"><path id="path34" d="M65.776,149.94l-0.34,0c-0.09,0 -0.148,0.077 -0.148,0.155l0,4.337c0,0.084 0.063,0.158 0.148,0.159l0.34,0c0.092,-0.001 0.147,-0.084 0.148,-0.159l0,-4.337c-0.001,-0.086 -0.068,-0.155 -0.148,-0.155Z" style="fill:#e20718;fill-rule:nonzero;"/><path id="path36" d="M70.179,149.94l-0.326,0c-0.084,0 -0.149,0.074 -0.149,0.155l0,3.489l-1.839,-3.5c-0.047,-0.098 -0.111,-0.148 -0.285,-0.145l-0.339,0c-0.116,0 -0.214,0.09 -0.214,0.211l0,4.33c0,0.091 0.089,0.11 0.147,0.11l0.32,0c0.085,-0.001 0.147,-0.073 0.147,-0.154l0,-3.496l1.859,3.532c0.038,0.076 0.122,0.118 0.227,0.118l0.385,0c0.119,0 0.215,-0.097 0.215,-0.216l0,-4.28c-0.001,-0.076 -0.059,-0.154 -0.148,-0.154Z" style="fill:#e20718;fill-rule:nonzero;"/><path id="path38" d="M74.428,149.94l-0.363,0c-0.072,0.004 -0.124,0.06 -0.14,0.122l-1.079,3.923c-0.027,0.084 -0.042,0.102 -0.081,0.102c-0.046,-0.002 -0.061,-0.019 -0.088,-0.102l-1.071,-3.924c-0.018,-0.065 -0.076,-0.117 -0.146,-0.121l-0.358,0c-0.078,0 -0.146,0.062 -0.146,0.143c0,0.012 -0.001,0.033 0.011,0.055l1.136,4.002c0.114,0.406 0.427,0.496 0.663,0.495c0.003,0 0.006,0 0.007,0c0.24,0 0.543,-0.093 0.657,-0.495l1.131,-4.004c0.009,-0.022 0.009,-0.041 0.009,-0.053c-0.001,-0.08 -0.063,-0.143 -0.142,-0.143Z" style="fill:#e20718;fill-rule:nonzero;"/><path id="path40" d="M77.735,149.936c-0.265,-0.025 -0.842,-0.039 -1.207,-0.039c-0.87,0.004 -1.348,0.348 -1.349,1.184l0,2.371c0.001,0.836 0.479,1.182 1.349,1.183c0.364,0 0.966,-0.007 1.205,-0.031l-0.004,-0.036l0.006,0.036c0.063,-0.013 0.091,-0.071 0.093,-0.122l0,-0.314c0,-0.057 -0.042,-0.11 -0.103,-0.11l-1.189,0c-0.65,-0.012 -0.711,-0.142 -0.722,-0.604l0,-0.998l1.855,0c0.087,0 0.159,-0.071 0.159,-0.158l0,-0.236c0,-0.087 -0.072,-0.158 -0.159,-0.158l-1.855,0l0,-0.82c0.01,-0.461 0.071,-0.592 0.722,-0.604l1.189,0c0.061,0 0.103,-0.054 0.103,-0.11l0,-0.307c-0.002,-0.055 -0.03,-0.113 -0.093,-0.127Z" style="fill:#e20718;fill-rule:nonzero;"/><path id="path42" d="M81.881,149.94l-0.328,0c-0.084,0 -0.146,0.074 -0.146,0.155l0,3.489l-1.841,-3.5c-0.045,-0.098 -0.11,-0.148 -0.285,-0.145l-0.337,0c-0.117,0 -0.216,0.09 -0.216,0.211l0,4.33c0,0.091 0.087,0.11 0.147,0.11l0.32,0c0.085,-0.001 0.149,-0.073 0.149,-0.154l0,-3.493l1.858,3.529c0.037,0.074 0.122,0.118 0.227,0.118l0.384,0c0.119,0 0.214,-0.097 0.214,-0.214l0,-4.282c0,-0.077 -0.057,-0.154 -0.146,-0.154Z" style="fill:#e20718;fill-rule:nonzero;"/><path id="path44" d="M85.718,149.94l-2.962,0c-0.084,0 -0.159,0.064 -0.161,0.148l0,0.273c0,0.092 0.084,0.133 0.161,0.133l1.163,0l0,3.938c0,0.084 0.063,0.159 0.149,0.159l0.338,0c0.093,-0.001 0.147,-0.083 0.147,-0.159l0,-3.938l1.165,0c0.08,0 0.152,-0.049 0.154,-0.133l0,-0.273c-0.002,-0.086 -0.071,-0.148 -0.154,-0.148Z" style="fill:#e20718;fill-rule:nonzero;"/><path id="path46" d="M89.038,149.936c-0.264,-0.025 -0.843,-0.039 -1.207,-0.039c-0.871,0.004 -1.348,0.346 -1.348,1.184l0,2.372c0,0.835 0.477,1.181 1.348,1.182c0.364,0 0.966,-0.006 1.205,-0.031l-0.004,-0.036l0.007,0.036c0.063,-0.013 0.091,-0.071 0.091,-0.122l0,-0.314c0,-0.057 -0.039,-0.11 -0.104,-0.11l-1.189,0c-0.647,-0.012 -0.709,-0.142 -0.72,-0.604l0,-0.999l1.855,0c0.086,0 0.158,-0.071 0.158,-0.158l0,-0.234c0,-0.089 -0.071,-0.16 -0.158,-0.16l-1.855,0l0,-0.82c0.01,-0.461 0.073,-0.592 0.72,-0.604l1.189,0c0.063,0 0.104,-0.055 0.104,-0.111l0,-0.307c-0.001,-0.053 -0.03,-0.111 -0.092,-0.125Z" style="fill:#e20718;fill-rule:nonzero;"/><path id="path48" d="M93.087,149.94l-0.334,0c-0.088,0 -0.151,0.074 -0.151,0.156l0,2.795c-0.009,0.796 -0.231,1.184 -0.976,1.189c-0.746,-0.006 -0.967,-0.398 -0.974,-1.189l0,-2.795c0,-0.089 -0.073,-0.156 -0.154,-0.156l-0.332,0c-0.089,0 -0.154,0.074 -0.154,0.156l0,2.795c0.001,1.188 0.602,1.742 1.615,1.743c1.014,-0.001 1.611,-0.555 1.612,-1.743l0,-2.795c-0.001,-0.088 -0.074,-0.156 -0.152,-0.156Z" style="fill:#e20718;fill-rule:nonzero;"/><path id="path50" d="M96.325,152.569c0.541,-0.16 0.934,-0.58 0.93,-1.268l0,-0.043c0,-1.021 -0.771,-1.357 -1.724,-1.361c-0.358,0 -0.82,0.02 -1.088,0.051c-0.116,0.006 -0.188,0.072 -0.181,0.173l0,4.312c0,0.084 0.063,0.158 0.146,0.159l0.334,0c0.094,-0.001 0.148,-0.083 0.148,-0.159l0,-1.773c0.299,0.01 0.444,0.016 0.64,0.016l0.137,0l1.069,1.819c0.045,0.08 0.104,0.098 0.166,0.098l0.408,0c0.07,0 0.119,-0.056 0.119,-0.116c0,-0.027 -0.012,-0.054 -0.027,-0.077l-1.077,-1.831Zm0.315,-1.311l0,0.043c-0.006,0.645 -0.369,0.814 -1.109,0.82c-0.136,0 -0.382,-0.005 -0.64,-0.012l0,-1.618c0.156,-0.015 0.463,-0.015 0.64,-0.015c0.753,0.007 1.103,0.19 1.109,0.782Z" style="fill:#e20718;fill-rule:nonzero;"/><path id="path52" d="M99.917,152.079l-0.564,-0.338c-0.471,-0.285 -0.654,-0.449 -0.654,-0.715c0.004,-0.428 0.236,-0.541 0.871,-0.55c0.352,0 0.787,0.021 1.057,0.036c0.008,0 0.006,0 0.014,0c0.076,0 0.143,-0.053 0.143,-0.134l0,-0.266c0,-0.083 -0.066,-0.13 -0.137,-0.14c-0.238,-0.037 -0.713,-0.076 -1.076,-0.076c-0.943,0.004 -1.506,0.359 -1.508,1.129c-0.002,0.51 0.295,0.838 0.863,1.182l0.6,0.363c0.561,0.348 0.721,0.509 0.721,0.795c-0.006,0.418 -0.17,0.683 -0.896,0.69c-0.283,0 -0.736,-0.013 -1.016,-0.037c-0.01,0 -0.016,0 -0.021,0c-0.066,0 -0.143,0.046 -0.143,0.136l0,0.246c-0.008,0.072 0.041,0.139 0.148,0.146c0.271,0.044 0.594,0.087 1.031,0.087c1.223,-0.001 1.555,-0.665 1.557,-1.269c-0.002,-0.505 -0.269,-0.862 -0.99,-1.285Z" style="fill:#e20718;fill-rule:nonzero;"/><path id="path54" d="M104.737,149.897c-0.471,0 -0.947,0.031 -1.129,0.064c-0.094,0.012 -0.162,0.09 -0.16,0.189l0,4.23c-0.004,0.106 0.068,0.18 0.162,0.191c0.18,0.031 0.656,0.062 1.127,0.062c1.152,-0.001 1.9,-0.62 1.902,-1.952l0,-0.832c-0.001,-1.343 -0.749,-1.948 -1.902,-1.952Zm1.268,1.953l0,0.832c-0.006,1.094 -0.541,1.393 -1.268,1.398c-0.273,0 -0.465,0 -0.648,-0.01l0,-3.603c0.188,-0.011 0.375,-0.015 0.648,-0.015c0.727,0.005 1.262,0.296 1.268,1.398Z" style="fill:#e20718;fill-rule:nonzero;"/><path id="path56" d="M110.607,149.94l-0.332,0c-0.092,0 -0.154,0.074 -0.154,0.155l0,2.796c-0.008,0.795 -0.227,1.184 -0.975,1.189c-0.744,-0.006 -0.967,-0.398 -0.975,-1.189l0,-2.796c0,-0.087 -0.068,-0.155 -0.148,-0.155l-0.334,0c-0.09,0 -0.154,0.074 -0.154,0.155l0,2.796c0.002,1.189 0.598,1.742 1.611,1.743c1.014,-0.001 1.613,-0.554 1.613,-1.743l0,-2.796c0,-0.088 -0.072,-0.155 -0.152,-0.155Z" style="fill:#e20718;fill-rule:nonzero;"/><path id="path58" d="M117.05,149.94l-0.4,0c-0.113,-0.002 -0.193,0.036 -0.23,0.127l-1.016,2.113c-0.029,0.055 -0.025,0.043 -0.041,0.047c-0.016,-0.004 -0.012,0.008 -0.043,-0.047l-1.016,-2.113c-0.037,-0.091 -0.113,-0.129 -0.229,-0.127l-0.4,0c-0.119,0 -0.217,0.099 -0.217,0.218l0,4.274c0,0.088 0.074,0.159 0.16,0.159l0.303,0c0.086,0 0.162,-0.071 0.162,-0.159l0,-3.537l0.828,1.716c0.059,0.13 0.145,0.205 0.311,0.2l0.281,0c0.164,0.005 0.252,-0.07 0.311,-0.199l0.83,-1.717l0,3.537c0,0.088 0.07,0.159 0.158,0.159l0.305,0c0.088,0 0.16,-0.071 0.16,-0.159l0,-4.274c0,-0.119 -0.1,-0.218 -0.217,-0.218Z" style="fill:#e20718;fill-rule:nonzero;"/><path id="path60" d="M119.896,149.897c-0.982,0.004 -1.705,0.593 -1.705,1.973l0,0.795c0,1.379 0.723,1.967 1.705,1.97c0.982,-0.003 1.699,-0.591 1.701,-1.97l0,-0.795c-0.002,-1.38 -0.719,-1.969 -1.701,-1.973Zm-1.069,1.973c0.008,-1.025 0.416,-1.389 1.068,-1.393c0.658,0.004 1.055,0.365 1.061,1.393l0,0.795c-0.006,1.025 -0.406,1.386 -1.061,1.392c-0.66,-0.006 -1.061,-0.366 -1.068,-1.392l0,-0.795Z" style="fill:#e20718;fill-rule:nonzero;"/><path id="path62" d="M125.681,149.94l-0.326,0c-0.084,0 -0.15,0.074 -0.15,0.155l0,3.491l-1.838,-3.502c-0.043,-0.098 -0.115,-0.148 -0.285,-0.145l-0.34,0c-0.113,0 -0.213,0.092 -0.213,0.211l0,4.33c0,0.091 0.086,0.11 0.146,0.11l0.32,0c0.086,-0.001 0.15,-0.073 0.15,-0.154l0,-3.496l1.854,3.532c0.041,0.074 0.123,0.118 0.23,0.118l0.385,0c0.115,0 0.215,-0.097 0.215,-0.214l0,-4.282c0,-0.076 -0.056,-0.154 -0.148,-0.154Z" style="fill:#e20718;fill-rule:nonzero;"/><path id="path64" d="M128.157,149.897c-0.469,0 -0.947,0.031 -1.129,0.064c-0.094,0.012 -0.162,0.089 -0.16,0.189l0,4.23c-0.002,0.109 0.07,0.18 0.16,0.191c0.182,0.031 0.66,0.062 1.129,0.062c1.152,-0.003 1.9,-0.62 1.902,-1.952l0,-0.832c-0.001,-1.343 -0.749,-1.948 -1.902,-1.952Zm0,4.184c-0.273,0 -0.465,0 -0.648,-0.01l0,-3.602c0.191,-0.012 0.375,-0.016 0.648,-0.016c0.727,0.005 1.262,0.296 1.266,1.396l0,0.832c-0.004,1.095 -0.539,1.394 -1.266,1.4Z" style="fill:#e20718;fill-rule:nonzero;"/><path id="path66" d="M133.528,149.936c-0.262,-0.025 -0.84,-0.039 -1.205,-0.039c-0.871,0.004 -1.348,0.348 -1.35,1.184l0,2.371c0.002,0.836 0.479,1.182 1.35,1.183c0.361,0 0.963,-0.006 1.205,-0.03l-0.006,-0.037l0.006,0.036c0.063,-0.013 0.088,-0.071 0.092,-0.122l0,-0.314c0,-0.056 -0.039,-0.11 -0.102,-0.11l-1.191,0c-0.648,-0.011 -0.709,-0.142 -0.721,-0.604l0,-0.998l1.855,0c0.09,0 0.158,-0.071 0.158,-0.158l0,-0.234c0,-0.089 -0.068,-0.16 -0.158,-0.16l-1.855,0l0,-0.82c0.012,-0.461 0.072,-0.592 0.721,-0.604l1.191,0c0.061,0 0.102,-0.054 0.102,-0.11l0,-0.307c-0.004,-0.055 -0.029,-0.113 -0.092,-0.127Z" style="fill:#e20718;fill-rule:nonzero;"/><path id="path68" d="M139.353,149.94l-0.328,0c-0.086,0.004 -0.148,0.074 -0.148,0.156l0,3.49l-1.842,-3.502c-0.045,-0.1 -0.113,-0.148 -0.283,-0.145l-0.342,0c-0.113,0 -0.211,0.092 -0.211,0.211l0,4.33c0,0.091 0.086,0.11 0.148,0.11l0.318,0c0.084,-0.001 0.146,-0.073 0.146,-0.154l0,-3.496l1.861,3.532c0.033,0.076 0.119,0.118 0.225,0.118l0.383,0c0.121,0 0.215,-0.097 0.215,-0.216l0,-4.279c0,-0.077 -0.052,-0.155 -0.142,-0.155Z" style="fill:#e20718;fill-rule:nonzero;"/><path id="path70" d="M143.593,149.94l-0.33,0c-0.092,0 -0.154,0.074 -0.154,0.156l0,2.795c-0.008,0.796 -0.227,1.184 -0.977,1.189c-0.74,-0.006 -0.963,-0.398 -0.969,-1.189l0,-2.795c0,-0.089 -0.078,-0.156 -0.156,-0.156l-0.334,0c-0.086,0 -0.15,0.074 -0.15,0.156l0,2.795c0,1.189 0.6,1.74 1.609,1.743c1.018,-0.003 1.613,-0.554 1.617,-1.743l0,-2.795c0,-0.089 -0.074,-0.156 -0.156,-0.156Z" style="fill:#e20718;fill-rule:nonzero;"/><path id="path72" d="M148.362,149.94l-0.4,0c-0.113,-0.002 -0.191,0.036 -0.23,0.127l-1.016,2.113c-0.029,0.055 -0.023,0.043 -0.041,0.047c-0.018,-0.004 -0.016,0.008 -0.043,-0.047l-1.014,-2.113c-0.039,-0.091 -0.117,-0.129 -0.23,-0.127l-0.4,0c-0.119,0 -0.215,0.099 -0.215,0.217l0,4.275c0,0.088 0.07,0.159 0.162,0.159l0.297,0c0.09,0 0.162,-0.071 0.162,-0.159l0,-3.537l0.832,1.717c0.057,0.129 0.145,0.204 0.307,0.201l0.285,0c0.16,0.003 0.25,-0.072 0.307,-0.201l0.832,-1.717l0,3.537c0,0.088 0.072,0.159 0.16,0.159l0.299,0c0.088,0 0.162,-0.071 0.162,-0.159l0,-4.275c-0.001,-0.118 -0.096,-0.217 -0.216,-0.217Z" style="fill:#e20718;fill-rule:nonzero;"/><path id="path74" d="M152.169,149.936c-0.266,-0.025 -0.844,-0.039 -1.207,-0.039c-0.871,0.004 -1.348,0.348 -1.348,1.184l0,2.372c0,0.835 0.477,1.181 1.348,1.182c0.363,0 0.969,-0.006 1.205,-0.031l-0.004,-0.036l0.006,0.036c0.064,-0.013 0.094,-0.071 0.094,-0.122l0,-0.314c0,-0.057 -0.041,-0.11 -0.105,-0.11l-1.189,0c-0.648,-0.011 -0.709,-0.142 -0.721,-0.604l0,-0.999l1.854,0c0.088,0 0.162,-0.07 0.162,-0.158l0,-0.236c0,-0.087 -0.074,-0.158 -0.162,-0.158l-1.854,0l0,-0.82c0.012,-0.461 0.072,-0.592 0.721,-0.604l1.189,0c0.064,0 0.105,-0.054 0.105,-0.11l0,-0.307c0,-0.054 -0.029,-0.112 -0.094,-0.126Z" style="fill:#e20718;fill-rule:nonzero;"/><path id="path76" d="M150.661,149.7l0.332,0c0.002,0.002 0.002,0.002 0.004,0.002c0.082,0 0.115,-0.049 0.166,-0.105l0.693,-0.777c0.025,-0.023 0.035,-0.049 0.035,-0.072c0,-0.059 -0.059,-0.08 -0.105,-0.08l-0.406,0c-0.084,-0.004 -0.125,0.041 -0.174,0.106l-0.607,0.763c-0.023,0.026 -0.031,0.061 -0.031,0.086c0,0.043 0.044,0.077 0.093,0.077Z" style="fill:#e20718;fill-rule:nonzero;"/><path id="path78" d="M155.245,152.569c0.547,-0.16 0.949,-0.58 0.945,-1.267l0,-0.042c0,-1.023 -0.783,-1.359 -1.76,-1.363c-0.359,0 -0.822,0.02 -1.09,0.051c-0.113,0.006 -0.186,0.074 -0.18,0.173l0,4.312c0,0.084 0.064,0.159 0.148,0.159l0.332,0c0.096,-0.001 0.146,-0.084 0.146,-0.159l0,-1.773c0.301,0.011 0.445,0.016 0.643,0.016l0.138,0l1.094,1.819c0.043,0.082 0.107,0.098 0.166,0.098l0.42,0c0.066,0 0.113,-0.056 0.113,-0.118c0.002,-0.025 -0.006,-0.052 -0.023,-0.074l-1.092,-1.832Zm0.319,-1.309l0,0.042c-0.004,0.644 -0.377,0.813 -1.133,0.819c-0.135,0 -0.385,-0.005 -0.643,-0.012l0,-1.618c0.158,-0.015 0.467,-0.015 0.643,-0.015c0.767,0.007 1.129,0.192 1.133,0.784Z" style="fill:#e20718;fill-rule:nonzero;"/><path id="path80" d="M157.714,149.94l-0.34,0c-0.09,0 -0.145,0.077 -0.145,0.156l0,4.336c0,0.084 0.057,0.159 0.145,0.159l0.34,0c0.092,-0.001 0.146,-0.084 0.146,-0.159l0,-4.336c0,-0.087 -0.062,-0.156 -0.146,-0.156Z" style="fill:#e20718;fill-rule:nonzero;"/><path id="path82" d="M160.562,149.897c-0.984,0.004 -1.705,0.592 -1.705,1.973l0,0.795c-0.004,1.227 0.57,1.832 1.389,1.945l0,0.246c0,0.664 0.354,0.842 0.963,0.842c0.311,-0.003 0.518,-0.024 0.533,-0.184l0,-0.209c0,-0.096 -0.094,-0.135 -0.172,-0.135l-0.361,0c-0.314,-0.013 -0.334,-0.018 -0.346,-0.32l0,-0.232c0.824,-0.11 1.402,-0.721 1.396,-1.953l0,-0.795c-0.002,-1.381 -0.717,-1.969 -1.697,-1.973Zm-1.069,1.973c0.008,-1.027 0.414,-1.387 1.068,-1.394c0.656,0.007 1.053,0.366 1.061,1.394l0,0.795c-0.008,1.025 -0.41,1.386 -1.061,1.392c-0.66,-0.006 -1.061,-0.366 -1.068,-1.392l0,-0.795Z" style="fill:#e20718;fill-rule:nonzero;"/><path id="path84" d="M166.245,149.94l-0.332,0c-0.09,0 -0.154,0.076 -0.154,0.156l0,2.795c-0.008,0.796 -0.229,1.184 -0.973,1.189c-0.744,-0.006 -0.967,-0.398 -0.975,-1.189l0,-2.795c0,-0.091 -0.07,-0.156 -0.152,-0.156l-0.336,0c-0.088,0 -0.148,0.076 -0.148,0.156l0,2.795c0,1.189 0.6,1.742 1.611,1.743c1.012,-0.001 1.611,-0.554 1.613,-1.743l0,-2.795c0.001,-0.091 -0.074,-0.156 -0.154,-0.156Z" style="fill:#e20718;fill-rule:nonzero;"/><path id="path86" d="M168.776,150.476l1.189,0c0.061,0 0.104,-0.054 0.104,-0.11l0,-0.307c0,-0.051 -0.029,-0.109 -0.09,-0.123c-0.266,-0.025 -0.844,-0.039 -1.209,-0.039c-0.869,0.004 -1.348,0.348 -1.35,1.184l0,2.372c0.002,0.835 0.48,1.181 1.35,1.182c0.365,0 0.969,-0.007 1.209,-0.03l-0.008,-0.037l0.008,0.036c0.061,-0.013 0.09,-0.071 0.09,-0.122l0,-0.314c0,-0.057 -0.043,-0.11 -0.104,-0.11l-1.189,0c-0.645,-0.012 -0.709,-0.142 -0.721,-0.604l0,-0.999l1.855,0c0.088,0 0.158,-0.071 0.158,-0.158l0,-0.236c0,-0.087 -0.07,-0.158 -0.158,-0.158l-1.855,0l0,-0.82c0.013,-0.463 0.077,-0.594 0.721,-0.607Z" style="fill:#e20718;fill-rule:nonzero;"/></g></g></g></g><defs><radialGradient id="_Radial1" cx="0" cy="0" r="1" gradientUnits="userSpaceOnUse" gradientTransform="matrix(65.1738,0,0,65.1738,80.863,182.685)"><stop offset="0" style="stop-color:#ffcd1d;stop-opacity:1"/><stop offset="0.4" style="stop-color:#ffcd1d;stop-opacity:1"/><stop offset="0.69" style="stop-color:#f08026;stop-opacity:1"/><stop offset="1" style="stop-color:#e40a22;stop-opacity:1"/></radialGradient></defs></svg>