<?xml version="1.0" encoding="UTF-8" standalone="no"?>
<!-- Created with matplotlib (http://matplotlib.org/) -->

<svg
   xmlns:dc="http://purl.org/dc/elements/1.1/"
   xmlns:cc="http://creativecommons.org/ns#"
   xmlns:rdf="http://www.w3.org/1999/02/22-rdf-syntax-ns#"
   xmlns:svg="http://www.w3.org/2000/svg"
   xmlns="http://www.w3.org/2000/svg"
   xmlns:xlink="http://www.w3.org/1999/xlink"
   xmlns:sodipodi="http://sodipodi.sourceforge.net/DTD/sodipodi-0.dtd"
   xmlns:inkscape="http://www.inkscape.org/namespaces/inkscape"
   height="588.38287pt"
   version="1.1"
   viewBox="0 0 588.88158 588.38288"
   width="588.88159pt"
   id="svg164"
   sodipodi:docname="loss.svg"
   inkscape:version="0.92.3 (2405546, 2018-03-11)">
  <metadata
     id="metadata168">
    <rdf:RDF>
      <cc:Work
         rdf:about="">
        <dc:format>image/svg+xml</dc:format>
        <dc:type
           rdf:resource="http://purl.org/dc/dcmitype/StillImage" />
      </cc:Work>
    </rdf:RDF>
  </metadata>
  <sodipodi:namedview
     pagecolor="#ffffff"
     bordercolor="#666666"
     borderopacity="1"
     objecttolerance="10"
     gridtolerance="10"
     guidetolerance="10"
     inkscape:pageopacity="0"
     inkscape:pageshadow="2"
     inkscape:window-width="1379"
     inkscape:window-height="819"
     id="namedview166"
     showgrid="false"
     inkscape:zoom="0.51334308"
     inkscape:cx="259.40172"
     inkscape:cy="446.36131"
     inkscape:window-x="57"
     inkscape:window-y="27"
     inkscape:window-maximized="0"
     inkscape:current-layer="axes_1" />
  <defs
     id="defs4"
     style="stroke-linecap:butt;stroke-linejoin:round">
    <style
       type="text/css"
       id="style2">
*{stroke-linecap:butt;stroke-linejoin:round;}
  </style>
    <clipPath
       id="p9623b02057-3"
       style="stroke-linecap:butt;stroke-linejoin:round">
      <rect
         height="300.74963"
         width="512.70221"
         x="132.43794"
         y="35.2836"
         id="rect159-5"
         style="stroke-linecap:butt;stroke-linejoin:round" />
    </clipPath>
    <clipPath
       id="clipPath399"
       style="stroke-linecap:butt;stroke-linejoin:round">
      <rect
         height="300.74963"
         width="512.70221"
         x="132.43794"
         y="35.2836"
         id="rect397"
         style="stroke-linecap:butt;stroke-linejoin:round" />
    </clipPath>
    <clipPath
       id="clipPath403"
       style="stroke-linecap:butt;stroke-linejoin:round">
      <rect
         height="300.74963"
         width="512.70221"
         x="132.43794"
         y="35.2836"
         id="rect401"
         style="stroke-linecap:butt;stroke-linejoin:round" />
    </clipPath>
    <clipPath
       id="clipPath407"
       style="stroke-linecap:butt;stroke-linejoin:round">
      <rect
         height="300.74963"
         width="512.70221"
         x="132.43794"
         y="35.2836"
         id="rect405"
         style="stroke-linecap:butt;stroke-linejoin:round" />
    </clipPath>
    <clipPath
       id="clipPath411"
       style="stroke-linecap:butt;stroke-linejoin:round">
      <rect
         height="300.74963"
         width="512.70221"
         x="132.43794"
         y="35.2836"
         id="rect409"
         style="stroke-linecap:butt;stroke-linejoin:round" />
    </clipPath>
    <clipPath
       id="clipPath415"
       style="stroke-linecap:butt;stroke-linejoin:round">
      <rect
         height="300.74963"
         width="512.70221"
         x="132.43794"
         y="35.2836"
         id="rect413"
         style="stroke-linecap:butt;stroke-linejoin:round" />
    </clipPath>
    <clipPath
       id="clipPath419"
       style="stroke-linecap:butt;stroke-linejoin:round">
      <rect
         height="300.74963"
         width="512.70221"
         x="132.43794"
         y="35.2836"
         id="rect417"
         style="stroke-linecap:butt;stroke-linejoin:round" />
    </clipPath>
    <clipPath
       id="clipPath423"
       style="stroke-linecap:butt;stroke-linejoin:round">
      <rect
         height="300.74963"
         width="512.70221"
         x="132.43794"
         y="35.2836"
         id="rect421"
         style="stroke-linecap:butt;stroke-linejoin:round" />
    </clipPath>
    <path
       d="m 4.15625,35.296875 q 0,12.703125 2.609375,20.4375 2.609375,7.75 7.75,11.9375 5.15625,4.203125 12.96875,4.203125 5.765625,0 10.109375,-2.328125 4.34375,-2.3125 7.171875,-6.6875 Q 47.609375,58.5 49.21875,52.21875 q 1.609375,-6.265625 1.609375,-16.921875 0,-12.59375 -2.59375,-20.328125 Q 45.65625,7.234375 40.5,3 35.359375,-1.21875 27.484375,-1.21875 q -10.34375,0 -16.25,7.421875 -7.078125,8.9375 -7.078125,29.09375 z m 9.03125,0 q 0,-17.625 4.125,-23.46875 Q 21.4375,6 27.484375,6 q 6.0625,0 10.1875,5.859375 4.125,5.859375 4.125,23.4375 0,17.6875 -4.125,23.484375 -4.125,5.8125 -10.28125,5.8125 -6.046875,0 -9.671875,-5.125 Q 13.1875,52.9375 13.1875,35.296875 Z"
       id="ArialMT-30"
       inkscape:connector-curvature="0"
       style="stroke-linecap:butt;stroke-linejoin:round" />
    <path
       d="M 50.34375,8.453125 V 0 H 3.03125 Q 2.9375,3.171875 4.046875,6.109375 5.859375,10.9375 9.828125,15.625 13.8125,20.3125 21.34375,26.46875 q 11.671875,9.5625 15.765625,15.15625 4.109375,5.59375 4.109375,10.578125 0,5.21875 -3.75,8.796875 -3.734375,3.59375 -9.734375,3.59375 -6.34375,0 -10.15625,-3.8125 Q 13.765625,56.984375 13.71875,50.25 L 4.6875,51.171875 q 0.921875,10.109375 6.96875,15.40625 6.0625,5.296875 16.28125,5.296875 10.296875,0 16.296875,-5.71875 Q 50.25,60.453125 50.25,52 50.25,47.703125 48.484375,43.546875 46.734375,39.40625 42.65625,34.8125 38.578125,30.21875 29.109375,22.21875 21.1875,15.578125 18.9375,13.203125 q -2.234375,-2.359375 -3.703125,-4.75 z"
       id="ArialMT-32"
       inkscape:connector-curvature="0"
       style="stroke-linecap:butt;stroke-linejoin:round" />
    <path
       d="m 32.328125,0 v 17.140625 h -31.0625 v 8.0625 l 32.671875,46.375 h 7.171875 v -46.375 h 9.671875 v -8.0625 H 41.109375 V 0 Z m 0,25.203125 V 57.46875 L 9.90625,25.203125 Z"
       id="ArialMT-34"
       inkscape:connector-curvature="0"
       style="stroke-linecap:butt;stroke-linejoin:round" />
    <path
       d="M 49.75,54.046875 41.015625,53.375 q -1.171875,5.171875 -3.3125,7.515625 -3.578125,3.765625 -8.796875,3.765625 -4.203125,0 -7.375,-2.34375 Q 17.390625,59.28125 14.984375,53.46875 12.59375,47.65625 12.5,36.921875 15.671875,41.75 20.265625,44.09375 q 4.59375,2.34375 9.625,2.34375 8.78125,0 14.953125,-6.46875 Q 51.03125,33.5 51.03125,23.25 51.03125,16.5 48.125,10.71875 45.21875,4.9375 40.140625,1.859375 35.0625,-1.21875 28.609375,-1.21875 17.625,-1.21875 10.6875,6.859375 3.765625,14.9375 3.765625,33.5 q 0,20.75 7.65625,30.171875 6.6875,8.203125 18.015625,8.203125 8.453125,0 13.84375,-4.734375 Q 48.6875,62.40625 49.75,54.046875 Z M 13.875,23.1875 q 0,-4.53125 1.921875,-8.6875 Q 17.71875,10.359375 21.1875,8.171875 24.65625,6 28.46875,6 q 5.5625,0 9.5625,4.484375 4.015625,4.5 4.015625,12.21875 0,7.421875 -3.96875,11.6875 -3.953125,4.28125 -9.953125,4.28125 -5.953125,0 -10.109375,-4.28125 Q 13.875,30.125 13.875,23.1875 Z"
       id="ArialMT-36"
       inkscape:connector-curvature="0"
       style="stroke-linecap:butt;stroke-linejoin:round" />
  </defs>
  <g
     id="figure_1"
     style="stroke-linecap:butt;stroke-linejoin:round"
     transform="translate(-57.19606,-33.595422)">
    <g
       id="axes_1"
       style="stroke-linecap:butt;stroke-linejoin:round">
      <g
         id="patch_2"
         style="stroke-linecap:butt;stroke-linejoin:round"
         transform="matrix(1,0,0,1.8007234,0,-28.252404)">
        <path
           d="M 132.43795,336.03323 H 645.14017 V 35.2836 H 132.43795 Z"
           style="fill:#ffffff;stroke-linecap:butt;stroke-linejoin:round"
           id="path9"
           inkscape:connector-curvature="0" />
      </g>
      <g
         id="matplotlib.axis_2"
         style="stroke-linecap:butt;stroke-linejoin:round">
        <g
           id="ytick_1"
           style="stroke-linecap:butt;stroke-linejoin:round"
           transform="matrix(1,0,0,1.8007234,0,-28.252404)">
          <g
             id="line2d_1"
             style="stroke-linecap:butt;stroke-linejoin:round">
            <path
               clip-path="url(#p9623b02057)"
               d="M 132.43795,336.03323 H 645.14017"
               style="fill:none;stroke:#cccccc;stroke-width:1.5;stroke-linecap:round;stroke-linejoin:round"
               id="path78"
               inkscape:connector-curvature="0" />
          </g>
        </g>
        <g
           id="ytick_2"
           style="stroke-linecap:butt;stroke-linejoin:round"
           transform="matrix(1,0,0,1.8007234,0,-28.252404)">
          <g
             id="line2d_2"
             style="stroke-linecap:butt;stroke-linejoin:round">
            <path
               clip-path="url(#p9623b02057)"
               d="M 132.43795,248.58916 H 645.14017"
               style="fill:none;stroke:#cccccc;stroke-width:1.5;stroke-linecap:round;stroke-linejoin:round"
               id="path90"
               inkscape:connector-curvature="0" />
          </g>
        </g>
        <g
           id="ytick_3"
           style="stroke-linecap:butt;stroke-linejoin:round"
           transform="matrix(1,0,0,1.8007234,0,-28.252404)">
          <g
             id="line2d_3"
             style="stroke-linecap:butt;stroke-linejoin:round">
            <path
               clip-path="url(#p9623b02057)"
               d="M 132.43795,161.14509 H 645.14017"
               style="fill:none;stroke:#cccccc;stroke-width:1.5;stroke-linecap:round;stroke-linejoin:round"
               id="path102"
               inkscape:connector-curvature="0" />
          </g>
        </g>
        <g
           id="ytick_4"
           style="stroke-linecap:butt;stroke-linejoin:round"
           transform="matrix(1,0,0,1.8007234,0,-28.252404)">
          <g
             id="line2d_4"
             style="stroke-linecap:butt;stroke-linejoin:round">
            <path
               clip-path="url(#p9623b02057)"
               d="M 132.43795,73.70103 H 645.14017"
               style="fill:none;stroke:#cccccc;stroke-width:1.5;stroke-linecap:round;stroke-linejoin:round"
               id="path114"
               inkscape:connector-curvature="0" />
          </g>
        </g>
        <g
           id="text_8"
           transform="matrix(1,0,0,1.8007234,-7.5,-28.252404)"
           style="stroke-linecap:butt;stroke-linejoin:round">
          <!-- loss -->
          <g
             transform="matrix(0.99999997,0,0,0.55533236,788.01119,70.401122)"
             id="ytick_1-9"
             style="stroke-linecap:butt;stroke-linejoin:round">
            <g
               id="text_4"
               style="stroke-linecap:butt;stroke-linejoin:round"
               transform="translate(-789.2815,138.43419)">
              <!-- 0 -->
              <defs
                 id="defs82">
                <path
                   d="m 4.15625,35.296875 q 0,12.703125 2.609375,20.4375 2.609375,7.75 7.75,11.9375 5.15625,4.203125 12.96875,4.203125 5.765625,0 10.109375,-2.328125 4.34375,-2.3125 7.171875,-6.6875 Q 47.609375,58.5 49.21875,52.21875 q 1.609375,-6.265625 1.609375,-16.921875 0,-12.59375 -2.59375,-20.328125 Q 45.65625,7.234375 40.5,3 35.359375,-1.21875 27.484375,-1.21875 q -10.34375,0 -16.25,7.421875 -7.078125,8.9375 -7.078125,29.09375 z m 9.03125,0 q 0,-17.625 4.125,-23.46875 Q 21.4375,6 27.484375,6 q 6.0625,0 10.1875,5.859375 4.125,5.859375 4.125,23.4375 0,17.6875 -4.125,23.484375 -4.125,5.8125 -10.28125,5.8125 -6.046875,0 -9.671875,-5.125 Q 13.1875,52.9375 13.1875,35.296875 Z"
                   id="path581"
                   inkscape:connector-curvature="0"
                   style="stroke-linecap:butt;stroke-linejoin:round" />
              </defs>
              <g
                 style="fill:#262626;stroke-linecap:butt;stroke-linejoin:round"
                 transform="matrix(0.2475,0,0,-0.2475,106.17463,344.89102)"
                 id="g86">
                <use
                   xlink:href="#ArialMT-30"
                   id="use84"
                   style="stroke-linecap:butt;stroke-linejoin:round"
                   x="0"
                   y="0"
                   width="100%"
                   height="100%" />
              </g>
            </g>
          </g>
          <g
             transform="matrix(0.99999997,0,0,0.55533236,720.86028,44.584224)"
             id="ytick_2-7"
             style="stroke-linecap:butt;stroke-linejoin:round">
            <g
               id="text_5"
               style="stroke-linecap:butt;stroke-linejoin:round"
               transform="translate(-721.0975,115.70619)">
              <!-- 2 -->
              <defs
                 id="defs94">
                <path
                   d="M 50.34375,8.453125 V 0 H 3.03125 Q 2.9375,3.171875 4.046875,6.109375 5.859375,10.9375 9.828125,15.625 13.8125,20.3125 21.34375,26.46875 q 11.671875,9.5625 15.765625,15.15625 4.109375,5.59375 4.109375,10.578125 0,5.21875 -3.75,8.796875 -3.734375,3.59375 -9.734375,3.59375 -6.34375,0 -10.15625,-3.8125 Q 13.765625,56.984375 13.71875,50.25 L 4.6875,51.171875 q 0.921875,10.109375 6.96875,15.40625 6.0625,5.296875 16.28125,5.296875 10.296875,0 16.296875,-5.71875 Q 50.25,60.453125 50.25,52 50.25,47.703125 48.484375,43.546875 46.734375,39.40625 42.65625,34.8125 38.578125,30.21875 29.109375,22.21875 21.1875,15.578125 18.9375,13.203125 q -2.234375,-2.359375 -3.703125,-4.75 z"
                   id="path590"
                   inkscape:connector-curvature="0"
                   style="stroke-linecap:butt;stroke-linejoin:round" />
              </defs>
              <g
                 style="fill:#262626;stroke-linecap:butt;stroke-linejoin:round"
                 transform="matrix(0.2475,0,0,-0.2475,106.17463,257.44695)"
                 id="g98">
                <use
                   xlink:href="#ArialMT-32"
                   id="use96"
                   style="stroke-linecap:butt;stroke-linejoin:round"
                   x="0"
                   y="0"
                   width="100%"
                   height="100%" />
              </g>
            </g>
          </g>
          <g
             transform="matrix(0.99999997,0,0,0.55533236,720.86028,44.584224)"
             id="ytick_3-3"
             style="stroke-linecap:butt;stroke-linejoin:round">
            <g
               id="text_6"
               style="stroke-linecap:butt;stroke-linejoin:round"
               transform="translate(-717.99823,44.422912)">
              <!-- 4 -->
              <defs
                 id="defs106">
                <path
                   d="m 32.328125,0 v 17.140625 h -31.0625 v 8.0625 l 32.671875,46.375 h 7.171875 v -46.375 h 9.671875 v -8.0625 H 41.109375 V 0 Z m 0,25.203125 V 57.46875 L 9.90625,25.203125 Z"
                   id="path599"
                   inkscape:connector-curvature="0"
                   style="stroke-linecap:butt;stroke-linejoin:round" />
              </defs>
              <g
                 style="fill:#262626;stroke-linecap:butt;stroke-linejoin:round"
                 transform="matrix(0.2475,0,0,-0.2475,106.17463,170.00289)"
                 id="g110">
                <use
                   xlink:href="#ArialMT-34"
                   id="use108"
                   style="stroke-linecap:butt;stroke-linejoin:round"
                   x="0"
                   y="0"
                   width="100%"
                   height="100%" />
              </g>
            </g>
          </g>
          <g
             transform="matrix(0.99999997,0,0,0.55533236,720.86028,44.584224)"
             id="ytick_4-6"
             style="stroke-linecap:butt;stroke-linejoin:round">
            <g
               id="text_7"
               style="stroke-linecap:butt;stroke-linejoin:round"
               transform="translate(-712.83277,-22.728001)">
              <!-- 6 -->
              <defs
                 id="defs118">
                <path
                   d="M 49.75,54.046875 41.015625,53.375 q -1.171875,5.171875 -3.3125,7.515625 -3.578125,3.765625 -8.796875,3.765625 -4.203125,0 -7.375,-2.34375 Q 17.390625,59.28125 14.984375,53.46875 12.59375,47.65625 12.5,36.921875 15.671875,41.75 20.265625,44.09375 q 4.59375,2.34375 9.625,2.34375 8.78125,0 14.953125,-6.46875 Q 51.03125,33.5 51.03125,23.25 51.03125,16.5 48.125,10.71875 45.21875,4.9375 40.140625,1.859375 35.0625,-1.21875 28.609375,-1.21875 17.625,-1.21875 10.6875,6.859375 3.765625,14.9375 3.765625,33.5 q 0,20.75 7.65625,30.171875 6.6875,8.203125 18.015625,8.203125 8.453125,0 13.84375,-4.734375 Q 48.6875,62.40625 49.75,54.046875 Z M 13.875,23.1875 q 0,-4.53125 1.921875,-8.6875 Q 17.71875,10.359375 21.1875,8.171875 24.65625,6 28.46875,6 q 5.5625,0 9.5625,4.484375 4.015625,4.5 4.015625,12.21875 0,7.421875 -3.96875,11.6875 -3.953125,4.28125 -9.953125,4.28125 -5.953125,0 -10.109375,-4.28125 Q 13.875,30.125 13.875,23.1875 Z"
                   id="path608"
                   inkscape:connector-curvature="0"
                   style="stroke-linecap:butt;stroke-linejoin:round" />
              </defs>
              <g
                 style="fill:#262626;stroke-linecap:butt;stroke-linejoin:round"
                 transform="matrix(0.2475,0,0,-0.2475,106.17463,82.558823)"
                 id="g122">
                <use
                   xlink:href="#ArialMT-36"
                   id="use120"
                   style="stroke-linecap:butt;stroke-linejoin:round"
                   x="0"
                   y="0"
                   width="100%"
                   height="100%" />
              </g>
            </g>
          </g>
          <g
             id="text_8-1"
             transform="matrix(1.4733521,0,0,0.69480628,-49.462629,61.207347)"
             style="stroke-linecap:butt;stroke-linejoin:round">
            <!-- loss -->
            <g
               style="fill:#262626;stroke-linecap:butt;stroke-linejoin:round"
               transform="matrix(0,-0.27,-0.27,0,96.80838,209.66521)"
               id="g134">
              <path
                 id="use126"
                 d="M 6.390625,0 V 71.578125 H 15.1875 V 0 Z"
                 inkscape:connector-curvature="0"
                 style="stroke-linecap:butt;stroke-linejoin:round" />
              <path
                 id="use128"
                 d="m 25.544922,25.921875 q 0,14.40625 8,21.34375 6.6875,5.765625 16.3125,5.765625 10.6875,0 17.46875,-7.015625 6.796875,-7 6.796875,-19.359375 0,-10 -3,-15.75 -3,-5.734375 -8.75,-8.90625 -5.734375,-3.171875 -12.515625,-3.171875 -10.890625,0 -17.609375,6.984375 -6.703125,6.984375 -6.703125,20.109375 z m 9.03125,0 q 0,-9.953125 4.34375,-14.90625 4.34375,-4.953125 10.9375,-4.953125 6.546875,0 10.890625,4.96875 4.34375,4.984375 4.34375,15.1875 0,9.625 -4.375,14.578125 -4.375,4.953125 -10.859375,4.953125 -6.59375,0 -10.9375,-4.9375 -4.34375,-4.921875 -4.34375,-14.890625 z"
                 inkscape:connector-curvature="0"
                 style="stroke-linecap:butt;stroke-linejoin:round" />
              <path
                 id="use130"
                 d="m 80.910156,15.484375 8.6875,1.359375 q 0.734375,-5.21875 4.078125,-8 3.34375,-2.78125 9.359379,-2.78125 6.04687,0 8.96875,2.453125 2.9375,2.46875 2.9375,5.796875 0,2.96875 -2.59375,4.6875 -1.79688,1.171875 -8.98438,2.96875 -9.656249,2.453125 -13.390624,4.234375 -3.734375,1.78125 -5.671875,4.921875 -1.921875,3.15625 -1.921875,6.96875 0,3.453125 1.578125,6.40625 1.59375,2.96875 4.328125,4.921875 2.046875,1.5 5.578125,2.546875 3.546875,1.0625 7.609379,1.0625 6.09375,0 10.70312,-1.765625 4.625,-1.75 6.8125,-4.765625 2.20313,-3 3.03125,-8.015625 L 113.42578,37.3125 q -0.57812,4 -3.39062,6.234375 -2.8125,2.25 -7.9375,2.25 -6.046879,0 -8.640629,-2 -2.59375,-2 -2.59375,-4.6875 0,-1.703125 1.078125,-3.078125 1.078125,-1.40625 3.375,-2.34375 1.3125,-0.484375 7.765624,-2.234375 9.32813,-2.5 13,-4.09375 3.6875,-1.578125 5.78125,-4.609375 2.10938,-3.015625 2.10938,-7.515625 0,-4.390625 -2.5625,-8.28125 -2.5625,-3.875 -7.40625,-6 -4.82813,-2.125 -10.92188,-2.125 -10.109374,0 -15.406249,4.203125 -5.296875,4.203125 -6.765625,12.453125 z"
                 inkscape:connector-curvature="0"
                 style="stroke-linecap:butt;stroke-linejoin:round" />
              <path
                 id="use132"
                 d="m 130.91016,15.484375 8.6875,1.359375 q 0.73437,-5.21875 4.07812,-8 3.34375,-2.78125 9.35938,-2.78125 6.04687,0 8.96875,2.453125 2.9375,2.46875 2.9375,5.796875 0,2.96875 -2.59375,4.6875 -1.79688,1.171875 -8.98438,2.96875 -9.65625,2.453125 -13.39062,4.234375 -3.73438,1.78125 -5.67188,4.921875 -1.92187,3.15625 -1.92187,6.96875 0,3.453125 1.57812,6.40625 1.59375,2.96875 4.32813,4.921875 2.04687,1.5 5.57812,2.546875 3.54688,1.0625 7.60938,1.0625 6.09375,0 10.70312,-1.765625 4.625,-1.75 6.8125,-4.765625 2.20313,-3 3.03125,-8.015625 L 163.42578,37.3125 q -0.57812,4 -3.39062,6.234375 -2.8125,2.25 -7.9375,2.25 -6.04688,0 -8.64063,-2 -2.59375,-2 -2.59375,-4.6875 0,-1.703125 1.07813,-3.078125 1.07812,-1.40625 3.375,-2.34375 1.3125,-0.484375 7.76562,-2.234375 9.32813,-2.5 13,-4.09375 3.6875,-1.578125 5.78125,-4.609375 2.10938,-3.015625 2.10938,-7.515625 0,-4.390625 -2.5625,-8.28125 -2.5625,-3.875 -7.40625,-6 -4.82813,-2.125 -10.92188,-2.125 -10.10937,0 -15.40625,4.203125 -5.29687,4.203125 -6.76562,12.453125 z"
                 inkscape:connector-curvature="0"
                 style="stroke-linecap:butt;stroke-linejoin:round" />
            </g>
          </g>
        </g>
      </g>
      <g
         id="patch_3"
         style="stroke-linecap:butt;stroke-linejoin:round"
         transform="matrix(1,0,0,1.8007234,241.5,-28.252404)">
        <path
           clip-path="url(#p9623b02057)"
           d="M 158.07306,336.03323 H 363.15395 V 171.09436 H 158.07306 Z"
           style="fill:#cb6d67;stroke:#ffffff;stroke-width:1.5;stroke-linecap:butt;stroke-linejoin:miter"
           id="path138"
           inkscape:connector-curvature="0" />
      </g>
      <g
         id="patch_4"
         style="stroke-linecap:butt;stroke-linejoin:round"
         transform="matrix(1,0,0,1.8007234,-249,-28.252404)">
        <path
           clip-path="url(#p9623b02057)"
           d="M 414.42417,336.03323 H 619.50505 V 143.96938 H 414.42417 Z"
           style="fill:#cbb867;stroke:#ffffff;stroke-width:1.5;stroke-linecap:butt;stroke-linejoin:miter"
           id="path141"
           inkscape:connector-curvature="0" />
      </g>
      <g
         id="line2d_5"
         style="stroke-linecap:butt;stroke-linejoin:round"
         transform="matrix(1,0,0,1.8007234,241.5,-28.252404)">
        <path
           clip-path="url(#p9623b02057)"
           d="M 260.6135,230.38678 V 77.031762"
           style="fill:none;stroke:#424242;stroke-width:4.05000019;stroke-linecap:round;stroke-linejoin:round"
           id="path144"
           inkscape:connector-curvature="0" />
      </g>
      <g
         id="line2d_6"
         style="stroke-linecap:butt;stroke-linejoin:round"
         transform="matrix(1,0,0,1.8007234,-249,-28.252404)">
        <path
           clip-path="url(#p9623b02057)"
           d="M 516.96461,219.45426 V 49.605011"
           style="fill:none;stroke:#424242;stroke-width:4.05000019;stroke-linecap:round;stroke-linejoin:round"
           id="path147"
           inkscape:connector-curvature="0" />
      </g>
      <g
         id="patch_5"
         style="stroke-linecap:butt;stroke-linejoin:round"
         transform="matrix(1,0,0,1.8007234,0,-28.252404)">
        <path
           d="M 132.43795,336.03323 V 35.2836"
           style="fill:none;stroke:#cccccc;stroke-width:1.875;stroke-linecap:square;stroke-linejoin:miter"
           id="path150"
           inkscape:connector-curvature="0" />
      </g>
      <g
         id="patch_6"
         style="stroke-linecap:butt;stroke-linejoin:round"
         transform="matrix(1,0,0,1.8007234,0,-28.252404)">
        <path
           d="M 132.43795,336.03323 H 645.14017"
           style="fill:none;stroke:#cccccc;stroke-width:1.875;stroke-linecap:square;stroke-linejoin:miter"
           id="path153"
           inkscape:connector-curvature="0" />
      </g>
      <text
         xml:space="preserve"
         style="font-style:normal;font-weight:normal;font-size:30px;line-height:1.25;font-family:sans-serif;letter-spacing:0px;word-spacing:0px;fill:#000000;fill-opacity:1;stroke:none;stroke-width:0.75;stroke-linecap:butt;stroke-linejoin:round"
         x="475.3027"
         y="615.73804"
         id="text218"><tspan
           sodipodi:role="line"
           id="tspan216"
           style="stroke-width:0.75;stroke-linecap:butt;stroke-linejoin:round"
           x="475.3027"
           y="615.73804">skip</tspan></text>
      <text
         xml:space="preserve"
         style="font-style:normal;font-weight:normal;font-size:30.00000191px;line-height:1.25;font-family:sans-serif;letter-spacing:0px;word-spacing:0px;fill:#000000;fill-opacity:1;stroke:none;stroke-width:0.75;stroke-linecap:butt;stroke-linejoin:round"
         x="208.84286"
         y="615.2168"
         id="text218-3"><tspan
           sodipodi:role="line"
           id="tspan216-6"
           style="stroke-width:0.75;stroke-linecap:butt;stroke-linejoin:round"
           x="208.84286"
           y="615.2168">noskip</tspan></text>
    </g>
    <g
       id="legend_1"
       style="stroke-linecap:butt;stroke-linejoin:round" />
  </g>
  <defs
     id="defs162">
    <clipPath
       id="p9623b02057"
       style="stroke-linecap:butt;stroke-linejoin:round">
      <rect
         height="300.74963"
         width="512.70221"
         x="132.43794"
         y="35.2836"
         id="rect159"
         style="stroke-linecap:butt;stroke-linejoin:round" />
    </clipPath>
  </defs>
</svg>
