<svg version="1.1" viewBox="0.0 0.0 594.4724409448819 340.4199475065617" fill="none" stroke="none" stroke-linecap="square" stroke-miterlimit="10" xmlns:xlink="http://www.w3.org/1999/xlink" xmlns="http://www.w3.org/2000/svg"><clipPath id="p.0"><path d="m0 0l594.4724 0l0 340.41995l-594.4724 0l0 -340.41995z" clip-rule="nonzero"/></clipPath><g clip-path="url(#p.0)"><path fill="#000000" fill-opacity="0.0" d="m0 0l594.4724 0l0 340.41995l-594.4724 0z" fill-rule="evenodd"/><path fill="#ffffff" d="m204.37563 53.730305l0 0c0 -3.2326736 2.6205902 -5.8532753 5.8532715 -5.8532753l0 0l0 0c1.5523834 0 3.0411835 0.61668396 4.1388855 1.714386c1.097702 1.097702 1.714386 2.586506 1.714386 4.1388893l0 5.984207c0 3.2326736 -2.6206055 5.8532753 -5.8532715 5.8532753l0 0l0 0c-3.2326813 0 -5.8532715 -2.6206017 -5.8532715 -5.8532753z" fill-rule="evenodd"/><path stroke="#13294b" stroke-width="2.0" stroke-linejoin="round" stroke-linecap="butt" d="m204.37563 53.730305l0 0c0 -3.2326736 2.6205902 -5.8532753 5.8532715 -5.8532753l0 0l0 0c1.5523834 0 3.0411835 0.61668396 4.1388855 1.714386c1.097702 1.097702 1.714386 2.586506 1.714386 4.1388893l0 5.984207c0 3.2326736 -2.6206055 5.8532753 -5.8532715 5.8532753l0 0l0 0c-3.2326813 0 -5.8532715 -2.6206017 -5.8532715 -5.8532753z" fill-rule="evenodd"/><path fill="#000000" fill-opacity="0.0" d="m218.805 60.760468c-0.10067749 4.458824 -3.7959595 8.050888 -8.385696 8.151459c-4.589737 0.10056305 -8.447968 -3.3259888 -8.755478 -7.7758713l8.561981 -0.5583916z" fill-rule="evenodd"/><path fill="#000000" fill-opacity="0.0" d="m218.805 60.760468c-0.10067749 4.458824 -3.7959595 8.050888 -8.385696 8.151459c-4.589737 0.10056305 -8.447968 -3.3259888 -8.755478 -7.7758713" fill-rule="evenodd"/><path stroke="#10274a" stroke-width="2.0" stroke-linejoin="round" stroke-linecap="butt" d="m218.805 60.760468c-0.10067749 4.458824 -3.7959595 8.050888 -8.385696 8.151459c-4.589737 0.10056305 -8.447968 -3.3259888 -8.755478 -7.7758713" fill-rule="evenodd"/><path fill="#000000" fill-opacity="0.0" d="m203.14014 74.219505l14.172379 0" fill-rule="evenodd"/><path stroke="#10274a" stroke-width="2.0" stroke-linejoin="round" stroke-linecap="butt" d="m203.14014 74.219505l14.172379 0" fill-rule="evenodd"/><path fill="#000000" fill-opacity="0.0" d="m210.22784 74.219505l0 -5.306427" fill-rule="evenodd"/><path stroke="#10274a" stroke-width="2.0" stroke-linejoin="round" stroke-linecap="butt" d="m210.22784 74.219505l0 -5.306427" fill-rule="evenodd"/><path fill="#000000" fill-opacity="0.0" d="m228.05092 65.67253l16.755905 0" fill-rule="evenodd"/><path stroke="#13294b" stroke-width="2.0" stroke-linejoin="round" stroke-linecap="butt" d="m228.05092 65.67253l16.755905 0" fill-rule="evenodd"/><path fill="#000000" fill-opacity="0.0" d="m244.81093 65.67265l16.062973 -8.346455" fill-rule="evenodd"/><path stroke="#13294b" stroke-width="2.0" stroke-linejoin="round" stroke-linecap="butt" d="m244.81093 65.67265l16.062973 -8.346455" fill-rule="evenodd"/><path fill="#000000" fill-opacity="0.0" d="m261.57104 65.67274l76.44092 0" fill-rule="evenodd"/><path stroke="#13294b" stroke-width="2.0" stroke-linejoin="round" stroke-linecap="butt" d="m261.57104 65.67274l69.58676 0" fill-rule="evenodd"/><path fill="#13294b" stroke="#13294b" stroke-width="2.0" stroke-linecap="butt" d="m331.1578 65.67274l-2.249176 2.2491684l6.179535 -2.2491684l-6.179535 -2.2491684z" fill-rule="evenodd"/><path fill="#000000" fill-opacity="0.0" d="m228.05092 126.229614l71.37007 0l0 29.070877l-71.37007 0z" fill-rule="evenodd"/><path fill="#13294b" d="m229.94154 149.26962l0 -17.1875l7.609375 0q2.296875 0 3.484375 0.46875q1.203125 0.46875 1.921875 1.640625q0.71875 1.171875 0.71875 2.578125q0 1.828125 -1.1875 3.09375q-1.1875 1.25 -3.65625 1.59375q0.90625 0.421875 1.375 0.84375q1.0 0.921875 1.890625 2.296875l2.984375 4.671875l-2.859375 0l-2.28125 -3.578125q-0.984375 -1.546875 -1.640625 -2.359375q-0.640625 -0.828125 -1.15625 -1.15625q-0.5 -0.328125 -1.03125 -0.453125q-0.390625 -0.078125 -1.265625 -0.078125l-2.640625 0l0 7.625l-2.265625 0zm2.265625 -9.59375l4.890625 0q1.5625 0 2.4375 -0.328125q0.875 -0.328125 1.328125 -1.03125q0.46875 -0.703125 0.46875 -1.546875q0 -1.21875 -0.890625 -2.0q-0.875 -0.78125 -2.796875 -0.78125l-5.4375 0l0 5.6875zm22.878906 8.0625q-1.171875 0.984375 -2.265625 1.40625q-1.078125 0.40625 -2.3125 0.40625q-2.046875 0 -3.15625 -1.0q-1.09375 -1.0 -1.09375 -2.5625q0 -0.921875 0.40625 -1.671875q0.421875 -0.75 1.09375 -1.203125q0.671875 -0.46875 1.515625 -0.703125q0.625 -0.15625 1.875 -0.3125q2.5625 -0.3125 3.765625 -0.734375q0.015625 -0.421875 0.015625 -0.546875q0 -1.28125 -0.609375 -1.8125q-0.796875 -0.71875 -2.390625 -0.71875q-1.5 0 -2.203125 0.53125q-0.703125 0.515625 -1.046875 1.84375l-2.0625 -0.28125q0.28125 -1.328125 0.921875 -2.140625q0.640625 -0.8125 1.859375 -1.25q1.21875 -0.453125 2.828125 -0.453125q1.59375 0 2.59375 0.375q1.0 0.375 1.4687347 0.953125q0.46875 0.5625 0.65625 1.4375q0.09375 0.53125 0.09375 1.9375l0 2.8125q0 2.9375 0.140625 3.71875q0.140625 0.78125 0.53125 1.5l-2.2031097 0q-0.328125 -0.65625 -0.421875 -1.53125zm-0.171875 -4.71875q-1.15625 0.46875 -3.453125 0.796875q-1.296875 0.1875 -1.84375 0.421875q-0.53125 0.234375 -0.828125 0.6875q-0.28125 0.453125 -0.28125 1.0q0 0.84375 0.625 1.40625q0.640625 0.5625 1.875 0.5625q1.21875 0 2.171875 -0.53125q0.953125 -0.53125 1.390625 -1.453125q0.34375 -0.71875 0.34375 -2.109375l0 -0.78125zm10.003891 4.359375l0.3125 1.859375q-0.890625 0.203125 -1.59375 0.203125q-1.15625 0 -1.796875 -0.359375q-0.625 -0.375 -0.890625 -0.96875q-0.25 -0.59375 -0.25 -2.484375l0 -7.171875l-1.546875 0l0 -1.640625l1.546875 0l0 -3.078125l2.09375 -1.265625l0 4.34375l2.125 0l0 1.640625l-2.125 0l0 7.28125q0 0.90625 0.109375 1.171875q0.125 0.25 0.375 0.40625q0.25 0.140625 0.71875 0.140625q0.34375 0 0.921875 -0.078125zm10.589844 -2.125l2.171875 0.28125q-0.515625 1.90625 -1.90625 2.96875q-1.390625 1.046875 -3.5625 1.046875q-2.734375 0 -4.34375 -1.671875q-1.59375 -1.6875 -1.59375 -4.734375q0 -3.140625 1.609375 -4.875q1.625 -1.734375 4.203125 -1.734375q2.5 0 4.078125 1.703125q1.59375 1.703125 1.59375 4.78125q0 0.1875 -0.015625 0.5625l-9.28125 0q0.109375 2.046875 1.15625 3.140625q1.046875 1.09375 2.609375 1.09375q1.15625 0 1.96875 -0.609375q0.828125 -0.609375 1.3125 -1.953125zm-6.9375 -3.40625l6.953125 0q-0.140625 -1.5625 -0.796875 -2.359375q-1.0 -1.21875 -2.609375 -1.21875q-1.453125 0 -2.453125 0.984375q-0.984375 0.96875 -1.09375 2.59375zm25.78125 7.421875l-2.109375 0l0 -13.4375q-0.75 0.71875 -2.0 1.453125q-1.234375 0.71875 -2.21875 1.078125l0 -2.03125q1.78125 -0.828125 3.09375 -2.015625q1.328125 -1.1875 1.875 -2.296875l1.359375 0l0 17.25z" fill-rule="nonzero"/><path fill="#ffffff" d="m204.37563 232.9973l0 0c0 -3.232666 2.6205902 -5.8532715 5.8532715 -5.8532715l0 0l0 0c1.5523834 0 3.0411835 0.61668396 4.1388855 1.714386c1.097702 1.097702 1.714386 2.586502 1.714386 4.1388855l0 5.984207c0 3.2326813 -2.6206055 5.8532715 -5.8532715 5.8532715l0 0l0 0c-3.2326813 0 -5.8532715 -2.6205902 -5.8532715 -5.8532715z" fill-rule="evenodd"/><path stroke="#13294b" stroke-width="2.0" stroke-linejoin="round" stroke-linecap="butt" d="m204.37563 232.9973l0 0c0 -3.232666 2.6205902 -5.8532715 5.8532715 -5.8532715l0 0l0 0c1.5523834 0 3.0411835 0.61668396 4.1388855 1.714386c1.097702 1.097702 1.714386 2.586502 1.714386 4.1388855l0 5.984207c0 3.2326813 -2.6206055 5.8532715 -5.8532715 5.8532715l0 0l0 0c-3.2326813 0 -5.8532715 -2.6205902 -5.8532715 -5.8532715z" fill-rule="evenodd"/><path fill="#000000" fill-opacity="0.0" d="m218.805 240.02747c-0.10067749 4.458832 -3.7959595 8.050888 -8.385696 8.151459c-4.589737 0.10057068 -8.447968 -3.3259888 -8.755478 -7.7758636l8.561981 -0.5583954z" fill-rule="evenodd"/><path fill="#000000" fill-opacity="0.0" d="m218.805 240.02747c-0.10067749 4.458832 -3.7959595 8.050888 -8.385696 8.151459c-4.589737 0.10057068 -8.447968 -3.3259888 -8.755478 -7.7758636" fill-rule="evenodd"/><path stroke="#10274a" stroke-width="2.0" stroke-linejoin="round" stroke-linecap="butt" d="m218.805 240.02747c-0.10067749 4.458832 -3.7959595 8.050888 -8.385696 8.151459c-4.589737 0.10057068 -8.447968 -3.3259888 -8.755478 -7.7758636" fill-rule="evenodd"/><path fill="#000000" fill-opacity="0.0" d="m203.14014 253.4865l14.172379 0" fill-rule="evenodd"/><path stroke="#10274a" stroke-width="2.0" stroke-linejoin="round" stroke-linecap="butt" d="m203.14014 253.4865l14.172379 0" fill-rule="evenodd"/><path fill="#000000" fill-opacity="0.0" d="m210.22784 253.4865l0 -5.306427" fill-rule="evenodd"/><path stroke="#10274a" stroke-width="2.0" stroke-linejoin="round" stroke-linecap="butt" d="m210.22784 253.4865l0 -5.306427" fill-rule="evenodd"/><path fill="#ffffff" d="m238.23253 290.42984l0 0c0 -9.292267 7.5328674 -16.825134 16.825134 -16.825134l0 0c4.4622955 0 8.741837 1.772644 11.897171 4.9279785c3.1553345 3.1553345 4.9279785 7.4348755 4.9279785 11.897156l0 0c0 9.292267 -7.5328674 16.825134 -16.82515 16.825134l0 0c-9.292267 0 -16.825134 -7.5328674 -16.825134 -16.825134z" fill-rule="evenodd"/><path stroke="#13294b" stroke-width="2.0" stroke-linejoin="round" stroke-linecap="butt" d="m238.23253 290.42984l0 0c0 -9.292267 7.5328674 -16.825134 16.825134 -16.825134l0 0c4.4622955 0 8.741837 1.772644 11.897171 4.9279785c3.1553345 3.1553345 4.9279785 7.4348755 4.9279785 11.897156l0 0c0 9.292267 -7.5328674 16.825134 -16.82515 16.825134l0 0c-9.292267 0 -16.825134 -7.5328674 -16.825134 -16.825134z" fill-rule="evenodd"/><path fill="#000000" fill-opacity="0.0" d="m244.86699 284.57275l0 11.735352" fill-rule="evenodd"/><path stroke="#13294b" stroke-width="2.0" stroke-linejoin="round" stroke-linecap="butt" d="m244.86699 284.57275l0 11.735352" fill-rule="evenodd"/><path fill="#000000" fill-opacity="0.0" d="m251.661 284.57275l0 11.735352" fill-rule="evenodd"/><path stroke="#13294b" stroke-width="2.0" stroke-linejoin="round" stroke-linecap="butt" d="m251.661 284.57275l0 11.735352" fill-rule="evenodd"/><path fill="#000000" fill-opacity="0.0" d="m258.45523 284.57275l0 11.735352" fill-rule="evenodd"/><path stroke="#13294b" stroke-width="2.0" stroke-linejoin="round" stroke-linecap="butt" d="m258.45523 284.57275l0 11.735352" fill-rule="evenodd"/><path fill="#000000" fill-opacity="0.0" d="m244.86691 284.57275l6.8041534 0" fill-rule="evenodd"/><path stroke="#13294b" stroke-width="2.0" stroke-linejoin="round" stroke-linecap="butt" d="m244.86691 284.57275l6.8041534 0" fill-rule="evenodd"/><path fill="#000000" fill-opacity="0.0" d="m251.66106 296.3034l6.8041534 0" fill-rule="evenodd"/><path stroke="#13294b" stroke-width="2.0" stroke-linejoin="round" stroke-linecap="butt" d="m251.66106 296.3034l6.8041534 0" fill-rule="evenodd"/><path fill="#000000" fill-opacity="0.0" d="m265.24948 284.57275l0 11.735352" fill-rule="evenodd"/><path stroke="#13294b" stroke-width="2.0" stroke-linejoin="round" stroke-linecap="butt" d="m265.24948 284.57275l0 11.735352" fill-rule="evenodd"/><path fill="#000000" fill-opacity="0.0" d="m258.2924 284.57275l6.9605713 0" fill-rule="evenodd"/><path stroke="#13294b" stroke-width="2.0" stroke-linejoin="round" stroke-linecap="butt" d="m258.2924 284.57275l6.9605713 0" fill-rule="evenodd"/><path fill="#000000" fill-opacity="0.0" d="m228.05092 244.93942l16.755905 0" fill-rule="evenodd"/><path stroke="#13294b" stroke-width="2.0" stroke-linejoin="round" stroke-linecap="butt" d="m228.05092 244.93942l16.755905 0" fill-rule="evenodd"/><path fill="#000000" fill-opacity="0.0" d="m244.81093 244.93951l16.062973 -8.346466" fill-rule="evenodd"/><path stroke="#13294b" stroke-width="2.0" stroke-linejoin="round" stroke-linecap="butt" d="m244.81093 244.93951l16.062973 -8.346466" fill-rule="evenodd"/><path fill="#000000" fill-opacity="0.0" d="m261.57104 244.93964l76.44092 0" fill-rule="evenodd"/><path stroke="#13294b" stroke-width="2.0" stroke-linejoin="round" stroke-linecap="butt" d="m261.57104 244.93964l69.58676 0" fill-rule="evenodd"/><path fill="#13294b" stroke="#13294b" stroke-width="2.0" stroke-linecap="butt" d="m331.1578 244.93964l-2.249176 2.2491608l6.179535 -2.2491608l-6.179535 -2.249176z" fill-rule="evenodd"/><path fill="#000000" fill-opacity="0.0" d="m255.05766 273.6047l0 -22.078735" fill-rule="evenodd"/><path stroke="#13294b" stroke-width="2.0" stroke-linejoin="round" stroke-linecap="butt" d="m255.05766 273.6047l0 -15.224548" fill-rule="evenodd"/><path fill="#13294b" stroke="#13294b" stroke-width="2.0" stroke-linecap="butt" d="m255.05766 258.38016l2.2491608 2.249176l-2.2491608 -6.17955l-2.249176 6.17955z" fill-rule="evenodd"/><path fill="#000000" fill-opacity="0.0" d="m230.31874 308.0383l71.37007 0l0 29.070862l-71.37007 0z" fill-rule="evenodd"/><path fill="#13294b" d="m232.20937 331.0783l0 -17.1875l7.609375 0q2.296875 0 3.484375 0.46875q1.203125 0.46875 1.921875 1.640625q0.71875 1.171875 0.71875 2.578125q0 1.828125 -1.1875 3.09375q-1.1875 1.25 -3.65625 1.59375q0.90625 0.421875 1.375 0.84375q1.0 0.921875 1.890625 2.296875l2.984375 4.671875l-2.859375 0l-2.28125 -3.578125q-0.984375 -1.546875 -1.640625 -2.359375q-0.640625 -0.828125 -1.15625 -1.15625q-0.5 -0.328125 -1.03125 -0.453125q-0.390625 -0.078125 -1.265625 -0.078125l-2.640625 0l0 7.625l-2.265625 0zm2.265625 -9.59375l4.890625 0q1.5625 0 2.4375 -0.328125q0.875 -0.328125 1.328125 -1.03125q0.46875 -0.703125 0.46875 -1.546875q0 -1.21875 -0.890625 -2.0q-0.875 -0.78125 -2.796875 -0.78125l-5.4375 0l0 5.6875zm22.878891 8.0625q-1.171875 0.984375 -2.2656097 1.40625q-1.078125 0.40625 -2.3125 0.40625q-2.046875 0 -3.15625 -1.0q-1.09375 -1.0 -1.09375 -2.5625q0 -0.921875 0.40625 -1.671875q0.421875 -0.75 1.09375 -1.203125q0.671875 -0.46875 1.515625 -0.703125q0.625 -0.15625 1.875 -0.3125q2.5625 -0.3125 3.7656097 -0.734375q0.015625 -0.421875 0.015625 -0.546875q0 -1.28125 -0.609375 -1.8125q-0.79685974 -0.71875 -2.3906097 -0.71875q-1.5 0 -2.203125 0.53125q-0.703125 0.515625 -1.046875 1.84375l-2.0625 -0.28125q0.28125 -1.328125 0.921875 -2.140625q0.640625 -0.8125 1.859375 -1.25q1.21875 -0.453125 2.828125 -0.453125q1.5937347 0 2.5937347 0.375q1.0 0.375 1.46875 0.953125q0.46875 0.5625 0.65625 1.4375q0.09375 0.53125 0.09375 1.9375l0 2.8125q0 2.9375 0.140625 3.71875q0.140625 0.78125 0.53125 1.5l-2.203125 0q-0.328125 -0.65625 -0.421875 -1.53125zm-0.171875 -4.71875q-1.15625 0.46875 -3.4531097 0.796875q-1.296875 0.1875 -1.84375 0.421875q-0.53125 0.234375 -0.828125 0.6875q-0.28125 0.453125 -0.28125 1.0q0 0.84375 0.625 1.40625q0.640625 0.5625 1.875 0.5625q1.21875 0 2.171875 -0.53125q0.95310974 -0.53125 1.3906097 -1.453125q0.34375 -0.71875 0.34375 -2.109375l0 -0.78125zm10.003906 4.359375l0.3125 1.859375q-0.890625 0.203125 -1.59375 0.203125q-1.15625 0 -1.796875 -0.359375q-0.625 -0.375 -0.890625 -0.96875q-0.25 -0.59375 -0.25 -2.484375l0 -7.171875l-1.546875 0l0 -1.640625l1.546875 0l0 -3.078125l2.09375 -1.265625l0 4.34375l2.125 0l0 1.640625l-2.125 0l0 7.28125q0 0.90625 0.109375 1.171875q0.125 0.25 0.375 0.40625q0.25 0.140625 0.71875 0.140625q0.34375 0 0.921875 -0.078125zm10.589844 -2.125l2.171875 0.28125q-0.515625 1.90625 -1.90625 2.96875q-1.390625 1.046875 -3.5625 1.046875q-2.734375 0 -4.34375 -1.671875q-1.59375 -1.6875 -1.59375 -4.734375q0 -3.140625 1.609375 -4.875q1.625 -1.734375 4.203125 -1.734375q2.5 0 4.078125 1.703125q1.59375 1.703125 1.59375 4.78125q0 0.1875 -0.015625 0.5625l-9.28125 0q0.109375 2.046875 1.15625 3.140625q1.046875 1.09375 2.609375 1.09375q1.15625 0 1.96875 -0.609375q0.828125 -0.609375 1.3125 -1.953125zm-6.9375 -3.40625l6.953125 0q-0.140625 -1.5625 -0.796875 -2.359375q-1.0 -1.21875 -2.609375 -1.21875q-1.453125 0 -2.453125 0.984375q-0.984375 0.96875 -1.09375 2.59375zm28.921875 5.390625l0 2.03125l-11.34375 0q-0.03125 -0.765625 0.234375 -1.46875q0.4375 -1.15625 1.390625 -2.28125q0.953125 -1.125 2.765625 -2.609375q2.796875 -2.296875 3.78125 -3.625q0.984375 -1.34375 0.984375 -2.546875q0 -1.25 -0.90625 -2.109375q-0.890625 -0.859375 -2.328125 -0.859375q-1.515625 0 -2.4375 0.921875q-0.90625 0.90625 -0.921875 2.515625l-2.171875 -0.21875q0.21875 -2.421875 1.671875 -3.6875q1.453125 -1.28125 3.90625 -1.28125q2.46875 0 3.90625 1.375q1.453125 1.359375 1.453125 3.390625q0 1.03125 -0.421875 2.03125q-0.421875 1.0 -1.40625 2.109375q-0.96875 1.09375 -3.25 3.015625q-1.890625 1.59375 -2.4375 2.15625q-0.53125 0.5625 -0.890625 1.140625l8.421875 0z" fill-rule="nonzero"/><path fill="#000000" fill-opacity="0.0" d="m255.0633 93.92355l0 -22.078735" fill-rule="evenodd"/><path stroke="#13294b" stroke-width="2.0" stroke-linejoin="round" stroke-linecap="butt" d="m255.0633 93.92355l0 -15.224564" fill-rule="evenodd"/><path fill="#13294b" stroke="#13294b" stroke-width="2.0" stroke-linecap="butt" d="m255.0633 78.69899l2.249176 2.2491684l-2.249176 -6.179535l-2.2491608 6.179535z" fill-rule="evenodd"/><path fill="#000000" fill-opacity="0.0" d="m464.26233 46.872868l67.212585 0" fill-rule="evenodd"/><path stroke="#13294b" stroke-width="2.0" stroke-linejoin="round" stroke-linecap="butt" d="m464.26233 46.872868l60.35846 0" fill-rule="evenodd"/><path fill="#13294b" stroke="#13294b" stroke-width="2.0" stroke-linecap="butt" d="m524.6208 46.872868l-2.2492065 2.2491684l6.1795654 -2.2491684l-6.1795654 -2.2491684z" fill-rule="evenodd"/><path fill="#ffffff" d="m238.23253 110.932945l0 0c0 -9.292267 7.5328674 -16.825134 16.825134 -16.825134l0 0c4.4622955 0 8.741837 1.772644 11.897171 4.927971c3.1553345 3.1553192 4.9279785 7.43486 4.9279785 11.897163l0 0c0 9.292267 -7.5328674 16.825134 -16.82515 16.825134l0 0c-9.292267 0 -16.825134 -7.5328674 -16.825134 -16.825134z" fill-rule="evenodd"/><path stroke="#13294b" stroke-width="2.0" stroke-linejoin="round" stroke-linecap="butt" d="m238.23253 110.932945l0 0c0 -9.292267 7.5328674 -16.825134 16.825134 -16.825134l0 0c4.4622955 0 8.741837 1.772644 11.897171 4.927971c3.1553345 3.1553192 4.9279785 7.43486 4.9279785 11.897163l0 0c0 9.292267 -7.5328674 16.825134 -16.82515 16.825134l0 0c-9.292267 0 -16.825134 -7.5328674 -16.825134 -16.825134z" fill-rule="evenodd"/><path fill="#000000" fill-opacity="0.0" d="m244.86699 105.07585l0 11.735344" fill-rule="evenodd"/><path stroke="#13294b" stroke-width="2.0" stroke-linejoin="round" stroke-linecap="butt" d="m244.86699 105.07585l0 11.735344" fill-rule="evenodd"/><path fill="#000000" fill-opacity="0.0" d="m251.661 105.07585l0 11.735344" fill-rule="evenodd"/><path stroke="#13294b" stroke-width="2.0" stroke-linejoin="round" stroke-linecap="butt" d="m251.661 105.07585l0 11.735344" fill-rule="evenodd"/><path fill="#000000" fill-opacity="0.0" d="m258.45523 105.07585l0 11.735344" fill-rule="evenodd"/><path stroke="#13294b" stroke-width="2.0" stroke-linejoin="round" stroke-linecap="butt" d="m258.45523 105.07585l0 11.735344" fill-rule="evenodd"/><path fill="#000000" fill-opacity="0.0" d="m244.86691 105.07585l6.8041534 0" fill-rule="evenodd"/><path stroke="#13294b" stroke-width="2.0" stroke-linejoin="round" stroke-linecap="butt" d="m244.86691 105.07585l6.8041534 0" fill-rule="evenodd"/><path fill="#000000" fill-opacity="0.0" d="m251.66106 116.80651l6.8041534 0" fill-rule="evenodd"/><path stroke="#13294b" stroke-width="2.0" stroke-linejoin="round" stroke-linecap="butt" d="m251.66106 116.80651l6.8041534 0" fill-rule="evenodd"/><path fill="#000000" fill-opacity="0.0" d="m265.24948 105.07585l0 11.735344" fill-rule="evenodd"/><path stroke="#13294b" stroke-width="2.0" stroke-linejoin="round" stroke-linecap="butt" d="m265.24948 105.07585l0 11.735344" fill-rule="evenodd"/><path fill="#000000" fill-opacity="0.0" d="m258.2924 105.07585l6.9605713 0" fill-rule="evenodd"/><path stroke="#13294b" stroke-width="2.0" stroke-linejoin="round" stroke-linecap="butt" d="m258.2924 105.07585l6.9605713 0" fill-rule="evenodd"/><path fill="#000000" fill-opacity="0.0" d="m464.81586 230.34605l67.212585 0" fill-rule="evenodd"/><path stroke="#13294b" stroke-width="2.0" stroke-linejoin="round" stroke-linecap="butt" d="m464.81586 230.34605l60.35846 0" fill-rule="evenodd"/><path fill="#13294b" stroke="#13294b" stroke-width="2.0" stroke-linecap="butt" d="m525.1743 230.34605l-2.2492065 2.2491608l6.1795654 -2.2491608l-6.1795654 -2.249176z" fill-rule="evenodd"/><path fill="#f16322" d="m46.819622 30.59448l4.555565 -8.38146l0 0c-6.7657204 -3.8303242 -7.64106 -10.160744 -2.022255 -14.624834c5.618805 -4.4640913 15.892902 -5.600897 23.735699 -2.6263018c7.8427963 2.9745946 10.687592 9.087098 6.5721893 14.121394c-4.11541 5.034296 -13.844185 7.3428154 -22.475868 5.333252z" fill-rule="evenodd"/><path stroke="#f16322" stroke-width="2.6666666666666665" stroke-linejoin="round" stroke-linecap="butt" d="m46.819622 30.59448l4.555565 -8.38146l0 0c-6.7657204 -3.8303242 -7.64106 -10.160744 -2.022255 -14.624834c5.618805 -4.4640913 15.892902 -5.600897 23.735699 -2.6263018c7.8427963 2.9745946 10.687592 9.087098 6.5721893 14.121394c-4.11541 5.034296 -13.844185 7.3428154 -22.475868 5.333252z" fill-rule="evenodd"/><path fill="#f16322" d="m16.987564 46.27713l14.136768 0l0 0c2.4261894 0 4.753006 0.9637985 6.468582 2.6793747c1.7155724 1.7155724 2.6793747 4.0423927 2.6793747 6.468582l0 21.676071c0 1.5258789E-4 -1.2207031E-4 2.746582E-4 -2.708435E-4 2.746582E-4l-32.43241 -2.746582E-4l0 0c-1.4925003E-4 0 -2.7036667E-4 -1.1444092E-4 -2.7036667E-4 -2.670288E-4l2.7036667E-4 -21.675804l0 0c0 -5.0522766 4.0956798 -9.147957 9.147957 -9.147957z" fill-rule="evenodd"/><path stroke="#f16322" stroke-width="2.6666666666666665" stroke-linejoin="round" stroke-linecap="butt" d="m16.987564 46.27713l14.136768 0l0 0c2.4261894 0 4.753006 0.9637985 6.468582 2.6793747c1.7155724 1.7155724 2.6793747 4.0423927 2.6793747 6.468582l0 21.676071c0 1.5258789E-4 -1.2207031E-4 2.746582E-4 -2.708435E-4 2.746582E-4l-32.43241 -2.746582E-4l0 0c-1.4925003E-4 0 -2.7036667E-4 -1.1444092E-4 -2.7036667E-4 -2.670288E-4l2.7036667E-4 -21.675804l0 0c0 -5.0522766 4.0956798 -9.147957 9.147957 -9.147957z" fill-rule="evenodd"/><path fill="#f16322" d="m12.245015 33.687233l0 0c0 -6.737421 5.3106947 -12.199181 11.86177 -12.199181l0 0c3.145937 0 6.163025 1.2852669 8.387539 3.5730572c2.224514 2.2877903 3.4742317 5.3907013 3.4742317 8.626123l0 0c0 6.737423 -5.3106956 12.199181 -11.861771 12.199181l0 0c-6.551075 0 -11.86177 -5.4617577 -11.86177 -12.199181z" fill-rule="evenodd"/><path stroke="#f16322" stroke-width="2.6666666666666665" stroke-linejoin="round" stroke-linecap="butt" d="m12.245015 33.687233l0 0c0 -6.737421 5.3106947 -12.199181 11.86177 -12.199181l0 0c3.145937 0 6.163025 1.2852669 8.387539 3.5730572c2.224514 2.2877903 3.4742317 5.3907013 3.4742317 8.626123l0 0c0 6.737423 -5.3106956 12.199181 -11.861771 12.199181l0 0c-6.551075 0 -11.86177 -5.4617577 -11.86177 -12.199181z" fill-rule="evenodd"/><path fill="#5f96c6" d="m50.84136 192.01736l4.555565 -8.381454l0 0c-6.7657204 -3.8303223 -7.6410637 -10.160751 -2.022255 -14.624832c5.618805 -4.464096 15.892902 -5.6009064 23.735699 -2.6263123c7.8427963 2.974594 10.687592 9.087097 6.5721893 14.121399c-4.11541 5.0343018 -13.844185 7.342819 -22.475868 5.333252z" fill-rule="evenodd"/><path stroke="#5f96c6" stroke-width="2.6666666666666665" stroke-linejoin="round" stroke-linecap="butt" d="m50.84136 192.01736l4.555565 -8.381454l0 0c-6.7657204 -3.8303223 -7.6410637 -10.160751 -2.022255 -14.624832c5.618805 -4.464096 15.892902 -5.6009064 23.735699 -2.6263123c7.8427963 2.974594 10.687592 9.087097 6.5721893 14.121399c-4.11541 5.0343018 -13.844185 7.342819 -22.475868 5.333252z" fill-rule="evenodd"/><path fill="#5f96c6" d="m21.0093 207.70001l14.136768 0l0 0c2.4261894 0 4.753006 0.96380615 6.468582 2.6793823c1.7155724 1.7155762 2.6793747 4.042389 2.6793747 6.468582l0 21.676071c0 1.5258789E-4 -1.2207031E-4 2.746582E-4 -2.708435E-4 2.746582E-4l-32.43241 -2.746582E-4l0 0c-1.487732E-4 0 -2.6988983E-4 -1.2207031E-4 -2.6988983E-4 -2.746582E-4l2.6988983E-4 -21.675797l0 0c0 -5.0522766 4.0956793 -9.1479645 9.147957 -9.1479645z" fill-rule="evenodd"/><path stroke="#5f96c6" stroke-width="2.6666666666666665" stroke-linejoin="round" stroke-linecap="butt" d="m21.0093 207.70001l14.136768 0l0 0c2.4261894 0 4.753006 0.96380615 6.468582 2.6793823c1.7155724 1.7155762 2.6793747 4.042389 2.6793747 6.468582l0 21.676071c0 1.5258789E-4 -1.2207031E-4 2.746582E-4 -2.708435E-4 2.746582E-4l-32.43241 -2.746582E-4l0 0c-1.487732E-4 0 -2.6988983E-4 -1.2207031E-4 -2.6988983E-4 -2.746582E-4l2.6988983E-4 -21.675797l0 0c0 -5.0522766 4.0956793 -9.1479645 9.147957 -9.1479645z" fill-rule="evenodd"/><path fill="#5f96c6" d="m16.26675 195.11012l0 0c0 -6.7374268 5.3106956 -12.199188 11.861771 -12.199188l0 0c3.145937 0 6.163025 1.2852631 8.387539 3.573059c2.224514 2.287796 3.4742317 5.3907013 3.4742317 8.626129l0 0c0 6.7374115 -5.3106956 12.199173 -11.861771 12.199173l0 0c-6.551075 0 -11.861771 -5.4617615 -11.861771 -12.199173z" fill-rule="evenodd"/><path stroke="#5f96c6" stroke-width="2.6666666666666665" stroke-linejoin="round" stroke-linecap="butt" d="m16.26675 195.11012l0 0c0 -6.7374268 5.3106956 -12.199188 11.861771 -12.199188l0 0c3.145937 0 6.163025 1.2852631 8.387539 3.573059c2.224514 2.287796 3.4742317 5.3907013 3.4742317 8.626129l0 0c0 6.7374115 -5.3106956 12.199173 -11.861771 12.199173l0 0c-6.551075 0 -11.861771 -5.4617615 -11.861771 -12.199173z" fill-rule="evenodd"/><path fill="#000000" fill-opacity="0.0" d="m77.87381 62.013657l111.842514 0" fill-rule="evenodd"/><path stroke="#f16322" stroke-width="2.0" stroke-linejoin="round" stroke-linecap="butt" d="m77.87381 62.013657l99.842514 0" fill-rule="evenodd"/><path fill="#f16322" stroke="#f16322" stroke-width="2.0" stroke-linecap="butt" d="m177.71632 65.31712l9.076202 -3.3034668l-9.076202 -3.3034668z" fill-rule="evenodd"/><path fill="#000000" fill-opacity="0.0" d="m80.68472 75.31119l108.12598 116.409454" fill-rule="evenodd"/><path stroke="#f16322" stroke-width="2.0" stroke-linejoin="round" stroke-linecap="butt" d="m80.68472 75.31119l99.95929 107.61711" fill-rule="evenodd"/><path fill="#f16322" stroke="#f16322" stroke-width="2.0" stroke-linecap="butt" d="m178.22357 185.1765l8.597305 4.401886l-3.7564392 -8.898285z" fill-rule="evenodd"/><path fill="#000000" fill-opacity="0.0" d="m77.87381 236.00156l111.842514 0" fill-rule="evenodd"/><path stroke="#5f96c6" stroke-width="2.0" stroke-linejoin="round" stroke-linecap="butt" d="m77.87381 236.00156l99.842514 0" fill-rule="evenodd"/><path fill="#5f96c6" stroke="#5f96c6" stroke-width="2.0" stroke-linecap="butt" d="m177.71632 239.30502l9.076202 -3.3034668l-9.076202 -3.3034668z" fill-rule="evenodd"/><path fill="#000000" fill-opacity="0.0" d="m79.43287 196.96199l111.05512 -119.84253" fill-rule="evenodd"/><path stroke="#5f96c6" stroke-width="2.0" stroke-linejoin="round" stroke-linecap="butt" d="m79.43287 196.96199l102.89866 -111.04069" fill-rule="evenodd"/><path fill="#5f96c6" stroke="#5f96c6" stroke-width="2.0" stroke-linecap="butt" d="m184.75458 88.16668l3.7460785 -8.902641l-8.592163 4.411888z" fill-rule="evenodd"/><path fill="#f16322" d="m544.11304 59.98624l4.5546875 -8.380951l0 0c-6.7644653 -3.8300934 -7.6396484 -10.16013 -2.0219116 -14.623951c5.617737 -4.4638176 15.889893 -5.6005554 23.731201 -2.6261406c7.8413086 2.9744148 10.685547 9.086548 6.570923 14.120537c-4.114624 5.033993 -13.841553 7.342373 -22.471558 5.3329315z" fill-rule="evenodd"/><path stroke="#f16322" stroke-width="2.6666666666666665" stroke-linejoin="round" stroke-linecap="butt" d="m544.11304 59.98624l4.5546875 -8.380951l0 0c-6.7644653 -3.8300934 -7.6396484 -10.16013 -2.0219116 -14.623951c5.617737 -4.4638176 15.889893 -5.6005554 23.731201 -2.6261406c7.8413086 2.9744148 10.685547 9.086548 6.570923 14.120537c-4.114624 5.033993 -13.841553 7.342373 -22.471558 5.3329315z" fill-rule="evenodd"/><path fill="#5f96c6" d="m546.90936 244.44841l4.5546875 -8.380951l0 0c-6.7644043 -3.8300934 -7.6395874 -10.160126 -2.0218506 -14.623947c5.617737 -4.4638214 15.889832 -5.6005554 23.73114 -2.6261444c7.8413086 2.974411 10.685547 9.086548 6.570923 14.120529c-4.114624 5.0339966 -13.841492 7.3423767 -22.471558 5.3329315z" fill-rule="evenodd"/><path stroke="#5f96c6" stroke-width="2.6666666666666665" stroke-linejoin="round" stroke-linecap="butt" d="m546.90936 244.44841l4.5546875 -8.380951l0 0c-6.7644043 -3.8300934 -7.6395874 -10.160126 -2.0218506 -14.623947c5.617737 -4.4638214 15.889832 -5.6005554 23.73114 -2.6261444c7.8413086 2.974411 10.685547 9.086548 6.570923 14.120529c-4.114624 5.0339966 -13.841492 7.3423767 -22.471558 5.3329315z" fill-rule="evenodd"/><path fill="#ffffff" d="m204.37563 21.109837l0 0c0 -3.2326736 2.6205902 -5.8532743 5.8532715 -5.8532743l0 0l0 0c1.5523834 0 3.0411835 0.61668205 4.1388855 1.7143831c1.097702 1.097702 1.714386 2.586506 1.714386 4.138891l0 5.984207c0 3.2326736 -2.6206055 5.8532753 -5.8532715 5.8532753l0 0l0 0c-3.2326813 0 -5.8532715 -2.6206017 -5.8532715 -5.8532753z" fill-rule="evenodd"/><path stroke="#13294b" stroke-width="2.0" stroke-linejoin="round" stroke-linecap="butt" d="m204.37563 21.109837l0 0c0 -3.2326736 2.6205902 -5.8532743 5.8532715 -5.8532743l0 0l0 0c1.5523834 0 3.0411835 0.61668205 4.1388855 1.7143831c1.097702 1.097702 1.714386 2.586506 1.714386 4.138891l0 5.984207c0 3.2326736 -2.6206055 5.8532753 -5.8532715 5.8532753l0 0l0 0c-3.2326813 0 -5.8532715 -2.6206017 -5.8532715 -5.8532753z" fill-rule="evenodd"/><path fill="#000000" fill-opacity="0.0" d="m218.805 28.139997c-0.10067749 4.45883 -3.7959595 8.05089 -8.385696 8.151457c-4.589737 0.100566864 -8.447968 -3.3259811 -8.755478 -7.7758675l8.561981 -0.55838966z" fill-rule="evenodd"/><path fill="#000000" fill-opacity="0.0" d="m218.805 28.139997c-0.10067749 4.45883 -3.7959595 8.05089 -8.385696 8.151457c-4.589737 0.100566864 -8.447968 -3.3259811 -8.755478 -7.7758675" fill-rule="evenodd"/><path stroke="#10274a" stroke-width="2.0" stroke-linejoin="round" stroke-linecap="butt" d="m218.805 28.139997c-0.10067749 4.45883 -3.7959595 8.05089 -8.385696 8.151457c-4.589737 0.100566864 -8.447968 -3.3259811 -8.755478 -7.7758675" fill-rule="evenodd"/><path fill="#000000" fill-opacity="0.0" d="m203.14014 41.599033l14.172379 0" fill-rule="evenodd"/><path stroke="#10274a" stroke-width="2.0" stroke-linejoin="round" stroke-linecap="butt" d="m203.14014 41.599033l14.172379 0" fill-rule="evenodd"/><path fill="#000000" fill-opacity="0.0" d="m210.22784 41.599033l0 -5.306423" fill-rule="evenodd"/><path stroke="#10274a" stroke-width="2.0" stroke-linejoin="round" stroke-linecap="butt" d="m210.22784 41.599033l0 -5.306423" fill-rule="evenodd"/><path fill="#000000" fill-opacity="0.0" d="m228.05092 33.052082l16.755905 0" fill-rule="evenodd"/><path stroke="#13294b" stroke-width="2.0" stroke-linejoin="round" stroke-linecap="butt" d="m228.05092 33.052082l16.755905 0" fill-rule="evenodd"/><path fill="#000000" fill-opacity="0.0" d="m244.81093 33.052185l16.062973 -8.346457" fill-rule="evenodd"/><path stroke="#13294b" stroke-width="2.0" stroke-linejoin="round" stroke-linecap="butt" d="m244.81093 33.052185l16.062973 -8.346457" fill-rule="evenodd"/><path fill="#000000" fill-opacity="0.0" d="m261.57104 33.052288l76.44092 0" fill-rule="evenodd"/><path stroke="#13294b" stroke-width="2.0" stroke-linejoin="round" stroke-linecap="butt" d="m261.57104 33.052288l69.58676 0" fill-rule="evenodd"/><path fill="#13294b" stroke="#13294b" stroke-width="2.0" stroke-linecap="butt" d="m331.1578 33.052288l-2.249176 2.2491684l6.179535 -2.2491684l-6.179535 -2.2491665z" fill-rule="evenodd"/><path fill="#ffffff" d="m206.09247 200.39842l0 0c0 -3.232666 2.6206055 -5.8532715 5.8532715 -5.8532715l0 0l0 0c1.5523834 0 3.0411835 0.61668396 4.1388855 1.714386c1.097702 1.097702 1.714386 2.586502 1.714386 4.1388855l0 5.984207c0 3.2326813 -2.6205902 5.8532867 -5.8532715 5.8532867l0 0l0 0c-3.232666 0 -5.8532715 -2.6206055 -5.8532715 -5.8532867z" fill-rule="evenodd"/><path stroke="#13294b" stroke-width="2.0" stroke-linejoin="round" stroke-linecap="butt" d="m206.09247 200.39842l0 0c0 -3.232666 2.6206055 -5.8532715 5.8532715 -5.8532715l0 0l0 0c1.5523834 0 3.0411835 0.61668396 4.1388855 1.714386c1.097702 1.097702 1.714386 2.586502 1.714386 4.1388855l0 5.984207c0 3.2326813 -2.6205902 5.8532867 -5.8532715 5.8532867l0 0l0 0c-3.232666 0 -5.8532715 -2.6206055 -5.8532715 -5.8532867z" fill-rule="evenodd"/><path fill="#000000" fill-opacity="0.0" d="m220.52184 207.42859c-0.10066223 4.458832 -3.7959442 8.050888 -8.385681 8.151459c-4.589737 0.10057068 -8.447983 -3.3259888 -8.755493 -7.7758636l8.561981 -0.5583954z" fill-rule="evenodd"/><path fill="#000000" fill-opacity="0.0" d="m220.52184 207.42859c-0.10066223 4.458832 -3.7959442 8.050888 -8.385681 8.151459c-4.589737 0.10057068 -8.447983 -3.3259888 -8.755493 -7.7758636" fill-rule="evenodd"/><path stroke="#10274a" stroke-width="2.0" stroke-linejoin="round" stroke-linecap="butt" d="m220.52184 207.42859c-0.10066223 4.458832 -3.7959442 8.050888 -8.385681 8.151459c-4.589737 0.10057068 -8.447983 -3.3259888 -8.755493 -7.7758636" fill-rule="evenodd"/><path fill="#000000" fill-opacity="0.0" d="m204.857 220.88762l14.172379 0" fill-rule="evenodd"/><path stroke="#10274a" stroke-width="2.0" stroke-linejoin="round" stroke-linecap="butt" d="m204.857 220.88762l14.172379 0" fill-rule="evenodd"/><path fill="#000000" fill-opacity="0.0" d="m211.9447 220.88762l0 -5.3064117" fill-rule="evenodd"/><path stroke="#10274a" stroke-width="2.0" stroke-linejoin="round" stroke-linecap="butt" d="m211.9447 220.88762l0 -5.3064117" fill-rule="evenodd"/><path fill="#000000" fill-opacity="0.0" d="m229.76778 212.34059l16.755905 0" fill-rule="evenodd"/><path stroke="#13294b" stroke-width="2.0" stroke-linejoin="round" stroke-linecap="butt" d="m229.76778 212.34059l16.755905 0" fill-rule="evenodd"/><path fill="#000000" fill-opacity="0.0" d="m246.52777 212.34067l16.062988 -8.346451" fill-rule="evenodd"/><path stroke="#13294b" stroke-width="2.0" stroke-linejoin="round" stroke-linecap="butt" d="m246.52777 212.34067l16.062988 -8.346451" fill-rule="evenodd"/><path fill="#000000" fill-opacity="0.0" d="m263.28787 212.34079l76.44095 0" fill-rule="evenodd"/><path stroke="#13294b" stroke-width="2.0" stroke-linejoin="round" stroke-linecap="butt" d="m263.28787 212.34079l69.58679 0" fill-rule="evenodd"/><path fill="#13294b" stroke="#13294b" stroke-width="2.0" stroke-linecap="butt" d="m332.87463 212.34079l-2.2491455 2.249176l6.179535 -2.249176l-6.179535 -2.2491608z" fill-rule="evenodd"/><path fill="#000000" fill-opacity="0.0" d="m77.87381 33.877174l111.842514 0" fill-rule="evenodd"/><path stroke="#f16322" stroke-width="2.0" stroke-linejoin="round" stroke-linecap="butt" d="m77.87381 33.877174l99.842514 0" fill-rule="evenodd"/><path fill="#f16322" stroke="#f16322" stroke-width="2.0" stroke-linecap="butt" d="m177.71632 37.180637l9.076202 -3.303463l-9.076202 -3.303465z" fill-rule="evenodd"/><path fill="#000000" fill-opacity="0.0" d="m77.87381 205.83403l111.842514 0" fill-rule="evenodd"/><path stroke="#5f96c6" stroke-width="2.0" stroke-linejoin="round" stroke-linecap="butt" d="m77.87381 205.83403l99.842514 0" fill-rule="evenodd"/><path fill="#5f96c6" stroke="#5f96c6" stroke-width="2.0" stroke-linecap="butt" d="m177.71632 209.1375l9.076202 -3.3034668l-9.076202 -3.3034668z" fill-rule="evenodd"/><path fill="#000000" fill-opacity="0.0" d="m81.82657 160.12935l111.055115 -119.84252" fill-rule="evenodd"/><path stroke="#5f96c6" stroke-width="2.0" stroke-linejoin="round" stroke-linecap="butt" d="m81.82657 160.12935l102.89867 -111.04068" fill-rule="evenodd"/><path fill="#5f96c6" stroke="#5f96c6" stroke-width="2.0" stroke-linecap="butt" d="m187.14828 51.334045l3.7460785 -8.902645l-8.592178 4.411888z" fill-rule="evenodd"/><path fill="#000000" fill-opacity="0.0" d="m79.98992 108.5746l108.125984 116.409454" fill-rule="evenodd"/><path stroke="#f16322" stroke-width="2.0" stroke-linejoin="round" stroke-linecap="butt" d="m79.98992 108.5746l99.95931 107.617096" fill-rule="evenodd"/><path fill="#f16322" stroke="#f16322" stroke-width="2.0" stroke-linecap="butt" d="m177.5288 218.43991l8.597305 4.401886l-3.7564392 -8.898285z" fill-rule="evenodd"/><path fill="#ffffff" d="m337.65436 12.569451l141.98425 0l0 258.96063l-141.98425 0z" fill-rule="evenodd"/><path stroke="#13294b" stroke-width="2.0" stroke-linejoin="round" stroke-linecap="butt" d="m337.65436 12.569451l141.98425 0l0 258.96063l-141.98425 0z" fill-rule="evenodd"/><path fill="#13294b" d="m371.70312 130.57414l2.140625 -0.1875q0.15625 1.28125 0.703125 2.109375q0.5625 0.828125 1.734375 1.34375q1.171875 0.5 2.640625 0.5q1.296875 0 2.296875 -0.375q1.0 -0.390625 1.484375 -1.0625q0.484375 -0.6875 0.484375 -1.484375q0 -0.796875 -0.46875 -1.40625q-0.46875 -0.609375 -1.546875 -1.015625q-0.6875 -0.265625 -3.0625 -0.828125q-2.359375 -0.578125 -3.3125 -1.078125q-1.234375 -0.640625 -1.84375 -1.59375q-0.59375 -0.96875 -0.59375 -2.140625q0 -1.3125 0.734375 -2.4375q0.75 -1.125 2.15625 -1.703125q1.421875 -0.59375 3.15625 -0.59375q1.90625 0 3.359375 0.609375q1.46875 0.609375 2.25 1.8125q0.796875 1.1875 0.84375 2.703125l-2.171875 0.171875q-0.171875 -1.640625 -1.1875 -2.46875q-1.015625 -0.828125 -3.0 -0.828125q-2.0625 0 -3.015625 0.765625q-0.9375 0.75 -0.9375 1.8125q0 0.921875 0.671875 1.515625q0.65625 0.609375 3.421875 1.234375q2.78125 0.625 3.8125 1.09375q1.5 0.6875 2.203125 1.75q0.71875 1.0625 0.71875 2.4375q0 1.375 -0.78125 2.59375q-0.78125 1.203125 -2.25 1.890625q-1.46875 0.671875 -3.3125 0.671875q-2.328125 0 -3.90625 -0.671875q-1.578125 -0.6875 -2.484375 -2.046875q-0.890625 -1.375 -0.9375 -3.09375zm15.7265625 -0.703125q0 -3.46875 1.921875 -5.125q1.609375 -1.390625 3.921875 -1.390625q2.5625 0 4.1875 1.6875q1.625 1.6875 1.625 4.640625q0 2.40625 -0.71875 3.78125q-0.71875 1.375 -2.09375 2.140625q-1.375 0.765625 -3.0 0.765625q-2.625 0 -4.234375 -1.671875q-1.609375 -1.6875 -1.609375 -4.828125zm2.171875 0q0 2.390625 1.03125 3.578125q1.046875 1.1875 2.640625 1.1875q1.5625 0 2.609375 -1.1875q1.046875 -1.203125 1.046875 -3.65625q0 -2.3125 -1.0625 -3.5q-1.046875 -1.1875 -2.59375 -1.1875q-1.59375 0 -2.640625 1.1875q-1.03125 1.1875 -1.03125 3.578125zm20.113281 6.21875l0 -1.828125q-1.453125 2.109375 -3.9375 2.109375q-1.109375 0 -2.0625 -0.421875q-0.953125 -0.421875 -1.421875 -1.0625q-0.453125 -0.640625 -0.640625 -1.5625q-0.140625 -0.625 -0.140625 -1.96875l0 -7.71875l2.109375 0l0 6.90625q0 1.65625 0.140625 2.234375q0.1875 0.828125 0.828125 1.3125q0.65625 0.46875 1.609375 0.46875q0.9375 0 1.765625 -0.484375q0.84375 -0.5 1.1875 -1.328125q0.34375 -0.84375 0.34375 -2.4375l0 -6.671875l2.109375 0l0 12.453125l-1.890625 0zm5.1757812 0l0 -12.453125l1.890625 0l0 1.890625q0.734375 -1.328125 1.34375 -1.75q0.625 -0.421875 1.359375 -0.421875q1.0625 0 2.171875 0.6875l-0.734375 1.953125q-0.765625 -0.453125 -1.546875 -0.453125q-0.6875 0 -1.25 0.421875q-0.546875 0.40625 -0.78125 1.140625q-0.34375 1.125 -0.34375 2.46875l0 6.515625l-2.109375 0zm16.132812 -4.5625l2.078125 0.265625q-0.34375 2.15625 -1.75 3.375q-1.390625 1.203125 -3.4375 1.203125q-2.546875 0 -4.109375 -1.671875q-1.546875 -1.671875 -1.546875 -4.78125q0 -2.015625 0.671875 -3.53125q0.671875 -1.515625 2.03125 -2.265625q1.359375 -0.765625 2.96875 -0.765625q2.03125 0 3.3125 1.03125q1.296875 1.03125 1.65625 2.90625l-2.046875 0.328125q-0.296875 -1.265625 -1.046875 -1.890625q-0.734375 -0.640625 -1.796875 -0.640625q-1.59375 0 -2.59375 1.15625q-0.984375 1.140625 -0.984375 3.609375q0 2.5 0.953125 3.640625q0.96875 1.140625 2.515625 1.140625q1.234375 0 2.0625 -0.765625q0.84375 -0.765625 1.0625 -2.34375zm12.40625 0.546875l2.171875 0.28125q-0.515625 1.90625 -1.90625 2.96875q-1.390625 1.046875 -3.5625 1.046875q-2.734375 0 -4.34375 -1.671875q-1.59375 -1.6875 -1.59375 -4.734375q0 -3.140625 1.609375 -4.875q1.625 -1.734375 4.203125 -1.734375q2.5 0 4.078125 1.703125q1.59375 1.703125 1.59375 4.78125q0 0.1875 -0.015625 0.5625l-9.28125 0q0.109375 2.046875 1.15625 3.140625q1.046875 1.09375 2.609375 1.09375q1.15625 0 1.96875 -0.609375q0.828125 -0.609375 1.3125 -1.953125zm-6.9375 -3.40625l6.953125 0q-0.140625 -1.5625 -0.796875 -2.359375q-1.0 -1.21875 -2.609375 -1.21875q-1.453125 0 -2.453125 0.984375q-0.984375 0.96875 -1.09375 2.59375z" fill-rule="nonzero"/><path fill="#13294b" d="m351.68164 159.57414l2.140625 -0.1875q0.15625 1.28125 0.703125 2.109375q0.5625 0.828125 1.734375 1.34375q1.171875 0.5 2.640625 0.5q1.296875 0 2.296875 -0.375q1.0 -0.390625 1.484375 -1.0625q0.484375 -0.6875 0.484375 -1.484375q0 -0.796875 -0.46875 -1.40625q-0.46875 -0.609375 -1.546875 -1.015625q-0.6875 -0.265625 -3.0625 -0.828125q-2.359375 -0.578125 -3.3125 -1.078125q-1.234375 -0.640625 -1.84375 -1.59375q-0.59375 -0.96875 -0.59375 -2.140625q0 -1.3125 0.734375 -2.4375q0.75 -1.125 2.15625 -1.703125q1.421875 -0.59375 3.15625 -0.59375q1.90625 0 3.359375 0.609375q1.46875 0.609375 2.25 1.8125q0.796875 1.1875 0.84375 2.703125l-2.171875 0.171875q-0.171875 -1.640625 -1.1875 -2.46875q-1.015625 -0.828125 -3.0 -0.828125q-2.0625 0 -3.015625 0.765625q-0.9375 0.75 -0.9375 1.8125q0 0.921875 0.671875 1.515625q0.65625 0.609375 3.421875 1.234375q2.78125 0.625 3.8125 1.09375q1.5 0.6875 2.203125 1.75q0.71875 1.0625 0.71875 2.4375q0 1.375 -0.78125 2.59375q-0.78125 1.203125 -2.25 1.890625q-1.46875 0.671875 -3.3125 0.671875q-2.328125 0 -3.90625 -0.671875q-1.578125 -0.6875 -2.484375 -2.046875q-0.890625 -1.375 -0.9375 -3.09375zm25.039062 1.5l2.171875 0.28125q-0.515625 1.90625 -1.90625 2.96875q-1.390625 1.046875 -3.5625 1.046875q-2.734375 0 -4.34375 -1.671875q-1.59375 -1.6875 -1.59375 -4.734375q0 -3.140625 1.609375 -4.875q1.625 -1.734375 4.203125 -1.734375q2.5 0 4.078125 1.703125q1.59375 1.703125 1.59375 4.78125q0 0.1875 -0.015625 0.5625l-9.28125 0q0.109375 2.046875 1.15625 3.140625q1.046875 1.09375 2.609375 1.09375q1.15625 0 1.96875 -0.609375q0.828125 -0.609375 1.3125 -1.953125zm-6.9375 -3.40625l6.953125 0q-0.140625 -1.5625 -0.796875 -2.359375q-1.0 -1.21875 -2.609375 -1.21875q-1.453125 0 -2.453125 0.984375q-0.984375 0.96875 -1.09375 2.59375zm11.753906 12.1875l0 -17.21875l1.921875 0l0 1.625q0.6875 -0.953125 1.53125 -1.421875q0.859375 -0.484375 2.078125 -0.484375q1.59375 0 2.8125 0.828125q1.21875 0.8125 1.84375 2.3125q0.625 1.5 0.625 3.28125q0 1.90625 -0.6875 3.4375q-0.6875 1.53125 -2.0 2.34375q-1.296875 0.8125 -2.734375 0.8125q-1.0625 0 -1.90625 -0.4375q-0.828125 -0.453125 -1.375 -1.140625l0 6.0625l-2.109375 0zm1.921875 -10.921875q0 2.40625 0.96875 3.5625q0.96875 1.140625 2.359375 1.140625q1.40625 0 2.40625 -1.1875q1.0 -1.1875 1.0 -3.6875q0 -2.375 -0.984375 -3.5625q-0.96875 -1.1875 -2.328125 -1.1875q-1.359375 0 -2.390625 1.265625q-1.03125 1.25 -1.03125 3.65625zm19.550781 4.625q-1.171875 0.984375 -2.265625 1.40625q-1.078125 0.40625 -2.3125 0.40625q-2.046875 0 -3.15625 -1.0q-1.09375 -1.0 -1.09375 -2.5625q0 -0.921875 0.40625 -1.671875q0.421875 -0.75 1.09375 -1.203125q0.671875 -0.46875 1.515625 -0.703125q0.625 -0.15625 1.875 -0.3125q2.5625 -0.3125 3.765625 -0.734375q0.015625 -0.421875 0.015625 -0.546875q0 -1.28125 -0.609375 -1.8125q-0.796875 -0.71875 -2.390625 -0.71875q-1.5 0 -2.203125 0.53125q-0.703125 0.515625 -1.046875 1.84375l-2.0625 -0.28125q0.28125 -1.328125 0.921875 -2.140625q0.640625 -0.8125 1.859375 -1.25q1.21875 -0.453125 2.828125 -0.453125q1.59375 0 2.59375 0.375q1.0 0.375 1.46875 0.953125q0.46875 0.5625 0.65625 1.4375q0.09375 0.53125 0.09375 1.9375l0 2.8125q0 2.9375 0.140625 3.71875q0.140625 0.78125 0.53125 1.5l-2.203125 0q-0.328125 -0.65625 -0.421875 -1.53125zm-0.171875 -4.71875q-1.15625 0.46875 -3.453125 0.796875q-1.296875 0.1875 -1.84375 0.421875q-0.53125 0.234375 -0.828125 0.6875q-0.28125 0.453125 -0.28125 1.0q0 0.84375 0.625 1.40625q0.640625 0.5625 1.875 0.5625q1.21875 0 2.171875 -0.53125q0.953125 -0.53125 1.390625 -1.453125q0.34375 -0.71875 0.34375 -2.109375l0 -0.78125zm5.3789062 6.25l0 -12.453125l1.890625 0l0 1.890625q0.734375 -1.328125 1.34375 -1.75q0.625 -0.421875 1.359375 -0.421875q1.0625 0 2.171875 0.6875l-0.734375 1.953125q-0.765625 -0.453125 -1.546875 -0.453125q-0.6875 0 -1.25 0.421875q-0.546875 0.40625 -0.78125 1.140625q-0.34375 1.125 -0.34375 2.46875l0 6.515625l-2.109375 0zm16.132812 -1.53125q-1.171875 0.984375 -2.265625 1.40625q-1.078125 0.40625 -2.3125 0.40625q-2.046875 0 -3.15625 -1.0q-1.09375 -1.0 -1.09375 -2.5625q0 -0.921875 0.40625 -1.671875q0.421875 -0.75 1.09375 -1.203125q0.671875 -0.46875 1.515625 -0.703125q0.625 -0.15625 1.875 -0.3125q2.5625 -0.3125 3.765625 -0.734375q0.015625 -0.421875 0.015625 -0.546875q0 -1.28125 -0.609375 -1.8125q-0.796875 -0.71875 -2.390625 -0.71875q-1.5 0 -2.203125 0.53125q-0.703125 0.515625 -1.046875 1.84375l-2.0625 -0.28125q0.28125 -1.328125 0.921875 -2.140625q0.640625 -0.8125 1.859375 -1.25q1.21875 -0.453125 2.828125 -0.453125q1.59375 0 2.59375 0.375q1.0 0.375 1.46875 0.953125q0.46875 0.5625 0.65625 1.4375q0.09375 0.53125 0.09375 1.9375l0 2.8125q0 2.9375 0.140625 3.71875q0.140625 0.78125 0.53125 1.5l-2.203125 0q-0.328125 -0.65625 -0.421875 -1.53125zm-0.171875 -4.71875q-1.15625 0.46875 -3.453125 0.796875q-1.296875 0.1875 -1.84375 0.421875q-0.53125 0.234375 -0.828125 0.6875q-0.28125 0.453125 -0.28125 1.0q0 0.84375 0.625 1.40625q0.640625 0.5625 1.875 0.5625q1.21875 0 2.171875 -0.53125q0.953125 -0.53125 1.390625 -1.453125q0.34375 -0.71875 0.34375 -2.109375l0 -0.78125zm10.003906 4.359375l0.3125 1.859375q-0.890625 0.203125 -1.59375 0.203125q-1.15625 0 -1.796875 -0.359375q-0.625 -0.375 -0.890625 -0.96875q-0.25 -0.59375 -0.25 -2.484375l0 -7.171875l-1.546875 0l0 -1.640625l1.546875 0l0 -3.078125l2.09375 -1.265625l0 4.34375l2.125 0l0 1.640625l-2.125 0l0 7.28125q0 0.90625 0.109375 1.171875q0.125 0.25 0.375 0.40625q0.25 0.140625 0.71875 0.140625q0.34375 0 0.921875 -0.078125zm2.0742188 -12.859375l0 -2.4375l2.109375 0l0 2.4375l-2.109375 0zm0 14.75l0 -12.453125l2.109375 0l0 12.453125l-2.109375 0zm4.5351562 -6.21875q0 -3.46875 1.921875 -5.125q1.609375 -1.390625 3.921875 -1.390625q2.5625 0 4.1875 1.6875q1.625 1.6875 1.625 4.640625q0 2.40625 -0.71875 3.78125q-0.71875 1.375 -2.09375 2.140625q-1.375 0.765625 -3.0 0.765625q-2.625 0 -4.234375 -1.671875q-1.609375 -1.6875 -1.609375 -4.828125zm2.171875 0q0 2.390625 1.03125 3.578125q1.046875 1.1875 2.640625 1.1875q1.5625 0 2.609375 -1.1875q1.046875 -1.203125 1.046875 -3.65625q0 -2.3125 -1.0625 -3.5q-1.046875 -1.1875 -2.59375 -1.1875q-1.59375 0 -2.640625 1.1875q-1.03125 1.1875 -1.03125 3.578125zm11.957031 6.21875l0 -12.453125l1.90625 0l0 1.78125q1.375 -2.0625 3.953125 -2.0625q1.125 0 2.0625 0.40625q0.953125 0.40625 1.421875 1.0625q0.46875 0.65625 0.65625 1.5625q0.125 0.578125 0.125 2.046875l0 7.65625l-2.109375 0l0 -7.578125q0 -1.28125 -0.25 -1.921875q-0.25 -0.640625 -0.875 -1.015625q-0.625 -0.390625 -1.46875 -0.390625q-1.34375 0 -2.328125 0.859375q-0.984375 0.859375 -0.984375 3.25l0 6.796875l-2.109375 0z" fill-rule="nonzero"/></g></svg>