<svg version="1.1" viewBox="0.0 0.0 876.2467191601049 452.24146981627297" fill="none" stroke="none" stroke-linecap="square" stroke-miterlimit="10" xmlns:xlink="http://www.w3.org/1999/xlink" xmlns="http://www.w3.org/2000/svg"><clipPath id="p.0"><path d="m0 0l876.2467 0l0 452.24146l-876.2467 0l0 -452.24146z" clip-rule="nonzero"/></clipPath><g clip-path="url(#p.0)"><path fill="#000000" fill-opacity="0.0" d="m0 0l876.2467 0l0 452.24146l-876.2467 0z" fill-rule="evenodd"/><path fill="#f4cccc" fill-opacity="0.2763" d="m652.682 32.05004l0 0c0 -3.5515099 2.8790283 -6.4305744 6.430542 -6.4305744l25.721558 0l0 0c1.7054443 0 3.3411255 0.6775036 4.547058 1.8834705c1.2059937 1.205967 1.8834839 2.841608 1.8834839 4.547104l0 64.49318c0 3.551506 -2.8790283 6.4305725 -6.430542 6.4305725l-25.721558 0c-3.5515137 0 -6.430542 -2.8790665 -6.430542 -6.4305725z" fill-rule="evenodd"/><path stroke="#000000" stroke-width="1.0" stroke-linejoin="round" stroke-linecap="butt" d="m652.682 32.05004l0 0c0 -3.5515099 2.8790283 -6.4305744 6.430542 -6.4305744l25.721558 0l0 0c1.7054443 0 3.3411255 0.6775036 4.547058 1.8834705c1.2059937 1.205967 1.8834839 2.841608 1.8834839 4.547104l0 64.49318c0 3.551506 -2.8790283 6.4305725 -6.430542 6.4305725l-25.721558 0c-3.5515137 0 -6.430542 -2.8790665 -6.430542 -6.4305725z" fill-rule="evenodd"/><path fill="#f4cccc" fill-opacity="0.2763" d="m652.682 112.05004l0 0c0 -3.551506 2.8790283 -6.4305725 6.430542 -6.4305725l25.721558 0l0 0c1.7054443 0 3.3411255 0.6775055 4.547058 1.8834686c1.2059937 1.2059708 1.8834839 2.8416061 1.8834839 4.547104l0 64.49319c0 3.5514984 -2.8790283 6.4305725 -6.430542 6.4305725l-25.721558 0c-3.5515137 0 -6.430542 -2.879074 -6.430542 -6.4305725z" fill-rule="evenodd"/><path stroke="#000000" stroke-width="1.0" stroke-linejoin="round" stroke-linecap="butt" d="m652.682 112.05004l0 0c0 -3.551506 2.8790283 -6.4305725 6.430542 -6.4305725l25.721558 0l0 0c1.7054443 0 3.3411255 0.6775055 4.547058 1.8834686c1.2059937 1.2059708 1.8834839 2.8416061 1.8834839 4.547104l0 64.49319c0 3.5514984 -2.8790283 6.4305725 -6.430542 6.4305725l-25.721558 0c-3.5515137 0 -6.430542 -2.879074 -6.430542 -6.4305725z" fill-rule="evenodd"/><path fill="#000000" fill-opacity="0.0" d="m643.4351 33.61736l0 0c0 -7.452425 6.041443 -13.493809 13.493835 -13.493809l202.11475 0c3.5787964 0 7.0109863 1.4216652 9.541565 3.9522457c2.5305786 2.5305805 3.9522705 5.962784 3.9522705 9.541563l0 147.68954c0 7.452423 -6.041382 13.49382 -13.493835 13.49382l-202.11475 0c-7.4523926 0 -13.493835 -6.041397 -13.493835 -13.49382z" fill-rule="evenodd"/><path fill="#000000" fill-opacity="0.0" d="m656.92896 194.80072c-7.4523926 0 -13.493835 -6.041397 -13.493835 -13.49382l0 -147.68954l0 0c0 -7.452425 6.041443 -13.493809 13.493835 -13.493809m202.11475 0c3.5787964 0 7.0109863 1.4216652 9.541565 3.9522457c2.5305786 2.5305805 3.9522705 5.962784 3.9522705 9.541563l0 147.68954c0 7.452423 -6.041382 13.49382 -13.493835 13.49382" fill-rule="evenodd"/><path stroke="#000000" stroke-width="2.0" stroke-linejoin="round" stroke-linecap="butt" d="m656.92896 194.80072c-7.4523926 0 -13.493835 -6.041397 -13.493835 -13.49382l0 -147.68954l0 0c0 -7.452425 6.041443 -13.493809 13.493835 -13.493809m202.11475 0c3.5787964 0 7.0109863 1.4216652 9.541565 3.9522457c2.5305786 2.5305805 3.9522705 5.962784 3.9522705 9.541563l0 147.68954c0 7.452423 -6.041382 13.49382 -13.493835 13.49382" fill-rule="evenodd"/><path fill="#f4cccc" fill-opacity="0.2763" d="m492.68198 40.05004l0 0c0 -3.5515099 2.8790588 -6.4305763 6.4305725 -6.4305763l25.721558 0l0 0c1.7054443 0 3.3411255 0.6775055 4.547058 1.8834724c1.2059937 1.205967 1.8834839 2.84161 1.8834839 4.547104l0 64.49318c0 3.551506 -2.8790283 6.4305725 -6.430542 6.4305725l-25.721558 0c-3.5515137 0 -6.4305725 -2.8790665 -6.4305725 -6.4305725z" fill-rule="evenodd"/><path stroke="#000000" stroke-width="1.0" stroke-linejoin="round" stroke-linecap="butt" d="m492.68198 40.05004l0 0c0 -3.5515099 2.8790588 -6.4305763 6.4305725 -6.4305763l25.721558 0l0 0c1.7054443 0 3.3411255 0.6775055 4.547058 1.8834724c1.2059937 1.205967 1.8834839 2.84161 1.8834839 4.547104l0 64.49318c0 3.551506 -2.8790283 6.4305725 -6.430542 6.4305725l-25.721558 0c-3.5515137 0 -6.4305725 -2.8790665 -6.4305725 -6.4305725z" fill-rule="evenodd"/><path fill="#000000" fill-opacity="0.0" d="m709.2915 25.840086l146.86615 0l0 51.244095l-146.86615 0z" fill-rule="evenodd"/><path fill="#000000" d="m735.01025 79.38713q-1.125 0.15625 -1.671875 0.15625q-2.96875 0 -4.890625 -1.84375q-1.921875 -1.84375 -1.921875 -5.125q-0.3125 -3.515625 1.5625 -8.703129q1.890625 -5.203125 4.765625 -8.734375q2.0 -2.3125 3.4375 -3.75q1.4375 -1.4375 2.640625 -1.921875q1.671875 -0.71875 3.765625 -0.71875q1.4375 0.3125 2.828125 1.203125q1.40625 0.875 1.40625 1.75l0.40625 0.40625q0.46875 0 0.859375 1.15625q0.40625 1.15625 0.40625 2.515625q0 1.125 -0.390625 1.921875q-0.328125 1.515625 -1.09375 2.640625q-0.75 1.125 -1.46875 1.125q-0.875 0 -0.875 0.484375q0 0.3125 -0.328125 0.3125q-0.390625 0 -0.953125 -0.46875q-0.5625 -0.484375 -0.796875 -1.125q0 -0.25 0.3125 -1.359375q0.328125 -1.125 0.640625 -2.484375q0.234375 -0.96875 0.234375 -1.6875q0 -1.59375 -1.1875 -1.59375q-0.640625 0 -1.28125 0.3125q-3.203125 1.765625 -5.6875 5.609375q-2.484375 3.84375 -4.15625 10.562504q-0.40625 1.75 -0.40625 2.796875q0 0.796875 0.125 1.28125q0.125 0.46875 0.28125 0.5625q0.40625 0.15625 1.671875 0.15625q2.96875 0 4.171875 -0.71875q2.5625 -1.359375 5.671875 -3.6875q0.328125 -0.234375 0.96875 -0.828125q0.640625 -0.609375 1.1875 -0.84375q0.5625 -0.890625 1.046875 -1.078125q0.484375 -0.203125 1.515625 -0.203125q1.046875 0.3125 1.6875 0.84375q0.640625 0.515625 0 0.828125q-0.25 0 -0.328125 0.171875q-0.078125 0.15625 -0.078125 0.234375q0.15625 0.40625 -1.28125 2.0q-1.4375 1.59375 -3.203125 3.0q-1.75 1.40625 -2.390625 1.40625q-0.328125 0 -0.5625 0.078125q-0.234375 0.078125 -0.234375 0.390625q0 0.328125 -2.453125 1.484375q-2.4375 1.15625 -3.953125 1.484375z" fill-rule="nonzero"/><path fill="#000000" d="m759.23834 68.44963q0.515625 0.515625 0.515625 1.0625q0 0.578125 -0.78125 2.015625q-0.25 0.734375 -0.5625 1.375q-0.296875 0.640625 -0.453125 0.828125l-0.734375 1.703125q-0.484375 1.046875 -1.1875 2.453125q-0.859375 1.796875 -1.21875 2.65625l-0.40625 0.671875q-1.609375 2.5625 -2.46875 3.59375q-1.765625 1.5625 -2.71875 1.828125q-0.421875 0.125 -1.0 0.125q-1.046875 0 -1.984375 -0.46875q-0.953125 -0.46875 -1.078125 -1.078125q-0.03125 -0.21875 0.15625 -0.484375q0.1875 -0.25 0.421875 -0.25q0.15625 0 0.25 0.140625q0.25 0.1875 0.75 0.359375q0.5 0.171875 1.078125 0.171875q0.21875 0 0.609375 -0.0625q0.640625 -0.125 1.34375 -0.765625q0.703125 -0.640625 1.28125 -1.40625q1.078125 -1.59375 2.328125 -4.0q-0.453125 -0.125 -0.875 -0.625q-0.40625 -0.5 -0.65625 -1.03125q-0.234375 -0.546875 -0.171875 -0.8125l0 -0.34375q-0.28125 0 -0.453125 -1.09375q-0.171875 -1.09375 -0.171875 -2.53125q0 -0.53125 0.0625 -1.375q0.125 -0.5 0.140625 -1.25q0.015625 -0.765625 0.015625 -0.984375l0 -0.125q0 -0.390625 0.078125 -0.546875q0.078125 -0.15625 0.265625 -0.296875q0.265625 -0.125 0.515625 -0.125q0.90625 0 0.90625 2.375q0 0.34375 -0.078125 1.375q-0.03125 0.453125 -0.03125 1.34375q0 1.65625 0.28125 2.9375q0.296875 1.28125 0.875 1.765625l0.1875 -0.453125q0.359375 -0.921875 0.546875 -1.171875q0.453125 -0.9375 0.515625 -1.1875q0.0625 -0.234375 0.34375 -0.734375l0.421875 -0.875q0.0625 -0.1875 0.40625 -1.21875q0.359375 -1.046875 0.71875 -1.6875q0.125 -0.25 0.375 -0.75q0.265625 -0.5 0.421875 -0.71875q0.15625 -0.234375 0.359375 -0.296875q0.25 -0.21875 0.40625 -0.21875q0.125 0 0.453125 0.1875z" fill-rule="nonzero"/><path fill="#000000" d="m807.8695 79.38713q-1.125 0.15625 -1.671875 0.15625q-2.96875 0 -4.890625 -1.84375q-1.921875 -1.84375 -1.921875 -5.125q-0.3125 -3.515625 1.5625 -8.703129q1.890625 -5.203125 4.765625 -8.734375q2.0 -2.3125 3.4375 -3.75q1.4375 -1.4375 2.640625 -1.921875q1.671875 -0.71875 3.765625 -0.71875q1.4375 0.3125 2.828125 1.203125q1.40625 0.875 1.40625 1.75l0.40625 0.40625q0.46875 0 0.859375 1.15625q0.40625 1.15625 0.40625 2.515625q0 1.125 -0.390625 1.921875q-0.328125 1.515625 -1.09375 2.640625q-0.75 1.125 -1.46875 1.125q-0.875 0 -0.875 0.484375q0 0.3125 -0.328125 0.3125q-0.390625 0 -0.953125 -0.46875q-0.5625 -0.484375 -0.796875 -1.125q0 -0.25 0.3125 -1.359375q0.328125 -1.125 0.640625 -2.484375q0.234375 -0.96875 0.234375 -1.6875q0 -1.59375 -1.1875 -1.59375q-0.640625 0 -1.28125 0.3125q-3.203125 1.765625 -5.6875 5.609375q-2.484375 3.84375 -4.15625 10.562504q-0.40625 1.75 -0.40625 2.796875q0 0.796875 0.125 1.28125q0.125 0.46875 0.28125 0.5625q0.40625 0.15625 1.671875 0.15625q2.96875 0 4.171875 -0.71875q2.5625 -1.359375 5.671875 -3.6875q0.328125 -0.234375 0.96875 -0.828125q0.640625 -0.609375 1.1875 -0.84375q0.5625 -0.890625 1.046875 -1.078125q0.484375 -0.203125 1.515625 -0.203125q1.046875 0.3125 1.6875 0.84375q0.640625 0.515625 0 0.828125q-0.25 0 -0.328125 0.171875q-0.078125 0.15625 -0.078125 0.234375q0.15625 0.40625 -1.28125 2.0q-1.4375 1.59375 -3.203125 3.0q-1.75 1.40625 -2.390625 1.40625q-0.328125 0 -0.5625 0.078125q-0.234375 0.078125 -0.234375 0.390625q0 0.328125 -2.453125 1.484375q-2.4375 1.15625 -3.953125 1.484375z" fill-rule="nonzero"/><path fill="#000000" d="m832.09766 68.44963q0.515625 0.515625 0.515625 1.0625q0 0.578125 -0.78125 2.015625q-0.25 0.734375 -0.5625 1.375q-0.296875 0.640625 -0.453125 0.828125l-0.734375 1.703125q-0.484375 1.046875 -1.1875 2.453125q-0.859375 1.796875 -1.21875 2.65625l-0.40625 0.671875q-1.609375 2.5625 -2.46875 3.59375q-1.765625 1.5625 -2.71875 1.828125q-0.421875 0.125 -1.0 0.125q-1.046875 0 -1.984375 -0.46875q-0.953125 -0.46875 -1.078125 -1.078125q-0.03125 -0.21875 0.15625 -0.484375q0.1875 -0.25 0.421875 -0.25q0.15625 0 0.25 0.140625q0.25 0.1875 0.75 0.359375q0.5 0.171875 1.078125 0.171875q0.21875 0 0.609375 -0.0625q0.640625 -0.125 1.34375 -0.765625q0.703125 -0.640625 1.28125 -1.40625q1.078125 -1.59375 2.328125 -4.0q-0.453125 -0.125 -0.875 -0.625q-0.40625 -0.5 -0.65625 -1.03125q-0.234375 -0.546875 -0.171875 -0.8125l0 -0.34375q-0.28125 0 -0.453125 -1.09375q-0.171875 -1.09375 -0.171875 -2.53125q0 -0.53125 0.0625 -1.375q0.125 -0.5 0.140625 -1.25q0.015625 -0.765625 0.015625 -0.984375l0 -0.125q0 -0.390625 0.078125 -0.546875q0.078125 -0.15625 0.265625 -0.296875q0.265625 -0.125 0.515625 -0.125q0.90625 0 0.90625 2.375q0 0.34375 -0.078125 1.375q-0.03125 0.453125 -0.03125 1.34375q0 1.65625 0.28125 2.9375q0.296875 1.28125 0.875 1.765625l0.1875 -0.453125q0.359375 -0.921875 0.546875 -1.171875q0.453125 -0.9375 0.515625 -1.1875q0.0625 -0.234375 0.34375 -0.734375l0.421875 -0.875q0.0625 -0.1875 0.40625 -1.21875q0.359375 -1.046875 0.71875 -1.6875q0.125 -0.25 0.375 -0.75q0.265625 -0.5 0.421875 -0.71875q0.15625 -0.234375 0.359375 -0.296875q0.25 -0.21875 0.40625 -0.21875q0.125 0 0.453125 0.1875zm9.271362 11.390625q0.03125 0.0625 0.109375 0.203125q0.09375 0.125 0.125 0.1875q0.09375 0.25 0.09375 0.421875q0 0.375 -0.453125 0.40625q-0.34375 0.03125 -0.96875 -0.546875q-0.625 -0.5625 -1.015625 -1.203125l-0.484375 -0.9375l0 0.03125q-0.09375 -0.21875 -0.40625 -0.828125q-0.296875 -0.609375 -0.359375 -0.890625q-0.21875 -0.734375 -0.3125 -0.9375q-1.40625 1.46875 -2.046875 2.25q-0.734375 0.890625 -1.421875 1.4375q-0.6875 0.546875 -1.046875 0.609375q-0.3125 0.03125 -0.546875 -0.15625q-0.21875 -0.203125 -0.21875 -0.515625q0 -0.484375 0.515625 -1.09375q0.828125 -0.828125 2.421875 -2.75l1.546875 -1.828125l-0.390625 -1.4375q-0.484375 -1.703125 -0.796875 -2.140625q-0.21875 -0.421875 -0.21875 -0.546875q0 -0.09375 0.15625 -0.421875l0.0625 -0.03125q0.21875 -0.25 0.40625 -0.375q0.203125 -0.125 0.421875 -0.125q0.1875 0 0.296875 0.03125q0.3125 0.21875 0.71875 1.0625q0.421875 0.84375 0.71875 1.6875l0 -0.03125l0.25 0.734375l1.734375 -1.921875q1.015625 -1.0625 1.546875 -1.484375q0.53125 -0.4375 0.875 -0.4375q0.265625 0 0.640625 0.3125q0.203125 0.140625 0.203125 0.609375q0.15625 0.484375 -2.59375 3.234375q-0.671875 0.484375 -1.1875 0.984375q-0.515625 0.484375 -0.640625 0.78125l0.03125 0.09375q-0.0625 0.125 0.046875 0.515625q0.109375 0.375 0.21875 0.71875q0.125 0.328125 0.1875 0.5625l0.1875 0.765625q0.0625 0.1875 0.140625 0.34375q0.078125 0.140625 0.140625 0.234375q0.265625 0.4375 0.328125 0.640625l0 -0.03125q0.15625 0.375 0.578125 1.34375q0.125 0.21875 0.15625 0.21875q0.1875 0.125 0.25 0.25z" fill-rule="nonzero"/><path fill="#000000" fill-opacity="0.0" d="m709.2915 105.84009l146.86615 0l0 51.244095l-146.86615 0z" fill-rule="evenodd"/><path fill="#000000" d="m735.01025 159.38713q-1.125 0.15625 -1.671875 0.15625q-2.96875 0 -4.890625 -1.84375q-1.921875 -1.84375 -1.921875 -5.125q-0.3125 -3.515625 1.5625 -8.703125q1.890625 -5.203125 4.765625 -8.734375q2.0 -2.3125 3.4375 -3.75q1.4375 -1.4375 2.640625 -1.921875q1.671875 -0.71875 3.765625 -0.71875q1.4375 0.3125 2.828125 1.203125q1.40625 0.875 1.40625 1.75l0.40625 0.40625q0.46875 0 0.859375 1.15625q0.40625 1.15625 0.40625 2.515625q0 1.125 -0.390625 1.921875q-0.328125 1.515625 -1.09375 2.640625q-0.75 1.125 -1.46875 1.125q-0.875 0 -0.875 0.484375q0 0.3125 -0.328125 0.3125q-0.390625 0 -0.953125 -0.46875q-0.5625 -0.484375 -0.796875 -1.125q0 -0.25 0.3125 -1.359375q0.328125 -1.125 0.640625 -2.484375q0.234375 -0.96875 0.234375 -1.6875q0 -1.59375 -1.1875 -1.59375q-0.640625 0 -1.28125 0.3125q-3.203125 1.765625 -5.6875 5.609375q-2.484375 3.84375 -4.15625 10.5625q-0.40625 1.75 -0.40625 2.796875q0 0.796875 0.125 1.28125q0.125 0.46875 0.28125 0.5625q0.40625 0.15625 1.671875 0.15625q2.96875 0 4.171875 -0.71875q2.5625 -1.359375 5.671875 -3.6875q0.328125 -0.234375 0.96875 -0.828125q0.640625 -0.609375 1.1875 -0.84375q0.5625 -0.890625 1.046875 -1.078125q0.484375 -0.203125 1.515625 -0.203125q1.046875 0.3125 1.6875 0.84375q0.640625 0.515625 0 0.828125q-0.25 0 -0.328125 0.171875q-0.078125 0.15625 -0.078125 0.234375q0.15625 0.40625 -1.28125 2.0q-1.4375 1.59375 -3.203125 3.0q-1.75 1.40625 -2.390625 1.40625q-0.328125 0 -0.5625 0.078125q-0.234375 0.078125 -0.234375 0.390625q0 0.328125 -2.453125 1.484375q-2.4375 1.15625 -3.953125 1.484375z" fill-rule="nonzero"/><path fill="#000000" d="m759.2071 160.16838q-0.515625 0 -0.671875 -0.1875q-0.203125 0 -0.46875 -0.09375q-0.265625 -0.109375 -0.5625 -0.234375q-0.671875 -0.28125 -1.953125 -1.40625q-1.28125 -1.125 -1.28125 -1.5q0 -0.09375 -0.03125 -0.125q-0.03125 -0.046875 -0.125 -0.046875q-0.03125 -0.03125 -0.109375 -0.125q-0.078125 -0.09375 -0.078125 -0.21875q0 -0.125 -0.09375 -0.21875q-0.09375 -0.109375 -0.234375 -0.109375q-0.15625 0.140625 -0.671875 0.578125q-0.5 0.421875 -1.046875 0.96875q-1.03125 1.015625 -1.421875 1.359375q-0.375 0.328125 -0.59375 0.328125q-0.390625 0 -0.890625 -0.390625q-0.484375 -0.40625 -0.484375 -0.78125q0.15625 -0.234375 0.8125 -0.921875q0.65625 -0.6875 1.390625 -1.328125l2.046875 -2.015625l-0.34375 -1.21875q-0.578125 -1.25 -0.84375 -2.015625q-0.1875 -0.25 -0.296875 -0.421875q-0.109375 -0.1875 -0.109375 -0.3125q0 -0.125 0.25 -0.484375q0.359375 -0.34375 0.546875 -0.34375q0.15625 0 0.453125 0.1875q0.25 0 0.8125 1.078125q0.5625 1.0625 0.5625 1.484375q0 0.421875 0.28125 0.421875q0.328125 0 1.25 -0.609375q0.34375 -0.328125 0.546875 -0.546875q0.21875 -0.21875 0.28125 -0.28125q0.390625 -0.296875 1.203125 -0.875q0.8125 -0.578125 1.046875 -0.671875q0.15625 -0.09375 0.25 -0.09375q0.375 0 0.734375 0.421875q0.359375 0.40625 0.359375 0.859375q0 0.390625 -0.203125 0.609375q-0.1875 0.21875 -0.828125 0.578125q-0.15625 0.125 -1.0 0.734375q-0.828125 0.609375 -2.078125 1.65625l-0.828125 0.671875l0.515625 0.875q0.515625 1.015625 0.828125 1.171875q0.265625 0.359375 1.265625 1.125q1.015625 0.765625 1.140625 0.765625q0.09375 0 0.296875 0.140625q0.21875 0.125 0.375 0.1875q0.375 0.375 0.375 0.859375q0 0.515625 -0.375 0.515625zm10.851013 -11.78125q0.25 0.515625 0.25 1.125q0 0.953125 -0.515625 1.71875q-0.3125 0.453125 -0.5625 1.359375q-0.234375 0.890625 -0.453125 2.390625q-0.296875 1.21875 -0.703125 3.75q-0.515625 1.34375 -0.640625 2.015625q-0.03125 0.1875 -0.3125 0.796875q-0.265625 0.609375 -0.421875 0.953125q-1.25 2.59375 -2.859375 3.96875q-1.59375 1.375 -3.484375 1.515625q-0.515625 0.0625 -0.609375 0.0625q-0.28125 0 -0.53125 -0.109375q-0.234375 -0.09375 -0.515625 -0.25q-0.140625 -0.0625 -0.359375 -0.21875q-0.21875 -0.15625 -0.3125 -0.25q-0.078125 -0.078125 -0.078125 -0.171875q0 -0.15625 0.1875 -0.328125q0.203125 -0.15625 0.625 -0.15625q0.21875 0.140625 0.765625 0.140625q0.546875 0 0.640625 -0.140625q0.0625 -0.0625 0.375 -0.203125q0.328125 -0.140625 0.734375 -0.234375q1.0 -0.484375 1.78125 -1.234375q0.78125 -0.75 1.453125 -1.90625q0.796875 -1.21875 1.0625 -2.203125q0.28125 -0.671875 0.640625 -1.9375q0.375 -1.265625 0.609375 -2.296875l-0.421875 0.390625q-0.15625 0.1875 -0.796875 0.5625q-0.640625 0.359375 -0.765625 0.359375q-0.03125 0 -0.09375 0.03125q-0.0625 0.03125 -0.0625 0.140625q0 0.125 -0.84375 0.40625q-0.828125 0.265625 -1.046875 0.265625q-0.328125 0 -0.703125 -0.328125q-0.359375 -0.34375 -0.515625 -0.671875q-0.09375 -0.21875 -0.265625 -0.5q-0.15625 -0.296875 -0.25 -0.5625q-0.09375 -0.28125 -0.09375 -0.625q0 -0.421875 0.0625 -0.640625q0.390625 -1.453125 1.296875 -4.0625q0.90625 -2.625 1.390625 -3.359375q0.25 -0.359375 0.609375 -0.359375q0.484375 0 0.765625 0.515625q0.296875 0.375 0.296875 0.640625q0 0.1875 -0.171875 0.546875q-0.15625 0.34375 -0.40625 0.828125q-0.125 0.34375 -0.328125 0.765625q-0.1875 0.421875 -0.1875 0.515625q-0.03125 0.125 -0.203125 0.78125q-0.15625 0.65625 -0.28125 0.65625q-0.21875 0.1875 -0.484375 1.46875q-0.25 1.28125 -0.25 1.984375q0 0.359375 0.09375 0.359375q1.890625 0 4.09375 -2.828125q0.296875 -1.40625 0.515625 -2.359375q0.421875 -1.640625 0.640625 -2.921875q0.1875 -0.4375 0.28125 -0.515625q0.109375 -0.078125 0.421875 -0.078125q0.390625 0 0.546875 0.0625q0.15625 0.0625 0.390625 0.375z" fill-rule="nonzero"/><path fill="#000000" d="m811.10156 159.38713q-1.125 0.15625 -1.671875 0.15625q-2.96875 0 -4.890625 -1.84375q-1.921875 -1.84375 -1.921875 -5.125q-0.3125 -3.515625 1.5625 -8.703125q1.890625 -5.203125 4.765625 -8.734375q2.0 -2.3125 3.4375 -3.75q1.4375 -1.4375 2.640625 -1.921875q1.671875 -0.71875 3.765625 -0.71875q1.4375 0.3125 2.828125 1.203125q1.40625 0.875 1.40625 1.75l0.40625 0.40625q0.46875 0 0.859375 1.15625q0.40625 1.15625 0.40625 2.515625q0 1.125 -0.390625 1.921875q-0.328125 1.515625 -1.09375 2.640625q-0.75 1.125 -1.46875 1.125q-0.875 0 -0.875 0.484375q0 0.3125 -0.328125 0.3125q-0.390625 0 -0.953125 -0.46875q-0.5625 -0.484375 -0.796875 -1.125q0 -0.25 0.3125 -1.359375q0.328125 -1.125 0.640625 -2.484375q0.234375 -0.96875 0.234375 -1.6875q0 -1.59375 -1.1875 -1.59375q-0.640625 0 -1.28125 0.3125q-3.203125 1.765625 -5.6875 5.609375q-2.484375 3.84375 -4.15625 10.5625q-0.40625 1.75 -0.40625 2.796875q0 0.796875 0.125 1.28125q0.125 0.46875 0.28125 0.5625q0.40625 0.15625 1.671875 0.15625q2.96875 0 4.171875 -0.71875q2.5625 -1.359375 5.671875 -3.6875q0.328125 -0.234375 0.96875 -0.828125q0.640625 -0.609375 1.1875 -0.84375q0.5625 -0.890625 1.046875 -1.078125q0.484375 -0.203125 1.515625 -0.203125q1.046875 0.3125 1.6875 0.84375q0.640625 0.515625 0 0.828125q-0.25 0 -0.328125 0.171875q-0.078125 0.15625 -0.078125 0.234375q0.15625 0.40625 -1.28125 2.0q-1.4375 1.59375 -3.203125 3.0q-1.75 1.40625 -2.390625 1.40625q-0.328125 0 -0.5625 0.078125q-0.234375 0.078125 -0.234375 0.390625q0 0.328125 -2.453125 1.484375q-2.4375 1.15625 -3.953125 1.484375z" fill-rule="nonzero"/><path fill="#000000" d="m835.2984 160.16838q-0.515625 0 -0.671875 -0.1875q-0.203125 0 -0.46875 -0.09375q-0.265625 -0.109375 -0.5625 -0.234375q-0.671875 -0.28125 -1.953125 -1.40625q-1.28125 -1.125 -1.28125 -1.5q0 -0.09375 -0.03125 -0.125q-0.03125 -0.046875 -0.125 -0.046875q-0.03125 -0.03125 -0.109375 -0.125q-0.078125 -0.09375 -0.078125 -0.21875q0 -0.125 -0.09375 -0.21875q-0.09375 -0.109375 -0.234375 -0.109375q-0.15625 0.140625 -0.671875 0.578125q-0.5 0.421875 -1.046875 0.96875q-1.03125 1.015625 -1.421875 1.359375q-0.375 0.328125 -0.59375 0.328125q-0.390625 0 -0.890625 -0.390625q-0.484375 -0.40625 -0.484375 -0.78125q0.15625 -0.234375 0.8125 -0.921875q0.65625 -0.6875 1.390625 -1.328125l2.046875 -2.015625l-0.34375 -1.21875q-0.578125 -1.25 -0.84375 -2.015625q-0.1875 -0.25 -0.296875 -0.421875q-0.109375 -0.1875 -0.109375 -0.3125q0 -0.125 0.25 -0.484375q0.359375 -0.34375 0.546875 -0.34375q0.15625 0 0.453125 0.1875q0.25 0 0.8125 1.078125q0.5625 1.0625 0.5625 1.484375q0 0.421875 0.28125 0.421875q0.328125 0 1.25 -0.609375q0.34375 -0.328125 0.546875 -0.546875q0.21875 -0.21875 0.28125 -0.28125q0.390625 -0.296875 1.203125 -0.875q0.8125 -0.578125 1.046875 -0.671875q0.15625 -0.09375 0.25 -0.09375q0.375 0 0.734375 0.421875q0.359375 0.40625 0.359375 0.859375q0 0.390625 -0.203125 0.609375q-0.1875 0.21875 -0.828125 0.578125q-0.15625 0.125 -1.0 0.734375q-0.828125 0.609375 -2.078125 1.65625l-0.828125 0.671875l0.515625 0.875q0.515625 1.015625 0.828125 1.171875q0.265625 0.359375 1.265625 1.125q1.015625 0.765625 1.140625 0.765625q0.09375 0 0.296875 0.140625q0.21875 0.125 0.375 0.1875q0.375 0.375 0.375 0.859375q0 0.515625 -0.375 0.515625z" fill-rule="nonzero"/><path fill="#000000" fill-opacity="0.0" d="m581.76624 68.81713l61.66931 0l0 77.29134l-61.66931 0z" fill-rule="evenodd"/><path fill="#000000" d="m592.51624 125.522125q-1.46875 -0.671875 -1.46875 -1.53125q0 -0.859375 0.578125 -2.21875q0.578125 -1.375 1.15625 -1.375q1.921875 1.53125 3.84375 1.53125q1.15625 0 2.078125 -1.9375q0.9375 -1.953125 2.09375 -5.546875q3.5 -10.84375 4.609375 -21.125q0.046875 -0.625 1.078125 -1.265625q1.03125 -0.65625 1.796875 -0.65625q0.390625 0 0.53125 0.359375q0.140625 0.359375 0.578125 2.09375l1.53125 4.984375q5.28125 16.28125 9.359375 22.515625q6.296875 -28.03125 9.265625 -30.859375q2.40625 -2.3125 7.53125 -2.3125q0.390625 0 0.390625 0.734375q0 0.90625 -0.609375 2.203125q-0.59375 1.296875 -1.125 1.296875q-4.703125 0 -6.8125 1.921875q-4.40625 15.203125 -7.53125 28.84375q-0.140625 0.71875 -1.15625 1.265625q-1.0 0.5625 -1.765625 0.5625q-0.390625 0 -1.640625 -1.96875q-4.703125 -7.546875 -10.265625 -25.78125q-0.625 3.546875 -1.6875 8.0q-1.046875 4.4375 -2.5625 9.390625q-1.515625 4.9375 -3.421875 8.25q-1.890625 3.296875 -3.609375 3.296875q-1.296875 0 -2.765625 -0.671875z" fill-rule="nonzero"/><path fill="#000000" fill-opacity="0.0" d="m552.31976 81.84009l45.322815 0l0 51.244095l-45.322815 0z" fill-rule="evenodd"/><path fill="#000000" d="m580.11664 108.99008q-0.046875 1.328125 -0.484375 2.328125q-0.4375 0.984375 -1.125 1.65625q-0.6875 0.671875 -1.59375 1.015625q-0.890625 0.34375 -1.828125 0.34375q-0.9375 0 -1.625 -0.203125q-0.671875 -0.203125 -1.203125 -0.546875q-0.53125 -0.34375 -0.9375 -0.765625q-0.390625 -0.4375 -0.75 -0.875q-0.359375 -0.453125 -0.703125 -0.84375q-0.328125 -0.390625 -0.6875 -0.6875q-0.34375 -0.3125 -0.75 -0.484375q-0.40625 -0.1875 -0.9375 -0.1875q-0.65625 0 -1.125 0.296875q-0.453125 0.28125 -0.75 0.75q-0.296875 0.46875 -0.421875 1.078125q-0.125 0.59375 -0.125 1.28125q0 0.34375 -0.328125 0.453125q-0.328125 0.109375 -0.953125 0.109375q-0.390625 0 -0.640625 -0.03125q-0.25 -0.046875 -0.390625 -0.109375q-0.140625 -0.078125 -0.203125 -0.1875q-0.046875 -0.125 -0.046875 -0.25l0 -0.53125q0 -1.34375 0.375 -2.375q0.375 -1.03125 1.03125 -1.71875q0.671875 -0.6875 1.59375 -1.03125q0.9375 -0.359375 2.03125 -0.359375q0.90625 0 1.59375 0.203125q0.703125 0.203125 1.234375 0.53125q0.53125 0.328125 0.9375 0.75q0.40625 0.421875 0.75 0.875q0.359375 0.453125 0.671875 0.84375q0.328125 0.390625 0.671875 0.6875q0.359375 0.296875 0.765625 0.484375q0.421875 0.171875 0.96875 0.171875q0.640625 0 1.09375 -0.25q0.46875 -0.265625 0.75 -0.71875q0.296875 -0.453125 0.4375 -1.078125q0.140625 -0.625 0.140625 -1.375q0 -0.3125 0.3125 -0.421875q0.328125 -0.109375 0.953125 -0.109375q0.375 0 0.625 0.03125q0.25 0.03125 0.40625 0.109375q0.15625 0.078125 0.21875 0.203125q0.0625 0.109375 0.046875 0.28125l0 0.65625z" fill-rule="nonzero"/><path fill="#000000" fill-opacity="0.0" d="m648.884 29.62355l42.992126 0l0 70.01575l-42.992126 0z" fill-rule="evenodd"/><path fill="#000000" d="m669.0871 76.179794q-0.4375 0 -1.484375 -0.546875q-1.03125 -0.5625 -1.640625 -1.09375q-1.125 -1.078125 -1.78125 -2.734375q-0.65625 -1.65625 -0.65625 -3.375q0 -0.359375 0.078125 -1.171875q0.4375 -2.515625 1.890625 -5.015621q1.46875 -2.5 3.4375 -4.171875q1.03125 -0.921875 1.890625 -1.421875q0.859375 -0.5 2.015625 -0.78125q0.5625 -0.15625 1.765625 -0.15625q0.765625 0 1.578125 0.3125q0.828125 0.3125 1.375 0.78125q0.5625 0.453125 0.5625 0.859375q0 0.359375 -0.0625 0.4375q-0.046875 0.078125 -0.328125 -0.03125l-0.40625 0l0.40625 1.15625q0.15625 0.359375 0.265625 0.875q0.125 0.515625 0.125 0.96875q0 0.71875 -0.4375 2.78125q-0.4375 2.0468712 -0.75 2.7656212q-0.171875 0.328125 -0.171875 0.84375l-1.0 2.203125q-0.15625 0.125 -0.234375 0.28125q-0.078125 0.15625 0.046875 0.28125q0 0.15625 -0.421875 0.90625q-0.421875 0.734375 -0.546875 0.734375q-0.03125 0 -0.125 0.015625q-0.078125 0.015625 -0.078125 0.140625q0 0.15625 -0.546875 0.84375q-0.53125 0.671875 -1.203125 1.359375q-0.609375 0.640625 -1.796875 1.296875q-1.171875 0.65625 -1.765625 0.65625zm-0.125 -2.515625q0.96875 0 1.515625 -0.5625q0.765625 -0.515625 1.703125 -1.609375q0.9375 -1.109375 1.390625 -2.109375q0.390625 -0.5625 0.640625 -1.15625q0.265625 -0.609375 0.875 -2.359375q0.28125 -0.40625 0.421875 -1.015625q0.140625 -0.625 0.140625 -1.1406212q0 -1.765625 0.1875 -2.484375q0 -1.125 -0.046875 -1.421875q-0.03125 -0.296875 -0.3125 -0.625q-0.4375 -0.359375 -0.953125 -0.359375q-0.28125 0 -1.046875 0.3125q-0.75 0.296875 -1.078125 0.484375q-0.234375 0.09375 -0.359375 0.09375q-0.234375 0 -0.421875 -0.09375q-0.171875 -0.109375 -0.171875 -0.28125q0 -0.265625 -0.25 -0.265625q-0.3125 0 -0.875 0.484375q-0.5625 0.46875 -1.203125 1.234375q-0.640625 0.640625 -1.1875 1.421875q-0.53125 0.765625 -0.53125 0.9375q0 0.109375 -0.140625 0.4375q-0.140625 0.3125 -0.21875 0.5156212q-0.28125 0.4375 -0.765625 1.546875q-0.46875 1.09375 -0.59375 1.578125l0 2.15625q0 1.0 0.125 1.5625q0.125 0.5625 0.4375 1.15625q0.15625 0.28125 0.515625 0.6875q0.359375 0.390625 0.4375 0.515625q0.28125 0.28125 0.453125 0.390625q0.1875 0.09375 0.46875 0.09375q0.328125 0 0.84375 -0.125z" fill-rule="nonzero"/><path fill="#000000" fill-opacity="0.0" d="m683.0495 72.664444l50.33069 0l0 31.181099l-50.33069 0z" fill-rule="evenodd"/><path fill="#000000" d="m693.70575 114.915695q-0.34375 0 -0.40625 -0.03125q-0.0625 -0.03125 -0.1875 -0.296875q0 -0.1875 0.125 -0.375q0.125 -0.171875 0.3125 -0.390625q0.546875 -0.546875 1.1875 -1.3125q0.640625 -0.765625 0.859375 -1.1875q0.234375 -0.703125 0.484375 -1.875q0 -0.640625 0.15625 -0.8125q0.203125 -0.1875 0.359375 -0.1875q0.375 0 0.578125 1.4375q0.0625 0.453125 0.0625 0.671875q0 0.734375 -0.546875 2.015625q-0.125 0.328125 -0.78125 1.109375q-0.65625 0.78125 -0.78125 0.78125q-0.171875 0 -0.453125 0.296875q-0.09375 0.09375 -0.375 0.125q-0.265625 0.03125 -0.59375 0.03125z" fill-rule="nonzero"/><path fill="#f4cccc" fill-opacity="0.2763" d="m706.6469 38.58748l0 0c0 -6.9609585 5.6430054 -12.603928 12.603943 -12.603928l50.414185 0l0 0c3.3427734 0 6.548645 1.3279095 8.9123535 3.6916046c2.3636475 2.3636932 3.6915894 5.5695534 3.6915894 8.912323l0 52.08348c0 6.9609604 -5.6430054 12.603928 -12.603943 12.603928l-50.414185 0l0 0c-6.9609375 0 -12.603943 -5.642967 -12.603943 -12.603928z" fill-rule="evenodd"/><path stroke="#000000" stroke-width="1.0" stroke-linejoin="round" stroke-linecap="butt" d="m706.6469 38.58748l0 0c0 -6.9609585 5.6430054 -12.603928 12.603943 -12.603928l50.414185 0l0 0c3.3427734 0 6.548645 1.3279095 8.9123535 3.6916046c2.3636475 2.3636932 3.6915894 5.5695534 3.6915894 8.912323l0 52.08348c0 6.9609604 -5.6430054 12.603928 -12.603943 12.603928l-50.414185 0l0 0c-6.9609375 0 -12.603943 -5.642967 -12.603943 -12.603928z" fill-rule="evenodd"/><path fill="#f4cccc" fill-opacity="0.2763" d="m785.1968 118.55292l0 0c0 -6.9609528 5.6430054 -12.603928 12.603943 -12.603928l50.414185 0l0 0c3.3427734 0 6.548645 1.3279114 8.9123535 3.6916046c2.3636475 2.3637009 3.6915894 5.569557 3.6915894 8.912323l0 52.08348c0 6.960968 -5.6430054 12.603928 -12.603943 12.603928l-50.414185 0l0 0c-6.9609375 0 -12.603943 -5.6429596 -12.603943 -12.603928z" fill-rule="evenodd"/><path stroke="#000000" stroke-width="1.0" stroke-linejoin="round" stroke-linecap="butt" d="m785.1968 118.55292l0 0c0 -6.9609528 5.6430054 -12.603928 12.603943 -12.603928l50.414185 0l0 0c3.3427734 0 6.548645 1.3279114 8.9123535 3.6916046c2.3636475 2.3637009 3.6915894 5.569557 3.6915894 8.912323l0 52.08348c0 6.960968 -5.6430054 12.603928 -12.603943 12.603928l-50.414185 0l0 0c-6.9609375 0 -12.603943 -5.6429596 -12.603943 -12.603928z" fill-rule="evenodd"/><path fill="#f4cccc" fill-opacity="0.2763" d="m785.1968 38.58748l0 0c0 -6.9609585 5.6430054 -12.603928 12.603943 -12.603928l50.414185 0l0 0c3.3427734 0 6.548645 1.3279095 8.9123535 3.6916046c2.3636475 2.3636932 3.6915894 5.5695534 3.6915894 8.912323l0 52.08348c0 6.9609604 -5.6430054 12.603928 -12.603943 12.603928l-50.414185 0l0 0c-6.9609375 0 -12.603943 -5.642967 -12.603943 -12.603928z" fill-rule="evenodd"/><path stroke="#000000" stroke-width="1.0" stroke-linejoin="round" stroke-linecap="butt" d="m785.1968 38.58748l0 0c0 -6.9609585 5.6430054 -12.603928 12.603943 -12.603928l50.414185 0l0 0c3.3427734 0 6.548645 1.3279095 8.9123535 3.6916046c2.3636475 2.3636932 3.6915894 5.5695534 3.6915894 8.912323l0 52.08348c0 6.9609604 -5.6430054 12.603928 -12.603943 12.603928l-50.414185 0l0 0c-6.9609375 0 -12.603943 -5.642967 -12.603943 -12.603928z" fill-rule="evenodd"/><path fill="#f4cccc" fill-opacity="0.2763" d="m716.96606 182.44025l0 0c-6.9609375 0 -12.603943 -5.642975 -12.603943 -12.603928l0 -50.414192l0 0c0 -3.3427734 1.3279419 -6.5486298 3.6916504 -8.912323c2.3636475 -2.3637009 5.569519 -3.6916046 8.9122925 -3.6916046l52.083496 0c6.9609375 0 12.603943 5.642967 12.603943 12.603928l0 50.414192l0 0c0 6.9609528 -5.6430054 12.603928 -12.603943 12.603928z" fill-rule="evenodd"/><path stroke="#000000" stroke-width="1.0" stroke-linejoin="round" stroke-linecap="butt" d="m716.96606 182.44025l0 0c-6.9609375 0 -12.603943 -5.642975 -12.603943 -12.603928l0 -50.414192l0 0c0 -3.3427734 1.3279419 -6.5486298 3.6916504 -8.912323c2.3636475 -2.3637009 5.569519 -3.6916046 8.9122925 -3.6916046l52.083496 0c6.9609375 0 12.603943 5.642967 12.603943 12.603928l0 50.414192l0 0c0 6.9609528 -5.6430054 12.603928 -12.603943 12.603928z" fill-rule="evenodd"/><path fill="#000000" fill-opacity="0.0" d="m648.884 109.62355l42.992126 0l0 70.01575l-42.992126 0z" fill-rule="evenodd"/><path fill="#000000" d="m669.0871 156.1798q-0.4375 0 -1.484375 -0.546875q-1.03125 -0.5625 -1.640625 -1.09375q-1.125 -1.078125 -1.78125 -2.734375q-0.65625 -1.65625 -0.65625 -3.375q0 -0.359375 0.078125 -1.171875q0.4375 -2.515625 1.890625 -5.015625q1.46875 -2.5 3.4375 -4.171875q1.03125 -0.921875 1.890625 -1.421875q0.859375 -0.5 2.015625 -0.78125q0.5625 -0.15625 1.765625 -0.15625q0.765625 0 1.578125 0.3125q0.828125 0.3125 1.375 0.78125q0.5625 0.453125 0.5625 0.859375q0 0.359375 -0.0625 0.4375q-0.046875 0.078125 -0.328125 -0.03125l-0.40625 0l0.40625 1.15625q0.15625 0.359375 0.265625 0.875q0.125 0.515625 0.125 0.96875q0 0.71875 -0.4375 2.78125q-0.4375 2.046875 -0.75 2.765625q-0.171875 0.328125 -0.171875 0.84375l-1.0 2.203125q-0.15625 0.125 -0.234375 0.28125q-0.078125 0.15625 0.046875 0.28125q0 0.15625 -0.421875 0.90625q-0.421875 0.734375 -0.546875 0.734375q-0.03125 0 -0.125 0.015625q-0.078125 0.015625 -0.078125 0.140625q0 0.15625 -0.546875 0.84375q-0.53125 0.671875 -1.203125 1.359375q-0.609375 0.640625 -1.796875 1.296875q-1.171875 0.65625 -1.765625 0.65625zm-0.125 -2.515625q0.96875 0 1.515625 -0.5625q0.765625 -0.515625 1.703125 -1.609375q0.9375 -1.109375 1.390625 -2.109375q0.390625 -0.5625 0.640625 -1.15625q0.265625 -0.609375 0.875 -2.359375q0.28125 -0.40625 0.421875 -1.015625q0.140625 -0.625 0.140625 -1.140625q0 -1.765625 0.1875 -2.484375q0 -1.125 -0.046875 -1.421875q-0.03125 -0.296875 -0.3125 -0.625q-0.4375 -0.359375 -0.953125 -0.359375q-0.28125 0 -1.046875 0.3125q-0.75 0.296875 -1.078125 0.484375q-0.234375 0.09375 -0.359375 0.09375q-0.234375 0 -0.421875 -0.09375q-0.171875 -0.109375 -0.171875 -0.28125q0 -0.265625 -0.25 -0.265625q-0.3125 0 -0.875 0.484375q-0.5625 0.46875 -1.203125 1.234375q-0.640625 0.640625 -1.1875 1.421875q-0.53125 0.765625 -0.53125 0.9375q0 0.109375 -0.140625 0.4375q-0.140625 0.3125 -0.21875 0.515625q-0.28125 0.4375 -0.765625 1.546875q-0.46875 1.09375 -0.59375 1.578125l0 2.15625q0 1.0 0.125 1.5625q0.125 0.5625 0.4375 1.15625q0.15625 0.28125 0.515625 0.6875q0.359375 0.390625 0.4375 0.515625q0.28125 0.28125 0.453125 0.390625q0.1875 0.09375 0.46875 0.09375q0.328125 0 0.84375 -0.125z" fill-rule="nonzero"/><path fill="#000000" fill-opacity="0.0" d="m492.61032 29.62355l42.992096 0l0 70.01575l-42.992096 0z" fill-rule="evenodd"/><path fill="#000000" d="m517.2978 62.257923q0.625 0.640625 0.625 1.328125q0 0.7187462 -0.953125 2.5156212q-0.3125 0.921875 -0.703125 1.71875q-0.375 0.796875 -0.578125 1.046875l-0.921875 2.109375q-0.59375 1.328125 -1.46875 3.09375q-1.09375 2.234375 -1.5312195 3.3125l-0.515625 0.84375q-2.0 3.203125 -3.078125 4.484375q-2.203125 1.953125 -3.40625 2.265625q-0.515625 0.171875 -1.234375 0.171875q-1.328125 0 -2.5 -0.59375q-1.1875 -0.578125 -1.34375 -1.328125q-0.03125 -0.28125 0.203125 -0.609375q0.234375 -0.3125 0.515625 -0.3125q0.203125 0 0.328125 0.15625q0.3125 0.25 0.9375 0.46875q0.625 0.21875 1.34375 0.21875q0.28125 0 0.75 -0.078125q0.796875 -0.171875 1.671875 -0.96875q0.890625 -0.796875 1.609375 -1.765625q1.359375 -2.0 2.921875 -5.0q-0.5625 -0.15625 -1.078125 -0.765625q-0.515625 -0.625 -0.828125 -1.296875q-0.296875 -0.6875 -0.21875 -1.015625l0 -0.4375q-0.359375 0 -0.578125 -1.359375q-0.21875 -1.359375 -0.21875 -3.15625q0 -0.6875 0.078125 -1.71875q0.171875 -0.640625 0.1875 -1.578125q0.015625 -0.9374962 0.015625 -1.2187462l0 -0.171875q0 -0.46875 0.09375 -0.671875q0.109375 -0.203125 0.34375 -0.359375q0.328125 -0.15625 0.640625 -0.15625q1.125 0 1.125 2.9531212q0 0.4375 -0.078125 1.71875q-0.046875 0.5625 -0.046875 1.6875q0 2.078125 0.359375 3.6875q0.359375 1.59375 1.078125 2.1875l0.25 -0.5625q0.4375 -1.15625 0.671875 -1.484375q0.5624695 -1.15625 0.6405945 -1.46875q0.078125 -0.28125 0.4375 -0.921875l0.53125 -1.078125q0.078125 -0.25 0.515625 -1.546875q0.4375 -1.296875 0.875 -2.09375q0.15625 -0.328125 0.46875 -0.9374962q0.328125 -0.625 0.53125 -0.90625q0.203125 -0.28125 0.4375 -0.359375q0.328125 -0.28125 0.53125 -0.28125q0.15625 0 0.5625 0.234375z" fill-rule="nonzero"/><path fill="#000000" fill-opacity="0.0" d="m492.61032 109.62355l42.992096 0l0 70.01575l-42.992096 0z" fill-rule="evenodd"/><path fill="#000000" d="m517.2509 156.89854q-0.640625 0 -0.84375 -0.234375q-0.234375 0 -0.578125 -0.109375q-0.34375 -0.125 -0.703125 -0.296875q-0.828125 -0.359375 -2.4375 -1.75q-1.5937195 -1.40625 -1.5937195 -1.890625q0 -0.109375 -0.046875 -0.140625q-0.03125 -0.046875 -0.15625 -0.046875q-0.046875 -0.046875 -0.140625 -0.15625q-0.09375 -0.125 -0.09375 -0.296875q0 -0.15625 -0.125 -0.265625q-0.125 -0.125 -0.28125 -0.125q-0.203125 0.15625 -0.84375 0.703125q-0.640625 0.53125 -1.3125 1.21875q-1.28125 1.28125 -1.765625 1.703125q-0.484375 0.40625 -0.765625 0.40625q-0.46875 0 -1.09375 -0.5q-0.625 -0.5 -0.625 -0.96875q0.203125 -0.28125 1.015625 -1.140625q0.828125 -0.859375 1.75 -1.671875l2.5625 -2.515625l-0.4375 -1.515625q-0.71875 -1.5625 -1.046875 -2.515625q-0.234375 -0.328125 -0.375 -0.546875q-0.140625 -0.21875 -0.140625 -0.375q0 -0.15625 0.3125 -0.609375q0.4375 -0.4375 0.6875 -0.4375q0.203125 0 0.5625 0.25q0.3125 0 1.015625 1.34375q0.703125 1.328125 0.703125 1.84375q0 0.53125 0.359375 0.53125q0.390625 0 1.5624695 -0.765625q0.4375 -0.40625 0.6875 -0.671875q0.265625 -0.28125 0.34375 -0.375q0.484375 -0.359375 1.5 -1.078125q1.015625 -0.71875 1.296875 -0.828125q0.203125 -0.125 0.328125 -0.125q0.484375 0 0.921875 0.515625q0.4375 0.515625 0.4375 1.078125q0 0.484375 -0.25 0.765625q-0.234375 0.28125 -1.03125 0.71875q-0.203125 0.15625 -1.25 0.921875q-1.03125 0.765625 -2.59375 2.078125l-1.0312195 0.84375l0.6405945 1.078125q0.640625 1.28125 1.03125 1.484375q0.328125 0.4375 1.578125 1.40625q1.265625 0.953125 1.421875 0.953125q0.125 0 0.375 0.15625q0.265625 0.15625 0.46875 0.234375q0.484375 0.484375 0.484375 1.078125q0 0.640625 -0.484375 0.640625z" fill-rule="nonzero"/><path fill="#f4cccc" fill-opacity="0.2763" d="m492.68198 120.05004l0 0c0 -3.551506 2.8790588 -6.4305725 6.4305725 -6.4305725l25.721558 0l0 0c1.7054443 0 3.3411255 0.6775055 4.547058 1.8834686c1.2059937 1.2059708 1.8834839 2.8416061 1.8834839 4.547104l0 64.49319c0 3.5514984 -2.8790283 6.4305725 -6.430542 6.4305725l-25.721558 0c-3.5515137 0 -6.4305725 -2.879074 -6.4305725 -6.4305725z" fill-rule="evenodd"/><path stroke="#000000" stroke-width="1.0" stroke-linejoin="round" stroke-linecap="butt" d="m492.68198 120.05004l0 0c0 -3.551506 2.8790588 -6.4305725 6.4305725 -6.4305725l25.721558 0l0 0c1.7054443 0 3.3411255 0.6775055 4.547058 1.8834686c1.2059937 1.2059708 1.8834839 2.8416061 1.8834839 4.547104l0 64.49319c0 3.5514984 -2.8790283 6.4305725 -6.430542 6.4305725l-25.721558 0c-3.5515137 0 -6.4305725 -2.879074 -6.4305725 -6.4305725z" fill-rule="evenodd"/><path fill="#f4cccc" fill-opacity="0.2763" d="m112.013954 66.78215c-1.2187195 3.989067 -2.3258972 12.18898 -7.312332 23.934387c-4.9864426 11.745407 -11.968941 26.039368 -22.6063 46.538055c-10.63736 20.498688 -41.107174 50.74759 -41.21785 76.45407c-0.110672 25.706467 29.251968 51.191605 40.55381 77.784775c11.301834 26.59317 22.714348 68.14523 27.257217 81.77429" fill-rule="evenodd"/><path stroke="#000000" stroke-width="1.0" stroke-linejoin="round" stroke-linecap="butt" d="m112.013954 66.78215c-1.2187195 3.989067 -2.3258972 12.18898 -7.312332 23.934387c-4.9864426 11.745407 -11.968941 26.039368 -22.6063 46.538055c-10.63736 20.498688 -41.107174 50.74759 -41.21785 76.45407c-0.110672 25.706467 29.251968 51.191605 40.55381 77.784775c11.301834 26.59317 22.714348 68.14523 27.257217 81.77429" fill-rule="evenodd"/><path fill="#f4cccc" fill-opacity="0.2763" d="m167.28888 118.610794l0 0c29.284134 -44.94815 123.12808 -36.95273 209.6063 17.858261l0 0c86.47824 54.811005 132.8432 135.68176 103.55905 180.62994l0 0c-29.284119 44.94815 -123.12805 36.95273 -209.6063 -17.858276l0 0c-86.478226 -54.811005 -132.84319 -135.68178 -103.55905 -180.62993z" fill-rule="evenodd"/><path stroke="#000000" stroke-width="2.0" stroke-linejoin="round" stroke-linecap="butt" d="m167.28888 118.610794l0 0c29.284134 -44.94815 123.12808 -36.95273 209.6063 17.858261l0 0c86.47824 54.811005 132.8432 135.68176 103.55905 180.62994l0 0c-29.284119 44.94815 -123.12805 36.95273 -209.6063 -17.858276l0 0c-86.478226 -54.811005 -132.84319 -135.68178 -103.55905 -180.62993z" fill-rule="evenodd"/><path fill="#f4cccc" fill-opacity="0.2763" d="m196.92352 135.50137l0 0c23.091599 -35.441895 98.702576 -28.116287 168.8819 16.362198l0 0c70.17929 44.4785 108.35144 109.26677 85.25983 144.70866l0 0c-23.091583 35.441895 -98.702576 28.116302 -168.88187 -16.362213l0 0c-70.17932 -44.478485 -108.35144 -109.266754 -85.25986 -144.70865z" fill-rule="evenodd"/><path stroke="#000000" stroke-width="2.0" stroke-linejoin="round" stroke-linecap="butt" d="m196.92352 135.50137l0 0c23.091599 -35.441895 98.702576 -28.116287 168.8819 16.362198l0 0c70.17929 44.4785 108.35144 109.26677 85.25983 144.70866l0 0c-23.091583 35.441895 -98.702576 28.116302 -168.88187 -16.362213l0 0c-70.17932 -44.478485 -108.35144 -109.266754 -85.25986 -144.70865z" fill-rule="evenodd"/><path fill="#f4cccc" fill-opacity="0.2763" d="m226.32324 154.51573l0 0c16.490265 -25.318115 72.401794 -18.87384 124.8819 14.393707l0 0c52.480103 33.267548 81.65561 80.76062 65.165344 106.07875l0 0c-16.490265 25.318115 -72.401794 18.87384 -124.8819 -14.393707l0 0c-52.480087 -33.267548 -81.65561 -80.76062 -65.165344 -106.07875z" fill-rule="evenodd"/><path stroke="#000000" stroke-width="2.0" stroke-linejoin="round" stroke-linecap="butt" d="m226.32324 154.51573l0 0c16.490265 -25.318115 72.401794 -18.87384 124.8819 14.393707l0 0c52.480103 33.267548 81.65561 80.76062 65.165344 106.07875l0 0c-16.490265 25.318115 -72.401794 18.87384 -124.8819 -14.393707l0 0c-52.480087 -33.267548 -81.65561 -80.76062 -65.165344 -106.07875z" fill-rule="evenodd"/><path fill="#f4cccc" fill-opacity="0.2763" d="m259.16855 173.95068l0 0c9.845459 -15.107376 45.66974 -9.706604 80.01575 12.062988l0 0c34.34604 21.769592 54.207672 51.664276 44.362213 66.77165l0 0c-9.845459 15.107376 -45.66971 9.706589 -80.01575 -12.062988l0 0c-34.34601 -21.769592 -54.207657 -51.664276 -44.362213 -66.77165z" fill-rule="evenodd"/><path stroke="#000000" stroke-width="2.0" stroke-linejoin="round" stroke-linecap="butt" d="m259.16855 173.95068l0 0c9.845459 -15.107376 45.66974 -9.706604 80.01575 12.062988l0 0c34.34604 21.769592 54.207672 51.664276 44.362213 66.77165l0 0c-9.845459 15.107376 -45.66971 9.706589 -80.01575 -12.062988l0 0c-34.34601 -21.769592 -54.207657 -51.664276 -44.362213 -66.77165z" fill-rule="evenodd"/><path fill="#000000" fill-opacity="0.0" d="m107.61865 380.2215l419.59058 1.5433044" fill-rule="evenodd"/><path stroke="#000000" stroke-width="3.0" stroke-linejoin="round" stroke-linecap="butt" d="m107.61865 380.2215l401.59067 1.4771118" fill-rule="evenodd"/><path fill="#000000" stroke="#000000" stroke-width="3.0" stroke-linecap="butt" d="m509.1911 386.65375l13.632446 -4.90506l-13.596008 -5.005249z" fill-rule="evenodd"/><path fill="#000000" fill-opacity="0.0" d="m108.66199 382.23627l4.0 -353.25983" fill-rule="evenodd"/><path stroke="#000000" stroke-width="3.0" stroke-linejoin="round" stroke-linecap="butt" d="m108.661995 382.23627l3.796196 -335.261" fill-rule="evenodd"/><path fill="#000000" stroke="#000000" stroke-width="3.0" stroke-linecap="butt" d="m117.41307 47.031376l-4.8007355 -13.669525l-5.109024 13.557316z" fill-rule="evenodd"/><path fill="#000000" fill-opacity="0.0" d="m189.74226 378.4433l59.842514 0l0 64.346466l-59.842514 0z" fill-rule="evenodd"/><path fill="#3d85c6" d="m214.38289 425.7183q-0.640625 0 -0.84375 -0.234375q-0.234375 0 -0.578125 -0.109375q-0.34375 -0.125 -0.703125 -0.296875q-0.828125 -0.359375 -2.4375 -1.75q-1.59375 -1.40625 -1.59375 -1.890625q0 -0.109375 -0.046875 -0.140625q-0.03125 -0.046875 -0.15625 -0.046875q-0.046875 -0.046875 -0.140625 -0.15625q-0.09375 -0.125 -0.09375 -0.296875q0 -0.15625 -0.125 -0.265625q-0.125 -0.125 -0.28125 -0.125q-0.203125 0.15625 -0.84375 0.703125q-0.640625 0.53125 -1.3125 1.21875q-1.28125 1.28125 -1.765625 1.703125q-0.484375 0.40625 -0.765625 0.40625q-0.46875 0 -1.09375 -0.5q-0.625 -0.5 -0.625 -0.96875q0.203125 -0.28125 1.015625 -1.140625q0.828125 -0.859375 1.75 -1.671875l2.5625 -2.515625l-0.4375 -1.515625q-0.71875 -1.5625 -1.046875 -2.515625q-0.234375 -0.328125 -0.375 -0.546875q-0.140625 -0.21875 -0.140625 -0.375q0 -0.15625 0.3125 -0.609375q0.4375 -0.4375 0.6875 -0.4375q0.203125 0 0.5625 0.25q0.3125 0 1.015625 1.34375q0.703125 1.328125 0.703125 1.84375q0 0.53125 0.359375 0.53125q0.390625 0 1.5625 -0.765625q0.4375 -0.40625 0.6875 -0.671875q0.265625 -0.28125 0.34375 -0.375q0.484375 -0.359375 1.5 -1.078125q1.015625 -0.71875 1.296875 -0.828125q0.203125 -0.125 0.328125 -0.125q0.484375 0 0.921875 0.515625q0.4375 0.515625 0.4375 1.078125q0 0.484375 -0.25 0.765625q-0.234375 0.28125 -1.03125 0.71875q-0.203125 0.15625 -1.25 0.921875q-1.03125 0.765625 -2.59375 2.078125l-1.03125 0.84375l0.640625 1.078125q0.640625 1.28125 1.03125 1.484375q0.328125 0.4375 1.578125 1.40625q1.265625 0.953125 1.421875 0.953125q0.125 0 0.375 0.15625q0.265625 0.15625 0.46875 0.234375q0.484375 0.484375 0.484375 1.078125q0 0.640625 -0.484375 0.640625z" fill-rule="nonzero"/><path fill="#000000" fill-opacity="0.0" d="m297.37796 402.37796l419.59055 0l0 49.82675l-419.59055 0z" fill-rule="evenodd"/><path fill="#000000" d="m310.25296 442.09796l-3.796875 -12.453125l2.171875 0l1.984375 7.1875l0.734375 2.671875q0.046875 -0.203125 0.640625 -2.5625l1.984375 -7.296875l2.171875 0l1.859375 7.21875l0.625 2.390625l0.71875 -2.40625l2.125 -7.203125l2.046875 0l-3.890625 12.453125l-2.1875 0l-1.984375 -7.453125l-0.46875 -2.125l-2.53125 9.578125l-2.203125 0zm15.035156 0l0 -17.1875l2.109375 0l0 6.171875q1.484375 -1.71875 3.734375 -1.71875q1.375 0 2.390625 0.546875q1.03125 0.546875 1.46875 1.515625q0.4375 0.953125 0.4375 2.78125l0 7.890625l-2.109375 0l0 -7.890625q0 -1.578125 -0.6875 -2.296875q-0.6875 -0.71875 -1.9375 -0.71875q-0.9375 0 -1.765625 0.484375q-0.828125 0.484375 -1.1875 1.3125q-0.34375 0.828125 -0.34375 2.296875l0 6.8125l-2.109375 0zm21.472656 -1.53125q-1.171875 0.984375 -2.265625 1.40625q-1.078125 0.40625 -2.3125 0.40625q-2.046875 0 -3.15625 -1.0q-1.09375 -1.0 -1.09375 -2.5625q0 -0.921875 0.40625 -1.671875q0.421875 -0.75 1.09375 -1.203125q0.671875 -0.46875 1.515625 -0.703125q0.625 -0.15625 1.875 -0.3125q2.5625 -0.3125 3.765625 -0.734375q0.015625 -0.421875 0.015625 -0.546875q0 -1.28125 -0.609375 -1.8125q-0.796875 -0.71875 -2.390625 -0.71875q-1.5 0 -2.203125 0.53125q-0.703125 0.515625 -1.046875 1.84375l-2.0625 -0.28125q0.28125 -1.328125 0.921875 -2.140625q0.640625 -0.8125 1.859375 -1.25q1.21875 -0.453125 2.828125 -0.453125q1.59375 0 2.59375 0.375q1.0 0.375 1.46875 0.953125q0.46875 0.5625 0.65625 1.4375q0.09375 0.53125 0.09375 1.9375l0 2.8125q0 2.9375 0.140625 3.71875q0.140625 0.78125 0.53125 1.5l-2.203125 0q-0.328125 -0.65625 -0.421875 -1.53125zm-0.171875 -4.71875q-1.15625 0.46875 -3.453125 0.796875q-1.296875 0.1875 -1.84375 0.421875q-0.53125 0.234375 -0.828125 0.6875q-0.28125 0.453125 -0.28125 1.0q0 0.84375 0.625 1.40625q0.640625 0.5625 1.875 0.5625q1.21875 0 2.171875 -0.53125q0.953125 -0.53125 1.390625 -1.453125q0.34375 -0.71875 0.34375 -2.109375l0 -0.78125zm10.003906 4.359375l0.3125 1.859375q-0.890625 0.203125 -1.59375 0.203125q-1.15625 0 -1.796875 -0.359375q-0.625 -0.375 -0.890625 -0.96875q-0.25 -0.59375 -0.25 -2.484375l0 -7.171875l-1.546875 0l0 -1.640625l1.546875 0l0 -3.078125l2.09375 -1.265625l0 4.34375l2.125 0l0 1.640625l-2.125 0l0 7.28125q0 0.90625 0.109375 1.171875q0.125 0.25 0.375 0.40625q0.25 0.140625 0.71875 0.140625q0.34375 0 0.921875 -0.078125zm8.7421875 -12.859375l0 -2.4375l2.109375 0l0 2.4375l-2.109375 0zm0 14.75l0 -12.453125l2.109375 0l0 12.453125l-2.109375 0zm4.4726562 -3.71875l2.09375 -0.328125q0.171875 1.25 0.96875 1.921875q0.8125 0.671875 2.25 0.671875q1.453125 0 2.15625 -0.59375q0.703125 -0.59375 0.703125 -1.390625q0 -0.71875 -0.625 -1.125q-0.421875 -0.28125 -2.15625 -0.71875q-2.3125 -0.578125 -3.21875 -1.0q-0.890625 -0.4375 -1.359375 -1.1875q-0.453125 -0.765625 -0.453125 -1.671875q0 -0.828125 0.375 -1.53125q0.390625 -0.71875 1.046875 -1.1875q0.484375 -0.359375 1.328125 -0.609375q0.859375 -0.265625 1.828125 -0.265625q1.46875 0 2.578125 0.421875q1.109375 0.421875 1.625 1.15625q0.53125 0.71875 0.734375 1.921875l-2.0625 0.28125q-0.140625 -0.96875 -0.8125 -1.5q-0.671875 -0.546875 -1.90625 -0.546875q-1.453125 0 -2.078125 0.484375q-0.625 0.484375 -0.625 1.125q0 0.40625 0.265625 0.734375q0.25 0.34375 0.8125 0.5625q0.3125 0.125 1.859375 0.546875q2.234375 0.59375 3.109375 0.984375q0.890625 0.375 1.390625 1.109375q0.515625 0.71875 0.515625 1.796875q0 1.046875 -0.625 1.984375q-0.609375 0.9375 -1.765625 1.453125q-1.15625 0.5 -2.625 0.5q-2.421875 0 -3.703125 -1.0q-1.265625 -1.015625 -1.625 -3.0zm24.121094 1.828125l0.3125 1.859375q-0.890625 0.203125 -1.59375 0.203125q-1.15625 0 -1.796875 -0.359375q-0.625 -0.375 -0.890625 -0.96875q-0.25 -0.59375 -0.25 -2.484375l0 -7.171875l-1.546875 0l0 -1.640625l1.546875 0l0 -3.078125l2.09375 -1.265625l0 4.34375l2.125 0l0 1.640625l-2.125 0l0 7.28125q0 0.90625 0.109375 1.171875q0.125 0.25 0.375 0.40625q0.25 0.140625 0.71875 0.140625q0.34375 0 0.921875 -0.078125zm2.0585938 1.890625l0 -17.1875l2.109375 0l0 6.171875q1.484375 -1.71875 3.734375 -1.71875q1.375 0 2.390625 0.546875q1.03125 0.546875 1.46875 1.515625q0.4375 0.953125 0.4375 2.78125l0 7.890625l-2.109375 0l0 -7.890625q0 -1.578125 -0.6875 -2.296875q-0.6875 -0.71875 -1.9375 -0.71875q-0.9375 0 -1.765625 0.484375q-0.828125 0.484375 -1.1875 1.3125q-0.34375 0.828125 -0.34375 2.296875l0 6.8125l-2.109375 0zm21.878906 -4.015625l2.171875 0.28125q-0.515625 1.90625 -1.90625 2.96875q-1.390625 1.046875 -3.5625 1.046875q-2.734375 0 -4.34375 -1.671875q-1.59375 -1.6875 -1.59375 -4.734375q0 -3.140625 1.609375 -4.875q1.625 -1.734375 4.203125 -1.734375q2.5 0 4.078125 1.703125q1.59375 1.703125 1.59375 4.78125q0 0.1875 -0.015625 0.5625l-9.28125 0q0.109375 2.046875 1.15625 3.140625q1.046875 1.09375 2.609375 1.09375q1.15625 0 1.96875 -0.609375q0.828125 -0.609375 1.3125 -1.953125zm-6.9375 -3.40625l6.953125 0q-0.140625 -1.5625 -0.796875 -2.359375q-1.0 -1.21875 -2.609375 -1.21875q-1.453125 0 -2.453125 0.984375q-0.984375 0.96875 -1.09375 2.59375zm21.890625 7.421875l-4.734375 -12.453125l2.21875 0l2.671875 7.453125q0.4375 1.21875 0.796875 2.515625q0.28125 -0.984375 0.78125 -2.375l2.765625 -7.59375l2.171875 0l-4.703125 12.453125l-1.96875 0zm16.65625 -1.53125q-1.171875 0.984375 -2.265625 1.40625q-1.078125 0.40625 -2.3125 0.40625q-2.046875 0 -3.15625 -1.0q-1.09375 -1.0 -1.09375 -2.5625q0 -0.921875 0.40625 -1.671875q0.421875 -0.75 1.09375 -1.203125q0.671875 -0.46875 1.515625 -0.703125q0.625 -0.15625 1.875 -0.3125q2.5625 -0.3125 3.765625 -0.734375q0.015625 -0.421875 0.015625 -0.546875q0 -1.28125 -0.609375 -1.8125q-0.796875 -0.71875 -2.390625 -0.71875q-1.5 0 -2.203125 0.53125q-0.703125 0.515625 -1.046875 1.84375l-2.0625 -0.28125q0.28125 -1.328125 0.921875 -2.140625q0.640625 -0.8125 1.859375 -1.25q1.21875 -0.453125 2.828125 -0.453125q1.59375 0 2.59375 0.375q1.0 0.375 1.46875 0.953125q0.46875 0.5625 0.65625 1.4375q0.09375 0.53125 0.09375 1.9375l0 2.8125q0 2.9375 0.140625 3.71875q0.140625 0.78125 0.53125 1.5l-2.203125 0q-0.328125 -0.65625 -0.421875 -1.53125zm-0.171875 -4.71875q-1.15625 0.46875 -3.453125 0.796875q-1.296875 0.1875 -1.84375 0.421875q-0.53125 0.234375 -0.828125 0.6875q-0.28125 0.453125 -0.28125 1.0q0 0.84375 0.625 1.40625q0.640625 0.5625 1.875 0.5625q1.21875 0 2.171875 -0.53125q0.953125 -0.53125 1.390625 -1.453125q0.34375 -0.71875 0.34375 -2.109375l0 -0.78125zm5.3476562 6.25l0 -17.1875l2.109375 0l0 17.1875l-2.109375 0zm13.535156 0l0 -1.828125q-1.453125 2.109375 -3.9375 2.109375q-1.109375 0 -2.0625 -0.421875q-0.953125 -0.421875 -1.421875 -1.0625q-0.453125 -0.640625 -0.640625 -1.5625q-0.140625 -0.625 -0.140625 -1.96875l0 -7.71875l2.109375 0l0 6.90625q0 1.65625 0.140625 2.234375q0.1875 0.828125 0.828125 1.3125q0.65625 0.46875 1.609375 0.46875q0.9375 0 1.765625 -0.484375q0.84375 -0.5 1.1875 -1.328125q0.34375 -0.84375 0.34375 -2.4375l0 -6.671875l2.109375 0l0 12.453125l-1.890625 0zm13.722656 -4.015625l2.171875 0.28125q-0.515625 1.90625 -1.90625 2.96875q-1.390625 1.046875 -3.5625 1.046875q-2.734375 0 -4.34375 -1.671875q-1.59375 -1.6875 -1.59375 -4.734375q0 -3.140625 1.609375 -4.875q1.625 -1.734375 4.203125 -1.734375q2.5 0 4.078125 1.703125q1.59375 1.703125 1.59375 4.78125q0 0.1875 -0.015625 0.5625l-9.28125 0q0.109375 2.046875 1.15625 3.140625q1.046875 1.09375 2.609375 1.09375q1.15625 0 1.96875 -0.609375q0.828125 -0.609375 1.3125 -1.953125zm-6.9375 -3.40625l6.953125 0q-0.140625 -1.5625 -0.796875 -2.359375q-1.0 -1.21875 -2.609375 -1.21875q-1.453125 0 -2.453125 0.984375q-0.984375 0.96875 -1.09375 2.59375zm18.9375 7.421875l0 -10.8125l-1.875 0l0 -1.640625l1.875 0l0 -1.3125q0 -1.265625 0.21875 -1.875q0.296875 -0.8125 1.0625 -1.3125q0.78125 -0.515625 2.15625 -0.515625q0.890625 0 1.96875 0.203125l-0.3125 1.84375q-0.65625 -0.125 -1.25 -0.125q-0.953125 0 -1.359375 0.421875q-0.390625 0.40625 -0.390625 1.53125l0 1.140625l2.421875 0l0 1.640625l-2.421875 0l0 10.8125l-2.09375 0zm5.3710938 -6.21875q0 -3.46875 1.921875 -5.125q1.609375 -1.390625 3.921875 -1.390625q2.5625 0 4.1875 1.6875q1.625 1.6875 1.625 4.640625q0 2.40625 -0.71875 3.78125q-0.71875 1.375 -2.09375 2.140625q-1.375 0.765625 -3.0 0.765625q-2.625 0 -4.234375 -1.671875q-1.609375 -1.6875 -1.609375 -4.828125zm2.171875 0q0 2.390625 1.03125 3.578125q1.046875 1.1875 2.640625 1.1875q1.5625 0 2.609375 -1.1875q1.046875 -1.203125 1.046875 -3.65625q0 -2.3125 -1.0625 -3.5q-1.046875 -1.1875 -2.59375 -1.1875q-1.59375 0 -2.640625 1.1875q-1.03125 1.1875 -1.03125 3.578125zm11.941376 6.21875l0 -12.453125l1.890625 0l0 1.890625q0.734375 -1.328125 1.34375 -1.75q0.625 -0.421875 1.359375 -0.421875q1.0625 0 2.171875 0.6875l-0.734375 1.953125q-0.765625 -0.453125 -1.546875 -0.453125q-0.6875 0 -1.25 0.421875q-0.546875 0.40625 -0.78125 1.140625q-0.34375 1.125 -0.34375 2.46875l0 6.515625l-2.109375 0z" fill-rule="nonzero"/><path fill="#000000" d="m538.1781 430.28546q0.515625 0.515625 0.515625 1.0625q0 0.578125 -0.78125 2.015625q-0.25 0.734375 -0.5625 1.375q-0.296875 0.640625 -0.453125 0.828125l-0.734375 1.703125q-0.484375 1.046875 -1.1875 2.453125q-0.859375 1.796875 -1.21875 2.65625l-0.40625 0.671875q-1.609375 2.5625 -2.46875 3.59375q-1.765625 1.5625 -2.71875 1.828125q-0.421875 0.125 -1.0 0.125q-1.046875 0 -1.984375 -0.46875q-0.953125 -0.46875 -1.078125 -1.078125q-0.03125 -0.21875 0.15625 -0.484375q0.1875 -0.25 0.421875 -0.25q0.15625 0 0.25 0.140625q0.25 0.1875 0.75 0.359375q0.5 0.171875 1.078125 0.171875q0.21875 0 0.609375 -0.0625q0.640625 -0.125 1.34375 -0.765625q0.703125 -0.640625 1.28125 -1.40625q1.078125 -1.59375 2.328125 -4.0q-0.453125 -0.125 -0.875 -0.625q-0.40625 -0.5 -0.65625 -1.03125q-0.234375 -0.546875 -0.171875 -0.8125l0 -0.34375q-0.28125 0 -0.453125 -1.09375q-0.171875 -1.09375 -0.171875 -2.53125q0 -0.53125 0.0625 -1.375q0.125 -0.5 0.140625 -1.25q0.015625 -0.765625 0.015625 -0.984375l0 -0.125q0 -0.390625 0.078125 -0.546875q0.078125 -0.15625 0.265625 -0.296875q0.265625 -0.125 0.515625 -0.125q0.90625 0 0.90625 2.375q0 0.34375 -0.078125 1.375q-0.03125 0.453125 -0.03125 1.34375q0 1.65625 0.28125 2.9375q0.296875 1.28125 0.875 1.765625l0.1875 -0.453125q0.359375 -0.921875 0.546875 -1.171875q0.453125 -0.9375 0.515625 -1.1875q0.0625 -0.234375 0.34375 -0.734375l0.421875 -0.875q0.0625 -0.1875 0.40625 -1.21875q0.359375 -1.046875 0.71875 -1.6875q0.125 -0.25 0.375 -0.75q0.265625 -0.5 0.421875 -0.71875q0.15625 -0.234375 0.359375 -0.296875q0.25 -0.21875 0.40625 -0.21875q0.125 0 0.453125 0.1875z" fill-rule="nonzero"/><path fill="#3d85c6" d="m553.7061 430.4261q-0.1875 -0.1875 -0.328125 -0.640625q-0.125 -0.453125 0 -0.453125q0.21875 -0.03125 0.5 -0.46875q0.28125 -0.4375 0.25 -0.734375q0 -0.109375 0.078125 -0.203125q0.078125 -0.09375 0.1875 -0.109375q0.21875 -0.140625 0.375 -0.140625q0.453125 0 0.828125 0.640625q0.15625 0.34375 0.15625 0.609375q0 0.25 -0.140625 0.5q-0.125 0.25 -0.46875 0.65625q-0.453125 0.609375 -0.859375 0.609375q-0.265625 0 -0.578125 -0.265625zm-2.59375 10.8125q-0.375 -0.359375 -0.375 -1.0625q0 -0.375 0.140625 -0.640625q0 -0.125 0.046875 -0.3125q0.0625 -0.1875 0.0625 -0.25q-0.03125 -0.15625 0.203125 -0.875q0.484375 -1.0625 1.28125 -3.75q0 -0.140625 0.109375 -0.234375q0.109375 -0.09375 0.328125 -0.125q0.203125 -0.046875 0.28125 -0.046875q0.171875 0 0.28125 0.125q0.125 0.109375 0.34375 0.4375q0.15625 0.15625 0.15625 0.46875q0 0.515625 -0.34375 1.234375q-0.34375 0.765625 -0.453125 1.328125q-0.328125 0.71875 -0.515625 1.34375q-0.046875 0.15625 -0.15625 0.640625q-0.109375 0.46875 -0.296875 0.765625q-0.15625 0.75 -0.296875 1.046875q-0.125 0.28125 -0.28125 0.28125q-0.1875 0 -0.515625 -0.375zm5.312805 3.6875q-0.15625 0.109375 -0.34375 -0.046875q-0.1875 -0.140625 -0.59375 -0.59375q-0.15625 -0.15625 -0.21875 -0.3125q-0.046875 -0.140625 -0.046875 -0.375l0.046875 -0.671875q0.140625 -0.40625 0.140625 -0.9375q0 -0.203125 0.1875 -1.328125q0.1875 -1.140625 0.296875 -1.65625l0.078125 -0.3125q0.203125 -0.890625 0.3125 -1.625q0.21875 -0.671875 0.359375 -1.328125q0.15625 -0.65625 0.15625 -0.890625q0 -0.484375 0.375 -0.6875q0.015625 -0.21875 0.390625 -0.890625q0.640625 -1.8125 0.9375 -2.59375q0.3125 -0.78125 0.671875 -1.375q0.46875 -1.328125 0.765625 -1.671875q0.1875 -0.453125 1.015625 -1.328125q0.828125 -0.890625 1.46875 -1.421875q0.578125 -0.328125 0.9375 -0.40625q0.359375 -0.09375 0.890625 -0.09375q0.453125 0 0.625 0.09375q0.1875 0.078125 0.578125 0.453125q0.34375 0.40625 0.40625 0.546875q0.078125 0.125 0.078125 0.5q-0.109375 0.5625 -0.546875 1.4375q-0.421875 0.875 -0.625 0.90625q-0.078125 0.03125 -0.21875 0.03125q-0.390625 0 -0.390625 -0.671875q0 -0.15625 -0.09375 -0.3125q-0.078125 -0.171875 -0.09375 -0.21875q0 -0.40625 0.1875 -0.671875q0.078125 -0.15625 0.078125 -0.28125q0 -0.140625 -0.09375 -0.171875q-0.09375 -0.046875 -0.28125 0q-0.25 0.140625 -1.203125 0.953125q-0.9375 0.8125 -0.9375 0.96875q-0.015625 0.0625 -0.140625 0.296875q-0.125 0.21875 -0.359375 0.5q-0.484375 0.671875 -0.484375 0.828125q0 0.34375 -0.15625 0.34375q-0.03125 0.0625 -0.125 0.3125q-0.09375 0.25 -0.25 0.546875q-0.109375 0.234375 -0.265625 0.53125q-0.15625 0.296875 -0.265625 0.40625l0.03125 0q-0.078125 0.203125 -0.296875 0.78125q-0.21875 0.578125 -0.21875 0.65625q0 0.109375 0.375 0.109375q0.828125 0 1.890625 -0.296875q0.34375 -0.109375 0.515625 -0.109375q0.1875 0 0.53125 0.109375q0.296875 0.1875 0.46875 0.609375q0.1875 0.421875 0.09375 0.59375q-0.03125 0.09375 -0.578125 0.28125q-0.546875 0.1875 -1.140625 0.296875q-0.8125 0.1875 -1.359375 0.265625q-0.125 0.03125 -0.84375 0.171875q-0.703125 0.125 -0.703125 0.234375q-0.09375 0 -0.1875 0.109375q-0.078125 0.09375 -0.078125 0.203125q0 0.375 -0.09375 0.5625q-0.140625 0.40625 -0.484375 1.75q-0.328125 1.34375 -0.328125 1.65625q-0.203125 0.28125 -0.203125 0.96875q-0.15625 0.296875 -0.15625 0.671875q0 0.15625 -0.03125 0.265625q0 0.125 -0.0625 0.625q-0.046875 0.515625 -0.046875 0.9375l-0.078125 0.78125q-0.03125 0.3125 -0.09375 0.578125q-0.046875 0.265625 -0.171875 0.40625zm20.035828 -2.984375q-0.578125 -0.328125 -0.8125 -0.984375q-0.21875 -0.671875 -0.21875 -2.0625l0 -1.28125q-0.078125 0.09375 -0.328125 0.421875q-0.234375 0.328125 -0.578125 0.859375q-0.5625 1.046875 -1.171875 1.78125q-0.609375 0.734375 -0.9375 0.828125q-0.296875 0.109375 -0.953125 -0.109375q-0.640625 -0.234375 -0.75 -0.515625q-0.046875 -0.21875 -0.046875 -0.671875q0 -0.75 0.078125 -1.609375q0.09375 -0.875 0.265625 -1.140625q0 -0.046875 0.03125 -0.171875q0.046875 -0.125 -0.03125 -0.203125q0.1875 -0.609375 0.71875 -2.3125q0.53125 -1.703125 0.6875 -2.109375q0 -0.15625 0.0625 -0.421875q0.078125 -0.265625 0.078125 -0.375q0 -0.109375 0.078125 -0.25q0.078125 -0.15625 0.1875 -0.265625q0.125 -0.09375 0.3125 -0.09375q0.15625 0 0.34375 0.140625q0.1875 0.140625 0.25 0.203125q0.1875 0.15625 0.28125 0.328125q0.109375 0.15625 0.109375 0.3125q0 0.125 -0.109375 0.453125q-0.09375 0.3125 -0.28125 0.75q-0.375 0.796875 -0.734375 1.796875q-0.34375 1.0 -0.4375 1.46875q0 0.140625 -0.078125 0.34375q-0.0625 0.203125 -0.0625 0.296875q-0.109375 0.109375 -0.109375 0.40625q0 0.109375 -0.078125 0.375q-0.078125 0.265625 -0.078125 0.53125q-0.03125 0.078125 -0.03125 0.234375q0 0.375 0.296875 0.375q0.109375 0 0.171875 -0.015625q0.0625 -0.03125 0.125 -0.0625q0.078125 -0.078125 0.359375 -0.375q0.28125 -0.296875 0.46875 -0.5625q0.109375 -0.3125 0.296875 -0.484375q0.203125 -0.171875 0.203125 -0.421875q0 -0.09375 0.328125 -0.546875q0.34375 -0.453125 0.46875 -0.640625l0.703125 -1.234375q0.125 -0.296875 0.375 -0.5625q0.046875 -0.078125 0.203125 -0.296875q0.171875 -0.234375 0.265625 -0.5q0.03125 -0.046875 0.078125 -0.171875q0.0625 -0.140625 0.171875 -0.1875q0.109375 -0.046875 0.28125 -0.046875q0.359375 0 0.453125 0.0625q0.109375 0.046875 0.1875 0.34375q0.1875 0.1875 0.21875 0.359375q0.046875 0.171875 0.046875 0.421875q-0.078125 0.078125 -0.109375 0.21875q-0.015625 0.125 -0.015625 0.171875q-0.03125 0.15625 -0.125 0.53125q-0.09375 0.375 -0.25 0.71875q-0.21875 0.890625 -0.359375 1.90625q-0.125 1.0 -0.125 1.71875q0 0.90625 0.21875 0.90625q0.3125 0 1.625 -2.0q0.109375 -0.15625 0.546875 -0.671875q0.4375 -0.515625 0.59375 -0.875q0 -0.125 0.25 -0.609375q0.375 -0.71875 0.390625 -1.09375q-0.015625 -0.015625 0.296875 -0.53125q0.328125 -0.53125 0.53125 -1.03125q0.109375 -0.4375 0.40625 -0.703125q0.296875 -0.265625 0.578125 -0.265625q0.453125 0 0.375 0.53125q-0.203125 1.28125 -1.046875 3.171875q-0.84375 1.890625 -1.796875 3.390625q-0.21875 0.15625 -0.375 0.421875q-0.15625 0.265625 -0.15625 0.375q0 0.078125 -0.484375 0.46875q-0.484375 0.390625 -0.96875 0.703125q-0.390625 0.328125 -0.71875 0.328125q-0.203125 0 -0.640625 -0.1875zm9.890625 0.234375q-1.140625 0 -1.890625 -0.84375q-0.75 -0.859375 -0.75 -2.140625q0 -1.28125 0.578125 -2.8125q0.578125 -1.53125 1.484375 -2.75q0.90625 -1.234375 1.84375 -1.65625q0.53125 -0.296875 1.1875 -0.296875q0.515625 0 1.15625 0.296875q0.453125 0.1875 0.6875 0.453125q0.234375 0.265625 0.421875 0.828125q0.078125 0.46875 0.078125 0.65625q0 0.15625 -0.125 0.703125q-0.328125 0.984375 -0.84375 1.671875q-0.515625 0.671875 -1.34375 1.140625q-0.421875 0.28125 -1.0625 0.28125q-0.5625 0 -1.0625 -0.203125q-0.484375 -0.203125 -0.75 -0.609375l-0.1875 -0.203125l-0.078125 0.203125q-0.5625 1.4375 -0.5625 2.453125q0 0.703125 0.265625 1.125q0.1875 0.296875 0.90625 0.296875q0.53125 0 0.765625 -0.109375q0.40625 -0.140625 0.703125 -0.328125q0.3125 -0.203125 0.609375 -0.421875l0.109375 -0.046875l-0.03125 0q0.328125 -0.171875 0.53125 -0.296875q0.21875 -0.140625 0.296875 -0.1875q0.046875 0 0.09375 -0.015625q0.0625 -0.03125 0.125 -0.125q0.234375 -0.09375 0.546875 0.09375q0.328125 0.1875 0.328125 0.46875q-0.046875 0.21875 -0.484375 0.703125q-0.421875 0.46875 -0.640625 0.5q-0.015625 0 -0.1875 0.078125q-0.15625 0.078125 -0.203125 0.140625l0.015625 0q-0.234375 0.3125 -0.46875 0.3125l-0.21875 0q-0.109375 0.21875 -0.71875 0.4375q-0.59375 0.203125 -1.125 0.203125zm1.203125 -5.859375q0.796875 0 1.46875 -0.90625q0.640625 -0.859375 0.640625 -1.703125q0 -0.453125 -0.1875 -0.640625q-0.15625 -0.078125 -0.296875 -0.078125q-0.125 0 -0.453125 0.078125q-0.34375 0.078125 -1.0625 0.734375q-0.71875 0.640625 -1.0625 1.15625l-0.34375 0.5625q0.203125 -0.078125 0.40625 -0.09375q0.203125 -0.015625 0.21875 0.03125q0 0.375 0.1875 0.625q0.1875 0.234375 0.484375 0.234375zm14.051575 5.625q-0.328125 0.015625 -0.53125 -0.046875q-0.1875 -0.0625 -0.5625 -0.296875q-1.140625 -0.9375 -1.125 -1.84375q0.03125 -0.078125 0.03125 -0.234375q0 -0.171875 -0.03125 -0.265625q-0.015625 -0.09375 -0.015625 -0.109375q-0.109375 -0.078125 -0.125 -0.125q-0.015625 -0.046875 0.015625 -0.09375q0.046875 -0.046875 0.078125 -0.109375q0.109375 -0.03125 0.109375 -0.109375q0 -0.078125 -0.0625 -0.1875q-0.078125 -0.203125 0.09375 -0.953125q0.171875 -0.765625 0.46875 -1.4375q0.21875 -0.515625 0.671875 -1.3125q0.46875 -0.796875 0.875 -1.21875q0.5625 -0.640625 1.03125 -0.984375q0.46875 -0.359375 1.078125 -0.5625q0.5625 -0.25 0.765625 -0.25q0.265625 0 0.671875 0.328125q0.640625 0.1875 0.96875 0.53125q0.34375 0.328125 0.53125 1.015625q0.15625 0.5625 0.15625 1.25q0 1.5 -0.9375 3.28125q-0.484375 0.953125 -0.9375 1.484375q-0.453125 0.515625 -1.25 1.203125q-0.5625 0.453125 -0.984375 0.703125q-0.40625 0.234375 -0.984375 0.34375zm2.125 -3.171875q0.5625 -0.828125 0.859375 -1.5q0.296875 -0.6875 0.484375 -1.703125q0.015625 -0.109375 0.015625 -0.421875q0 -0.53125 -0.109375 -1.015625q-0.09375 -0.484375 -0.25 -0.515625q-0.21875 -0.078125 -0.40625 -0.078125q-0.609375 0 -1.3125 0.71875q-0.640625 0.75 -1.109375 1.8125q-0.453125 1.046875 -0.90625 2.5625q-0.140625 0.53125 -0.140625 0.859375q0 0.484375 0.1875 0.765625q0.1875 0.265625 0.53125 0.265625q0.421875 0 0.984375 -0.4375q0.5625 -0.4375 1.171875 -1.3125zm14.487732 -4.671875q0.125 0.328125 0.125 0.5625q0 0.609375 -0.6875 1.953125q-0.453125 0.8125 -1.046875 1.578125q-0.578125 0.765625 -1.109375 1.265625q-0.1875 0.109375 -0.46875 0.359375q-0.28125 0.234375 -0.5 0.5q-0.609375 0.5625 -1.484375 0.875q-0.859375 0.296875 -1.6875 0.296875q-0.640625 0 -1.09375 -0.1875q-0.453125 -0.1875 -0.609375 -0.5625q0 -0.15625 -0.046875 -0.34375q-0.03125 -0.1875 -0.015625 -0.265625q-0.609375 -0.0625 -0.625 -0.21875q0.015625 -0.796875 0.171875 -1.09375q0 -0.125 0.21875 -0.71875q0.15625 -0.421875 0.21875 -0.671875q0.046875 -0.203125 0.234375 -1.203125q0.1875 -1.0 0.5625 -1.875q0.6875 -2.453125 1.140625 -3.5q0.34375 -1.328125 0.65625 -2.09375q0.3125 -0.78125 0.8125 -1.875l0.40625 -0.828125q0.078125 -0.15625 0.390625 -1.125q0.0625 -0.125 0.21875 -0.21875q0.15625 -0.09375 0.34375 -0.09375q0.296875 0 0.53125 0.234375q0.328125 0.328125 0.328125 0.59375q0 0.265625 -0.4375 1.28125l-0.390625 0.953125q-0.21875 0.265625 -0.484375 1.015625q-0.265625 0.75 -0.34375 0.984375q-0.609375 1.46875 -1.09375 2.953125q-0.34375 1.4375 -0.796875 2.890625l0.75 -0.8125q0.953125 -0.8125 2.171875 -1.4375q1.234375 -0.640625 1.953125 -0.640625q0.15625 0 0.328125 0.0625q0.34375 0.109375 0.796875 0.578125q0.46875 0.453125 0.5625 0.828125zm-2.5625 2.859375q0.453125 -0.59375 0.8125 -1.390625q0.359375 -0.796875 0.359375 -1.25q0 -0.25 -0.140625 -0.25q-0.125 0 -0.9375 0.328125q-0.796875 0.3125 -0.984375 0.5q0 0.078125 -0.140625 0.15625q-0.125 0.0625 -0.171875 0.09375q-1.5 1.109375 -2.109375 1.890625q-0.53125 0.71875 -1.40625 2.078125q-0.265625 0.53125 -0.71875 0.9375l0.390625 0.015625q0.890625 -0.09375 1.4375 -0.265625q0.546875 -0.1875 1.265625 -0.640625q1.546875 -1.1875 2.34375 -2.203125zm5.892273 5.25q-0.484375 -0.1875 -0.9375 -0.546875q-0.453125 -0.359375 -0.609375 -0.625q0 -0.0625 0 -0.1875q0 -0.140625 0.078125 -0.171875q0.078125 -0.046875 0.296875 -0.046875q0.453125 0 1.4375 0.109375q0.578125 0 1.328125 -0.140625q0.75 -0.15625 0.828125 -0.34375q0.078125 0 0.078125 -0.015625q0 -0.0625 -0.21875 -0.265625q-0.046875 0 -0.234375 -0.09375q-0.1875 -0.09375 -0.234375 -0.09375q0 -0.109375 -0.25 -0.28125q-0.234375 -0.171875 -0.53125 -0.3125q-0.765625 -0.640625 -1.09375 -0.9375q-0.3125 -0.3125 -0.234375 -0.453125l0 -0.125q-0.1875 0 -0.421875 -0.515625q-0.21875 -0.53125 -0.21875 -0.984375q0 -0.46875 0.40625 -1.328125q0.421875 -0.859375 0.953125 -1.390625q0.75 -0.6875 1.9375 -1.453125q1.1875 -0.78125 1.875 -1.0q0.453125 -0.1875 0.90625 -0.1875q0.421875 0 0.71875 0.1875q0.34375 0.21875 0.671875 0.625q0.34375 0.390625 0.453125 0.71875q0 0.578125 -0.125 1.125q-0.125 0.546875 -0.359375 0.546875q-0.03125 0 -0.09375 0.03125q-0.046875 0.015625 -0.046875 0.125q0 0.109375 -0.109375 0.28125q-0.09375 0.171875 -0.28125 0.34375q-0.59375 0.421875 -0.96875 0.421875q-0.28125 0 -0.359375 -0.296875q-0.0625 -0.046875 -0.125 -0.15625q-0.046875 -0.109375 -0.125 -0.109375q-0.03125 0 -0.09375 -0.09375q-0.0625 -0.09375 -0.0625 -0.25q0 -0.078125 0.0625 -0.171875q0.0625 -0.09375 0.09375 -0.125q0.15625 0 0.53125 -0.625q0.375 -0.625 0.375 -0.84375q0 -0.15625 -0.046875 -0.171875q-0.03125 -0.03125 -0.25 -0.03125q-2.078125 0.921875 -2.578125 1.40625q-0.078125 0.15625 -0.125 0.21875q-0.03125 0.046875 -0.140625 0.046875q0 -0.234375 -1.421875 1.8125q-0.046875 0.0625 -0.125 0.328125q-0.0625 0.265625 -0.0625 0.453125q-0.046875 0.203125 -0.046875 0.234375q0 0.109375 0.09375 0.21875q0.09375 0.09375 0.25 0.21875q0.15625 0.125 0.328125 0.25q1.375 1.046875 1.921875 1.5625q0.546875 0.515625 0.65625 0.875q0.34375 0.53125 0.34375 0.953125q0 0.3125 -0.234375 0.5625q-0.234375 0.234375 -0.71875 0.453125q-0.296875 0.125 -1.0 0.21875q-0.6875 0.09375 -1.34375 0.09375q-0.375 0 -0.796875 -0.046875zm12.152283 -1.046875q-0.671875 0.59375 -1.609375 0.59375q-0.65625 0 -1.265625 -0.3125q-0.59375 -0.328125 -1.0 -0.890625q-0.34375 -0.421875 -0.5 -0.953125q-0.15625 -0.53125 -0.15625 -1.3125q0 -0.265625 0.046875 -1.0625q0.078125 -0.984375 0.65625 -2.046875q0.578125 -1.078125 1.421875 -1.90625q0.859375 -0.84375 1.6875 -1.171875q0.421875 -0.265625 0.765625 -0.265625q0.1875 0 0.375 0.03125q0.1875 0.03125 0.40625 0.046875q0.578125 0.078125 0.890625 0.234375q0.3125 0.140625 0.515625 0.4375q0.671875 0.671875 0.671875 1.546875q-0.109375 0.640625 -0.828125 1.46875q-0.71875 0.828125 -1.734375 1.328125q-0.484375 0.15625 -1.09375 0.15625q-0.828125 0 -1.328125 -0.34375q-0.25 -0.078125 -0.375 -0.078125q-0.234375 0 -0.359375 0.328125q-0.125 0.3125 -0.234375 1.171875q-0.015625 0.171875 -0.015625 0.53125q0 1.359375 0.90625 1.484375q0.609375 0.140625 0.875 0.140625q0.3125 0 0.71875 -0.21875l0.5 -0.296875q0.171875 -0.078125 0.296875 -0.203125q0.140625 -0.140625 0.25 -0.25q0.046875 -0.046875 0.15625 -0.15625q0.109375 -0.125 0.203125 -0.171875q0.09375 -0.046875 0.171875 -0.046875q0.109375 0 0.234375 0.125q0.140625 0.125 0.21875 0.171875q0.234375 0 0.09375 0.34375q-0.125 0.328125 -0.5625 0.765625q-0.4375 0.4375 -1.0 0.78125zm-0.03125 -5.640625q0.453125 -0.1875 0.921875 -0.671875q0.46875 -0.484375 0.46875 -0.796875q0 -0.328125 -0.25 -0.53125q-0.234375 -0.21875 -0.65625 -0.21875q-0.328125 0 -0.484375 0.046875q-0.375 0.109375 -0.890625 0.578125q-0.5 0.46875 -0.875 0.953125q-0.359375 0.46875 -0.28125 0.5625q0.125 0.234375 1.03125 0.234375q0.625 0 1.015625 -0.15625zm5.569519 5.75q-0.15625 0 -0.453125 -0.109375q-0.296875 -0.109375 -0.375 -0.1875q-0.265625 -0.265625 -0.265625 -0.609375q0 -0.578125 0.59375 -1.40625q0.15625 -0.328125 0.796875 -2.21875l0.53125 -1.46875q0.0625 -0.453125 -0.046875 -0.640625q-0.109375 -0.203125 -0.453125 -0.234375l-0.171875 0q-0.234375 0 -0.3125 -0.09375q-0.078125 -0.09375 -0.078125 -0.5q0.03125 -0.3125 0.15625 -0.46875q0.140625 -0.171875 0.453125 -0.375q0.421875 -0.21875 0.875 -0.21875q0.4375 0 0.640625 0.1875q0.171875 0.109375 0.234375 0.46875q0.0625 0.359375 0.078125 0.75q0.015625 0.375 0.046875 0.546875q0.125 -0.140625 0.640625 -0.546875q0.53125 -0.421875 0.90625 -0.796875q0.453125 -0.3125 1.03125 -0.609375q0.59375 -0.296875 0.828125 -0.296875q0.296875 0 0.578125 0.15625q0.296875 0.140625 0.40625 0.359375q0.234375 0.421875 0.234375 0.765625q0 0.375 -0.28125 0.75q-0.25 0.296875 -0.625 0.453125q-0.359375 0.15625 -0.53125 0.15625q-0.15625 0 -0.40625 -0.234375q-0.234375 -0.234375 -0.25 -0.40625q0 -0.09375 -0.6875 0.421875q-0.671875 0.515625 -1.046875 0.890625q-0.4375 0.5 -0.875 1.328125q-0.4375 0.828125 -1.28125 2.515625q-0.09375 0.1875 -0.375 0.90625q-0.140625 0.421875 -0.25 0.59375q-0.109375 0.171875 -0.265625 0.171875zm10.799316 -0.03125q-0.21875 0.03125 -0.59375 -0.21875q-0.359375 -0.25 -0.71875 -0.625q-0.28125 -0.40625 -0.46875 -1.46875q-0.1875 -1.0625 -0.1875 -2.109375q0.015625 -0.84375 0.21875 -2.0625q0.203125 -1.21875 0.34375 -1.859375q0.390625 -0.453125 0.734375 -0.453125q0.296875 0 0.484375 0.328125q0.375 0.1875 0.375 0.609375q0 0.328125 -0.265625 0.90625q0 0.140625 -0.078125 0.40625q-0.0625 0.265625 -0.078125 0.375q-0.21875 0.375 -0.25 0.65625q0 0.1875 0.03125 0.375q0.046875 0.1875 0.046875 0.40625q0 0.3125 -0.125 0.46875l0 -0.015625q-0.03125 0.109375 -0.03125 0.453125q0 0.5 0.078125 1.0q0.078125 0.484375 0.21875 0.703125q0 0.21875 0.234375 0.21875q0.265625 0 0.703125 -0.359375q0.65625 -0.65625 1.515625 -1.796875q0.859375 -1.15625 0.75 -1.34375q-0.03125 -0.03125 -0.03125 -0.109375q0 -0.15625 0.21875 -0.296875q0.234375 -0.15625 0.3125 -0.234375q0.078125 -0.109375 0.15625 -0.34375q0.078125 -0.234375 0.140625 -0.34375q0.125 -0.140625 0.21875 -0.375l-0.03125 -0.078125q0 -0.140625 0.1875 -0.3125q0.1875 -0.171875 0.203125 -0.25q0.09375 -0.453125 0.453125 -0.453125q0.21875 0 0.390625 0.171875q0.171875 0.171875 0.203125 0.4375q0 0.484375 -0.484375 1.5625q-0.46875 1.078125 -1.0625 1.9375q-0.109375 0.1875 -0.359375 0.609375q-0.234375 0.421875 -0.96875 1.390625q-0.171875 0.15625 -0.421875 0.421875q-0.25 0.265625 -0.4375 0.421875q-0.578125 0.671875 -0.9375 0.953125q-0.34375 0.28125 -0.6875 0.296875zm8.604431 0.9375q-1.140625 0 -1.890625 -0.84375q-0.75 -0.859375 -0.75 -2.140625q0 -1.28125 0.578125 -2.8125q0.578125 -1.53125 1.484375 -2.75q0.90625 -1.234375 1.84375 -1.65625q0.53125 -0.296875 1.1875 -0.296875q0.515625 0 1.15625 0.296875q0.453125 0.1875 0.6875 0.453125q0.234375 0.265625 0.421875 0.828125q0.078125 0.46875 0.078125 0.65625q0 0.15625 -0.125 0.703125q-0.328125 0.984375 -0.84375 1.671875q-0.515625 0.671875 -1.34375 1.140625q-0.421875 0.28125 -1.0625 0.28125q-0.5625 0 -1.0625 -0.203125q-0.484375 -0.203125 -0.75 -0.609375l-0.1875 -0.203125l-0.078125 0.203125q-0.5625 1.4375 -0.5625 2.453125q0 0.703125 0.265625 1.125q0.1875 0.296875 0.90625 0.296875q0.53125 0 0.765625 -0.109375q0.40625 -0.140625 0.703125 -0.328125q0.3125 -0.203125 0.609375 -0.421875l0.109375 -0.046875l-0.03125 0q0.328125 -0.171875 0.53125 -0.296875q0.21875 -0.140625 0.296875 -0.1875q0.046875 0 0.09375 -0.015625q0.0625 -0.03125 0.125 -0.125q0.234375 -0.09375 0.546875 0.09375q0.328125 0.1875 0.328125 0.46875q-0.046875 0.21875 -0.484375 0.703125q-0.421875 0.46875 -0.640625 0.5q-0.015625 0 -0.1875 0.078125q-0.15625 0.078125 -0.203125 0.140625l0.015625 0q-0.234375 0.3125 -0.46875 0.3125l-0.21875 0q-0.109375 0.21875 -0.71875 0.4375q-0.59375 0.203125 -1.125 0.203125zm1.203125 -5.859375q0.796875 0 1.46875 -0.90625q0.640625 -0.859375 0.640625 -1.703125q0 -0.453125 -0.1875 -0.640625q-0.15625 -0.078125 -0.296875 -0.078125q-0.125 0 -0.453125 0.078125q-0.34375 0.078125 -1.0625 0.734375q-0.71875 0.640625 -1.0625 1.15625l-0.34375 0.5625q0.203125 -0.078125 0.40625 -0.09375q0.203125 -0.015625 0.21875 0.03125q0 0.375 0.1875 0.625q0.1875 0.234375 0.484375 0.234375zm19.114075 5.703125q-0.421875 0 -0.5625 -0.15625q-0.15625 0 -0.390625 -0.078125q-0.21875 -0.09375 -0.453125 -0.1875q-0.5625 -0.25 -1.640625 -1.171875q-1.0625 -0.9375 -1.0625 -1.265625q0 -0.078125 -0.03125 -0.09375q-0.015625 -0.03125 -0.09375 -0.03125q-0.03125 -0.03125 -0.09375 -0.109375q-0.0625 -0.078125 -0.0625 -0.1875q0 -0.109375 -0.09375 -0.1875q-0.078125 -0.078125 -0.1875 -0.078125q-0.125 0.109375 -0.5625 0.46875q-0.421875 0.359375 -0.875 0.8125q-0.84375 0.84375 -1.171875 1.125q-0.3125 0.28125 -0.5 0.28125q-0.328125 0 -0.734375 -0.328125q-0.40625 -0.328125 -0.40625 -0.65625q0.125 -0.1875 0.671875 -0.75q0.546875 -0.578125 1.15625 -1.109375l1.703125 -1.6875l-0.28125 -1.015625q-0.484375 -1.03125 -0.703125 -1.671875q-0.15625 -0.21875 -0.25 -0.359375q-0.09375 -0.140625 -0.09375 -0.25q0 -0.109375 0.21875 -0.40625q0.296875 -0.296875 0.453125 -0.296875q0.125 0 0.375 0.171875q0.203125 0 0.671875 0.890625q0.46875 0.890625 0.46875 1.234375q0 0.34375 0.234375 0.34375q0.265625 0 1.046875 -0.5q0.296875 -0.265625 0.46875 -0.453125q0.171875 -0.1875 0.21875 -0.25q0.328125 -0.234375 1.0 -0.703125q0.6875 -0.484375 0.875 -0.5625q0.125 -0.09375 0.203125 -0.09375q0.328125 0 0.609375 0.359375q0.296875 0.34375 0.296875 0.71875q0 0.3125 -0.15625 0.5q-0.15625 0.1875 -0.6875 0.484375q-0.140625 0.109375 -0.828125 0.625q-0.6875 0.5 -1.734375 1.375l-0.6875 0.5625l0.421875 0.71875q0.421875 0.84375 0.6875 0.984375q0.21875 0.296875 1.046875 0.9375q0.84375 0.625 0.953125 0.625q0.078125 0 0.25 0.109375q0.1875 0.109375 0.3125 0.171875q0.328125 0.3125 0.328125 0.71875q0 0.421875 -0.328125 0.421875z" fill-rule="nonzero"/><path fill="#000000" d="m689.02075 437.8636q-0.015625 -0.421875 -0.015625 -0.625q0 -1.25 0.359375 -2.15625q0.25 -0.671875 0.828125 -1.359375q0.421875 -0.515625 1.515625 -1.46875q1.09375 -0.96875 1.421875 -1.546875q0.328125 -0.578125 0.328125 -1.25q0 -1.234375 -0.96875 -2.15625q-0.953125 -0.9375 -2.34375 -0.9375q-1.34375 0 -2.25 0.84375q-0.90625 0.84375 -1.1875 2.625l-2.15625 -0.25q0.28125 -2.40625 1.734375 -3.671875q1.453125 -1.28125 3.828125 -1.28125q2.515625 0 4.015625 1.375q1.5 1.359375 1.5 3.3125q0 1.125 -0.53125 2.078125q-0.515625 0.9375 -2.0625 2.296875q-1.03125 0.921875 -1.34375 1.359375q-0.3125 0.421875 -0.46875 0.984375q-0.15625 0.5625 -0.171875 1.828125l-2.03125 0zm-0.125 4.234375l0 -2.40625l2.40625 0l0 2.40625l-2.40625 0z" fill-rule="nonzero"/><path fill="#000000" fill-opacity="0.0" d="m208.21779 40.313694l0 361.82678" fill-rule="evenodd"/><path stroke="#3d85c6" stroke-width="3.0" stroke-linejoin="round" stroke-linecap="butt" d="m208.21779 40.313694l0 361.82678" fill-rule="evenodd"/><path fill="#000000" fill-opacity="0.0" d="m78.780785 -16.324436l59.84252 0l0 64.34645l-59.84252 0z" fill-rule="evenodd"/><path fill="#000000" d="m103.468285 16.309937q0.625 0.640625 0.625 1.328125q0 0.71875 -0.953125 2.515625q-0.3125 0.921875 -0.703125 1.71875q-0.375 0.796875 -0.578125 1.046875l-0.921875 2.109375q-0.59375 1.328125 -1.46875 3.09375q-1.09375 2.234375 -1.53125 3.3125l-0.515625 0.84375q-2.0 3.203125 -3.078125 4.484375q-2.203125 1.953125 -3.40625 2.265625q-0.515625 0.171875 -1.234375 0.171875q-1.328125 0 -2.5 -0.59375q-1.1875 -0.578125 -1.34375 -1.328125q-0.03125 -0.28125 0.203125 -0.609375q0.234375 -0.3125 0.515625 -0.3125q0.203125 0 0.328125 0.15625q0.3125 0.25 0.9375 0.46875q0.625 0.21875 1.34375 0.21875q0.28125 0 0.75 -0.078125q0.796875 -0.171875 1.671875 -0.96875q0.890625 -0.796875 1.609375 -1.765625q1.359375 -2.0 2.921875 -5.0q-0.5625 -0.15625 -1.078125 -0.765625q-0.515625 -0.625 -0.828125 -1.296875q-0.296875 -0.6875 -0.21875 -1.015625l0 -0.4375q-0.359375 0 -0.578125 -1.359375q-0.21875 -1.359375 -0.21875 -3.15625q0 -0.6875 0.078125 -1.71875q0.171875 -0.640625 0.1875 -1.578125q0.015625 -0.9375 0.015625 -1.21875l0 -0.171875q0 -0.46875 0.09375 -0.67187595q0.109375 -0.203125 0.34375 -0.359375q0.328125 -0.15625 0.640625 -0.15625q1.125 0 1.125 2.953126q0 0.4375 -0.078125 1.71875q-0.046875 0.5625 -0.046875 1.6875q0 2.078125 0.359375 3.6875q0.359375 1.59375 1.078125 2.1875l0.25 -0.5625q0.4375 -1.15625 0.671875 -1.484375q0.5625 -1.15625 0.640625 -1.46875q0.078125 -0.28125 0.4375 -0.921875l0.53125 -1.078125q0.078125 -0.25 0.515625 -1.546875q0.4375 -1.296875 0.875 -2.09375q0.15625 -0.328125 0.46875 -0.9375q0.328125 -0.625 0.53125 -0.90625q0.203125 -0.28125 0.4375 -0.359375q0.328125 -0.28125 0.53125 -0.28125q0.15625 0 0.5625 0.234375z" fill-rule="nonzero"/></g></svg>