<?xml version="1.0" encoding="UTF-8" standalone="no"?>
<!-- Created with Inkscape (http://www.inkscape.org/) -->

<svg
   xmlns:ns0="http://www.iki.fi/pav/software/textext/"
   xmlns:dc="http://purl.org/dc/elements/1.1/"
   xmlns:cc="http://creativecommons.org/ns#"
   xmlns:rdf="http://www.w3.org/1999/02/22-rdf-syntax-ns#"
   xmlns:svg="http://www.w3.org/2000/svg"
   xmlns="http://www.w3.org/2000/svg"
   xmlns:xlink="http://www.w3.org/1999/xlink"
   xmlns:sodipodi="http://sodipodi.sourceforge.net/DTD/sodipodi-0.dtd"
   xmlns:inkscape="http://www.inkscape.org/namespaces/inkscape"
   width="210mm"
   height="297mm"
   id="svg2"
   version="1.1"
   inkscape:version="0.92.3 (2405546, 2018-03-11)"
   sodipodi:docname="overview.svg">
  <sodipodi:namedview
     id="base"
     pagecolor="#ffffff"
     bordercolor="#666666"
     borderopacity="1.0"
     inkscape:pageopacity="0.0"
     inkscape:pageshadow="2"
     inkscape:zoom="0.98994949"
     inkscape:cx="303.904"
     inkscape:cy="873.01827"
     inkscape:document-units="px"
     inkscape:current-layer="layer1"
     showgrid="false"
     inkscape:window-width="1863"
     inkscape:window-height="1025"
     inkscape:window-x="57"
     inkscape:window-y="27"
     inkscape:window-maximized="1"
     showguides="true"
     inkscape:guide-bbox="true" />
  <defs
     id="defs4">
    <marker
       inkscape:stockid="Arrow1Send"
       orient="auto"
       refY="0.0"
       refX="0.0"
       id="Arrow1Send"
       style="overflow:visible;">
      <path
         id="path3952"
         d="M 0.0,0.0 L 5.0,-5.0 L -12.5,0.0 L 5.0,5.0 L 0.0,0.0 z "
         style="fill-rule:evenodd;stroke:#000000;stroke-width:1.0pt;"
         transform="scale(0.2) rotate(180) translate(6,0)" />
    </marker>
    <marker
       inkscape:stockid="TriangleOutS"
       orient="auto"
       refY="0.0"
       refX="0.0"
       id="TriangleOutS"
       style="overflow:visible">
      <path
         id="path4085"
         d="M 5.77,0.0 L -2.88,5.0 L -2.88,-5.0 L 5.77,0.0 z "
         style="fill-rule:evenodd;stroke:#000000;stroke-width:1.0pt"
         transform="scale(0.2)" />
    </marker>
    <marker
       inkscape:stockid="TriangleOutS"
       orient="auto"
       refY="0"
       refX="0"
       id="TriangleOutS-7"
       style="overflow:visible">
      <path
         inkscape:connector-curvature="0"
         id="path4085-8"
         d="m 5.77,0 -8.65,5 0,-10 8.65,5 z"
         style="fill-rule:evenodd;stroke:#000000;stroke-width:1pt"
         transform="scale(0.2,0.2)" />
    </marker>
  </defs>
  <metadata
     id="metadata7">
    <rdf:RDF>
      <cc:Work
         rdf:about="">
        <dc:format>image/svg+xml</dc:format>
        <dc:type
           rdf:resource="http://purl.org/dc/dcmitype/StillImage" />
        <dc:title></dc:title>
      </cc:Work>
    </rdf:RDF>
  </metadata>
  <g
     inkscape:label="Calque 1"
     inkscape:groupmode="layer"
     id="layer1">
    <rect
       style="fill:#ffd1aa;fill-opacity:1;stroke:#000000;stroke-width:2.14766598;stroke-miterlimit:4;stroke-dasharray:6.44299713, 2.14766571;stroke-dashoffset:0;stroke-opacity:1"
       id="rect6833"
       width="232.05923"
       height="77.760765"
       x="9.3178577"
       y="104.58884" />
    <path
       style="opacity:0.56989249;fill:none;stroke:#000000;stroke-width:19.97994995;stroke-linecap:butt;stroke-linejoin:miter;stroke-miterlimit:4;stroke-dasharray:none;stroke-opacity:1;marker-end:url(#TriangleOutS)"
       d="M 331.68912,131.9839 C 436.32647,16.646382 542.24286,115.03752 542.24286,115.03752"
       id="path3931"
       inkscape:connector-curvature="0"
       sodipodi:nodetypes="cc" />
    <rect
       style="fill:#ffeeaa;fill-opacity:1;stroke:#000000;stroke-width:2.4531436;stroke-miterlimit:4;stroke-dasharray:none;stroke-dashoffset:0;stroke-opacity:1"
       id="rect4935"
       width="102.4277"
       height="95.8405"
       x="393.60745"
       y="43.469849" />
    <text
       xml:space="preserve"
       style="font-style:normal;font-weight:normal;font-size:11.9879694px;line-height:0%;font-family:sans-serif;letter-spacing:0px;word-spacing:0px;fill:#000000;fill-opacity:1;stroke:none;stroke-width:0.99899751"
       x="412.25626"
       y="61.109512"
       id="text4931"><tspan
         sodipodi:role="line"
         id="tspan4933"
         x="412.25626"
         y="61.109512"
         style="font-size:17.98195267px;line-height:1.25;font-family:sans-serif;stroke-width:0.99899751">mixing</tspan></text>
    <ellipse
       style="fill:#ffeeaa;fill-opacity:1;stroke:#000000;stroke-width:1.14457989;stroke-miterlimit:4;stroke-dasharray:none;stroke-dashoffset:0;stroke-opacity:1"
       id="path2985"
       cx="303.01077"
       cy="186.5006"
       rx="51.097317"
       ry="48.235874" />
    <text
       xml:space="preserve"
       style="font-style:normal;font-weight:normal;font-size:11.9879694px;line-height:0%;font-family:sans-serif;letter-spacing:0px;word-spacing:0px;fill:#000000;fill-opacity:1;stroke:none;stroke-width:0.99899751"
       x="267.82974"
       y="168.28535"
       id="text3903"><tspan
         sodipodi:role="line"
         id="tspan3905"
         x="267.82974"
         y="168.28535"
         style="font-size:17.98195267px;line-height:1.25;font-family:sans-serif;stroke-width:0.99899751">sources</tspan></text>
    <path
       style="opacity:0.56989249;fill:none;stroke:#000000;stroke-width:19.97994995;stroke-linecap:butt;stroke-linejoin:miter;stroke-miterlimit:4;stroke-dasharray:none;stroke-opacity:1;marker-end:url(#TriangleOutS)"
       d="M 557.35826,237.92462 C 452.72091,353.26212 346.80452,254.871 346.80452,254.871"
       id="path3931-0"
       inkscape:connector-curvature="0"
       sodipodi:nodetypes="cc" />
    <rect
       style="fill:#ffeeaa;fill-opacity:1;stroke:#000000;stroke-width:2.4531436;stroke-miterlimit:4;stroke-dasharray:none;stroke-dashoffset:0;stroke-opacity:1"
       id="rect4935-3"
       width="102.4277"
       height="95.8405"
       x="396.07352"
       y="254.60678" />
    <text
       xml:space="preserve"
       style="font-style:normal;font-weight:normal;font-size:11.9879694px;line-height:0%;font-family:sans-serif;letter-spacing:0px;word-spacing:0px;fill:#000000;fill-opacity:1;stroke:none;stroke-width:0.99899751"
       x="400.89719"
       y="276.50421"
       id="text4931-2"><tspan
         sodipodi:role="line"
         id="tspan4933-7"
         x="400.89719"
         y="276.50421"
         style="font-size:17.98195267px;line-height:1.25;font-family:sans-serif;stroke-width:0.99899751">separation</tspan></text>
    <ellipse
       style="fill:#ffeeaa;fill-opacity:1;stroke:#000000;stroke-width:1.14457989;stroke-miterlimit:4;stroke-dasharray:none;stroke-dashoffset:0;stroke-opacity:1"
       id="path2985-3"
       cx="599.84851"
       cy="186.5006"
       rx="51.097317"
       ry="48.235874" />
    <text
       xml:space="preserve"
       style="font-style:normal;font-weight:normal;font-size:11.9879694px;line-height:0%;font-family:sans-serif;letter-spacing:0px;word-spacing:0px;fill:#000000;fill-opacity:1;stroke:none;stroke-width:0.99899751"
       x="559.46344"
       y="189.14186"
       id="text3903-1"><tspan
         sodipodi:role="line"
         id="tspan3905-5"
         x="559.46344"
         y="189.14186"
         style="font-size:17.98195267px;line-height:1.25;font-family:sans-serif;stroke-width:0.99899751">mixtures</tspan></text>
    <g
       transform="matrix(1.9979949,0,0,1.9979949,-176.62825,-67.765239)"
       ns0:text="$p\\left(s\\mid \\Theta \\right)$"
       ns0:preamble="/home/antoine/Documents/antoine/presentation-these/figures/preambulemathbb.txt"
       id="g5032">
      <defs
         id="defs5034">
        <g
           id="g5036">
          <symbol
             style="overflow:visible"
             overflow="visible"
             id="textext-117b4186-0">
            <path
               inkscape:connector-curvature="0"
               style="stroke:none"
               d=""
               id="path5039" />
          </symbol>
          <symbol
             style="overflow:visible"
             overflow="visible"
             id="textext-117b4186-1">
            <path
               inkscape:connector-curvature="0"
               style="stroke:none"
               d="M 0.453125,1.21875 C 0.375,1.5625 0.34375,1.625 -0.09375,1.625 c -0.109375,0 -0.21875,0 -0.21875,0.1875 0,0.078125 0.046875,0.125 0.125,0.125 0.265625,0 0.5625,-0.03125 0.828125,-0.03125 0.34375,0 0.671875,0.03125 1,0.03125 0.046875,0 0.171875,0 0.171875,-0.203125 C 1.8125,1.625 1.71875,1.625 1.578125,1.625 c -0.5,0 -0.5,-0.0625 -0.5,-0.15625 0,-0.125 0.421875,-1.75 0.484375,-2 0.125,0.296875 0.40625,0.640625 0.921875,0.640625 1.15625,0 2.40625,-1.453125 2.40625,-2.921875 0,-0.9375 -0.578125,-1.59375 -1.328125,-1.59375 -0.5,0 -0.984375,0.359375 -1.3125,0.75 -0.09375,-0.546875 -0.53125,-0.75 -0.890625,-0.75 -0.46875,0 -0.65625,0.390625 -0.734375,0.5625 C 0.4375,-3.5 0.3125,-2.90625 0.3125,-2.875 c 0,0.109375 0.09375,0.109375 0.109375,0.109375 0.109375,0 0.109375,-0.015625 0.171875,-0.234375 0.171875,-0.703125 0.375,-1.1875 0.734375,-1.1875 0.171875,0 0.3125,0.078125 0.3125,0.453125 0,0.234375 -0.03125,0.34375 -0.078125,0.515625 z m 1.75,-4.328125 C 2.265625,-3.375 2.546875,-3.65625 2.71875,-3.8125 c 0.359375,-0.296875 0.640625,-0.375 0.8125,-0.375 0.390625,0 0.640625,0.34375 0.640625,0.9375 0,0.59375 -0.328125,1.734375 -0.515625,2.109375 -0.34375,0.703125 -0.8125,1.03125 -1.1875,1.03125 C 1.8125,-0.109375 1.6875,-0.9375 1.6875,-1 c 0,-0.015625 0,-0.03125 0.03125,-0.15625 z"
               id="path5042" />
          </symbol>
          <symbol
             style="overflow:visible"
             overflow="visible"
             id="textext-117b4186-2">
            <path
               inkscape:connector-curvature="0"
               style="stroke:none"
               d="M 3.890625,-3.734375 C 3.625,-3.71875 3.421875,-3.5 3.421875,-3.28125 c 0,0.140625 0.09375,0.296875 0.3125,0.296875 0.21875,0 0.453125,-0.171875 0.453125,-0.5625 C 4.1875,-4 3.765625,-4.40625 3,-4.40625 c -1.3125,0 -1.6875,1.015625 -1.6875,1.453125 0,0.78125 0.734375,0.921875 1.03125,0.984375 0.515625,0.109375 1.03125,0.21875 1.03125,0.765625 0,0.25 -0.21875,1.09375 -1.421875,1.09375 -0.140625,0 -0.90625,0 -1.140625,-0.53125 0.390625,0.046875 0.640625,-0.25 0.640625,-0.53125 0,-0.21875 -0.171875,-0.34375 -0.375,-0.34375 -0.265625,0 -0.5625,0.203125 -0.5625,0.65625 0,0.5625 0.578125,0.96875 1.421875,0.96875 1.625,0 2.015625,-1.203125 2.015625,-1.65625 0,-0.359375 -0.1875,-0.609375 -0.3125,-0.71875 -0.265625,-0.28125 -0.5625,-0.34375 -1,-0.421875 -0.359375,-0.078125 -0.75,-0.15625 -0.75,-0.609375 C 1.890625,-3.578125 2.125,-4.1875 3,-4.1875 c 0.25,0 0.75,0.078125 0.890625,0.453125 z"
               id="path5045" />
          </symbol>
          <symbol
             style="overflow:visible"
             overflow="visible"
             id="textext-117b4186-3">
            <path
               inkscape:connector-curvature="0"
               style="stroke:none"
               d=""
               id="path5048" />
          </symbol>
          <symbol
             style="overflow:visible"
             overflow="visible"
             id="textext-117b4186-4">
            <path
               inkscape:connector-curvature="0"
               style="stroke:none"
               d="m 3.296875,2.390625 c 0,-0.03125 0,-0.046875 -0.171875,-0.21875 C 1.890625,0.921875 1.5625,-0.96875 1.5625,-2.5 c 0,-1.734375 0.375,-3.46875 1.609375,-4.703125 0.125,-0.125 0.125,-0.140625 0.125,-0.171875 0,-0.078125 -0.03125,-0.109375 -0.09375,-0.109375 -0.109375,0 -1,0.6875 -1.59375,1.953125 -0.5,1.09375 -0.625,2.203125 -0.625,3.03125 0,0.78125 0.109375,1.984375 0.65625,3.125 C 2.25,1.84375 3.09375,2.5 3.203125,2.5 c 0.0625,0 0.09375,-0.03125 0.09375,-0.109375 z"
               id="path5051" />
          </symbol>
          <symbol
             style="overflow:visible"
             overflow="visible"
             id="textext-117b4186-5">
            <path
               inkscape:connector-curvature="0"
               style="stroke:none"
               d="m 7.1875,-3.375 c 0,-2.03125 -1.5,-3.65625 -3.3125,-3.65625 -1.796875,0 -3.3125,1.59375 -3.3125,3.65625 0,2.046875 1.53125,3.59375 3.3125,3.59375 1.8125,0 3.3125,-1.578125 3.3125,-3.59375 z M 3.875,-0.015625 c -0.984375,0 -2.34375,-0.859375 -2.34375,-3.359375 0,-2.5625 1.375,-3.4375 2.34375,-3.4375 1,0 2.34375,0.90625 2.34375,3.4375 0,2.53125 -1.40625,3.359375 -2.34375,3.359375 z M 5.65625,-4.125 h -0.25 v 0.34375 H 2.34375 V -4.125 h -0.25 v 1.4375 h 0.25 v -0.34375 h 3.0625 v 0.34375 h 0.25 z"
               id="path5054" />
          </symbol>
          <symbol
             style="overflow:visible"
             overflow="visible"
             id="textext-117b4186-6">
            <path
               inkscape:connector-curvature="0"
               style="stroke:none"
               d="m 2.875,-2.5 c 0,-0.765625 -0.109375,-1.96875 -0.65625,-3.109375 -0.59375,-1.21875 -1.453125,-1.875 -1.546875,-1.875 -0.0625,0 -0.109375,0.046875 -0.109375,0.109375 0,0.03125 0,0.046875 0.1875,0.234375 0.984375,0.984375 1.546875,2.5625 1.546875,4.640625 0,1.71875 -0.359375,3.46875 -1.59375,4.71875 C 0.5625,2.34375 0.5625,2.359375 0.5625,2.390625 0.5625,2.453125 0.609375,2.5 0.671875,2.5 0.765625,2.5 1.671875,1.8125 2.25,0.546875 2.765625,-0.546875 2.875,-1.65625 2.875,-2.5 Z"
               id="path5057" />
          </symbol>
          <symbol
             style="overflow:visible"
             overflow="visible"
             id="textext-117b4186-7">
            <path
               inkscape:connector-curvature="0"
               style="stroke:none"
               d=""
               id="path5060" />
          </symbol>
          <symbol
             style="overflow:visible"
             overflow="visible"
             id="textext-117b4186-8">
            <path
               inkscape:connector-curvature="0"
               style="stroke:none"
               d="m 1.578125,-7.125 c 0,-0.171875 0,-0.359375 -0.1875,-0.359375 -0.203125,0 -0.203125,0.1875 -0.203125,0.359375 v 9.265625 c 0,0.171875 0,0.359375 0.203125,0.359375 0.1875,0 0.1875,-0.1875 0.1875,-0.359375 z"
               id="path5063" />
          </symbol>
        </g>
      </defs>
      <g
         id="textext-117b4186-9">
        <g
           style="fill:#000000;fill-opacity:1"
           id="g5066">
          <use
             height="1052.3622"
             width="744.09448"
             xlink:href="#textext-117b4186-1"
             x="223.43201"
             y="134.765"
             id="use5068" />
        </g>
        <g
           style="fill:#000000;fill-opacity:1"
           id="g5070">
          <use
             height="1052.3622"
             width="744.09448"
             xlink:href="#textext-117b4186-4"
             x="230.105"
             y="134.765"
             id="use5072" />
        </g>
        <g
           style="fill:#000000;fill-opacity:1"
           id="g5074">
          <use
             height="1052.3622"
             width="744.09448"
             xlink:href="#textext-117b4186-2"
             x="233.979"
             y="134.765"
             id="use5076" />
        </g>
        <g
           style="fill:#000000;fill-opacity:1"
           id="g5078">
          <use
             height="1052.3622"
             width="744.09448"
             xlink:href="#textext-117b4186-8"
             x="241.41701"
             y="134.765"
             id="use5080" />
        </g>
        <g
           style="fill:#000000;fill-opacity:1"
           id="g5082">
          <use
             height="1052.3622"
             width="744.09448"
             xlink:href="#textext-117b4186-5"
             x="246.951"
             y="134.765"
             id="use5084" />
          <use
             height="1052.3622"
             width="744.09448"
             xlink:href="#textext-117b4186-6"
             x="254.69991"
             y="134.765"
             id="use5086" />
        </g>
      </g>
    </g>
    <g
       ns0:text="$p\\left(x\\mid s,\\Theta\\right)$"
       ns0:preamble="/home/antoine/Documents/antoine/presentation-these/figures/preambulemathbb.txt"
       transform="matrix(1.9979949,0,0,1.9979949,-45.281742,-171.82923)"
       id="g5580">
      <defs
         id="defs5582">
        <g
           id="g5584">
          <symbol
             style="overflow:visible"
             overflow="visible"
             id="textext-0dffa166-0">
            <path
               inkscape:connector-curvature="0"
               style="stroke:none"
               d=""
               id="path5587" />
          </symbol>
          <symbol
             style="overflow:visible"
             overflow="visible"
             id="textext-0dffa166-1">
            <path
               inkscape:connector-curvature="0"
               style="stroke:none"
               d="M 0.453125,1.21875 C 0.375,1.5625 0.34375,1.625 -0.09375,1.625 c -0.109375,0 -0.21875,0 -0.21875,0.1875 0,0.078125 0.046875,0.125 0.125,0.125 0.265625,0 0.5625,-0.03125 0.828125,-0.03125 0.34375,0 0.671875,0.03125 1,0.03125 0.046875,0 0.171875,0 0.171875,-0.203125 C 1.8125,1.625 1.71875,1.625 1.578125,1.625 c -0.5,0 -0.5,-0.0625 -0.5,-0.15625 0,-0.125 0.421875,-1.75 0.484375,-2 0.125,0.296875 0.40625,0.640625 0.921875,0.640625 1.15625,0 2.40625,-1.453125 2.40625,-2.921875 0,-0.9375 -0.578125,-1.59375 -1.328125,-1.59375 -0.5,0 -0.984375,0.359375 -1.3125,0.75 -0.09375,-0.546875 -0.53125,-0.75 -0.890625,-0.75 -0.46875,0 -0.65625,0.390625 -0.734375,0.5625 C 0.4375,-3.5 0.3125,-2.90625 0.3125,-2.875 c 0,0.109375 0.09375,0.109375 0.109375,0.109375 0.109375,0 0.109375,-0.015625 0.171875,-0.234375 0.171875,-0.703125 0.375,-1.1875 0.734375,-1.1875 0.171875,0 0.3125,0.078125 0.3125,0.453125 0,0.234375 -0.03125,0.34375 -0.078125,0.515625 z m 1.75,-4.328125 C 2.265625,-3.375 2.546875,-3.65625 2.71875,-3.8125 c 0.359375,-0.296875 0.640625,-0.375 0.8125,-0.375 0.390625,0 0.640625,0.34375 0.640625,0.9375 0,0.59375 -0.328125,1.734375 -0.515625,2.109375 -0.34375,0.703125 -0.8125,1.03125 -1.1875,1.03125 C 1.8125,-0.109375 1.6875,-0.9375 1.6875,-1 c 0,-0.015625 0,-0.03125 0.03125,-0.15625 z"
               id="path5590" />
          </symbol>
          <symbol
             style="overflow:visible"
             overflow="visible"
             id="textext-0dffa166-2">
            <path
               inkscape:connector-curvature="0"
               style="stroke:none"
               d="M 3.328125,-3.015625 C 3.390625,-3.265625 3.625,-4.1875 4.3125,-4.1875 c 0.046875,0 0.296875,0 0.5,0.125 C 4.53125,-4 4.34375,-3.765625 4.34375,-3.515625 c 0,0.15625 0.109375,0.34375 0.375,0.34375 0.21875,0 0.53125,-0.171875 0.53125,-0.578125 0,-0.515625 -0.578125,-0.65625 -0.921875,-0.65625 -0.578125,0 -0.921875,0.53125 -1.046875,0.75 -0.25,-0.65625 -0.78125,-0.75 -1.078125,-0.75 -1.03125,0 -1.609375,1.28125 -1.609375,1.53125 0,0.109375 0.109375,0.109375 0.125,0.109375 0.078125,0 0.109375,-0.03125 0.125,-0.109375 0.34375,-1.0625 1,-1.3125 1.34375,-1.3125 0.1875,0 0.53125,0.09375 0.53125,0.671875 0,0.3125 -0.171875,0.96875 -0.53125,2.375 -0.15625,0.609375 -0.515625,1.03125 -0.953125,1.03125 -0.0625,0 -0.28125,0 -0.5,-0.125 0.25,-0.0625 0.46875,-0.265625 0.46875,-0.546875 0,-0.265625 -0.21875,-0.34375 -0.359375,-0.34375 -0.3125,0 -0.546875,0.25 -0.546875,0.578125 0,0.453125 0.484375,0.65625 0.921875,0.65625 0.671875,0 1.03125,-0.703125 1.046875,-0.75 0.125,0.359375 0.484375,0.75 1.078125,0.75 1.03125,0 1.59375,-1.28125 1.59375,-1.53125 0,-0.109375 -0.078125,-0.109375 -0.109375,-0.109375 -0.09375,0 -0.109375,0.046875 -0.140625,0.109375 -0.328125,1.078125 -1,1.3125 -1.3125,1.3125 -0.390625,0 -0.546875,-0.3125 -0.546875,-0.65625 0,-0.21875 0.046875,-0.4375 0.15625,-0.875 z"
               id="path5593" />
          </symbol>
          <symbol
             style="overflow:visible"
             overflow="visible"
             id="textext-0dffa166-3">
            <path
               inkscape:connector-curvature="0"
               style="stroke:none"
               d="M 3.890625,-3.734375 C 3.625,-3.71875 3.421875,-3.5 3.421875,-3.28125 c 0,0.140625 0.09375,0.296875 0.3125,0.296875 0.21875,0 0.453125,-0.171875 0.453125,-0.5625 C 4.1875,-4 3.765625,-4.40625 3,-4.40625 c -1.3125,0 -1.6875,1.015625 -1.6875,1.453125 0,0.78125 0.734375,0.921875 1.03125,0.984375 0.515625,0.109375 1.03125,0.21875 1.03125,0.765625 0,0.25 -0.21875,1.09375 -1.421875,1.09375 -0.140625,0 -0.90625,0 -1.140625,-0.53125 0.390625,0.046875 0.640625,-0.25 0.640625,-0.53125 0,-0.21875 -0.171875,-0.34375 -0.375,-0.34375 -0.265625,0 -0.5625,0.203125 -0.5625,0.65625 0,0.5625 0.578125,0.96875 1.421875,0.96875 1.625,0 2.015625,-1.203125 2.015625,-1.65625 0,-0.359375 -0.1875,-0.609375 -0.3125,-0.71875 -0.265625,-0.28125 -0.5625,-0.34375 -1,-0.421875 -0.359375,-0.078125 -0.75,-0.15625 -0.75,-0.609375 C 1.890625,-3.578125 2.125,-4.1875 3,-4.1875 c 0.25,0 0.75,0.078125 0.890625,0.453125 z"
               id="path5596" />
          </symbol>
          <symbol
             style="overflow:visible"
             overflow="visible"
             id="textext-0dffa166-4">
            <path
               inkscape:connector-curvature="0"
               style="stroke:none"
               d="m 2.03125,-0.015625 c 0,-0.65625 -0.25,-1.046875 -0.640625,-1.046875 -0.328125,0 -0.53125,0.25 -0.53125,0.53125 C 0.859375,-0.265625 1.0625,0 1.390625,0 1.5,0 1.640625,-0.046875 1.734375,-0.125 1.765625,-0.15625 1.78125,-0.15625 1.78125,-0.15625 c 0.015625,0 0.015625,0 0.015625,0.140625 0,0.75 -0.34375,1.34375 -0.671875,1.671875 -0.109375,0.109375 -0.109375,0.125 -0.109375,0.15625 0,0.078125 0.046875,0.109375 0.09375,0.109375 0.109375,0 0.921875,-0.765625 0.921875,-1.9375 z"
               id="path5599" />
          </symbol>
          <symbol
             style="overflow:visible"
             overflow="visible"
             id="textext-0dffa166-5">
            <path
               inkscape:connector-curvature="0"
               style="stroke:none"
               d=""
               id="path5602" />
          </symbol>
          <symbol
             style="overflow:visible"
             overflow="visible"
             id="textext-0dffa166-6">
            <path
               inkscape:connector-curvature="0"
               style="stroke:none"
               d="m 3.296875,2.390625 c 0,-0.03125 0,-0.046875 -0.171875,-0.21875 C 1.890625,0.921875 1.5625,-0.96875 1.5625,-2.5 c 0,-1.734375 0.375,-3.46875 1.609375,-4.703125 0.125,-0.125 0.125,-0.140625 0.125,-0.171875 0,-0.078125 -0.03125,-0.109375 -0.09375,-0.109375 -0.109375,0 -1,0.6875 -1.59375,1.953125 -0.5,1.09375 -0.625,2.203125 -0.625,3.03125 0,0.78125 0.109375,1.984375 0.65625,3.125 C 2.25,1.84375 3.09375,2.5 3.203125,2.5 c 0.0625,0 0.09375,-0.03125 0.09375,-0.109375 z"
               id="path5605" />
          </symbol>
          <symbol
             style="overflow:visible"
             overflow="visible"
             id="textext-0dffa166-7">
            <path
               inkscape:connector-curvature="0"
               style="stroke:none"
               d="m 7.1875,-3.375 c 0,-2.03125 -1.5,-3.65625 -3.3125,-3.65625 -1.796875,0 -3.3125,1.59375 -3.3125,3.65625 0,2.046875 1.53125,3.59375 3.3125,3.59375 1.8125,0 3.3125,-1.578125 3.3125,-3.59375 z M 3.875,-0.015625 c -0.984375,0 -2.34375,-0.859375 -2.34375,-3.359375 0,-2.5625 1.375,-3.4375 2.34375,-3.4375 1,0 2.34375,0.90625 2.34375,3.4375 0,2.53125 -1.40625,3.359375 -2.34375,3.359375 z M 5.65625,-4.125 h -0.25 v 0.34375 H 2.34375 V -4.125 h -0.25 v 1.4375 h 0.25 v -0.34375 h 3.0625 v 0.34375 h 0.25 z"
               id="path5608" />
          </symbol>
          <symbol
             style="overflow:visible"
             overflow="visible"
             id="textext-0dffa166-8">
            <path
               inkscape:connector-curvature="0"
               style="stroke:none"
               d="m 2.875,-2.5 c 0,-0.765625 -0.109375,-1.96875 -0.65625,-3.109375 -0.59375,-1.21875 -1.453125,-1.875 -1.546875,-1.875 -0.0625,0 -0.109375,0.046875 -0.109375,0.109375 0,0.03125 0,0.046875 0.1875,0.234375 0.984375,0.984375 1.546875,2.5625 1.546875,4.640625 0,1.71875 -0.359375,3.46875 -1.59375,4.71875 C 0.5625,2.34375 0.5625,2.359375 0.5625,2.390625 0.5625,2.453125 0.609375,2.5 0.671875,2.5 0.765625,2.5 1.671875,1.8125 2.25,0.546875 2.765625,-0.546875 2.875,-1.65625 2.875,-2.5 Z"
               id="path5611" />
          </symbol>
          <symbol
             style="overflow:visible"
             overflow="visible"
             id="textext-0dffa166-9">
            <path
               inkscape:connector-curvature="0"
               style="stroke:none"
               d=""
               id="path5614" />
          </symbol>
          <symbol
             style="overflow:visible"
             overflow="visible"
             id="textext-0dffa166-10">
            <path
               inkscape:connector-curvature="0"
               style="stroke:none"
               d="m 1.578125,-7.125 c 0,-0.171875 0,-0.359375 -0.1875,-0.359375 -0.203125,0 -0.203125,0.1875 -0.203125,0.359375 v 9.265625 c 0,0.171875 0,0.359375 0.203125,0.359375 0.1875,0 0.1875,-0.1875 0.1875,-0.359375 z"
               id="path5617" />
          </symbol>
        </g>
      </defs>
      <g
         id="textext-0dffa166-11">
        <g
           style="fill:#000000;fill-opacity:1"
           id="g5620">
          <use
             height="1052.3622"
             width="744.09448"
             xlink:href="#textext-0dffa166-1"
             x="223.43201"
             y="134.765"
             id="use5622" />
        </g>
        <g
           style="fill:#000000;fill-opacity:1"
           id="g5624">
          <use
             height="1052.3622"
             width="744.09448"
             xlink:href="#textext-0dffa166-6"
             x="230.105"
             y="134.765"
             id="use5626" />
        </g>
        <g
           style="fill:#000000;fill-opacity:1"
           id="g5628">
          <use
             height="1052.3622"
             width="744.09448"
             xlink:href="#textext-0dffa166-2"
             x="233.979"
             y="134.765"
             id="use5630" />
        </g>
        <g
           style="fill:#000000;fill-opacity:1"
           id="g5632">
          <use
             height="1052.3622"
             width="744.09448"
             xlink:href="#textext-0dffa166-10"
             x="242.44099"
             y="134.765"
             id="use5634" />
        </g>
        <g
           style="fill:#000000;fill-opacity:1"
           id="g5636">
          <use
             height="1052.3622"
             width="744.09448"
             xlink:href="#textext-0dffa166-3"
             x="247.97501"
             y="134.765"
             id="use5638" />
          <use
             height="1052.3622"
             width="744.09448"
             xlink:href="#textext-0dffa166-4"
             x="252.64546"
             y="134.765"
             id="use5640" />
        </g>
        <g
           style="fill:#000000;fill-opacity:1"
           id="g5642">
          <use
             height="1052.3622"
             width="744.09448"
             xlink:href="#textext-0dffa166-7"
             x="257.073"
             y="134.765"
             id="use5644" />
          <use
             height="1052.3622"
             width="744.09448"
             xlink:href="#textext-0dffa166-8"
             x="264.8219"
             y="134.765"
             id="use5646" />
        </g>
      </g>
    </g>
    <g
       id="g6585"
       transform="matrix(1.9979949,0,0,1.9979949,-43.222889,42.088109)"
       ns0:preamble="/home/antoine/Documents/antoine/presentation-these/figures/preambulemathbb.txt"
       ns0:text="$p\\left(s\\mid x,\\Theta \\right)$">
      <defs
         id="defs6587">
        <g
           id="g6589">
          <symbol
             id="textext-dc02f556-0"
             overflow="visible"
             style="overflow:visible">
            <path
               id="path6592"
               d=""
               style="stroke:none"
               inkscape:connector-curvature="0" />
          </symbol>
          <symbol
             id="textext-dc02f556-1"
             overflow="visible"
             style="overflow:visible">
            <path
               id="path6595"
               d="M 0.453125,1.21875 C 0.375,1.5625 0.34375,1.625 -0.09375,1.625 c -0.109375,0 -0.21875,0 -0.21875,0.1875 0,0.078125 0.046875,0.125 0.125,0.125 0.265625,0 0.5625,-0.03125 0.828125,-0.03125 0.34375,0 0.671875,0.03125 1,0.03125 0.046875,0 0.171875,0 0.171875,-0.203125 C 1.8125,1.625 1.71875,1.625 1.578125,1.625 c -0.5,0 -0.5,-0.0625 -0.5,-0.15625 0,-0.125 0.421875,-1.75 0.484375,-2 0.125,0.296875 0.40625,0.640625 0.921875,0.640625 1.15625,0 2.40625,-1.453125 2.40625,-2.921875 0,-0.9375 -0.578125,-1.59375 -1.328125,-1.59375 -0.5,0 -0.984375,0.359375 -1.3125,0.75 -0.09375,-0.546875 -0.53125,-0.75 -0.890625,-0.75 -0.46875,0 -0.65625,0.390625 -0.734375,0.5625 C 0.4375,-3.5 0.3125,-2.90625 0.3125,-2.875 c 0,0.109375 0.09375,0.109375 0.109375,0.109375 0.109375,0 0.109375,-0.015625 0.171875,-0.234375 0.171875,-0.703125 0.375,-1.1875 0.734375,-1.1875 0.171875,0 0.3125,0.078125 0.3125,0.453125 0,0.234375 -0.03125,0.34375 -0.078125,0.515625 z m 1.75,-4.328125 C 2.265625,-3.375 2.546875,-3.65625 2.71875,-3.8125 c 0.359375,-0.296875 0.640625,-0.375 0.8125,-0.375 0.390625,0 0.640625,0.34375 0.640625,0.9375 0,0.59375 -0.328125,1.734375 -0.515625,2.109375 -0.34375,0.703125 -0.8125,1.03125 -1.1875,1.03125 C 1.8125,-0.109375 1.6875,-0.9375 1.6875,-1 c 0,-0.015625 0,-0.03125 0.03125,-0.15625 z"
               style="stroke:none"
               inkscape:connector-curvature="0" />
          </symbol>
          <symbol
             id="textext-dc02f556-2"
             overflow="visible"
             style="overflow:visible">
            <path
               id="path6598"
               d="M 3.890625,-3.734375 C 3.625,-3.71875 3.421875,-3.5 3.421875,-3.28125 c 0,0.140625 0.09375,0.296875 0.3125,0.296875 0.21875,0 0.453125,-0.171875 0.453125,-0.5625 C 4.1875,-4 3.765625,-4.40625 3,-4.40625 c -1.3125,0 -1.6875,1.015625 -1.6875,1.453125 0,0.78125 0.734375,0.921875 1.03125,0.984375 0.515625,0.109375 1.03125,0.21875 1.03125,0.765625 0,0.25 -0.21875,1.09375 -1.421875,1.09375 -0.140625,0 -0.90625,0 -1.140625,-0.53125 0.390625,0.046875 0.640625,-0.25 0.640625,-0.53125 0,-0.21875 -0.171875,-0.34375 -0.375,-0.34375 -0.265625,0 -0.5625,0.203125 -0.5625,0.65625 0,0.5625 0.578125,0.96875 1.421875,0.96875 1.625,0 2.015625,-1.203125 2.015625,-1.65625 0,-0.359375 -0.1875,-0.609375 -0.3125,-0.71875 -0.265625,-0.28125 -0.5625,-0.34375 -1,-0.421875 -0.359375,-0.078125 -0.75,-0.15625 -0.75,-0.609375 C 1.890625,-3.578125 2.125,-4.1875 3,-4.1875 c 0.25,0 0.75,0.078125 0.890625,0.453125 z"
               style="stroke:none"
               inkscape:connector-curvature="0" />
          </symbol>
          <symbol
             id="textext-dc02f556-3"
             overflow="visible"
             style="overflow:visible">
            <path
               id="path6601"
               d="M 3.328125,-3.015625 C 3.390625,-3.265625 3.625,-4.1875 4.3125,-4.1875 c 0.046875,0 0.296875,0 0.5,0.125 C 4.53125,-4 4.34375,-3.765625 4.34375,-3.515625 c 0,0.15625 0.109375,0.34375 0.375,0.34375 0.21875,0 0.53125,-0.171875 0.53125,-0.578125 0,-0.515625 -0.578125,-0.65625 -0.921875,-0.65625 -0.578125,0 -0.921875,0.53125 -1.046875,0.75 -0.25,-0.65625 -0.78125,-0.75 -1.078125,-0.75 -1.03125,0 -1.609375,1.28125 -1.609375,1.53125 0,0.109375 0.109375,0.109375 0.125,0.109375 0.078125,0 0.109375,-0.03125 0.125,-0.109375 0.34375,-1.0625 1,-1.3125 1.34375,-1.3125 0.1875,0 0.53125,0.09375 0.53125,0.671875 0,0.3125 -0.171875,0.96875 -0.53125,2.375 -0.15625,0.609375 -0.515625,1.03125 -0.953125,1.03125 -0.0625,0 -0.28125,0 -0.5,-0.125 0.25,-0.0625 0.46875,-0.265625 0.46875,-0.546875 0,-0.265625 -0.21875,-0.34375 -0.359375,-0.34375 -0.3125,0 -0.546875,0.25 -0.546875,0.578125 0,0.453125 0.484375,0.65625 0.921875,0.65625 0.671875,0 1.03125,-0.703125 1.046875,-0.75 0.125,0.359375 0.484375,0.75 1.078125,0.75 1.03125,0 1.59375,-1.28125 1.59375,-1.53125 0,-0.109375 -0.078125,-0.109375 -0.109375,-0.109375 -0.09375,0 -0.109375,0.046875 -0.140625,0.109375 -0.328125,1.078125 -1,1.3125 -1.3125,1.3125 -0.390625,0 -0.546875,-0.3125 -0.546875,-0.65625 0,-0.21875 0.046875,-0.4375 0.15625,-0.875 z"
               style="stroke:none"
               inkscape:connector-curvature="0" />
          </symbol>
          <symbol
             id="textext-dc02f556-4"
             overflow="visible"
             style="overflow:visible">
            <path
               id="path6604"
               d="m 2.03125,-0.015625 c 0,-0.65625 -0.25,-1.046875 -0.640625,-1.046875 -0.328125,0 -0.53125,0.25 -0.53125,0.53125 C 0.859375,-0.265625 1.0625,0 1.390625,0 1.5,0 1.640625,-0.046875 1.734375,-0.125 1.765625,-0.15625 1.78125,-0.15625 1.78125,-0.15625 c 0.015625,0 0.015625,0 0.015625,0.140625 0,0.75 -0.34375,1.34375 -0.671875,1.671875 -0.109375,0.109375 -0.109375,0.125 -0.109375,0.15625 0,0.078125 0.046875,0.109375 0.09375,0.109375 0.109375,0 0.921875,-0.765625 0.921875,-1.9375 z"
               style="stroke:none"
               inkscape:connector-curvature="0" />
          </symbol>
          <symbol
             id="textext-dc02f556-5"
             overflow="visible"
             style="overflow:visible">
            <path
               id="path6607"
               d=""
               style="stroke:none"
               inkscape:connector-curvature="0" />
          </symbol>
          <symbol
             id="textext-dc02f556-6"
             overflow="visible"
             style="overflow:visible">
            <path
               id="path6610"
               d="m 3.296875,2.390625 c 0,-0.03125 0,-0.046875 -0.171875,-0.21875 C 1.890625,0.921875 1.5625,-0.96875 1.5625,-2.5 c 0,-1.734375 0.375,-3.46875 1.609375,-4.703125 0.125,-0.125 0.125,-0.140625 0.125,-0.171875 0,-0.078125 -0.03125,-0.109375 -0.09375,-0.109375 -0.109375,0 -1,0.6875 -1.59375,1.953125 -0.5,1.09375 -0.625,2.203125 -0.625,3.03125 0,0.78125 0.109375,1.984375 0.65625,3.125 C 2.25,1.84375 3.09375,2.5 3.203125,2.5 c 0.0625,0 0.09375,-0.03125 0.09375,-0.109375 z"
               style="stroke:none"
               inkscape:connector-curvature="0" />
          </symbol>
          <symbol
             id="textext-dc02f556-7"
             overflow="visible"
             style="overflow:visible">
            <path
               id="path6613"
               d="m 7.1875,-3.375 c 0,-2.03125 -1.5,-3.65625 -3.3125,-3.65625 -1.796875,0 -3.3125,1.59375 -3.3125,3.65625 0,2.046875 1.53125,3.59375 3.3125,3.59375 1.8125,0 3.3125,-1.578125 3.3125,-3.59375 z M 3.875,-0.015625 c -0.984375,0 -2.34375,-0.859375 -2.34375,-3.359375 0,-2.5625 1.375,-3.4375 2.34375,-3.4375 1,0 2.34375,0.90625 2.34375,3.4375 0,2.53125 -1.40625,3.359375 -2.34375,3.359375 z M 5.65625,-4.125 h -0.25 v 0.34375 H 2.34375 V -4.125 h -0.25 v 1.4375 h 0.25 v -0.34375 h 3.0625 v 0.34375 h 0.25 z"
               style="stroke:none"
               inkscape:connector-curvature="0" />
          </symbol>
          <symbol
             id="textext-dc02f556-8"
             overflow="visible"
             style="overflow:visible">
            <path
               id="path6616"
               d="m 2.875,-2.5 c 0,-0.765625 -0.109375,-1.96875 -0.65625,-3.109375 -0.59375,-1.21875 -1.453125,-1.875 -1.546875,-1.875 -0.0625,0 -0.109375,0.046875 -0.109375,0.109375 0,0.03125 0,0.046875 0.1875,0.234375 0.984375,0.984375 1.546875,2.5625 1.546875,4.640625 0,1.71875 -0.359375,3.46875 -1.59375,4.71875 C 0.5625,2.34375 0.5625,2.359375 0.5625,2.390625 0.5625,2.453125 0.609375,2.5 0.671875,2.5 0.765625,2.5 1.671875,1.8125 2.25,0.546875 2.765625,-0.546875 2.875,-1.65625 2.875,-2.5 Z"
               style="stroke:none"
               inkscape:connector-curvature="0" />
          </symbol>
          <symbol
             id="textext-dc02f556-9"
             overflow="visible"
             style="overflow:visible">
            <path
               id="path6619"
               d=""
               style="stroke:none"
               inkscape:connector-curvature="0" />
          </symbol>
          <symbol
             id="textext-dc02f556-10"
             overflow="visible"
             style="overflow:visible">
            <path
               id="path6622"
               d="m 1.578125,-7.125 c 0,-0.171875 0,-0.359375 -0.1875,-0.359375 -0.203125,0 -0.203125,0.1875 -0.203125,0.359375 v 9.265625 c 0,0.171875 0,0.359375 0.203125,0.359375 0.1875,0 0.1875,-0.1875 0.1875,-0.359375 z"
               style="stroke:none"
               inkscape:connector-curvature="0" />
          </symbol>
        </g>
      </defs>
      <g
         id="textext-dc02f556-11">
        <g
           id="g6625"
           style="fill:#000000;fill-opacity:1">
          <use
             id="use6627"
             y="134.765"
             x="223.43201"
             xlink:href="#textext-dc02f556-1"
             width="100%"
             height="100%" />
        </g>
        <g
           id="g6629"
           style="fill:#000000;fill-opacity:1">
          <use
             id="use6631"
             y="134.765"
             x="230.105"
             xlink:href="#textext-dc02f556-6"
             width="100%"
             height="100%" />
        </g>
        <g
           id="g6633"
           style="fill:#000000;fill-opacity:1">
          <use
             id="use6635"
             y="134.765"
             x="233.979"
             xlink:href="#textext-dc02f556-2"
             width="100%"
             height="100%" />
        </g>
        <g
           id="g6637"
           style="fill:#000000;fill-opacity:1">
          <use
             id="use6639"
             y="134.765"
             x="241.41701"
             xlink:href="#textext-dc02f556-10"
             width="100%"
             height="100%" />
        </g>
        <g
           id="g6641"
           style="fill:#000000;fill-opacity:1">
          <use
             id="use6643"
             y="134.765"
             x="246.951"
             xlink:href="#textext-dc02f556-3"
             width="100%"
             height="100%" />
          <use
             id="use6645"
             y="134.765"
             x="252.64462"
             xlink:href="#textext-dc02f556-4"
             width="100%"
             height="100%" />
        </g>
        <g
           id="g6647"
           style="fill:#000000;fill-opacity:1">
          <use
             id="use6649"
             y="134.765"
             x="257.073"
             xlink:href="#textext-dc02f556-7"
             width="100%"
             height="100%" />
          <use
             id="use6651"
             y="134.765"
             x="264.8219"
             xlink:href="#textext-dc02f556-8"
             width="100%"
             height="100%" />
        </g>
      </g>
    </g>
    <text
       xml:space="preserve"
       style="font-style:normal;font-weight:normal;font-size:11.9879694px;line-height:0%;font-family:sans-serif;letter-spacing:0px;word-spacing:0px;fill:#000000;fill-opacity:1;stroke:none;stroke-width:0.99899751"
       x="17.435061"
       y="127.10622"
       id="text6835"><tspan
         sodipodi:role="line"
         id="tspan6837"
         x="17.435061"
         y="127.10622"
         style="font-size:17.98195267px;line-height:1.25;font-family:sans-serif;stroke-width:0.99899751">spectral patterns: NMF</tspan></text>
    <text
       xml:space="preserve"
       style="font-style:normal;font-weight:normal;font-size:11.9879694px;line-height:0%;font-family:sans-serif;letter-spacing:0px;word-spacing:0px;fill:#000000;fill-opacity:1;stroke:none;stroke-width:0.99899751"
       x="16.52725"
       y="148.66747"
       id="text6835-6"><tspan
         sodipodi:role="line"
         id="tspan6837-5"
         x="16.52725"
         y="148.66747"
         style="font-size:17.98195267px;line-height:1.25;font-family:sans-serif;stroke-width:0.99899751">redundancy</tspan></text>
    <text
       xml:space="preserve"
       style="font-style:normal;font-weight:normal;font-size:11.9879694px;line-height:0%;font-family:sans-serif;letter-spacing:0px;word-spacing:0px;fill:#ff0000;fill-opacity:1;stroke:none;stroke-width:0.99899751"
       x="14.13479"
       y="170.33322"
       id="text6835-6-9"><tspan
         sodipodi:role="line"
         id="tspan6837-5-9"
         x="14.13479"
         y="170.33322"
         style="font-size:17.98195267px;line-height:1.25;font-family:sans-serif;fill:#ff0000;stroke-width:0.99899751">deep generative models</tspan></text>
    <rect
       style="fill:#ffd1aa;fill-opacity:1;stroke:#000000;stroke-width:2.12707329;stroke-miterlimit:4;stroke-dasharray:6.3812186, 2.12707286;stroke-dashoffset:0;stroke-opacity:1"
       id="rect6833-3"
       width="266.7977"
       height="66.345085"
       x="524.01917"
       y="285.69205" />
    <text
       xml:space="preserve"
       style="font-style:normal;font-weight:normal;font-size:11.9879694px;line-height:0%;font-family:sans-serif;letter-spacing:0px;word-spacing:0px;fill:#000000;fill-opacity:1;stroke:none;stroke-width:0.99899751"
       x="532.14673"
       y="309.93811"
       id="text6835-67"><tspan
         sodipodi:role="line"
         id="tspan6837-53"
         x="532.14673"
         y="309.93811"
         style="font-size:17.98195267px;line-height:1.25;font-family:sans-serif;stroke-width:0.99899751">parameter estimation</tspan></text>
    <text
       xml:space="preserve"
       style="font-style:normal;font-weight:normal;font-size:11.9879694px;line-height:0%;font-family:sans-serif;letter-spacing:0px;word-spacing:0px;fill:#ff0000;fill-opacity:1;stroke:none;stroke-width:0.99899751"
       x="533.18616"
       y="335.80624"
       id="text6835-6-9-2"><tspan
         sodipodi:role="line"
         id="tspan6837-5-9-9"
         x="533.18616"
         y="335.80624"
         style="font-size:17.98195267px;line-height:1.25;font-family:sans-serif;fill:#ff0000;stroke-width:0.99899751">deep discriminative models</tspan></text>
    <rect
       style="fill:#ececec;fill-opacity:1;stroke:#000000;stroke-width:1.8705337;stroke-miterlimit:4;stroke-dasharray:5.61159938, 1.87053312;stroke-dashoffset:0;stroke-opacity:1"
       id="rect6833-1"
       width="239.27994"
       height="57.207176"
       x="511.3642"
       y="10.686986" />
    <text
       xml:space="preserve"
       style="font-style:normal;font-weight:normal;font-size:11.9879694px;line-height:0%;font-family:sans-serif;letter-spacing:0px;word-spacing:0px;fill:#000000;fill-opacity:1;stroke:none;stroke-width:0.99899751"
       x="519.61981"
       y="33.342911"
       id="text6835-2"><tspan
         sodipodi:role="line"
         id="tspan6837-7"
         x="519.61981"
         y="33.342911"
         style="font-size:17.98195267px;line-height:1.25;font-family:sans-serif;stroke-width:0.99899751">classical acoustic models</tspan></text>
    <text
       xml:space="preserve"
       style="font-style:normal;font-weight:normal;font-size:11.9879694px;line-height:0%;font-family:sans-serif;letter-spacing:0px;word-spacing:0px;fill:#000000;fill-opacity:1;stroke:none;stroke-width:0.99899751"
       x="518.71204"
       y="54.904182"
       id="text6835-6-0"><tspan
         sodipodi:role="line"
         id="tspan6837-5-93"
         x="518.71204"
         y="54.904182"
         style="font-size:17.98195267px;line-height:1.25;font-family:sans-serif;stroke-width:0.99899751">probabilistic mixing</tspan></text>
  </g>
</svg>
