<svg version="1.1" viewBox="0.0 0.0 654.8162729658793 181.17060367454067" fill="none" stroke="none" stroke-linecap="square" stroke-miterlimit="10" xmlns:xlink="http://www.w3.org/1999/xlink" xmlns="http://www.w3.org/2000/svg"><clipPath id="p.0"><path d="m0 0l654.8163 0l0 181.17061l-654.8163 0l0 -181.17061z" clip-rule="nonzero"/></clipPath><g clip-path="url(#p.0)"><path fill="#000000" fill-opacity="0.0" d="m0 0l654.8163 0l0 181.17061l-654.8163 0z" fill-rule="evenodd"/><path fill="#b7b7b7" d="m25.514435 53.595802l9.826771 0l0 92.62992l-9.826771 0z" fill-rule="evenodd"/><path stroke="#000000" stroke-width="1.0" stroke-linejoin="round" stroke-linecap="butt" d="m25.514435 53.595802l9.826771 0l0 92.62992l-9.826771 0z" fill-rule="evenodd"/><path fill="#000000" fill-opacity="0.0" d="m38.564304 99.91076l55.716534 0" fill-rule="evenodd"/><path stroke="#cccccc" stroke-width="4.0" stroke-linejoin="round" stroke-linecap="butt" d="m38.564304 99.91076l31.716534 0" fill-rule="evenodd"/><path fill="#cccccc" stroke="#cccccc" stroke-width="4.0" stroke-linecap="butt" d="m70.28084 106.51769l18.15239 -6.6069336l-18.15239 -6.606926z" fill-rule="evenodd"/><path fill="#f3f3f3" d="m96.97638 40.0l143.43307 0l0 123.90552l-143.43307 0z" fill-rule="evenodd"/><path stroke="#000000" stroke-width="1.0" stroke-linejoin="round" stroke-linecap="butt" d="m96.97638 40.0l143.43307 0l0 123.90552l-143.43307 0z" fill-rule="evenodd"/><path fill="#ffffff" d="m106.703415 52.677166l86.29921 0l0 95.244095l-86.29921 0z" fill-rule="evenodd"/><path stroke="#000000" stroke-width="3.0" stroke-linejoin="round" stroke-linecap="butt" d="m106.703415 52.677166l86.29921 0l0 95.244095l-86.29921 0z" fill-rule="evenodd"/><path fill="#fce5cd" d="m119.10499 76.267715l51.84252 0l0 51.37008l-51.84252 0z" fill-rule="evenodd"/><path stroke="#000000" stroke-width="1.0" stroke-linejoin="round" stroke-linecap="butt" d="m119.10499 76.267715l51.84252 0l0 51.37008l-51.84252 0z" fill-rule="evenodd"/><path fill="#fce5cd" d="m179.42258 76.267715l4.4724426 0l0 51.37008l-4.4724426 0z" fill-rule="evenodd"/><path stroke="#000000" stroke-width="1.0" stroke-linejoin="round" stroke-linecap="butt" d="m179.42258 76.267715l4.4724426 0l0 51.37008l-4.4724426 0z" fill-rule="evenodd"/><path fill="#ffffff" d="m202.84514 66.267715l0 0c0 -6.5926247 5.344391 -11.937008 11.937012 -11.937008l0 0l0 0c3.1658936 0 6.202118 1.2576447 8.440735 3.4962692c2.2386322 2.2386246 3.4962769 5.274849 3.4962769 8.440739l0 71.37009c0 6.592621 -5.3443756 11.936996 -11.937012 11.936996l0 0l0 0c-6.592621 0 -11.937012 -5.3443756 -11.937012 -11.936996z" fill-rule="evenodd"/><path stroke="#000000" stroke-width="3.0" stroke-linejoin="round" stroke-linecap="butt" d="m202.84514 66.267715l0 0c0 -6.5926247 5.344391 -11.937008 11.937012 -11.937008l0 0l0 0c3.1658936 0 6.202118 1.2576447 8.440735 3.4962692c2.2386322 2.2386246 3.4962769 5.274849 3.4962769 8.440739l0 71.37009c0 6.592621 -5.3443756 11.936996 -11.937012 11.936996l0 0l0 0c-6.592621 0 -11.937012 -5.3443756 -11.937012 -11.936996z" fill-rule="evenodd"/><path fill="#000000" fill-opacity="0.0" d="m552.9764 99.91076l55.716553 0" fill-rule="evenodd"/><path stroke="#cccccc" stroke-width="4.0" stroke-linejoin="round" stroke-linecap="butt" d="m552.9764 99.91076l31.716553 0" fill-rule="evenodd"/><path fill="#cccccc" stroke="#cccccc" stroke-width="4.0" stroke-linecap="butt" d="m584.69293 106.51769l18.152344 -6.6069336l-18.152344 -6.606926z" fill-rule="evenodd"/><path fill="#b7b7b7" d="m617.80316 53.595802l9.826782 0l0 92.62992l-9.826782 0z" fill-rule="evenodd"/><path stroke="#000000" stroke-width="1.0" stroke-linejoin="round" stroke-linecap="butt" d="m617.80316 53.595802l9.826782 0l0 92.62992l-9.826782 0z" fill-rule="evenodd"/><path fill="#fce5cd" d="m365.63647 5.6929135l63.433075 0l0 23.874016l-63.433075 0z" fill-rule="evenodd"/><path stroke="#000000" stroke-width="1.0" stroke-linejoin="round" stroke-linecap="butt" d="m365.63647 5.6929135l63.433075 0l0 23.874016l-63.433075 0z" fill-rule="evenodd"/><path fill="#000000" fill-opacity="0.0" d="m425.91733 -5.52231l121.543304 0l0 23.874016l-121.543304 0z" fill-rule="evenodd"/><path fill="#000000" d="m436.1517 25.100813l0 -13.374999l1.484375 0l0 1.25q0.53125 -0.734375 1.1875 -1.09375q0.671875 -0.375 1.625 -0.375q1.234375 0 2.171875 0.640625q0.953125 0.625 1.4375 1.796875q0.484375 1.15625 0.484375 2.546874q0 1.484375 -0.53125 2.671875q-0.53125 1.1875 -1.546875 1.828125q-1.015625 0.625 -2.140625 0.625q-0.8125 0 -1.46875 -0.34375q-0.65625 -0.34375 -1.0625 -0.875l0 4.703125l-1.640625 0zm1.484375 -8.484375q0 1.859375 0.75 2.765625q0.765625 0.890625 1.828125 0.890625q1.09375 0 1.875 -0.921875q0.78125 -0.9375 0.78125 -2.875q0 -1.843749 -0.765625 -2.765624q-0.75 -0.921875 -1.8125 -0.921875q-1.046875 0 -1.859375 0.984375q-0.796875 0.96875 -0.796875 2.843749zm15.203827 3.59375q-0.921875 0.765625 -1.765625 1.09375q-0.828125 0.3125 -1.796875 0.3125q-1.59375 0 -2.453125 -0.78125q-0.859375 -0.78125 -0.859375 -1.984375q0 -0.71875 0.328125 -1.296875q0.328125 -0.59375 0.84375 -0.9375q0.53125 -0.359375 1.1875 -0.546875q0.46875 -0.12499905 1.453125 -0.24999905q1.984375 -0.234375 2.921875 -0.5625q0.015625 -0.34375 0.015625 -0.421875q0 -1.0 -0.46875 -1.421875q-0.625 -0.546875 -1.875 -0.546875q-1.15625 0 -1.703125 0.40625q-0.546875 0.40625 -0.8125 1.421875l-1.609375 -0.21875q0.21875 -1.015625 0.71875 -1.640625q0.5 -0.640625 1.453125 -0.984375q0.953125 -0.34375 2.1875 -0.34375q1.25 0 2.015625 0.296875q0.78125 0.28125 1.140625 0.734375q0.375 0.4375 0.515625 1.109375q0.078125 0.421875 0.078125 1.515625l0 2.187499q0 2.28125 0.109375 2.890625q0.109375 0.59375 0.40625 1.15625l-1.703125 0q-0.265625 -0.515625 -0.328125 -1.1875zm-0.140625 -3.671875q-0.890625 0.375 -2.671875 0.625q-1.015625 0.140625 -1.4375 0.328125q-0.421875 0.1875 -0.65625 0.53125q-0.21875 0.34375 -0.21875 0.78125q0 0.65625 0.5 1.09375q0.5 0.4375 1.453125 0.4375q0.9375 0 1.671875 -0.40625q0.75 -0.421875 1.09375 -1.140625q0.265625 -0.5625 0.265625 -1.640625l0 -0.609375zm4.1882324 4.859375l0 -9.671874l1.46875 0l0 1.46875q0.5625 -1.03125 1.03125 -1.359375q0.484375 -0.328125 1.0625 -0.328125q0.828125 0 1.6875 0.53125l-0.5625 1.515625q-0.609375 -0.359375 -1.203125 -0.359375q-0.546875 0 -0.96875 0.328125q-0.421875 0.328125 -0.609375 0.890625q-0.28125 0.875 -0.28125 1.921874l0 5.0625l-1.625 0zm12.540802 -1.1875q-0.921875 0.765625 -1.765625 1.09375q-0.828125 0.3125 -1.796875 0.3125q-1.59375 0 -2.453125 -0.78125q-0.859375 -0.78125 -0.859375 -1.984375q0 -0.71875 0.328125 -1.296875q0.328125 -0.59375 0.84375 -0.9375q0.53125 -0.359375 1.1875 -0.546875q0.46875 -0.12499905 1.453125 -0.24999905q1.984375 -0.234375 2.921875 -0.5625q0.015625 -0.34375 0.015625 -0.421875q0 -1.0 -0.46875 -1.421875q-0.625 -0.546875 -1.875 -0.546875q-1.15625 0 -1.703125 0.40625q-0.546875 0.40625 -0.8125 1.421875l-1.609375 -0.21875q0.21875 -1.015625 0.71875 -1.640625q0.5 -0.640625 1.453125 -0.984375q0.953125 -0.34375 2.1875 -0.34375q1.25 0 2.015625 0.296875q0.78125 0.28125 1.140625 0.734375q0.375 0.4375 0.515625 1.109375q0.078125 0.421875 0.078125 1.515625l0 2.187499q0 2.28125 0.109375 2.890625q0.109375 0.59375 0.40625 1.15625l-1.703125 0q-0.265625 -0.515625 -0.328125 -1.1875zm-0.140625 -3.671875q-0.890625 0.375 -2.671875 0.625q-1.015625 0.140625 -1.4375 0.328125q-0.421875 0.1875 -0.65625 0.53125q-0.21875 0.34375 -0.21875 0.78125q0 0.65625 0.5 1.09375q0.5 0.4375 1.453125 0.4375q0.9375 0 1.671875 -0.40625q0.75 -0.421875 1.09375 -1.140625q0.265625 -0.5625 0.265625 -1.640625l0 -0.609375zm4.203827 4.859375l0 -9.671874l1.46875 0l0 1.359375q0.453125 -0.71875 1.203125 -1.140625q0.765625 -0.4375 1.71875 -0.4375q1.078125 0 1.765625 0.453125q0.6875 0.4375 0.96875 1.234375q1.15625 -1.6875 2.984375 -1.6875q1.453125 0 2.21875 0.796875q0.78125 0.796875 0.78125 2.453125l0 6.640624l-1.640625 0l0 -6.093749q0 -0.984375 -0.15625 -1.40625q-0.15625 -0.4375 -0.578125 -0.703125q-0.421875 -0.265625 -0.984375 -0.265625q-1.015625 0 -1.6875 0.6875q-0.671875 0.671875 -0.671875 2.15625l0 5.624999l-1.640625 0l0 -6.281249q0 -1.09375 -0.40625 -1.640625q-0.40625 -0.546875 -1.3125 -0.546875q-0.6875 0 -1.28125 0.359375q-0.59375 0.359375 -0.859375 1.0625q-0.25 0.703125 -0.25 2.031249l0 5.015625l-1.640625 0zm22.165802 -3.109375l1.6875 0.203125q-0.40625 1.484375 -1.484375 2.3125q-1.078125 0.8125 -2.765625 0.8125q-2.125 0 -3.375 -1.296875q-1.234375 -1.3125 -1.234375 -3.671875q0 -2.453124 1.25 -3.796874q1.265625 -1.34375 3.265625 -1.34375q1.9375 0 3.15625 1.328125q1.234375 1.3125 1.234375 3.703124q0 0.15625 0 0.4375l-7.21875 0q0.09375 1.59375 0.90625 2.453125q0.8125 0.84375 2.015625 0.84375q0.90625 0 1.546875 -0.46875q0.640625 -0.484375 1.015625 -1.515625zm-5.390625 -2.656249l5.40625 0q-0.109375 -1.21875 -0.625 -1.828125q-0.78125 -0.953125 -2.03125 -0.953125q-1.125 0 -1.90625 0.765625q-0.765625 0.75 -0.84375 2.015625zm12.719482 4.296874l0.234375 1.453125q-0.6875 0.140625 -1.234375 0.140625q-0.890625 0 -1.390625 -0.28125q-0.484375 -0.28125 -0.6875 -0.734375q-0.203125 -0.46875 -0.203125 -1.9375l0 -5.578124l-1.203125 0l0 -1.265625l1.203125 0l0 -2.390625l1.625 -0.984375l0 3.375l1.65625 0l0 1.265625l-1.65625 0l0 5.671874q0 0.6875 0.078125 0.890625q0.09375 0.203125 0.28125 0.328125q0.203125 0.109375 0.578125 0.109375q0.265625 0 0.71875 -0.0625zm8.230164 -1.640625l1.6875305 0.203125q-0.40625 1.484375 -1.4844055 2.3125q-1.078125 0.8125 -2.765625 0.8125q-2.125 0 -3.375 -1.296875q-1.234375 -1.3125 -1.234375 -3.671875q0 -2.453124 1.25 -3.796874q1.265625 -1.34375 3.265625 -1.34375q1.9375 0 3.15625 1.328125q1.2344055 1.3125 1.2344055 3.703124q0 0.15625 0 0.4375l-7.2187805 0q0.09375 1.59375 0.90625 2.453125q0.8125 0.84375 2.015625 0.84375q0.90625 0 1.546875 -0.46875q0.640625 -0.484375 1.015625 -1.515625zm-5.390625 -2.656249l5.40625 0q-0.109375 -1.21875 -0.625 -1.828125q-0.78125 -0.953125 -2.03125 -0.953125q-1.125 0 -1.90625 0.765625q-0.765625 0.75 -0.84375 2.015625zm9.125702 5.765624l0 -9.671874l1.46875 0l0 1.46875q0.5625 -1.03125 1.03125 -1.359375q0.484375 -0.328125 1.0625 -0.328125q0.828125 0 1.6875 0.53125l-0.5625 1.515625q-0.609375 -0.359375 -1.203125 -0.359375q-0.546875 0 -0.96875 0.328125q-0.421875 0.328125 -0.609375 0.890625q-0.28125 0.875 -0.28125 1.921874l0 5.0625l-1.625 0zm5.5720825 -2.890625l1.625 -0.25q0.125 0.96875 0.75 1.5q0.625 0.515625 1.75 0.515625q1.125 0 1.671875 -0.453125q0.546875 -0.46875 0.546875 -1.09375q0 -0.546875 -0.484375 -0.875q-0.328125 -0.21875 -1.671875 -0.546875q-1.8125 -0.46875 -2.515625 -0.796875q-0.6875 -0.328125 -1.046875 -0.90624905q-0.359375 -0.59375 -0.359375 -1.3125q0 -0.640625 0.296875 -1.1875q0.296875 -0.5625 0.8125 -0.921875q0.375 -0.28125 1.03125 -0.46875q0.671875 -0.203125 1.421875 -0.203125q1.140625 0 2.0 0.328125q0.859375 0.328125 1.265625 0.890625q0.421875 0.5625 0.578125 1.5l-1.609375 0.21875q-0.109375 -0.75 -0.640625 -1.171875q-0.515625 -0.421875 -1.46875 -0.421875q-1.140625 0 -1.625 0.375q-0.46875 0.375 -0.46875 0.875q0 0.3125 0.1875 0.578125q0.203125 0.265625 0.640625 0.4375q0.234375 0.09375 1.4375 0.421875q1.75 0.453125 2.4375 0.74999905q0.6875 0.296875 1.078125 0.859375q0.390625 0.5625 0.390625 1.40625q0 0.828125 -0.484375 1.546875q-0.46875 0.71875 -1.375 1.125q-0.90625 0.390625 -2.046875 0.390625q-1.875 0 -2.875 -0.78125q-0.984375 -0.78125 -1.25 -2.328125z" fill-rule="nonzero"/><path fill="#000000" fill-opacity="0.0" d="m-10.133859 128.88977l0 -63.433075l23.874016 0l0 63.433075z" fill-rule="evenodd"/><path fill="#000000" d="m5.31739 118.65539l-1.890625 0l0 -1.640625l1.890625 0l0 1.640625zm11.46875 0l-9.671875 0l0 -1.640625l9.671875 0l0 1.640625zm0 -4.144821l-9.671875 0l0 -1.46875l1.3749995 0q-1.5937495 -1.0625 -1.5937495 -3.078125q0 -0.875 0.3125 -1.609375q0.3125 -0.734375 0.8281245 -1.09375q0.5 -0.375 1.203125 -0.515625q0.453125 -0.09375 1.59375 -0.09375l5.953126 0l0 1.640625l-5.890626 0q-1.0 0 -1.484375 0.203125q-0.5 0.1875 -0.796875 0.671875q-0.296875 0.484375 -0.296875 1.140625q0 1.046875 0.671875 1.8125q0.65625 0.75 2.515625 0.75l5.281251 0l0 1.640625zm3.703125 -10.375717l-13.375 0l0 -1.484375l1.2499995 0q-0.7343745 -0.53125 -1.0937495 -1.1875q-0.375 -0.671875 -0.375 -1.625q0 -1.234375 0.640625 -2.171875q0.6249995 -0.953125 1.7968745 -1.4375q1.15625 -0.484375 2.546875 -0.484375q1.484375 0 2.671875 0.53125q1.1875 0.53125 1.828126 1.546875q0.625 1.015625 0.625 2.140625q0 0.8125 -0.34375 1.46875q-0.34375 0.65625 -0.87500095 1.0625l4.703126 0l0 1.640625zm-8.484376 -1.484375q1.859375 0 2.765625 -0.75q0.890625 -0.765625 0.890625 -1.828125q0 -1.09375 -0.921875 -1.875q-0.9375 -0.78125 -2.875 -0.78125q-1.84375 0 -2.765625 0.765625q-0.921875 0.75 -0.921875 1.8125q0 1.046875 0.984375 1.859375q0.96875 0.796875 2.84375 0.796875zm4.781251 -15.219467l-1.421876 0q1.640626 1.125 1.640626 3.0625q0 0.859375 -0.328125 1.609375q-0.328125 0.734375 -0.82812595 1.09375q-0.5 0.359375 -1.21875 0.5q-0.46875 0.109375 -1.53125 0.109375l-5.9843745 0l0 -1.640625l5.3593745 0q1.28125 0 1.734375 -0.109375q0.640625 -0.15625 1.015625 -0.65625q0.375 -0.5 0.375 -1.234375q0 -0.734375 -0.375 -1.375q-0.390625 -0.65625 -1.03125 -0.921875q-0.65625 -0.265625 -1.890625 -0.265625l-5.1874995 0l0 -1.640625l9.671875 0l0 1.46875zm-1.468751 -7.625717l1.453126 -0.234375q0.140625 0.6875 0.140625 1.234375q0 0.890625 -0.28125 1.390625q-0.28125 0.484375 -0.73437595 0.6875q-0.46875 0.203125 -1.9375 0.203125l-5.578125 0l0 1.203125l-1.2656245 0l0 -1.203125l-2.390625 0l-0.984375 -1.625l3.375 0l0 -1.65625l1.2656245 0l0 1.65625l5.671875 0q0.6875 0 0.890625 -0.078125q0.203125 -0.09375 0.328125 -0.28125q0.109375 -0.203125 0.109375 -0.578125q0 -0.265625 -0.0625 -0.71875z" fill-rule="nonzero"/><path fill="#000000" fill-opacity="0.0" d="m617.80316 138.16536l0 -82.834656l23.874023 0l0 82.834656z" fill-rule="evenodd"/><path fill="#000000" d="m639.8794 128.54036q-2.6875 0 -3.96875 -1.4843826q-1.078125 -1.25 -1.078125 -3.046875q0 -2.0 1.3125 -3.265625q1.296875 -1.265625 3.609375 -1.265625q1.859375 0 2.9375 0.5625q1.0625 0.5625 1.65625 1.640625q0.59375 1.0625 0.59375 2.328125q0 2.03125 -1.296875 3.28125q-1.3125 1.2500076 -3.765625 1.2500076zm0 -1.6875076q1.859375 0 2.796875 -0.796875q0.921875 -0.8125 0.921875 -2.046875q0 -1.21875 -0.921875 -2.03125q-0.9375 -0.8125 -2.84375 -0.8125q-1.796875 0 -2.71875 0.8125q-0.921875 0.8125 -0.921875 2.03125q0 1.234375 0.921875 2.046875q0.90625 0.796875 2.765625 0.796875zm4.84375 -15.625717l-1.421875 0q1.640625 1.125 1.640625 3.0625q0 0.859375 -0.328125 1.609375q-0.328125 0.734375 -0.828125 1.09375q-0.5 0.359375 -1.21875 0.5q-0.46875 0.109375 -1.53125 0.109375l-5.984375 0l0 -1.640625l5.359375 0q1.28125 0 1.734375 -0.109375q0.640625 -0.15625 1.015625 -0.65625q0.375 -0.5 0.375 -1.234375q0 -0.734375 -0.375 -1.375q-0.390625 -0.65625 -1.03125 -0.921875q-0.65625 -0.265625 -1.890625 -0.265625l-5.1875 0l0 -1.640625l9.671875 0l0 1.46875zm-1.46875 -7.625717l1.453125 -0.234375q0.140625 0.6875 0.140625 1.234375q0 0.890625 -0.28125 1.390625q-0.28125 0.484375 -0.734375 0.6875q-0.46875 0.203125 -1.9375 0.203125l-5.578125 0l0 1.203125l-1.265625 0l0 -1.203125l-2.390625 0l-0.984375 -1.625l3.375 0l0 -1.65625l1.265625 0l0 1.65625l5.671875 0q0.6875 0 0.890625 -0.078125q0.203125 -0.09375 0.328125 -0.28125q0.109375 -0.203125 0.109375 -0.578125q0 -0.265625 -0.0625 -0.71875zm5.171875 -1.6051788l-13.375 0l0 -1.484375l1.25 0q-0.734375 -0.53125 -1.09375 -1.1875q-0.375 -0.671875 -0.375 -1.625q0 -1.234375 0.640625 -2.171875q0.625 -0.953125 1.796875 -1.4375q1.15625 -0.484375 2.546875 -0.484375q1.484375 0 2.671875 0.53125q1.1875 0.53125 1.828125 1.546875q0.625 1.015625 0.625 2.140625q0 0.8125 -0.34375 1.46875q-0.34375 0.65625 -0.875 1.0625l4.703125 0l0 1.640625zm-8.484375 -1.484375q1.859375 0 2.765625 -0.75q0.890625 -0.765625 0.890625 -1.828125q0 -1.09375 -0.921875 -1.875q-0.9375 -0.78125 -2.875 -0.78125q-1.84375 0 -2.765625 0.765625q-0.921875 0.75 -0.921875 1.8125q0 1.046875 0.984375 1.859375q0.96875 0.796875 2.84375 0.796875zm4.78125 -15.219467l-1.421875 0q1.640625 1.125 1.640625 3.0625q0 0.859375 -0.328125 1.609375q-0.328125 0.734375 -0.828125 1.09375q-0.5 0.359375 -1.21875 0.5q-0.46875 0.109375 -1.53125 0.109375l-5.984375 0l0 -1.640625l5.359375 0q1.28125 0 1.734375 -0.109375q0.640625 -0.15625 1.015625 -0.65625q0.375 -0.5 0.375 -1.234375q0 -0.734375 -0.375 -1.375q-0.390625 -0.65625 -1.03125 -0.921875q-0.65625 -0.265625 -1.890625 -0.265625l-5.1875 0l0 -1.640625l9.671875 0l0 1.46875zm-1.46875 -7.625717l1.453125 -0.234375q0.140625 0.6875 0.140625 1.234375q0 0.890625 -0.28125 1.390625q-0.28125 0.484375 -0.734375 0.6875q-0.46875 0.203125 -1.9375 0.203125l-5.578125 0l0 1.203125l-1.265625 0l0 -1.203125l-2.390625 0l-0.984375 -1.625l3.375 0l0 -1.65625l1.265625 0l0 1.65625l5.671875 0q0.6875 0 0.890625 -0.078125q0.203125 -0.09375 0.328125 -0.28125q0.109375 -0.203125 0.109375 -0.578125q0 -0.265625 -0.0625 -0.71875z" fill-rule="nonzero"/><path fill="#f3f3f3" d="m252.05511 40.0l143.43307 0l0 123.90552l-143.43307 0z" fill-rule="evenodd"/><path stroke="#000000" stroke-width="1.0" stroke-linejoin="round" stroke-linecap="butt" d="m252.05511 40.0l143.43307 0l0 123.90552l-143.43307 0z" fill-rule="evenodd"/><path fill="#ffffff" d="m261.78217 52.677166l86.299194 0l0 95.244095l-86.299194 0z" fill-rule="evenodd"/><path stroke="#000000" stroke-width="3.0" stroke-linejoin="round" stroke-linecap="butt" d="m261.78217 52.677166l86.299194 0l0 95.244095l-86.299194 0z" fill-rule="evenodd"/><path fill="#fce5cd" d="m274.18372 76.267715l51.84253 0l0 51.37008l-51.84253 0z" fill-rule="evenodd"/><path stroke="#000000" stroke-width="1.0" stroke-linejoin="round" stroke-linecap="butt" d="m274.18372 76.267715l51.84253 0l0 51.37008l-51.84253 0z" fill-rule="evenodd"/><path fill="#fce5cd" d="m334.5013 76.267715l4.4724426 0l0 51.37008l-4.4724426 0z" fill-rule="evenodd"/><path stroke="#000000" stroke-width="1.0" stroke-linejoin="round" stroke-linecap="butt" d="m334.5013 76.267715l4.4724426 0l0 51.37008l-4.4724426 0z" fill-rule="evenodd"/><path fill="#ffffff" d="m357.9239 66.267715l0 0c0 -6.5926247 5.344391 -11.937008 11.937012 -11.937008l0 0l0 0c3.1658936 0 6.202118 1.2576447 8.440735 3.4962692c2.238617 2.2386246 3.4962769 5.274849 3.4962769 8.440739l0 71.37009c0 6.592621 -5.344391 11.936996 -11.937012 11.936996l0 0l0 0c-6.592621 0 -11.937012 -5.3443756 -11.937012 -11.936996z" fill-rule="evenodd"/><path stroke="#000000" stroke-width="3.0" stroke-linejoin="round" stroke-linecap="butt" d="m357.9239 66.267715l0 0c0 -6.5926247 5.344391 -11.937008 11.937012 -11.937008l0 0l0 0c3.1658936 0 6.202118 1.2576447 8.440735 3.4962692c2.238617 2.2386246 3.4962769 5.274849 3.4962769 8.440739l0 71.37009c0 6.592621 -5.344391 11.936996 -11.937012 11.936996l0 0l0 0c-6.592621 0 -11.937012 -5.3443756 -11.937012 -11.936996z" fill-rule="evenodd"/><path fill="#f3f3f3" d="m403.6706 40.0l143.4331 0l0 123.90552l-143.4331 0z" fill-rule="evenodd"/><path stroke="#000000" stroke-width="1.0" stroke-linejoin="round" stroke-linecap="butt" d="m403.6706 40.0l143.4331 0l0 123.90552l-143.4331 0z" fill-rule="evenodd"/><path fill="#ffffff" d="m413.39764 52.677166l86.299194 0l0 95.244095l-86.299194 0z" fill-rule="evenodd"/><path stroke="#000000" stroke-width="3.0" stroke-linejoin="round" stroke-linecap="butt" d="m413.39764 52.677166l86.299194 0l0 95.244095l-86.299194 0z" fill-rule="evenodd"/><path fill="#fce5cd" d="m425.79922 76.267715l51.8425 0l0 51.37008l-51.8425 0z" fill-rule="evenodd"/><path stroke="#000000" stroke-width="1.0" stroke-linejoin="round" stroke-linecap="butt" d="m425.79922 76.267715l51.8425 0l0 51.37008l-51.8425 0z" fill-rule="evenodd"/><path fill="#fce5cd" d="m486.1168 76.267715l4.4724426 0l0 51.37008l-4.4724426 0z" fill-rule="evenodd"/><path stroke="#000000" stroke-width="1.0" stroke-linejoin="round" stroke-linecap="butt" d="m486.1168 76.267715l4.4724426 0l0 51.37008l-4.4724426 0z" fill-rule="evenodd"/><path fill="#ffffff" d="m509.53937 66.267715l0 0c0 -6.5926247 5.3443604 -11.937008 11.937012 -11.937008l0 0l0 0c3.1658936 0 6.2020874 1.2576447 8.440735 3.4962692c2.2386475 2.2386246 3.4962769 5.274849 3.4962769 8.440739l0 71.37009c0 6.592621 -5.3443604 11.936996 -11.937012 11.936996l0 0l0 0c-6.5926514 0 -11.937012 -5.3443756 -11.937012 -11.936996z" fill-rule="evenodd"/><path stroke="#000000" stroke-width="3.0" stroke-linejoin="round" stroke-linecap="butt" d="m509.53937 66.267715l0 0c0 -6.5926247 5.3443604 -11.937008 11.937012 -11.937008l0 0l0 0c3.1658936 0 6.2020874 1.2576447 8.440735 3.4962692c2.2386475 2.2386246 3.4962769 5.274849 3.4962769 8.440739l0 71.37009c0 6.592621 -5.3443604 11.936996 -11.937012 11.936996l0 0l0 0c-6.5926514 0 -11.937012 -5.3443756 -11.937012 -11.936996z" fill-rule="evenodd"/></g></svg>