<svg version="1.1" viewBox="0.0 0.0 735.8792650918635 372.6745406824147" fill="none" stroke="none" stroke-linecap="square" stroke-miterlimit="10" xmlns:xlink="http://www.w3.org/1999/xlink" xmlns="http://www.w3.org/2000/svg"><clipPath id="p.0"><path d="m0 0l735.8793 0l0 372.67453l-735.8793 0l0 -372.67453z" clip-rule="nonzero"/></clipPath><g clip-path="url(#p.0)"><path fill="#000000" fill-opacity="0.0" d="m0 0l735.8793 0l0 372.67453l-735.8793 0z" fill-rule="evenodd"/><path fill="#000000" fill-opacity="0.0" d="m112.51181 10.170604l240.53543 0l0 65.32284l-240.53543 0z" fill-rule="evenodd"/><path fill="#000000" d="m124.152435 65.52373l0 -28.703125l3.203125 0l0 2.703125q1.125 -1.578125 2.546875 -2.375q1.4375 -0.796875 3.46875 -0.796875q2.65625 0 4.6875 1.375q2.03125 1.359375 3.0625 3.859375q1.03125 2.484375 1.03125 5.453125q0 3.1875 -1.140625 5.734375q-1.140625 2.546875 -3.328125 3.90625q-2.171875 1.359375 -4.5625 1.359375q-1.765625 0 -3.171875 -0.734375q-1.390625 -0.75 -2.28125 -1.890625l0 10.109375l-3.515625 0zm3.1875 -18.203125q0 4.0 1.609375 5.921875q1.625 1.90625 3.9375 1.90625q2.34375 0 4.0 -1.984375q1.671875 -1.984375 1.671875 -6.140625q0 -3.96875 -1.625 -5.9375q-1.625 -1.96875 -3.890625 -1.96875q-2.25 0 -3.984375 2.09375q-1.71875 2.09375 -1.71875 6.109375zm17.746094 -0.125q0 -5.765625 3.203125 -8.53125q2.671875 -2.3125 6.53125 -2.3125q4.265625 0 6.984375 2.8125q2.71875 2.796875 2.71875 7.734375q0 4.015625 -1.203125 6.3125q-1.203125 2.28125 -3.5 3.5625q-2.296875 1.265625 -5.0 1.265625q-4.359375 0 -7.046875 -2.796875q-2.6875 -2.796875 -2.6875 -8.046875zm3.609375 0q0 3.984375 1.734375 5.96875q1.75 1.984375 4.390625 1.984375q2.609375 0 4.34375 -1.984375q1.75 -2.0 1.75 -6.078125q0 -3.859375 -1.75 -5.828125q-1.75 -1.984375 -4.34375 -1.984375q-2.640625 0 -4.390625 1.96875q-1.734375 1.96875 -1.734375 5.953125zm27.621094 7.234375l0.515625 3.09375q-1.484375 0.328125 -2.65625 0.328125q-1.921875 0 -2.984375 -0.609375q-1.046875 -0.609375 -1.484375 -1.59375q-0.421875 -0.984375 -0.421875 -4.15625l0 -11.9375l-2.578125 0l0 -2.734375l2.578125 0l0 -5.125002l3.5 -2.109375l0 7.234377l3.53125 0l0 2.734375l-3.53125 0l0 12.140625q0 1.5 0.1875 1.9375q0.1875 0.421875 0.59375 0.671875q0.421875 0.25 1.203125 0.25q0.59375 0 1.546875 -0.125zm16.972656 0.578125q-1.953125 1.65625 -3.765625 2.34375q-1.796875 0.6875 -3.875 0.6875q-3.40625 0 -5.25 -1.671875q-1.828125 -1.671875 -1.828125 -4.265625q0 -1.53125 0.6875 -2.78125q0.6875 -1.265625 1.8125 -2.015625q1.125 -0.765625 2.53125 -1.15625q1.03125 -0.28125 3.125 -0.53125q4.265625 -0.515625 6.265625 -1.21875q0.03125 -0.71875 0.03125 -0.90625q0 -2.15625 -1.0 -3.03125q-1.34375 -1.1875 -4.0 -1.1875q-2.484375 0 -3.671875 0.875q-1.171875 0.859375 -1.75 3.0625l-3.4375 -0.46875q0.46875 -2.203125 1.546875 -3.5625q1.078125 -1.359375 3.109375 -2.09375q2.03125 -0.734375 4.703125 -0.734375q2.65625 0 4.3125 0.625q1.671875 0.625 2.453125 1.578125q0.78125 0.953125 1.09375 2.390625q0.171875 0.90625 0.171875 3.25l0 4.6875q0 4.890625 0.21875 6.203125q0.234375 1.296875 0.890625 2.484375l-3.671875 0q-0.546875 -1.09375 -0.703125 -2.5625zm-0.296875 -7.84375q-1.90625 0.78125 -5.734375 1.328125q-2.171875 0.3125 -3.078125 0.703125q-0.890625 0.390625 -1.375 1.140625q-0.484375 0.75 -0.484375 1.671875q0 1.40625 1.0625 2.34375q1.0625 0.9375 3.109375 0.9375q2.03125 0 3.609375 -0.890625q1.59375 -0.890625 2.328125 -2.4375q0.5625 -1.1875 0.5625 -3.515625l0 -1.28125zm16.683594 7.265625l0.515625 3.09375q-1.484375 0.328125 -2.65625 0.328125q-1.921875 0 -2.984375 -0.609375q-1.046875 -0.609375 -1.484375 -1.59375q-0.421875 -0.984375 -0.421875 -4.15625l0 -11.9375l-2.578125 0l0 -2.734375l2.578125 0l0 -5.125002l3.5 -2.109375l0 7.234377l3.53125 0l0 2.734375l-3.53125 0l0 12.140625q0 1.5 0.1875 1.9375q0.1875 0.421875 0.59375 0.671875q0.421875 0.25 1.203125 0.25q0.59375 0 1.546875 -0.125zm2.1289062 -7.234375q0 -5.765625 3.203125 -8.53125q2.671875 -2.3125 6.53125 -2.3125q4.265625 0 6.984375 2.8125q2.71875 2.796875 2.71875 7.734375q0 4.015625 -1.203125 6.3125q-1.203125 2.28125 -3.5 3.5625q-2.296875 1.265625 -5.0 1.265625q-4.359375 0 -7.046875 -2.796875q-2.6875 -2.796875 -2.6875 -8.046875zm3.609375 0q0 3.984375 1.734375 5.96875q1.75 1.984375 4.390625 1.984375q2.609375 0 4.34375 -1.984375q1.75 -2.0 1.75 -6.078125q0 -3.859375 -1.75 -5.828125q-1.75 -1.984375 -4.34375 -1.984375q-2.640625 0 -4.390625 1.96875q-1.734375 1.96875 -1.734375 5.953125zm34.152344 3.6875l3.625 0.453125q-0.859375 3.1875 -3.1875 4.953125q-2.3125 1.75 -5.9375 1.75q-4.546875 0 -7.21875 -2.796875q-2.65625 -2.8125 -2.65625 -7.875q0 -5.234375 2.6875 -8.125q2.703125 -2.890625 7.0 -2.890625q4.15625 0 6.796875 2.84375q2.640625 2.828125 2.640625 7.96875q0 0.3125 -0.03125 0.9375l-15.46875 0q0.203125 3.40625 1.9375 5.234375q1.734375 1.8125 4.34375 1.8125q1.921875 0 3.28125 -1.015625q1.375 -1.015625 2.1875 -3.25zm-11.546875 -5.671875l11.578125 0q-0.234375 -2.625 -1.328125 -3.9375q-1.671875 -2.03125 -4.359375 -2.03125q-2.421875 0 -4.078125 1.625q-1.640625 1.625 -1.8125 4.34375zm18.183594 6.171875l3.46875 -0.546875q0.296875 2.078125 1.625 3.203125q1.34375 1.109375 3.75 1.109375q2.421875 0 3.59375 -0.984375q1.171875 -0.984375 1.171875 -2.3125q0 -1.203125 -1.03125 -1.875q-0.71875 -0.46875 -3.59375 -1.203125q-3.875 -0.96875 -5.375 -1.671875q-1.484375 -0.71875 -2.265625 -1.984375q-0.765625 -1.265625 -0.765625 -2.78125q0 -1.390625 0.640625 -2.5625q0.640625 -1.1875 1.734375 -1.96875q0.8125 -0.609375 2.21875 -1.03125q1.421875 -0.421875 3.046875 -0.421875q2.4375 0 4.28125 0.703125q1.859375 0.703125 2.734375 1.90625q0.875 1.203125 1.203125 3.21875l-3.4375 0.46875q-0.234375 -1.609375 -1.359375 -2.5q-1.109375 -0.90625 -3.171875 -0.90625q-2.421875 0 -3.453125 0.8125q-1.03125 0.796875 -1.03125 1.875q0 0.671875 0.421875 1.21875q0.4375 0.578125 1.359375 0.9375q0.515625 0.203125 3.09375 0.90625q3.734375 1.0 5.203125 1.640625q1.484375 0.625 2.3125 1.84375q0.84375 1.203125 0.84375 3.0q0 1.75 -1.03125 3.3125q-1.015625 1.546875 -2.953125 2.40625q-1.921875 0.84375 -4.375 0.84375q-4.03125 0 -6.15625 -1.671875q-2.125 -1.6875 -2.703125 -4.984375zm39.23828 14.609375q-2.90625 -3.671875 -4.921875 -8.59375q-2.015625 -4.921875 -2.015625 -10.203125q0 -4.640625 1.5 -8.90625q1.765625 -4.9375 5.4375 -9.843752l2.515625 0q-2.359375 4.062502 -3.125 5.796877q-1.1875 2.703125 -1.875 5.625q-0.84375 3.65625 -0.84375 7.34375q0 9.40625 5.84375 18.78125l-2.515625 0zm5.9609375 -6.703125l3.40625 0.515625q0.21875 1.578125 1.203125 2.296875q1.296875 0.984375 3.5625 0.984375q2.453125 0 3.78125 -0.984375q1.328125 -0.96875 1.796875 -2.734375q0.265625 -1.078125 0.25 -4.515625q-2.3125 2.71875 -5.75 2.71875q-4.265625 0 -6.609375 -3.078125q-2.34375 -3.09375 -2.34375 -7.40625q0 -2.96875 1.0625 -5.484375q1.078125 -2.515625 3.109375 -3.875q2.046875 -1.375 4.8125 -1.375q3.671875 0 6.046875 2.96875l0 -2.5l3.25 0l0 17.9375q0 4.84375 -1.0 6.859375q-0.984375 2.03125 -3.125 3.203125q-2.125 1.171875 -5.25 1.171875q-3.71875 0 -6.0 -1.671875q-2.28125 -1.671875 -2.203125 -5.03125zm2.90625 -12.46875q0 4.09375 1.609375 5.96875q1.625 1.875 4.078125 1.875q2.421875 0 4.0625 -1.859375q1.640625 -1.875 1.640625 -5.859375q0 -3.8125 -1.703125 -5.734375q-1.6875 -1.9375 -4.0625 -1.9375q-2.34375 0 -3.984375 1.90625q-1.640625 1.890625 -1.640625 5.640625zm22.277344 19.171875l-2.515625 0q5.84375 -9.375 5.84375 -18.78125q0 -3.671875 -0.84375 -7.28125q-0.65625 -2.921875 -1.859375 -5.625q-0.75 -1.75 -3.140625 -5.859377l2.515625 0q3.671875 4.906252 5.4375 9.843752q1.5 4.265625 1.5 8.90625q0 5.28125 -2.03125 10.203125q-2.015625 4.921875 -4.90625 8.59375z" fill-rule="nonzero"/><path fill="#000000" fill-opacity="0.0" d="m533.95013 8.0l177.48029 0l0 58.362206l-177.48029 0z" fill-rule="evenodd"/><path fill="#000000" d="m545.59076 63.353123l0 -28.703125l3.203125 0l0 2.703125q1.125 -1.578125 2.546875 -2.375q1.4375 -0.796875 3.46875 -0.796875q2.65625 0 4.6875 1.375q2.03125 1.359375 3.0625 3.859375q1.03125 2.484375 1.03125 5.453125q0 3.1875 -1.140625 5.734375q-1.140625 2.546875 -3.328125 3.90625q-2.171875 1.359375 -4.5625 1.359375q-1.765625 0 -3.171875 -0.734375q-1.390625 -0.75 -2.28125 -1.890625l0 10.109375l-3.515625 0zm3.1875 -18.203125q0 4.0 1.609375 5.921875q1.625 1.90625 3.9375 1.90625q2.34375 0 4.0 -1.984375q1.671875 -1.984375 1.671875 -6.140625q0 -3.96875 -1.625 -5.9375q-1.625 -1.96875 -3.890625 -1.96875q-2.25 0 -3.984375 2.09375q-1.71875 2.09375 -1.71875 6.109375zm19.011719 10.25l0 -20.75l3.171875 0l0 3.15625q1.203125 -2.21875 2.234375 -2.921875q1.03125 -0.703125 2.25 -0.703125q1.78125 0 3.625 1.140625l-1.21875 3.265625q-1.28125 -0.765625 -2.578125 -0.765625q-1.15625 0 -2.078125 0.703125q-0.90625 0.6875 -1.296875 1.90625q-0.59375 1.875 -0.59375 4.109375l0 10.859375l-3.515625 0zm13.3828125 -24.59375l0 -4.046875l3.515625 0l0 4.046875l-3.515625 0zm0 24.59375l0 -20.75l3.515625 0l0 20.75l-3.515625 0zm22.402344 -7.59375l3.453125 0.4375q-0.5625 3.578125 -2.90625 5.609375q-2.328125 2.015625 -5.71875 2.015625q-4.265625 0 -6.859375 -2.78125q-2.578125 -2.78125 -2.578125 -7.984375q0 -3.359375 1.109375 -5.875q1.125 -2.515625 3.390625 -3.78125q2.28125 -1.265625 4.953125 -1.265625q3.375 0 5.515625 1.71875q2.15625 1.703125 2.765625 4.84375l-3.421875 0.53125q-0.484375 -2.09375 -1.734375 -3.140625q-1.234375 -1.0625 -2.984375 -1.0625q-2.65625 0 -4.328125 1.90625q-1.65625 1.90625 -1.65625 6.03125q0 4.171875 1.59375 6.078125q1.609375 1.890625 4.1875 1.890625q2.078125 0 3.453125 -1.265625q1.390625 -1.28125 1.765625 -3.90625zm20.671875 0.90625l3.625 0.453125q-0.859375 3.1875 -3.1875 4.953125q-2.3125 1.75 -5.9375 1.75q-4.546875 0 -7.21875 -2.796875q-2.65625 -2.8125 -2.65625 -7.875q0 -5.234375 2.6875 -8.125q2.703125 -2.890625 7.0 -2.890625q4.15625 0 6.796875 2.84375q2.640625 2.828125 2.640625 7.96875q0 0.3125 -0.03125 0.9375l-15.46875 0q0.203125 3.40625 1.9375 5.234375q1.734375 1.8125 4.34375 1.8125q1.921875 0 3.28125 -1.015625q1.375 -1.015625 2.1875 -3.25zm-11.546875 -5.671875l11.578125 0q-0.234375 -2.625 -1.328125 -3.9375q-1.671875 -2.03125 -4.359375 -2.03125q-2.421875 0 -4.078125 1.625q-1.640625 1.625 -1.8125 4.34375zm37.421875 20.78125q-2.90625 -3.671875 -4.921875 -8.59375q-2.015625 -4.921875 -2.015625 -10.203125q0 -4.640625 1.5 -8.90625q1.765625 -4.9375 5.4375 -9.84375l2.515625 0q-2.359375 4.0625 -3.125 5.796875q-1.1875 2.703125 -1.875 5.625q-0.84375 3.65625 -0.84375 7.34375q0 9.40625 5.84375 18.78125l-2.515625 0zm19.398438 -34.296875q-3.28125 0 -5.515625 1.578125q-1.328125 0.9375 -2.40625 2.65625q-1.09375 1.78125 -1.28125 3.375l13.3125 0l-0.515625 2.625l-13.109375 0q-0.015625 0.40625 -0.015625 0.78125q0 1.5 0.015625 1.796875l12.578125 0l-0.546875 2.609375l-11.625 0q0.828125 4.46875 3.953125 6.34375q2.234375 1.359375 4.859375 1.359375q3.65625 0 5.703125 -1.921875l0 4.03125q-2.4375 1.125 -5.390625 1.125q-8.828125 0 -11.9375 -7.34375q-0.625 -1.484375 -1.078125 -3.59375l-2.984375 0l0.546875 -2.609375l2.046875 0q-0.046875 -0.828125 -0.046875 -1.78125q0 -0.390625 0.015625 -0.796875l-2.5625 0l0.546875 -2.625l2.265625 0q1.21875 -6.359375 6.3125 -9.140625q3.140625 -1.71875 6.9375 -1.71875q3.625 0 6.109375 1.578125l-0.78125 3.640625q-2.390625 -1.96875 -5.40625 -1.96875zm11.746094 34.296875l-2.515625 0q5.84375 -9.375 5.84375 -18.78125q0 -3.671875 -0.84375 -7.28125q-0.65625 -2.921875 -1.859375 -5.625q-0.75 -1.75 -3.140625 -5.859375l2.515625 0q3.671875 4.90625 5.4375 9.84375q1.5 4.265625 1.5 8.90625q0 5.28125 -2.03125 10.203125q-2.015625 4.921875 -4.90625 8.59375z" fill-rule="nonzero"/><path fill="#000000" fill-opacity="0.0" d="m3.784777 83.509186l721.13385 1.1338577" fill-rule="evenodd"/><path stroke="#b7b7b7" stroke-width="3.0" stroke-linejoin="round" stroke-linecap="butt" d="m3.784777 83.509186l721.13385 1.1338577" fill-rule="evenodd"/><path fill="#b7b7b7" d="m470.1942 300.75067l226.48822 0c6.4821167 0 12.6987915 2.5750122 17.282349 7.1585693c4.583557 4.583557 7.1585693 10.800232 7.1585693 17.282349l0 0l0 0c0 13.498383 -10.942566 24.440948 -24.440918 24.440948l-226.48822 0c-13.498352 0 -24.440918 -10.942566 -24.440918 -24.440948l0 0l0 0c0 -13.498352 10.942566 -24.440918 24.440918 -24.440918z" fill-rule="evenodd"/><path stroke="#000000" stroke-width="1.0" stroke-linejoin="round" stroke-linecap="butt" d="m470.1942 300.75067l226.48822 0c6.4821167 0 12.6987915 2.5750122 17.282349 7.1585693c4.583557 4.583557 7.1585693 10.800232 7.1585693 17.282349l0 0l0 0c0 13.498383 -10.942566 24.440948 -24.440918 24.440948l-226.48822 0c-13.498352 0 -24.440918 -10.942566 -24.440918 -24.440948l0 0l0 0c0 -13.498352 10.942566 -24.440918 24.440918 -24.440918z" fill-rule="evenodd"/><path fill="#d9d2e9" d="m464.51968 210.19029l226.48819 0c6.4821167 0 12.6987915 2.5750122 17.282349 7.1585846c4.583557 4.5835724 7.1585693 10.800217 7.1585693 17.282364l0 0l0 0c0 13.498352 -10.942566 24.440933 -24.440918 24.440933l-226.48819 0c-13.498352 0 -24.440948 -10.942581 -24.440948 -24.440933l0 0l0 0c0 -13.498367 10.942596 -24.440948 24.440948 -24.440948z" fill-rule="evenodd"/><path stroke="#000000" stroke-width="1.0" stroke-linejoin="round" stroke-linecap="butt" d="m464.51968 210.19029l226.48819 0c6.4821167 0 12.6987915 2.5750122 17.282349 7.1585846c4.583557 4.5835724 7.1585693 10.800217 7.1585693 17.282364l0 0l0 0c0 13.498352 -10.942566 24.440933 -24.440918 24.440933l-226.48819 0c-13.498352 0 -24.440948 -10.942581 -24.440948 -24.440933l0 0l0 0c0 -13.498367 10.942596 -24.440948 24.440948 -24.440948z" fill-rule="evenodd"/><path fill="#d0e0e3" d="m464.51968 179.40814l226.48819 0c6.4821167 0 12.6987915 2.5750122 17.282349 7.1585846c4.583557 4.583557 7.1585693 10.800217 7.1585693 17.282349l0 0l0 0c0 13.498367 -10.942566 24.440948 -24.440918 24.440948l-226.48819 0c-13.498352 0 -24.440948 -10.942581 -24.440948 -24.440948l0 0l0 0c0 -13.498352 10.942596 -24.440933 24.440948 -24.440933z" fill-rule="evenodd"/><path stroke="#000000" stroke-width="1.0" stroke-linejoin="round" stroke-linecap="butt" d="m464.51968 179.40814l226.48819 0c6.4821167 0 12.6987915 2.5750122 17.282349 7.1585846c4.583557 4.583557 7.1585693 10.800217 7.1585693 17.282349l0 0l0 0c0 13.498367 -10.942566 24.440948 -24.440918 24.440948l-226.48819 0c-13.498352 0 -24.440948 -10.942581 -24.440948 -24.440948l0 0l0 0c0 -13.498352 10.942596 -24.440933 24.440948 -24.440933z" fill-rule="evenodd"/><path fill="#fce5cd" d="m464.51968 145.23097l226.48819 0c6.4821167 0 12.6987915 2.5750122 17.282349 7.1585846c4.583557 4.5835724 7.1585693 10.800217 7.1585693 17.282364l0 0l0 0c0 13.498352 -10.942566 24.440933 -24.440918 24.440933l-226.48819 0c-13.498352 0 -24.440948 -10.942581 -24.440948 -24.440933l0 0l0 0c0 -13.498367 10.942596 -24.440948 24.440948 -24.440948z" fill-rule="evenodd"/><path stroke="#000000" stroke-width="1.0" stroke-linejoin="round" stroke-linecap="butt" d="m464.51968 145.23097l226.48819 0c6.4821167 0 12.6987915 2.5750122 17.282349 7.1585846c4.583557 4.5835724 7.1585693 10.800217 7.1585693 17.282364l0 0l0 0c0 13.498352 -10.942566 24.440933 -24.440918 24.440933l-226.48819 0c-13.498352 0 -24.440948 -10.942581 -24.440948 -24.440933l0 0l0 0c0 -13.498367 10.942596 -24.440948 24.440948 -24.440948z" fill-rule="evenodd"/><path fill="#f4cccc" d="m464.51968 108.038055l226.48819 0c6.4821167 0 12.6987915 2.5750198 17.282349 7.158592c4.583557 4.5835648 7.1585693 10.800217 7.1585693 17.282356l0 0l0 0c0 13.498367 -10.942566 24.440948 -24.440918 24.440948l-226.48819 0c-13.498352 0 -24.440948 -10.942581 -24.440948 -24.440948l0 0l0 0c0 -13.49836 10.942596 -24.440948 24.440948 -24.440948z" fill-rule="evenodd"/><path stroke="#000000" stroke-width="1.0" stroke-linejoin="round" stroke-linecap="butt" d="m464.51968 108.038055l226.48819 0c6.4821167 0 12.6987915 2.5750198 17.282349 7.158592c4.583557 4.5835648 7.1585693 10.800217 7.1585693 17.282356l0 0l0 0c0 13.498367 -10.942566 24.440948 -24.440918 24.440948l-226.48819 0c-13.498352 0 -24.440948 -10.942581 -24.440948 -24.440948l0 0l0 0c0 -13.49836 10.942596 -24.440948 24.440948 -24.440948z" fill-rule="evenodd"/><path fill="#000000" fill-opacity="0.0" d="m411.28873 18.262466l4.566925 349.13385" fill-rule="evenodd"/><path stroke="#b7b7b7" stroke-width="3.0" stroke-linejoin="round" stroke-linecap="butt" d="m411.28873 18.262466l4.566925 349.13385" fill-rule="evenodd"/><path fill="#000000" fill-opacity="0.0" d="m649.35956 306.7034l57.51184 0l0 30.897644l-57.51184 0z" fill-rule="evenodd"/><path fill="#000000" d="m662.84393 333.6234l2.125 -10.078125q-1.375 1.0625 -3.84375 1.71875l0.296875 -1.5q1.234375 -0.484375 2.4375 -1.28125q1.203125 -0.796875 1.796875 -1.390625q0.359375 -0.359375 0.6875 -0.875l0.96875 0l-2.796875 13.40625l-1.671875 0zm6.9069824 0l0.390625 -1.875l1.875 0l-0.34375 1.640625q-0.3125 1.46875 -0.96875 2.140625q-0.640625 0.6875 -1.515625 0.796875l0.140625 -0.71875q1.09375 -0.3125 1.4375 -1.984375l-1.015625 0zm5.1832886 -3.5l1.609375 -0.203125q0.1875 1.40625 0.796875 2.015625q0.625 0.609375 1.640625 0.609375q1.21875 0 2.109375 -0.875q0.890625 -0.875 0.890625 -2.015625q0 -0.984375 -0.671875 -1.625q-0.65625 -0.640625 -1.78125 -0.640625q-0.125 0 -0.53125 0.046875l0.28125 -1.375q0.25 0.03125 0.46875 0.03125q1.40625 0 2.15625 -0.6875q0.765625 -0.6875 0.765625 -1.6875q0 -0.921875 -0.625 -1.546875q-0.625 -0.640625 -1.515625 -0.640625q-0.890625 0 -1.59375 0.65625q-0.703125 0.640625 -0.90625 1.8125l-1.625 -0.328125q0.40625 -1.65625 1.546875 -2.546875q1.140625 -0.90625 2.6875 -0.90625q1.640625 0 2.65625 1.0q1.015625 0.984375 1.015625 2.4375q0 1.046875 -0.546875 1.84375q-0.546875 0.78125 -1.65625 1.296875q0.78125 0.46875 1.171875 1.125q0.390625 0.65625 0.390625 1.5q0 1.796875 -1.34375 3.125q-1.34375 1.3125 -3.21875 1.3125q-1.8125 0 -2.9375 -1.015625q-1.109375 -1.015625 -1.234375 -2.71875z" fill-rule="nonzero"/><path fill="#b7b7b7" d="m50.716534 346.76642l12.307087 -49.228363l258.9685 0l-12.307098 49.228363z" fill-rule="evenodd"/><path stroke="#000000" stroke-width="1.0" stroke-linejoin="round" stroke-linecap="butt" d="m50.716534 346.76642l12.307087 -49.228363l258.9685 0l-12.307098 49.228363z" fill-rule="evenodd"/><path fill="#000000" fill-opacity="0.0" d="m229.85039 306.7034l73.48033 0l0 30.897644l-73.48033 0z" fill-rule="evenodd"/><path fill="#000000" d="m243.33476 333.6234l2.125 -10.078125q-1.375 1.0625 -3.84375 1.71875l0.296875 -1.5q1.234375 -0.484375 2.4375 -1.28125q1.203125 -0.796875 1.796875 -1.390625q0.359375 -0.359375 0.6875 -0.875l0.96875 0l-2.796875 13.40625l-1.671875 0zm7.219467 -4.375q0 -1.703125 0.5 -3.453125q0.5 -1.75 1.125 -2.796875q0.625 -1.046875 1.28125 -1.640625q0.671875 -0.59375 1.3125 -0.859375q0.640625 -0.28125 1.421875 -0.28125q1.53125 0 2.546875 1.140625q1.03125 1.140625 1.03125 3.28125q0 2.21875 -0.703125 4.390625q-0.84375 2.5625 -2.34375 3.84375q-1.140625 0.984375 -2.609375 0.984375q-1.5 0 -2.53125 -1.171875q-1.03125 -1.1875 -1.03125 -3.4375zm1.59375 0.40625q0 1.234375 0.40625 1.921875q0.546875 0.96875 1.640625 0.96875q0.96875 0 1.75 -0.875q1.125 -1.21875 1.6875 -3.5625q0.578125 -2.359375 0.578125 -3.859375q0 -1.4375 -0.5625 -2.078125q-0.546875 -0.640625 -1.4375 -0.640625q-0.65625 0 -1.234375 0.34375q-0.5625 0.328125 -1.078125 1.15625q-0.75 1.15625 -1.296875 3.46875q-0.453125 1.953125 -0.453125 3.15625zm8.781982 -0.40625q0 -1.703125 0.5 -3.453125q0.5 -1.75 1.125 -2.796875q0.625 -1.046875 1.28125 -1.640625q0.671875 -0.59375 1.3125 -0.859375q0.640625 -0.28125 1.421875 -0.28125q1.53125 0 2.546875 1.140625q1.03125 1.140625 1.03125 3.28125q0 2.21875 -0.703125 4.390625q-0.84375 2.5625 -2.34375 3.84375q-1.140625 0.984375 -2.609375 0.984375q-1.5 0 -2.53125 -1.171875q-1.03125 -1.1875 -1.03125 -3.4375zm1.59375 0.40625q0 1.234375 0.40625 1.921875q0.546875 0.96875 1.640625 0.96875q0.96875 0 1.75 -0.875q1.125 -1.21875 1.6875 -3.5625q0.578125 -2.359375 0.578125 -3.859375q0 -1.4375 -0.5625 -2.078125q-0.546875 -0.640625 -1.4375 -0.640625q-0.65625 0 -1.234375 0.34375q-0.5625 0.328125 -1.078125 1.15625q-0.75 1.15625 -1.296875 3.46875q-0.453125 1.953125 -0.453125 3.15625zm8.781952 -0.40625q0 -1.703125 0.5 -3.453125q0.5 -1.75 1.125 -2.796875q0.625 -1.046875 1.28125 -1.640625q0.671875 -0.59375 1.3125 -0.859375q0.640625 -0.28125 1.421875 -0.28125q1.53125 0 2.546875 1.140625q1.03125 1.140625 1.03125 3.28125q0 2.21875 -0.703125 4.390625q-0.84375 2.5625 -2.34375 3.84375q-1.140625 0.984375 -2.609375 0.984375q-1.5 0 -2.53125 -1.171875q-1.03125 -1.1875 -1.03125 -3.4375zm1.59375 0.40625q0 1.234375 0.40625 1.921875q0.546875 0.96875 1.640625 0.96875q0.96875 0 1.75 -0.875q1.125 -1.21875 1.6875 -3.5625q0.578125 -2.359375 0.578125 -3.859375q0 -1.4375 -0.5625 -2.078125q-0.546875 -0.640625 -1.4375 -0.640625q-0.65625 0 -1.234375 0.34375q-0.5625 0.328125 -1.078125 1.15625q-0.75 1.15625 -1.296875 3.46875q-0.453125 1.953125 -0.453125 3.15625z" fill-rule="nonzero"/><path fill="#d9d2e9" d="m50.716534 258.61942l12.307087 -49.228333l258.9685 0l-12.307098 49.228333z" fill-rule="evenodd"/><path stroke="#000000" stroke-width="1.0" stroke-linejoin="round" stroke-linecap="butt" d="m50.716534 258.61942l12.307087 -49.228333l258.9685 0l-12.307098 49.228333z" fill-rule="evenodd"/><path fill="#d0e0e3" d="m51.850395 227.72704l12.307083 -49.228348l258.9685 0l-12.307068 49.228348z" fill-rule="evenodd"/><path stroke="#000000" stroke-width="1.0" stroke-linejoin="round" stroke-linecap="butt" d="m51.850395 227.72704l12.307083 -49.228348l258.9685 0l-12.307068 49.228348z" fill-rule="evenodd"/><path fill="#fce5cd" d="m50.716534 193.37796l12.307087 -49.228348l258.9685 0l-12.307098 49.228348z" fill-rule="evenodd"/><path stroke="#000000" stroke-width="1.0" stroke-linejoin="round" stroke-linecap="butt" d="m50.716534 193.37796l12.307087 -49.228348l258.9685 0l-12.307098 49.228348z" fill-rule="evenodd"/><path fill="#000000" fill-opacity="0.0" d="m229.85039 156.19292l84.12599 0l0 30.897629l-84.12599 0z" fill-rule="evenodd"/><path fill="#000000" d="m239.86601 179.61292l1.609375 -0.203125q0.1875 1.40625 0.796875 2.015625q0.625 0.609375 1.640625 0.609375q1.21875 0 2.109375 -0.875q0.890625 -0.875 0.890625 -2.015625q0 -0.984375 -0.671875 -1.625q-0.65625 -0.640625 -1.78125 -0.640625q-0.125 0 -0.53125 0.046875l0.28125 -1.375q0.25 0.03125 0.46875 0.03125q1.40625 0 2.15625 -0.6875q0.765625 -0.6875 0.765625 -1.6875q0 -0.921875 -0.625 -1.546875q-0.625 -0.640625 -1.515625 -0.640625q-0.890625 0 -1.59375 0.65625q-0.703125 0.640625 -0.90625 1.8125l-1.625 -0.328125q0.40625 -1.65625 1.546875 -2.546875q1.140625 -0.90625 2.6875 -0.90625q1.640625 0 2.65625 1.0q1.015625 0.984375 1.015625 2.4375q0 1.046875 -0.546875 1.84375q-0.546875 0.78125 -1.65625 1.296875q0.78125 0.46875 1.171875 1.125q0.390625 0.65625 0.390625 1.5q0 1.796875 -1.34375 3.125q-1.34375 1.3125 -3.21875 1.3125q-1.8125 0 -2.9375 -1.015625q-1.109375 -1.015625 -1.234375 -2.71875zm10.688217 -0.875q0 -1.703125 0.5 -3.453125q0.5 -1.75 1.125 -2.796875q0.625 -1.046875 1.28125 -1.640625q0.671875 -0.59375 1.3125 -0.859375q0.640625 -0.28125 1.421875 -0.28125q1.53125 0 2.546875 1.140625q1.03125 1.140625 1.03125 3.28125q0 2.21875 -0.703125 4.390625q-0.84375 2.5625 -2.34375 3.84375q-1.140625 0.984375 -2.609375 0.984375q-1.5 0 -2.53125 -1.171875q-1.03125 -1.1875 -1.03125 -3.4375zm1.59375 0.40625q0 1.234375 0.40625 1.921875q0.546875 0.96875 1.640625 0.96875q0.96875 0 1.75 -0.875q1.125 -1.21875 1.6875 -3.5625q0.578125 -2.359375 0.578125 -3.859375q0 -1.4375 -0.5625 -2.078125q-0.546875 -0.640625 -1.4375 -0.640625q-0.65625 0 -1.234375 0.34375q-0.5625 0.328125 -1.078125 1.15625q-0.75 1.15625 -1.296875 3.46875q-0.453125 1.953125 -0.453125 3.15625zm8.781982 -0.40625q0 -1.703125 0.5 -3.453125q0.5 -1.75 1.125 -2.796875q0.625 -1.046875 1.28125 -1.640625q0.671875 -0.59375 1.3125 -0.859375q0.640625 -0.28125 1.421875 -0.28125q1.53125 0 2.546875 1.140625q1.03125 1.140625 1.03125 3.28125q0 2.21875 -0.703125 4.390625q-0.84375 2.5625 -2.34375 3.84375q-1.140625 0.984375 -2.609375 0.984375q-1.5 0 -2.53125 -1.171875q-1.03125 -1.1875 -1.03125 -3.4375zm1.59375 0.40625q0 1.234375 0.40625 1.921875q0.546875 0.96875 1.640625 0.96875q0.96875 0 1.75 -0.875q1.125 -1.21875 1.6875 -3.5625q0.578125 -2.359375 0.578125 -3.859375q0 -1.4375 -0.5625 -2.078125q-0.546875 -0.640625 -1.4375 -0.640625q-0.65625 0 -1.234375 0.34375q-0.5625 0.328125 -1.078125 1.15625q-0.75 1.15625 -1.296875 3.46875q-0.453125 1.953125 -0.453125 3.15625z" fill-rule="nonzero"/><path fill="#000000" fill-opacity="0.0" d="m229.85039 193.3937l84.12599 0l0 30.897629l-84.12599 0z" fill-rule="evenodd"/><path fill="#000000" d="m243.33476 220.3137l2.125 -10.078125q-1.375 1.0625 -3.84375 1.71875l0.296875 -1.5q1.234375 -0.484375 2.4375 -1.28125q1.203125 -0.796875 1.796875 -1.390625q0.359375 -0.359375 0.6875 -0.875l0.96875 0l-2.796875 13.40625l-1.671875 0zm6.985092 0q0.25 -1.1875 0.703125 -2.0q0.453125 -0.8125 1.203125 -1.53125q0.75 -0.71875 2.875 -2.421875q1.296875 -1.03125 1.765625 -1.53125q0.6875 -0.703125 1.0 -1.390625q0.203125 -0.46875 0.203125 -1.015625q0 -0.90625 -0.65625 -1.546875q-0.640625 -0.65625 -1.59375 -0.65625q-0.9375 0 -1.640625 0.65625q-0.703125 0.65625 -1.0 2.09375l-1.609375 -0.234375q0.234375 -1.78125 1.375 -2.796875q1.140625 -1.03125 2.84375 -1.03125q1.140625 0 2.0625 0.46875q0.9375 0.46875 1.390625 1.328125q0.46875 0.859375 0.46875 1.765625q0 1.328125 -0.953125 2.5625q-0.578125 0.765625 -3.421875 3.015625q-1.21875 0.96875 -1.8125 1.59375q-0.59375 0.609375 -0.90625 1.15625l5.984375 0l-0.3125 1.515625l-7.96875 0zm10.610107 -4.375q0 -1.703125 0.5 -3.453125q0.5 -1.75 1.125 -2.796875q0.625 -1.046875 1.28125 -1.640625q0.671875 -0.59375 1.3125 -0.859375q0.640625 -0.28125 1.421875 -0.28125q1.53125 0 2.546875 1.140625q1.03125 1.140625 1.03125 3.28125q0 2.21875 -0.703125 4.390625q-0.84375 2.5625 -2.34375 3.84375q-1.140625 0.984375 -2.609375 0.984375q-1.5 0 -2.53125 -1.171875q-1.03125 -1.1875 -1.03125 -3.4375zm1.59375 0.40625q0 1.234375 0.40625 1.921875q0.546875 0.96875 1.640625 0.96875q0.96875 0 1.75 -0.875q1.125 -1.21875 1.6875 -3.5625q0.578125 -2.359375 0.578125 -3.859375q0 -1.4375 -0.5625 -2.078125q-0.546875 -0.640625 -1.4375 -0.640625q-0.65625 0 -1.234375 0.34375q-0.5625 0.328125 -1.078125 1.15625q-0.75 1.15625 -1.296875 3.46875q-0.453125 1.953125 -0.453125 3.15625z" fill-rule="nonzero"/><path fill="#000000" fill-opacity="0.0" d="m229.85039 226.86482l84.12599 0l0 30.89766l-84.12599 0z" fill-rule="evenodd"/><path fill="#000000" d="m239.86601 250.28482l1.609375 -0.203125q0.1875 1.40625 0.796875 2.015625q0.625 0.609375 1.640625 0.609375q1.21875 0 2.109375 -0.875q0.890625 -0.875 0.890625 -2.015625q0 -0.984375 -0.671875 -1.625q-0.65625 -0.640625 -1.78125 -0.640625q-0.125 0 -0.53125 0.046875l0.28125 -1.375q0.25 0.03125 0.46875 0.03125q1.40625 0 2.15625 -0.6875q0.765625 -0.6875 0.765625 -1.6875q0 -0.921875 -0.625 -1.546875q-0.625 -0.640625 -1.515625 -0.640625q-0.890625 0 -1.59375 0.65625q-0.703125 0.640625 -0.90625 1.8125l-1.625 -0.328125q0.40625 -1.65625 1.546875 -2.546875q1.140625 -0.90625 2.6875 -0.90625q1.640625 0 2.65625 1.0q1.015625 0.984375 1.015625 2.4375q0 1.046875 -0.546875 1.84375q-0.546875 0.78125 -1.65625 1.296875q0.78125 0.46875 1.171875 1.125q0.390625 0.65625 0.390625 1.5q0 1.796875 -1.34375 3.125q-1.34375 1.3125 -3.21875 1.3125q-1.8125 0 -2.9375 -1.015625q-1.109375 -1.015625 -1.234375 -2.71875zm13.563217 -3.84375q-0.734375 -0.40625 -1.109375 -1.046875q-0.375 -0.640625 -0.375 -1.390625q0 -1.203125 0.875 -2.234375q1.15625 -1.390625 3.15625 -1.390625q1.765625 0 2.765625 0.9375q1.015625 0.9375 1.015625 2.3125q0 0.96875 -0.546875 1.765625q-0.546875 0.78125 -1.71875 1.234375q0.8125 0.5 1.15625 1.078125q0.4375 0.734375 0.4375 1.71875q0 1.796875 -1.265625 3.203125q-1.265625 1.390625 -3.390625 1.390625q-1.671875 0 -2.75 -1.03125q-1.0625 -1.046875 -1.0625 -2.59375q0 -1.46875 0.75 -2.515625q0.765625 -1.0625 2.0625 -1.4375zm0.140625 -2.359375q0 0.859375 0.546875 1.390625q0.546875 0.515625 1.515625 0.515625q1.125 0 1.828125 -0.6875q0.71875 -0.6875 0.71875 -1.6875q0 -0.84375 -0.5625 -1.375q-0.546875 -0.546875 -1.515625 -0.546875q-0.71875 0 -1.34375 0.34375q-0.609375 0.328125 -0.90625 0.921875q-0.28125 0.578125 -0.28125 1.125zm-1.296875 6.4375q0 0.5625 0.265625 1.078125q0.28125 0.5 0.828125 0.8125q0.546875 0.296875 1.25 0.296875q1.328125 0 2.15625 -1.265625q0.65625 -0.984375 0.65625 -2.125q0 -0.921875 -0.609375 -1.515625q-0.59375 -0.59375 -1.578125 -0.59375q-1.25 0 -2.109375 0.921875q-0.859375 0.921875 -0.859375 2.390625zm8.656982 -1.109375q0 -1.703125 0.5 -3.453125q0.5 -1.75 1.125 -2.796875q0.625 -1.046875 1.28125 -1.640625q0.671875 -0.59375 1.3125 -0.859375q0.640625 -0.28125 1.421875 -0.28125q1.53125 0 2.546875 1.140625q1.03125 1.140625 1.03125 3.28125q0 2.21875 -0.703125 4.390625q-0.84375 2.5625 -2.34375 3.84375q-1.140625 0.984375 -2.609375 0.984375q-1.5 0 -2.53125 -1.171875q-1.03125 -1.1875 -1.03125 -3.4375zm1.59375 0.40625q0 1.234375 0.40625 1.921875q0.546875 0.96875 1.640625 0.96875q0.96875 0 1.75 -0.875q1.125 -1.21875 1.6875 -3.5625q0.578125 -2.359375 0.578125 -3.859375q0 -1.4375 -0.5625 -2.078125q-0.546875 -0.640625 -1.4375 -0.640625q-0.65625 0 -1.234375 0.34375q-0.5625 0.328125 -1.078125 1.15625q-0.75 1.15625 -1.296875 3.46875q-0.453125 1.953125 -0.453125 3.15625z" fill-rule="nonzero"/><path fill="#f4cccc" d="m51.850395 155.65617l12.307083 -49.228355l258.9685 0l-12.307068 49.228355z" fill-rule="evenodd"/><path stroke="#000000" stroke-width="1.0" stroke-linejoin="round" stroke-linecap="butt" d="m51.850395 155.65617l12.307083 -49.228355l258.9685 0l-12.307068 49.228355z" fill-rule="evenodd"/><path fill="#000000" fill-opacity="0.0" d="m229.85039 118.99475l84.12599 0l0 30.897644l-84.12599 0z" fill-rule="evenodd"/><path fill="#000000" d="m239.94414 145.91475q0.25 -1.1875 0.703125 -2.0q0.453125 -0.8125 1.203125 -1.53125q0.75 -0.71875 2.875 -2.421875q1.296875 -1.03125 1.765625 -1.53125q0.6875 -0.703125 1.0 -1.390625q0.203125 -0.46875 0.203125 -1.015625q0 -0.90625 -0.65625 -1.546875q-0.640625 -0.65625 -1.59375 -0.65625q-0.9375 0 -1.640625 0.65625q-0.703125 0.65625 -1.0 2.09375l-1.609375 -0.234375q0.234375 -1.78125 1.375 -2.796875q1.140625 -1.03125 2.84375 -1.03125q1.140625 0 2.0625 0.46875q0.9375 0.46875 1.390625 1.328125q0.46875 0.859375 0.46875 1.765625q0 1.328125 -0.953125 2.5625q-0.578125 0.765625 -3.421875 3.015625q-1.21875 0.96875 -1.8125 1.59375q-0.59375 0.609375 -0.90625 1.15625l5.984375 0l-0.3125 1.515625l-7.96875 0zm10.610092 -4.375q0 -1.703125 0.5 -3.453125q0.5 -1.75 1.125 -2.796875q0.625 -1.046875 1.28125 -1.640625q0.671875 -0.59375 1.3125 -0.859375q0.640625 -0.28125 1.421875 -0.28125q1.53125 0 2.546875 1.140625q1.03125 1.140625 1.03125 3.28125q0 2.21875 -0.703125 4.390625q-0.84375 2.5625 -2.34375 3.84375q-1.140625 0.984375 -2.609375 0.984375q-1.5 0 -2.53125 -1.171875q-1.03125 -1.1875 -1.03125 -3.4375zm1.59375 0.40625q0 1.234375 0.40625 1.921875q0.546875 0.96875 1.640625 0.96875q0.96875 0 1.75 -0.875q1.125 -1.21875 1.6875 -3.5625q0.578125 -2.359375 0.578125 -3.859375q0 -1.4375 -0.5625 -2.078125q-0.546875 -0.640625 -1.4375 -0.640625q-0.65625 0 -1.234375 0.34375q-0.5625 0.328125 -1.078125 1.15625q-0.75 1.15625 -1.296875 3.46875q-0.453125 1.953125 -0.453125 3.15625zm8.781982 -0.40625q0 -1.703125 0.5 -3.453125q0.5 -1.75 1.125 -2.796875q0.625 -1.046875 1.28125 -1.640625q0.671875 -0.59375 1.3125 -0.859375q0.640625 -0.28125 1.421875 -0.28125q1.53125 0 2.546875 1.140625q1.03125 1.140625 1.03125 3.28125q0 2.21875 -0.703125 4.390625q-0.84375 2.5625 -2.34375 3.84375q-1.140625 0.984375 -2.609375 0.984375q-1.5 0 -2.53125 -1.171875q-1.03125 -1.1875 -1.03125 -3.4375zm1.59375 0.40625q0 1.234375 0.40625 1.921875q0.546875 0.96875 1.640625 0.96875q0.96875 0 1.75 -0.875q1.125 -1.21875 1.6875 -3.5625q0.578125 -2.359375 0.578125 -3.859375q0 -1.4375 -0.5625 -2.078125q-0.546875 -0.640625 -1.4375 -0.640625q-0.65625 0 -1.234375 0.34375q-0.5625 0.328125 -1.078125 1.15625q-0.75 1.15625 -1.296875 3.46875q-0.453125 1.953125 -0.453125 3.15625z" fill-rule="nonzero"/><path fill="#000000" fill-opacity="0.0" d="m649.35956 115.59318l39.338623 0l0 30.897636l-39.338623 0z" fill-rule="evenodd"/><path fill="#990000" d="m662.2658 139.16942q0.09375 -0.828125 0.375 -1.46875q0.28125 -0.640625 0.875 -1.3125q0.34375 -0.390625 1.625 -1.421875q1.296875 -1.046875 1.671875 -1.6875q0.375 -0.65625 0.375 -1.203125q0 -0.71875 -0.609375 -1.265625q-0.609375 -0.5625 -1.5625 -0.5625q-1.03125 0 -1.71875 0.65625q-0.6875 0.65625 -0.921875 2.1875l-1.640625 -0.28125q0.390625 -1.953125 1.515625 -2.90625q1.125 -0.96875 2.71875 -0.96875q1.109375 0 2.015625 0.453125q0.90625 0.4375 1.359375 1.21875q0.46875 0.765625 0.46875 1.59375q0 1.015625 -0.671875 1.9375q-0.5 0.6875 -2.25 2.078125q-1.1875 0.96875 -1.5625 1.515625q-0.359375 0.546875 -0.5 1.4375l-1.5625 0zm-0.8125 3.34375l0.390625 -1.875l1.875 0l-0.390625 1.875l-1.875 0z" fill-rule="nonzero"/><path fill="#000000" fill-opacity="0.0" d="m17.519686 220.89764l34.33071 0l0 36.661407l-34.33071 0z" fill-rule="evenodd"/><path fill="#000000" d="m32.53531 250.15639l0 -4.703125l-4.671873 0l0 -1.96875l4.671873 0l0 -4.6875l1.984375 0l0 4.6875l4.6875 0l0 1.96875l-4.6875 0l0 4.703125l-1.984375 0z" fill-rule="nonzero"/><path fill="#000000" fill-opacity="0.0" d="m17.519686 155.65617l34.33071 0l0 36.661407l-34.33071 0z" fill-rule="evenodd"/><path fill="#000000" d="m32.53531 184.91492l0 -4.703125l-4.671873 0l0 -1.96875l4.671873 0l0 -4.6875l1.984375 0l0 4.6875l4.6875 0l0 1.96875l-4.6875 0l0 4.703125l-1.984375 0z" fill-rule="nonzero"/><path fill="#000000" fill-opacity="0.0" d="m17.519686 192.31758l34.33071 0l0 36.661423l-34.33071 0z" fill-rule="evenodd"/><path fill="#000000" d="m32.53531 221.57634l0 -4.703125l-4.671873 0l0 -1.96875l4.671873 0l0 -4.6875l1.984375 0l0 4.6875l4.6875 0l0 1.96875l-4.6875 0l0 4.703125l-1.984375 0z" fill-rule="nonzero"/><path fill="#000000" fill-opacity="0.0" d="m17.531496 133.86876l0 188.28346l39.338585 0" fill-rule="evenodd"/><path stroke="#000000" stroke-width="4.0" stroke-linejoin="round" stroke-linecap="butt" d="m17.531496 133.86876l0 188.28346l15.338583 0" fill-rule="evenodd"/><path fill="#000000" stroke="#000000" stroke-width="4.0" stroke-linecap="butt" d="m32.87008 328.75916l18.15239 -6.6069336l-18.15239 -6.6069336z" fill-rule="evenodd"/><path fill="#000000" fill-opacity="0.0" d="m46.700787 280.35434l279.3071 0" fill-rule="evenodd"/><path stroke="#999999" stroke-width="3.0" stroke-linejoin="round" stroke-linecap="butt" d="m46.700787 280.35434l279.3071 0" fill-rule="evenodd"/></g></svg>