<?xml version="1.0" encoding="UTF-8" standalone="no"?>
<svg
   xmlns:ns0="http://www.iki.fi/pav/software/textext/"
   xmlns:dc="http://purl.org/dc/elements/1.1/"
   xmlns:cc="http://creativecommons.org/ns#"
   xmlns:rdf="http://www.w3.org/1999/02/22-rdf-syntax-ns#"
   xmlns:svg="http://www.w3.org/2000/svg"
   xmlns="http://www.w3.org/2000/svg"
   xmlns:xlink="http://www.w3.org/1999/xlink"
   version="1.1"
   id="svg2"
   height="297mm"
   width="210mm">
  <defs
     id="defs4">
    <marker
       style="overflow:visible;"
       id="Arrow1Send"
       refX="0.0"
       refY="0.0"
       orient="auto">
      <path
         transform="scale(0.2) rotate(180) translate(6,0)"
         style="fill-rule:evenodd;stroke:#000000;stroke-width:1.0pt;"
         d="M 0.0,0.0 L 5.0,-5.0 L -12.5,0.0 L 5.0,5.0 L 0.0,0.0 z "
         id="path3952" />
    </marker>
    <marker
       style="overflow:visible"
       id="TriangleOutS"
       refX="0.0"
       refY="0.0"
       orient="auto">
      <path
         transform="scale(0.2)"
         style="fill-rule:evenodd;stroke:#000000;stroke-width:1.0pt"
         d="M 5.77,0.0 L -2.88,5.0 L -2.88,-5.0 L 5.77,0.0 z "
         id="path4085" />
    </marker>
    <marker
       style="overflow:visible"
       id="TriangleOutS-7"
       refX="0"
       refY="0"
       orient="auto">
      <path
         transform="scale(0.2,0.2)"
         style="fill-rule:evenodd;stroke:#000000;stroke-width:1pt"
         d="m 5.77,0 -8.65,5 0,-10 8.65,5 z"
         id="path4085-8" />
    </marker>
  </defs>
  <metadata
     id="metadata7">
    <rdf:RDF>
      <cc:Work
         rdf:about="">
        <dc:format>image/svg+xml</dc:format>
        <dc:type
           rdf:resource="http://purl.org/dc/dcmitype/StillImage" />
        <dc:title></dc:title>
      </cc:Work>
    </rdf:RDF>
  </metadata>
  <g
     id="layer1">
    <g
       id="g299">
      <ellipse
         style="opacity:0.05734768;fill:#ff0000;fill-opacity:1;stroke:#ff0000;stroke-width:0.84476012;stroke-miterlimit:4;stroke-dasharray:none;stroke-dashoffset:0;stroke-opacity:1"
         id="path3360"
         cx="155.86169"
         cy="144.23505"
         rx="87.585075"
         ry="34.345188" />
      <ellipse
         style="opacity:0.05734768;fill:#ff0000;fill-opacity:1;stroke:#ff0000;stroke-width:0.87915152;stroke-miterlimit:4;stroke-dasharray:none;stroke-dashoffset:0;stroke-opacity:1"
         id="path3360-0"
         cx="583.00647"
         cy="78.615738"
         rx="94.861664"
         ry="34.345188" />
      <path
         style="opacity:0.56989249;fill:none;stroke:#000000;stroke-width:20;stroke-linecap:butt;stroke-linejoin:miter;stroke-miterlimit:4;stroke-dasharray:none;stroke-opacity:1;marker-end:url(#TriangleOutS)"
         d="M 303.76654,143.23891 C 408.5089,27.785654 514.53159,126.27553 514.53159,126.27553"
         id="path3931" />
      <rect
         style="fill:#ffeeaa;fill-opacity:1;stroke:#000000;stroke-width:2.45560551;stroke-miterlimit:4;stroke-dasharray:none;stroke-dashoffset:0;stroke-opacity:1"
         id="rect4935"
         width="102.53049"
         height="95.936684"
         x="365.74701"
         y="54.636044" />
      <text
         xml:space="preserve"
         style="font-style:normal;font-weight:normal;line-height:0%;font-family:sans-serif;letter-spacing:0px;word-spacing:0px;fill:#000000;fill-opacity:1;stroke:none"
         x="384.41452"
         y="72.293404"
         id="text4931"><tspan
           id="tspan4933"
           x="384.41452"
           y="72.293404"
           style="font-size:18px;line-height:1.25;font-family:sans-serif">mixing</tspan></text>
      <ellipse
         style="fill:#ffeeaa;fill-opacity:1;stroke:#000000;stroke-width:1.14572859;stroke-miterlimit:4;stroke-dasharray:none;stroke-dashoffset:0;stroke-opacity:1"
         id="path2985"
         cx="275.05945"
         cy="197.81033"
         rx="51.148598"
         ry="48.284279" />
      <text
         xml:space="preserve"
         style="font-style:normal;font-weight:normal;line-height:0%;font-family:sans-serif;letter-spacing:0px;word-spacing:0px;fill:#000000;fill-opacity:1;stroke:none"
         x="239.84305"
         y="179.57683"
         id="text3903"><tspan
           id="tspan3905"
           x="239.84305"
           y="179.57683"
           style="font-size:18px;line-height:1.25;font-family:sans-serif">sources</tspan></text>
      <path
         style="opacity:0.56989249;fill:none;stroke:#000000;stroke-width:20;stroke-linecap:butt;stroke-linejoin:miter;stroke-miterlimit:4;stroke-dasharray:none;stroke-opacity:1;marker-end:url(#TriangleOutS)"
         d="M 529.66216,249.28596 C 424.9198,364.73921 318.89711,266.24934 318.89711,266.24934"
         id="path3931-0" />
      <rect
         style="fill:#ffeeaa;fill-opacity:1;stroke:#000000;stroke-width:2.45560551;stroke-miterlimit:4;stroke-dasharray:none;stroke-dashoffset:0;stroke-opacity:1"
         id="rect4935-3"
         width="102.53049"
         height="95.936684"
         x="368.21558"
         y="265.98486" />
      <text
         xml:space="preserve"
         style="font-style:normal;font-weight:normal;line-height:0%;font-family:sans-serif;letter-spacing:0px;word-spacing:0px;fill:#000000;fill-opacity:1;stroke:none"
         x="373.04407"
         y="287.9043"
         id="text4931-2"><tspan
           id="tspan4933-7"
           x="373.04407"
           y="287.9043"
           style="font-size:18px;line-height:1.25;font-family:sans-serif">separation</tspan></text>
      <ellipse
         style="fill:#ffeeaa;fill-opacity:1;stroke:#000000;stroke-width:1.14572859;stroke-miterlimit:4;stroke-dasharray:none;stroke-dashoffset:0;stroke-opacity:1"
         id="path2985-3"
         cx="572.19513"
         cy="197.81033"
         rx="51.148598"
         ry="48.284279" />
      <text
         xml:space="preserve"
         style="font-style:normal;font-weight:normal;line-height:0%;font-family:sans-serif;letter-spacing:0px;word-spacing:0px;fill:#000000;fill-opacity:1;stroke:none"
         x="531.76953"
         y="200.45427"
         id="text3903-1"><tspan
           id="tspan3905-5"
           x="531.76953"
           y="200.45427"
           style="font-size:18px;line-height:1.25;font-family:sans-serif">mixtures</tspan></text>
      <g
         transform="matrix(2,0,0,2,-205.06097,-56.710678)"
         ns0:text="$p\\left(s\\mid \\Theta \\right)$"
         ns0:preamble="/home/antoine/Documents/antoine/presentation-these/figures/preambulemathbb.txt"
         id="g5032">
        <defs
           id="defs5034">
          <g
             id="g5036">
            <symbol
               style="overflow:visible"
               overflow="visible"
               id="textext-117b4186-0">
              <path
                 style="stroke:none"
                 d=""
                 id="path5039" />
            </symbol>
            <symbol
               style="overflow:visible"
               overflow="visible"
               id="textext-117b4186-1">
              <path
                 style="stroke:none"
                 d="M 0.453125,1.21875 C 0.375,1.5625 0.34375,1.625 -0.09375,1.625 c -0.109375,0 -0.21875,0 -0.21875,0.1875 0,0.078125 0.046875,0.125 0.125,0.125 0.265625,0 0.5625,-0.03125 0.828125,-0.03125 0.34375,0 0.671875,0.03125 1,0.03125 0.046875,0 0.171875,0 0.171875,-0.203125 C 1.8125,1.625 1.71875,1.625 1.578125,1.625 c -0.5,0 -0.5,-0.0625 -0.5,-0.15625 0,-0.125 0.421875,-1.75 0.484375,-2 0.125,0.296875 0.40625,0.640625 0.921875,0.640625 1.15625,0 2.40625,-1.453125 2.40625,-2.921875 0,-0.9375 -0.578125,-1.59375 -1.328125,-1.59375 -0.5,0 -0.984375,0.359375 -1.3125,0.75 -0.09375,-0.546875 -0.53125,-0.75 -0.890625,-0.75 -0.46875,0 -0.65625,0.390625 -0.734375,0.5625 C 0.4375,-3.5 0.3125,-2.90625 0.3125,-2.875 c 0,0.109375 0.09375,0.109375 0.109375,0.109375 0.109375,0 0.109375,-0.015625 0.171875,-0.234375 0.171875,-0.703125 0.375,-1.1875 0.734375,-1.1875 0.171875,0 0.3125,0.078125 0.3125,0.453125 0,0.234375 -0.03125,0.34375 -0.078125,0.515625 z m 1.75,-4.328125 C 2.265625,-3.375 2.546875,-3.65625 2.71875,-3.8125 c 0.359375,-0.296875 0.640625,-0.375 0.8125,-0.375 0.390625,0 0.640625,0.34375 0.640625,0.9375 0,0.59375 -0.328125,1.734375 -0.515625,2.109375 -0.34375,0.703125 -0.8125,1.03125 -1.1875,1.03125 C 1.8125,-0.109375 1.6875,-0.9375 1.6875,-1 c 0,-0.015625 0,-0.03125 0.03125,-0.15625 z"
                 id="path5042" />
            </symbol>
            <symbol
               style="overflow:visible"
               overflow="visible"
               id="textext-117b4186-2">
              <path
                 style="stroke:none"
                 d="M 3.890625,-3.734375 C 3.625,-3.71875 3.421875,-3.5 3.421875,-3.28125 c 0,0.140625 0.09375,0.296875 0.3125,0.296875 0.21875,0 0.453125,-0.171875 0.453125,-0.5625 C 4.1875,-4 3.765625,-4.40625 3,-4.40625 c -1.3125,0 -1.6875,1.015625 -1.6875,1.453125 0,0.78125 0.734375,0.921875 1.03125,0.984375 0.515625,0.109375 1.03125,0.21875 1.03125,0.765625 0,0.25 -0.21875,1.09375 -1.421875,1.09375 -0.140625,0 -0.90625,0 -1.140625,-0.53125 0.390625,0.046875 0.640625,-0.25 0.640625,-0.53125 0,-0.21875 -0.171875,-0.34375 -0.375,-0.34375 -0.265625,0 -0.5625,0.203125 -0.5625,0.65625 0,0.5625 0.578125,0.96875 1.421875,0.96875 1.625,0 2.015625,-1.203125 2.015625,-1.65625 0,-0.359375 -0.1875,-0.609375 -0.3125,-0.71875 -0.265625,-0.28125 -0.5625,-0.34375 -1,-0.421875 -0.359375,-0.078125 -0.75,-0.15625 -0.75,-0.609375 C 1.890625,-3.578125 2.125,-4.1875 3,-4.1875 c 0.25,0 0.75,0.078125 0.890625,0.453125 z"
                 id="path5045" />
            </symbol>
            <symbol
               style="overflow:visible"
               overflow="visible"
               id="textext-117b4186-3">
              <path
                 style="stroke:none"
                 d=""
                 id="path5048" />
            </symbol>
            <symbol
               style="overflow:visible"
               overflow="visible"
               id="textext-117b4186-4">
              <path
                 style="stroke:none"
                 d="m 3.296875,2.390625 c 0,-0.03125 0,-0.046875 -0.171875,-0.21875 C 1.890625,0.921875 1.5625,-0.96875 1.5625,-2.5 c 0,-1.734375 0.375,-3.46875 1.609375,-4.703125 0.125,-0.125 0.125,-0.140625 0.125,-0.171875 0,-0.078125 -0.03125,-0.109375 -0.09375,-0.109375 -0.109375,0 -1,0.6875 -1.59375,1.953125 -0.5,1.09375 -0.625,2.203125 -0.625,3.03125 0,0.78125 0.109375,1.984375 0.65625,3.125 C 2.25,1.84375 3.09375,2.5 3.203125,2.5 c 0.0625,0 0.09375,-0.03125 0.09375,-0.109375 z"
                 id="path5051" />
            </symbol>
            <symbol
               style="overflow:visible"
               overflow="visible"
               id="textext-117b4186-5">
              <path
                 style="stroke:none"
                 d="m 7.1875,-3.375 c 0,-2.03125 -1.5,-3.65625 -3.3125,-3.65625 -1.796875,0 -3.3125,1.59375 -3.3125,3.65625 0,2.046875 1.53125,3.59375 3.3125,3.59375 1.8125,0 3.3125,-1.578125 3.3125,-3.59375 z M 3.875,-0.015625 c -0.984375,0 -2.34375,-0.859375 -2.34375,-3.359375 0,-2.5625 1.375,-3.4375 2.34375,-3.4375 1,0 2.34375,0.90625 2.34375,3.4375 0,2.53125 -1.40625,3.359375 -2.34375,3.359375 z M 5.65625,-4.125 h -0.25 v 0.34375 H 2.34375 V -4.125 h -0.25 v 1.4375 h 0.25 v -0.34375 h 3.0625 v 0.34375 h 0.25 z"
                 id="path5054" />
            </symbol>
            <symbol
               style="overflow:visible"
               overflow="visible"
               id="textext-117b4186-6">
              <path
                 style="stroke:none"
                 d="m 2.875,-2.5 c 0,-0.765625 -0.109375,-1.96875 -0.65625,-3.109375 -0.59375,-1.21875 -1.453125,-1.875 -1.546875,-1.875 -0.0625,0 -0.109375,0.046875 -0.109375,0.109375 0,0.03125 0,0.046875 0.1875,0.234375 0.984375,0.984375 1.546875,2.5625 1.546875,4.640625 0,1.71875 -0.359375,3.46875 -1.59375,4.71875 C 0.5625,2.34375 0.5625,2.359375 0.5625,2.390625 0.5625,2.453125 0.609375,2.5 0.671875,2.5 0.765625,2.5 1.671875,1.8125 2.25,0.546875 2.765625,-0.546875 2.875,-1.65625 2.875,-2.5 Z"
                 id="path5057" />
            </symbol>
            <symbol
               style="overflow:visible"
               overflow="visible"
               id="textext-117b4186-7">
              <path
                 style="stroke:none"
                 d=""
                 id="path5060" />
            </symbol>
            <symbol
               style="overflow:visible"
               overflow="visible"
               id="textext-117b4186-8">
              <path
                 style="stroke:none"
                 d="m 1.578125,-7.125 c 0,-0.171875 0,-0.359375 -0.1875,-0.359375 -0.203125,0 -0.203125,0.1875 -0.203125,0.359375 v 9.265625 c 0,0.171875 0,0.359375 0.203125,0.359375 0.1875,0 0.1875,-0.1875 0.1875,-0.359375 z"
                 id="path5063" />
            </symbol>
          </g>
        </defs>
        <g
           id="textext-117b4186-9">
          <g
             style="fill:#000000;fill-opacity:1"
             id="g5066">
            <use
               height="1052.3622"
               width="744.09448"
               xlink:href="#textext-117b4186-1"
               x="223.43201"
               y="134.765"
               id="use5068" />
          </g>
          <g
             style="fill:#000000;fill-opacity:1"
             id="g5070">
            <use
               height="1052.3622"
               width="744.09448"
               xlink:href="#textext-117b4186-4"
               x="230.105"
               y="134.765"
               id="use5072" />
          </g>
          <g
             style="fill:#000000;fill-opacity:1"
             id="g5074">
            <use
               height="1052.3622"
               width="744.09448"
               xlink:href="#textext-117b4186-2"
               x="233.979"
               y="134.765"
               id="use5076" />
          </g>
          <g
             style="fill:#000000;fill-opacity:1"
             id="g5078">
            <use
               height="1052.3622"
               width="744.09448"
               xlink:href="#textext-117b4186-8"
               x="241.41701"
               y="134.765"
               id="use5080" />
          </g>
          <g
             style="fill:#000000;fill-opacity:1"
             id="g5082">
            <use
               height="1052.3622"
               width="744.09448"
               xlink:href="#textext-117b4186-5"
               x="246.951"
               y="134.765"
               id="use5084" />
            <use
               height="1052.3622"
               width="744.09448"
               xlink:href="#textext-117b4186-6"
               x="254.69991"
               y="134.765"
               id="use5086" />
          </g>
        </g>
      </g>
      <g
         ns0:text="$p\\left(x\\mid s,\\Theta\\right)$"
         ns0:preamble="/home/antoine/Documents/antoine/presentation-these/figures/preambulemathbb.txt"
         transform="matrix(2,0,0,2,-73.582637,-160.87912)"
         id="g5580">
        <defs
           id="defs5582">
          <g
             id="g5584">
            <symbol
               style="overflow:visible"
               overflow="visible"
               id="textext-0dffa166-0">
              <path
                 style="stroke:none"
                 d=""
                 id="path5587" />
            </symbol>
            <symbol
               style="overflow:visible"
               overflow="visible"
               id="textext-0dffa166-1">
              <path
                 style="stroke:none"
                 d="M 0.453125,1.21875 C 0.375,1.5625 0.34375,1.625 -0.09375,1.625 c -0.109375,0 -0.21875,0 -0.21875,0.1875 0,0.078125 0.046875,0.125 0.125,0.125 0.265625,0 0.5625,-0.03125 0.828125,-0.03125 0.34375,0 0.671875,0.03125 1,0.03125 0.046875,0 0.171875,0 0.171875,-0.203125 C 1.8125,1.625 1.71875,1.625 1.578125,1.625 c -0.5,0 -0.5,-0.0625 -0.5,-0.15625 0,-0.125 0.421875,-1.75 0.484375,-2 0.125,0.296875 0.40625,0.640625 0.921875,0.640625 1.15625,0 2.40625,-1.453125 2.40625,-2.921875 0,-0.9375 -0.578125,-1.59375 -1.328125,-1.59375 -0.5,0 -0.984375,0.359375 -1.3125,0.75 -0.09375,-0.546875 -0.53125,-0.75 -0.890625,-0.75 -0.46875,0 -0.65625,0.390625 -0.734375,0.5625 C 0.4375,-3.5 0.3125,-2.90625 0.3125,-2.875 c 0,0.109375 0.09375,0.109375 0.109375,0.109375 0.109375,0 0.109375,-0.015625 0.171875,-0.234375 0.171875,-0.703125 0.375,-1.1875 0.734375,-1.1875 0.171875,0 0.3125,0.078125 0.3125,0.453125 0,0.234375 -0.03125,0.34375 -0.078125,0.515625 z m 1.75,-4.328125 C 2.265625,-3.375 2.546875,-3.65625 2.71875,-3.8125 c 0.359375,-0.296875 0.640625,-0.375 0.8125,-0.375 0.390625,0 0.640625,0.34375 0.640625,0.9375 0,0.59375 -0.328125,1.734375 -0.515625,2.109375 -0.34375,0.703125 -0.8125,1.03125 -1.1875,1.03125 C 1.8125,-0.109375 1.6875,-0.9375 1.6875,-1 c 0,-0.015625 0,-0.03125 0.03125,-0.15625 z"
                 id="path5590" />
            </symbol>
            <symbol
               style="overflow:visible"
               overflow="visible"
               id="textext-0dffa166-2">
              <path
                 style="stroke:none"
                 d="M 3.328125,-3.015625 C 3.390625,-3.265625 3.625,-4.1875 4.3125,-4.1875 c 0.046875,0 0.296875,0 0.5,0.125 C 4.53125,-4 4.34375,-3.765625 4.34375,-3.515625 c 0,0.15625 0.109375,0.34375 0.375,0.34375 0.21875,0 0.53125,-0.171875 0.53125,-0.578125 0,-0.515625 -0.578125,-0.65625 -0.921875,-0.65625 -0.578125,0 -0.921875,0.53125 -1.046875,0.75 -0.25,-0.65625 -0.78125,-0.75 -1.078125,-0.75 -1.03125,0 -1.609375,1.28125 -1.609375,1.53125 0,0.109375 0.109375,0.109375 0.125,0.109375 0.078125,0 0.109375,-0.03125 0.125,-0.109375 0.34375,-1.0625 1,-1.3125 1.34375,-1.3125 0.1875,0 0.53125,0.09375 0.53125,0.671875 0,0.3125 -0.171875,0.96875 -0.53125,2.375 -0.15625,0.609375 -0.515625,1.03125 -0.953125,1.03125 -0.0625,0 -0.28125,0 -0.5,-0.125 0.25,-0.0625 0.46875,-0.265625 0.46875,-0.546875 0,-0.265625 -0.21875,-0.34375 -0.359375,-0.34375 -0.3125,0 -0.546875,0.25 -0.546875,0.578125 0,0.453125 0.484375,0.65625 0.921875,0.65625 0.671875,0 1.03125,-0.703125 1.046875,-0.75 0.125,0.359375 0.484375,0.75 1.078125,0.75 1.03125,0 1.59375,-1.28125 1.59375,-1.53125 0,-0.109375 -0.078125,-0.109375 -0.109375,-0.109375 -0.09375,0 -0.109375,0.046875 -0.140625,0.109375 -0.328125,1.078125 -1,1.3125 -1.3125,1.3125 -0.390625,0 -0.546875,-0.3125 -0.546875,-0.65625 0,-0.21875 0.046875,-0.4375 0.15625,-0.875 z"
                 id="path5593" />
            </symbol>
            <symbol
               style="overflow:visible"
               overflow="visible"
               id="textext-0dffa166-3">
              <path
                 style="stroke:none"
                 d="M 3.890625,-3.734375 C 3.625,-3.71875 3.421875,-3.5 3.421875,-3.28125 c 0,0.140625 0.09375,0.296875 0.3125,0.296875 0.21875,0 0.453125,-0.171875 0.453125,-0.5625 C 4.1875,-4 3.765625,-4.40625 3,-4.40625 c -1.3125,0 -1.6875,1.015625 -1.6875,1.453125 0,0.78125 0.734375,0.921875 1.03125,0.984375 0.515625,0.109375 1.03125,0.21875 1.03125,0.765625 0,0.25 -0.21875,1.09375 -1.421875,1.09375 -0.140625,0 -0.90625,0 -1.140625,-0.53125 0.390625,0.046875 0.640625,-0.25 0.640625,-0.53125 0,-0.21875 -0.171875,-0.34375 -0.375,-0.34375 -0.265625,0 -0.5625,0.203125 -0.5625,0.65625 0,0.5625 0.578125,0.96875 1.421875,0.96875 1.625,0 2.015625,-1.203125 2.015625,-1.65625 0,-0.359375 -0.1875,-0.609375 -0.3125,-0.71875 -0.265625,-0.28125 -0.5625,-0.34375 -1,-0.421875 -0.359375,-0.078125 -0.75,-0.15625 -0.75,-0.609375 C 1.890625,-3.578125 2.125,-4.1875 3,-4.1875 c 0.25,0 0.75,0.078125 0.890625,0.453125 z"
                 id="path5596" />
            </symbol>
            <symbol
               style="overflow:visible"
               overflow="visible"
               id="textext-0dffa166-4">
              <path
                 style="stroke:none"
                 d="m 2.03125,-0.015625 c 0,-0.65625 -0.25,-1.046875 -0.640625,-1.046875 -0.328125,0 -0.53125,0.25 -0.53125,0.53125 C 0.859375,-0.265625 1.0625,0 1.390625,0 1.5,0 1.640625,-0.046875 1.734375,-0.125 1.765625,-0.15625 1.78125,-0.15625 1.78125,-0.15625 c 0.015625,0 0.015625,0 0.015625,0.140625 0,0.75 -0.34375,1.34375 -0.671875,1.671875 -0.109375,0.109375 -0.109375,0.125 -0.109375,0.15625 0,0.078125 0.046875,0.109375 0.09375,0.109375 0.109375,0 0.921875,-0.765625 0.921875,-1.9375 z"
                 id="path5599" />
            </symbol>
            <symbol
               style="overflow:visible"
               overflow="visible"
               id="textext-0dffa166-5">
              <path
                 style="stroke:none"
                 d=""
                 id="path5602" />
            </symbol>
            <symbol
               style="overflow:visible"
               overflow="visible"
               id="textext-0dffa166-6">
              <path
                 style="stroke:none"
                 d="m 3.296875,2.390625 c 0,-0.03125 0,-0.046875 -0.171875,-0.21875 C 1.890625,0.921875 1.5625,-0.96875 1.5625,-2.5 c 0,-1.734375 0.375,-3.46875 1.609375,-4.703125 0.125,-0.125 0.125,-0.140625 0.125,-0.171875 0,-0.078125 -0.03125,-0.109375 -0.09375,-0.109375 -0.109375,0 -1,0.6875 -1.59375,1.953125 -0.5,1.09375 -0.625,2.203125 -0.625,3.03125 0,0.78125 0.109375,1.984375 0.65625,3.125 C 2.25,1.84375 3.09375,2.5 3.203125,2.5 c 0.0625,0 0.09375,-0.03125 0.09375,-0.109375 z"
                 id="path5605" />
            </symbol>
            <symbol
               style="overflow:visible"
               overflow="visible"
               id="textext-0dffa166-7">
              <path
                 style="stroke:none"
                 d="m 7.1875,-3.375 c 0,-2.03125 -1.5,-3.65625 -3.3125,-3.65625 -1.796875,0 -3.3125,1.59375 -3.3125,3.65625 0,2.046875 1.53125,3.59375 3.3125,3.59375 1.8125,0 3.3125,-1.578125 3.3125,-3.59375 z M 3.875,-0.015625 c -0.984375,0 -2.34375,-0.859375 -2.34375,-3.359375 0,-2.5625 1.375,-3.4375 2.34375,-3.4375 1,0 2.34375,0.90625 2.34375,3.4375 0,2.53125 -1.40625,3.359375 -2.34375,3.359375 z M 5.65625,-4.125 h -0.25 v 0.34375 H 2.34375 V -4.125 h -0.25 v 1.4375 h 0.25 v -0.34375 h 3.0625 v 0.34375 h 0.25 z"
                 id="path5608" />
            </symbol>
            <symbol
               style="overflow:visible"
               overflow="visible"
               id="textext-0dffa166-8">
              <path
                 style="stroke:none"
                 d="m 2.875,-2.5 c 0,-0.765625 -0.109375,-1.96875 -0.65625,-3.109375 -0.59375,-1.21875 -1.453125,-1.875 -1.546875,-1.875 -0.0625,0 -0.109375,0.046875 -0.109375,0.109375 0,0.03125 0,0.046875 0.1875,0.234375 0.984375,0.984375 1.546875,2.5625 1.546875,4.640625 0,1.71875 -0.359375,3.46875 -1.59375,4.71875 C 0.5625,2.34375 0.5625,2.359375 0.5625,2.390625 0.5625,2.453125 0.609375,2.5 0.671875,2.5 0.765625,2.5 1.671875,1.8125 2.25,0.546875 2.765625,-0.546875 2.875,-1.65625 2.875,-2.5 Z"
                 id="path5611" />
            </symbol>
            <symbol
               style="overflow:visible"
               overflow="visible"
               id="textext-0dffa166-9">
              <path
                 style="stroke:none"
                 d=""
                 id="path5614" />
            </symbol>
            <symbol
               style="overflow:visible"
               overflow="visible"
               id="textext-0dffa166-10">
              <path
                 style="stroke:none"
                 d="m 1.578125,-7.125 c 0,-0.171875 0,-0.359375 -0.1875,-0.359375 -0.203125,0 -0.203125,0.1875 -0.203125,0.359375 v 9.265625 c 0,0.171875 0,0.359375 0.203125,0.359375 0.1875,0 0.1875,-0.1875 0.1875,-0.359375 z"
                 id="path5617" />
            </symbol>
          </g>
        </defs>
        <g
           id="textext-0dffa166-11">
          <g
             style="fill:#000000;fill-opacity:1"
             id="g5620">
            <use
               height="1052.3622"
               width="744.09448"
               xlink:href="#textext-0dffa166-1"
               x="223.43201"
               y="134.765"
               id="use5622" />
          </g>
          <g
             style="fill:#000000;fill-opacity:1"
             id="g5624">
            <use
               height="1052.3622"
               width="744.09448"
               xlink:href="#textext-0dffa166-6"
               x="230.105"
               y="134.765"
               id="use5626" />
          </g>
          <g
             style="fill:#000000;fill-opacity:1"
             id="g5628">
            <use
               height="1052.3622"
               width="744.09448"
               xlink:href="#textext-0dffa166-2"
               x="233.979"
               y="134.765"
               id="use5630" />
          </g>
          <g
             style="fill:#000000;fill-opacity:1"
             id="g5632">
            <use
               height="1052.3622"
               width="744.09448"
               xlink:href="#textext-0dffa166-10"
               x="242.44099"
               y="134.765"
               id="use5634" />
          </g>
          <g
             style="fill:#000000;fill-opacity:1"
             id="g5636">
            <use
               height="1052.3622"
               width="744.09448"
               xlink:href="#textext-0dffa166-3"
               x="247.97501"
               y="134.765"
               id="use5638" />
            <use
               height="1052.3622"
               width="744.09448"
               xlink:href="#textext-0dffa166-4"
               x="252.64546"
               y="134.765"
               id="use5640" />
          </g>
          <g
             style="fill:#000000;fill-opacity:1"
             id="g5642">
            <use
               height="1052.3622"
               width="744.09448"
               xlink:href="#textext-0dffa166-7"
               x="257.073"
               y="134.765"
               id="use5644" />
            <use
               height="1052.3622"
               width="744.09448"
               xlink:href="#textext-0dffa166-8"
               x="264.8219"
               y="134.765"
               id="use5646" />
          </g>
        </g>
      </g>
      <g
         id="g6585"
         transform="matrix(2,0,0,2,-71.521717,53.252913)"
         ns0:preamble="/home/antoine/Documents/antoine/presentation-these/figures/preambulemathbb.txt"
         ns0:text="$p\\left(s\\mid x,\\Theta \\right)$">
        <defs
           id="defs6587">
          <g
             id="g6589">
            <symbol
               id="textext-dc02f556-0"
               overflow="visible"
               style="overflow:visible">
              <path
                 id="path6592"
                 d=""
                 style="stroke:none" />
            </symbol>
            <symbol
               id="textext-dc02f556-1"
               overflow="visible"
               style="overflow:visible">
              <path
                 id="path6595"
                 d="M 0.453125,1.21875 C 0.375,1.5625 0.34375,1.625 -0.09375,1.625 c -0.109375,0 -0.21875,0 -0.21875,0.1875 0,0.078125 0.046875,0.125 0.125,0.125 0.265625,0 0.5625,-0.03125 0.828125,-0.03125 0.34375,0 0.671875,0.03125 1,0.03125 0.046875,0 0.171875,0 0.171875,-0.203125 C 1.8125,1.625 1.71875,1.625 1.578125,1.625 c -0.5,0 -0.5,-0.0625 -0.5,-0.15625 0,-0.125 0.421875,-1.75 0.484375,-2 0.125,0.296875 0.40625,0.640625 0.921875,0.640625 1.15625,0 2.40625,-1.453125 2.40625,-2.921875 0,-0.9375 -0.578125,-1.59375 -1.328125,-1.59375 -0.5,0 -0.984375,0.359375 -1.3125,0.75 -0.09375,-0.546875 -0.53125,-0.75 -0.890625,-0.75 -0.46875,0 -0.65625,0.390625 -0.734375,0.5625 C 0.4375,-3.5 0.3125,-2.90625 0.3125,-2.875 c 0,0.109375 0.09375,0.109375 0.109375,0.109375 0.109375,0 0.109375,-0.015625 0.171875,-0.234375 0.171875,-0.703125 0.375,-1.1875 0.734375,-1.1875 0.171875,0 0.3125,0.078125 0.3125,0.453125 0,0.234375 -0.03125,0.34375 -0.078125,0.515625 z m 1.75,-4.328125 C 2.265625,-3.375 2.546875,-3.65625 2.71875,-3.8125 c 0.359375,-0.296875 0.640625,-0.375 0.8125,-0.375 0.390625,0 0.640625,0.34375 0.640625,0.9375 0,0.59375 -0.328125,1.734375 -0.515625,2.109375 -0.34375,0.703125 -0.8125,1.03125 -1.1875,1.03125 C 1.8125,-0.109375 1.6875,-0.9375 1.6875,-1 c 0,-0.015625 0,-0.03125 0.03125,-0.15625 z"
                 style="stroke:none" />
            </symbol>
            <symbol
               id="textext-dc02f556-2"
               overflow="visible"
               style="overflow:visible">
              <path
                 id="path6598"
                 d="M 3.890625,-3.734375 C 3.625,-3.71875 3.421875,-3.5 3.421875,-3.28125 c 0,0.140625 0.09375,0.296875 0.3125,0.296875 0.21875,0 0.453125,-0.171875 0.453125,-0.5625 C 4.1875,-4 3.765625,-4.40625 3,-4.40625 c -1.3125,0 -1.6875,1.015625 -1.6875,1.453125 0,0.78125 0.734375,0.921875 1.03125,0.984375 0.515625,0.109375 1.03125,0.21875 1.03125,0.765625 0,0.25 -0.21875,1.09375 -1.421875,1.09375 -0.140625,0 -0.90625,0 -1.140625,-0.53125 0.390625,0.046875 0.640625,-0.25 0.640625,-0.53125 0,-0.21875 -0.171875,-0.34375 -0.375,-0.34375 -0.265625,0 -0.5625,0.203125 -0.5625,0.65625 0,0.5625 0.578125,0.96875 1.421875,0.96875 1.625,0 2.015625,-1.203125 2.015625,-1.65625 0,-0.359375 -0.1875,-0.609375 -0.3125,-0.71875 -0.265625,-0.28125 -0.5625,-0.34375 -1,-0.421875 -0.359375,-0.078125 -0.75,-0.15625 -0.75,-0.609375 C 1.890625,-3.578125 2.125,-4.1875 3,-4.1875 c 0.25,0 0.75,0.078125 0.890625,0.453125 z"
                 style="stroke:none" />
            </symbol>
            <symbol
               id="textext-dc02f556-3"
               overflow="visible"
               style="overflow:visible">
              <path
                 id="path6601"
                 d="M 3.328125,-3.015625 C 3.390625,-3.265625 3.625,-4.1875 4.3125,-4.1875 c 0.046875,0 0.296875,0 0.5,0.125 C 4.53125,-4 4.34375,-3.765625 4.34375,-3.515625 c 0,0.15625 0.109375,0.34375 0.375,0.34375 0.21875,0 0.53125,-0.171875 0.53125,-0.578125 0,-0.515625 -0.578125,-0.65625 -0.921875,-0.65625 -0.578125,0 -0.921875,0.53125 -1.046875,0.75 -0.25,-0.65625 -0.78125,-0.75 -1.078125,-0.75 -1.03125,0 -1.609375,1.28125 -1.609375,1.53125 0,0.109375 0.109375,0.109375 0.125,0.109375 0.078125,0 0.109375,-0.03125 0.125,-0.109375 0.34375,-1.0625 1,-1.3125 1.34375,-1.3125 0.1875,0 0.53125,0.09375 0.53125,0.671875 0,0.3125 -0.171875,0.96875 -0.53125,2.375 -0.15625,0.609375 -0.515625,1.03125 -0.953125,1.03125 -0.0625,0 -0.28125,0 -0.5,-0.125 0.25,-0.0625 0.46875,-0.265625 0.46875,-0.546875 0,-0.265625 -0.21875,-0.34375 -0.359375,-0.34375 -0.3125,0 -0.546875,0.25 -0.546875,0.578125 0,0.453125 0.484375,0.65625 0.921875,0.65625 0.671875,0 1.03125,-0.703125 1.046875,-0.75 0.125,0.359375 0.484375,0.75 1.078125,0.75 1.03125,0 1.59375,-1.28125 1.59375,-1.53125 0,-0.109375 -0.078125,-0.109375 -0.109375,-0.109375 -0.09375,0 -0.109375,0.046875 -0.140625,0.109375 -0.328125,1.078125 -1,1.3125 -1.3125,1.3125 -0.390625,0 -0.546875,-0.3125 -0.546875,-0.65625 0,-0.21875 0.046875,-0.4375 0.15625,-0.875 z"
                 style="stroke:none" />
            </symbol>
            <symbol
               id="textext-dc02f556-4"
               overflow="visible"
               style="overflow:visible">
              <path
                 id="path6604"
                 d="m 2.03125,-0.015625 c 0,-0.65625 -0.25,-1.046875 -0.640625,-1.046875 -0.328125,0 -0.53125,0.25 -0.53125,0.53125 C 0.859375,-0.265625 1.0625,0 1.390625,0 1.5,0 1.640625,-0.046875 1.734375,-0.125 1.765625,-0.15625 1.78125,-0.15625 1.78125,-0.15625 c 0.015625,0 0.015625,0 0.015625,0.140625 0,0.75 -0.34375,1.34375 -0.671875,1.671875 -0.109375,0.109375 -0.109375,0.125 -0.109375,0.15625 0,0.078125 0.046875,0.109375 0.09375,0.109375 0.109375,0 0.921875,-0.765625 0.921875,-1.9375 z"
                 style="stroke:none" />
            </symbol>
            <symbol
               id="textext-dc02f556-5"
               overflow="visible"
               style="overflow:visible">
              <path
                 id="path6607"
                 d=""
                 style="stroke:none" />
            </symbol>
            <symbol
               id="textext-dc02f556-6"
               overflow="visible"
               style="overflow:visible">
              <path
                 id="path6610"
                 d="m 3.296875,2.390625 c 0,-0.03125 0,-0.046875 -0.171875,-0.21875 C 1.890625,0.921875 1.5625,-0.96875 1.5625,-2.5 c 0,-1.734375 0.375,-3.46875 1.609375,-4.703125 0.125,-0.125 0.125,-0.140625 0.125,-0.171875 0,-0.078125 -0.03125,-0.109375 -0.09375,-0.109375 -0.109375,0 -1,0.6875 -1.59375,1.953125 -0.5,1.09375 -0.625,2.203125 -0.625,3.03125 0,0.78125 0.109375,1.984375 0.65625,3.125 C 2.25,1.84375 3.09375,2.5 3.203125,2.5 c 0.0625,0 0.09375,-0.03125 0.09375,-0.109375 z"
                 style="stroke:none" />
            </symbol>
            <symbol
               id="textext-dc02f556-7"
               overflow="visible"
               style="overflow:visible">
              <path
                 id="path6613"
                 d="m 7.1875,-3.375 c 0,-2.03125 -1.5,-3.65625 -3.3125,-3.65625 -1.796875,0 -3.3125,1.59375 -3.3125,3.65625 0,2.046875 1.53125,3.59375 3.3125,3.59375 1.8125,0 3.3125,-1.578125 3.3125,-3.59375 z M 3.875,-0.015625 c -0.984375,0 -2.34375,-0.859375 -2.34375,-3.359375 0,-2.5625 1.375,-3.4375 2.34375,-3.4375 1,0 2.34375,0.90625 2.34375,3.4375 0,2.53125 -1.40625,3.359375 -2.34375,3.359375 z M 5.65625,-4.125 h -0.25 v 0.34375 H 2.34375 V -4.125 h -0.25 v 1.4375 h 0.25 v -0.34375 h 3.0625 v 0.34375 h 0.25 z"
                 style="stroke:none" />
            </symbol>
            <symbol
               id="textext-dc02f556-8"
               overflow="visible"
               style="overflow:visible">
              <path
                 id="path6616"
                 d="m 2.875,-2.5 c 0,-0.765625 -0.109375,-1.96875 -0.65625,-3.109375 -0.59375,-1.21875 -1.453125,-1.875 -1.546875,-1.875 -0.0625,0 -0.109375,0.046875 -0.109375,0.109375 0,0.03125 0,0.046875 0.1875,0.234375 0.984375,0.984375 1.546875,2.5625 1.546875,4.640625 0,1.71875 -0.359375,3.46875 -1.59375,4.71875 C 0.5625,2.34375 0.5625,2.359375 0.5625,2.390625 0.5625,2.453125 0.609375,2.5 0.671875,2.5 0.765625,2.5 1.671875,1.8125 2.25,0.546875 2.765625,-0.546875 2.875,-1.65625 2.875,-2.5 Z"
                 style="stroke:none" />
            </symbol>
            <symbol
               id="textext-dc02f556-9"
               overflow="visible"
               style="overflow:visible">
              <path
                 id="path6619"
                 d=""
                 style="stroke:none" />
            </symbol>
            <symbol
               id="textext-dc02f556-10"
               overflow="visible"
               style="overflow:visible">
              <path
                 id="path6622"
                 d="m 1.578125,-7.125 c 0,-0.171875 0,-0.359375 -0.1875,-0.359375 -0.203125,0 -0.203125,0.1875 -0.203125,0.359375 v 9.265625 c 0,0.171875 0,0.359375 0.203125,0.359375 0.1875,0 0.1875,-0.1875 0.1875,-0.359375 z"
                 style="stroke:none" />
            </symbol>
          </g>
        </defs>
        <g
           id="textext-dc02f556-11">
          <g
             id="g6625"
             style="fill:#000000;fill-opacity:1">
            <use
               id="use6627"
               y="134.765"
               x="223.43201"
               xlink:href="#textext-dc02f556-1"
               width="100%"
               height="100%" />
          </g>
          <g
             id="g6629"
             style="fill:#000000;fill-opacity:1">
            <use
               id="use6631"
               y="134.765"
               x="230.105"
               xlink:href="#textext-dc02f556-6"
               width="100%"
               height="100%" />
          </g>
          <g
             id="g6633"
             style="fill:#000000;fill-opacity:1">
            <use
               id="use6635"
               y="134.765"
               x="233.979"
               xlink:href="#textext-dc02f556-2"
               width="100%"
               height="100%" />
          </g>
          <g
             id="g6637"
             style="fill:#000000;fill-opacity:1">
            <use
               id="use6639"
               y="134.765"
               x="241.41701"
               xlink:href="#textext-dc02f556-10"
               width="100%"
               height="100%" />
          </g>
          <g
             id="g6641"
             style="fill:#000000;fill-opacity:1">
            <use
               id="use6643"
               y="134.765"
               x="246.951"
               xlink:href="#textext-dc02f556-3"
               width="100%"
               height="100%" />
            <use
               id="use6645"
               y="134.765"
               x="252.64462"
               xlink:href="#textext-dc02f556-4"
               width="100%"
               height="100%" />
          </g>
          <g
             id="g6647"
             style="fill:#000000;fill-opacity:1">
            <use
               id="use6649"
               y="134.765"
               x="257.073"
               xlink:href="#textext-dc02f556-7"
               width="100%"
               height="100%" />
            <use
               id="use6651"
               y="134.765"
               x="264.8219"
               xlink:href="#textext-dc02f556-8"
               width="100%"
               height="100%" />
          </g>
        </g>
      </g>
      <text
         xml:space="preserve"
         style="font-style:normal;font-weight:normal;line-height:0%;font-family:sans-serif;letter-spacing:0px;word-spacing:0px;fill:#000000;fill-opacity:1;stroke:none"
         x="77.578697"
         y="141.22488"
         id="text3299"><tspan
           x="77.578697"
           y="141.22488"
           id="tspan3303"
           style="font-size:18px;line-height:1.25;font-family:sans-serif">1. Which sources</tspan><tspan
           x="77.578697"
           y="163.72488"
           style="font-size:18px;line-height:1.25;font-family:sans-serif"
           id="tspan3130">    are plausible?</tspan></text>
      <text
         xml:space="preserve"
         style="font-style:normal;font-weight:normal;line-height:0%;font-family:sans-serif;letter-spacing:0px;word-spacing:0px;fill:#000000;fill-opacity:1;stroke:none"
         x="497.29788"
         y="77.341705"
         id="text3299-8"><tspan
           x="497.29788"
           y="77.341705"
           id="tspan3303-9"
           style="font-size:18px;line-height:1.25;font-family:sans-serif">2. Which mixtures</tspan><tspan
           x="497.29788"
           y="99.841705"
           style="font-size:18px;line-height:1.25;font-family:sans-serif"
           id="tspan3331">    are plausible?</tspan></text>
      <text
         xml:space="preserve"
         style="font-style:normal;font-weight:normal;line-height:0%;font-family:sans-serif;letter-spacing:0px;word-spacing:0px;fill:#000000;fill-opacity:1;stroke:none"
         x="509.41971"
         y="315.73773"
         id="text3299-2"><tspan
           x="509.41971"
           y="315.73773"
           style="font-size:18px;line-height:1.25;font-family:sans-serif"
           id="tspan3346">3. How to separate</tspan><tspan
           x="509.41971"
           y="338.23773"
           style="font-size:18px;line-height:1.25;font-family:sans-serif"
           id="tspan3350">    the sources</tspan><tspan
           x="509.41971"
           y="360.73773"
           style="font-size:18px;line-height:1.25;font-family:sans-serif"
           id="tspan3352">4. How to estimate</tspan><tspan
           x="509.41971"
           y="383.23773"
           style="font-size:18px;line-height:1.25;font-family:sans-serif"
           id="tspan3358">    the parameters?</tspan></text>
      <text
         xml:space="preserve"
         style="font-style:normal;font-weight:normal;line-height:0%;font-family:sans-serif;letter-spacing:0px;word-spacing:0px;fill:#000000;fill-opacity:1;stroke:none"
         x="702.05603"
         y="329.09296"
         id="text3354"><tspan
           id="tspan3356"
           x="702.05603"
           y="329.09296"
           style="font-size:24px;line-height:1.25;font-family:sans-serif"> </tspan></text>
      <ellipse
         style="opacity:0.05734768;fill:#ff0000;fill-opacity:1;stroke:#ff0000;stroke-width:1.34013772;stroke-miterlimit:4;stroke-dasharray:none;stroke-dashoffset:0;stroke-opacity:1"
         id="path3360-3"
         cx="602.07123"
         cy="340.26822"
         rx="122.73354"
         ry="61.682899" />
    </g>
  </g>
</svg>
