<svg version="1.1" viewBox="0.0 0.0 644.9343832020998 397.5721784776903" fill="none" stroke="none" stroke-linecap="square" stroke-miterlimit="10" xmlns:xlink="http://www.w3.org/1999/xlink" xmlns="http://www.w3.org/2000/svg"><clipPath id="p.0"><path d="m0 0l644.9344 0l0 397.57217l-644.9344 0l0 -397.57217z" clip-rule="nonzero"/></clipPath><g clip-path="url(#p.0)"><path fill="#000000" fill-opacity="0.0" d="m0 0l644.9344 0l0 397.57217l-644.9344 0z" fill-rule="evenodd"/><path fill="#000000" fill-opacity="0.0" d="m17.333334 239.14174l565.6378 3.0551147" fill-rule="evenodd"/><path stroke="#000000" stroke-width="3.0" stroke-linejoin="round" stroke-linecap="butt" d="m17.333334 239.14174l547.63806 2.957901" fill-rule="evenodd"/><path fill="#000000" stroke="#000000" stroke-width="3.0" stroke-linecap="butt" d="m564.94464 247.05475l13.640869 -4.881592l-13.587341 -5.028656z" fill-rule="evenodd"/><path fill="#000000" fill-opacity="0.0" d="m290.5748 388.7139l3.8110352 -380.56693" fill-rule="evenodd"/><path stroke="#000000" stroke-width="3.0" stroke-linejoin="round" stroke-linecap="butt" d="m290.5748 388.7139l3.6307983 -362.5678" fill-rule="evenodd"/><path fill="#000000" stroke="#000000" stroke-width="3.0" stroke-linecap="butt" d="m299.16052 26.195698l-4.8186035 -13.663229l-5.091278 13.56399z" fill-rule="evenodd"/><path fill="#000000" fill-opacity="0.0" d="m560.5565 226.56168l74.64569 0l0 64.346466l-74.64569 0z" fill-rule="evenodd"/><path fill="#000000" d="m574.75964 273.96167q-0.125 0.046875 -0.40625 0.046875q-0.640625 0 -1.0 -0.640625q-0.359375 -0.640625 -0.359375 -1.765625q0 -0.921875 0.25 -2.125q0.4375 -1.15625 0.4375 -1.671875q0.109375 -0.765625 0.8125 -2.734375q0.703125 -1.984375 0.90625 -2.390625q0.15625 0 0.265625 -0.25q0.125 -0.265625 0.125 -0.59375q0 -0.359375 0.140625 -0.734375q0.140625 -0.375 0.3125 -0.546875q0 -0.109375 0.09375 -0.421875q0.09375 -0.328125 0.09375 -0.453125q0 -0.078125 0.09375 -0.296875q0.109375 -0.21875 0.109375 -0.34375q0.640625 -1.234375 2.234375 -5.578125q1.609375 -4.34375 1.609375 -4.8125q0 -0.640625 0.640625 -0.640625q0.203125 -0.203125 0.640625 -0.203125l0.640625 0.640625q0.28125 0.28125 0.359375 0.578125q0.078125 0.296875 0.078125 0.890625q0 0.609375 -0.171875 1.046875q-0.15625 0.4375 -0.796875 1.796875q-0.109375 0.28125 -0.3125 0.671875q-0.203125 0.375 -0.4375 0.9375q-0.078125 0.1875 -0.640625 1.4375q-0.40625 0.796875 -0.40625 0.921875q0 0.109375 -0.15625 0.5q-0.15625 0.375 -0.28125 0.78125q-0.3125 0.640625 -1.015625 2.265625q-0.703125 1.609375 -0.703125 1.765625q0 0.4375 -0.203125 0.640625q-0.109375 0 -0.15625 0.1875q-0.046875 0.171875 -0.046875 0.25q0 0.40625 -0.640625 2.125l-0.359375 1.15625q-0.75 2.609375 -1.0625 3.8125q-0.296875 1.1875 -0.296875 2.03125q0 1.0 -0.0625 1.28125q-0.046875 0.28125 -0.328125 0.4375zm12.60376 -1.40625q-1.0 0.890625 -2.40625 0.890625q-1.0 0 -1.90625 -0.484375q-0.890625 -0.484375 -1.5 -1.3125q-0.515625 -0.640625 -0.765625 -1.4375q-0.234375 -0.8125 -0.234375 -1.96875q0 -0.40625 0.078125 -1.59375q0.125 -1.484375 0.984375 -3.078125q0.859375 -1.609375 2.140625 -2.859375q1.28125 -1.265625 2.515625 -1.75q0.640625 -0.40625 1.171875 -0.40625q0.28125 0 0.546875 0.046875q0.28125 0.046875 0.609375 0.078125q0.875 0.125 1.328125 0.34375q0.46875 0.21875 0.796875 0.65625q1.0 1.0 1.0 2.328125q-0.171875 0.953125 -1.25 2.203125q-1.078125 1.234375 -2.59375 1.984375q-0.71875 0.25 -1.640625 0.25q-1.234375 0 -2.0 -0.53125q-0.359375 -0.109375 -0.5625 -0.109375q-0.359375 0 -0.546875 0.484375q-0.171875 0.46875 -0.328125 1.75q-0.046875 0.28125 -0.046875 0.796875q0 2.046875 1.359375 2.25q0.921875 0.1875 1.328125 0.1875q0.46875 0 1.078125 -0.3125l0.75 -0.4375q0.25 -0.125 0.4375 -0.3125q0.203125 -0.203125 0.375 -0.375q0.078125 -0.078125 0.234375 -0.25q0.15625 -0.1875 0.296875 -0.25q0.140625 -0.0625 0.265625 -0.0625q0.15625 0 0.359375 0.1875q0.203125 0.1875 0.3125 0.265625q0.359375 0 0.15625 0.5q-0.1875 0.5 -0.859375 1.15625q-0.65625 0.65625 -1.484375 1.171875zm-0.046875 -8.46875q0.6875 -0.28125 1.375 -1.0q0.703125 -0.71875 0.703125 -1.203125q0 -0.484375 -0.359375 -0.796875q-0.359375 -0.328125 -1.0 -0.328125q-0.484375 0 -0.71875 0.078125q-0.5625 0.171875 -1.328125 0.875q-0.75 0.6875 -1.3125 1.40625q-0.5625 0.71875 -0.4375 0.84375q0.203125 0.359375 1.5625 0.359375q0.921875 0 1.515625 -0.234375zm8.078064 12.875q-0.796875 0.078125 -1.359375 -1.140625q-0.5625 -1.21875 -0.5625 -3.140625q-0.03125 -0.3125 -0.03125 -1.0q0 -3.15625 1.640625 -8.875q0.546875 -2.0 2.109375 -5.59375q1.5625 -3.609375 1.890625 -3.890625l0.078125 0q0.15625 0 0.15625 -0.359375q0 -0.078125 0.3125 -0.609375q0.328125 -0.546875 0.609375 -1.109375q0.796875 -1.15625 2.0 -2.1875q1.203125 -1.046875 2.15625 -1.453125q0.609375 -0.234375 1.203125 -0.234375q1.15625 0 1.9375 0.78125q0.78125 0.765625 0.78125 1.9375q0 0.640625 -0.28125 1.234375q-0.3125 1.28125 -1.671875 3.28125q-0.484375 0.234375 -0.8125 0.234375q-0.1875 0 -0.28125 -0.078125q-0.078125 -0.078125 0.046875 -0.234375q0 -0.15625 0.09375 -0.4375q0.109375 -0.28125 0.140625 -0.484375q0 -0.078125 0.171875 -0.5q0.1875 -0.421875 0.1875 -0.78125q0.359375 -1.40625 0.359375 -2.0q0 -0.640625 -0.390625 -0.640625q-0.359375 -0.03125 -1.078125 0.390625q-0.71875 0.40625 -0.71875 0.6875l0 0.15625q-0.203125 -0.03125 -1.421875 1.46875q-1.21875 1.5 -1.90625 2.65625q-1.078125 2.234375 -2.03125 4.6875l-0.328125 0.953125l0.640625 0.078125q0.5625 0.046875 2.328125 -0.28125q0.671875 -0.109375 1.15625 -0.109375q0.671875 0 1.03125 0.21875q0.359375 0.21875 0.5625 0.734375q0.125 0.28125 0.125 0.515625q0 0.609375 -1.109375 0.890625q-1.09375 0.28125 -3.765625 0.390625q-0.359375 -0.03125 -0.921875 -0.03125q-0.640625 0 -0.8125 0.15625q-0.234375 0.125 -0.734375 1.71875q-0.5 1.59375 -0.734375 3.0q-0.53125 2.078125 -0.53125 4.40625q0 1.359375 0.203125 2.234375q0.171875 0.59375 0.171875 1.203125q0 0.921875 -0.609375 1.15625zm13.15564 -1.0q-1.078125 -0.203125 -1.578125 -0.75q-0.5 -0.53125 -0.5 -1.609375q0 -0.28125 0.078125 -1.0q0.171875 -0.5625 0.25 -1.125q0.203125 -0.875 0.390625 -1.03125q0.046875 -0.046875 0.078125 -0.15625q0.046875 -0.125 -0.078125 -0.203125q0 -0.53125 0.359375 -1.4375q0.09375 -0.28125 0.203125 -0.5625q0.125 -0.28125 0.15625 -0.359375q-0.078125 -0.078125 -0.078125 -0.25q0 -0.203125 0.21875 -0.390625q0.21875 -0.203125 0.3125 -0.359375q0.109375 -0.171875 0 -0.328125q-0.09375 -0.203125 0.75 -1.796875q0.53125 -1.046875 0.5625 -1.15625q-0.03125 -0.125 0.578125 -1.484375q0.625 -1.359375 0.984375 -2.046875q0.359375 -0.1875 -0.28125 -0.265625q-0.640625 -0.09375 -1.5625 -0.046875q-1.3125 -0.046875 -2.03125 -0.140625q-0.71875 -0.09375 -1.171875 -0.34375q-0.359375 -0.4375 -0.359375 -0.671875q0 -0.40625 0.96875 -0.4375q1.03125 -0.046875 3.203125 -0.28125l2.03125 -0.171875l0.125 -0.671875q0.5625 -0.96875 0.796875 -1.5q0.234375 -0.546875 0.359375 -1.21875q0.125 -0.15625 0.421875 -0.796875q0.296875 -0.640625 0.375 -1.25q0.4375 -0.75 0.8125 -1.453125q0.390625 -0.703125 0.46875 -0.828125q0.4375 -0.359375 0.609375 -0.359375q0.234375 0 0.796875 0.40625q1.0 0.671875 1.0 1.15625q0 0.234375 -0.25 0.484375q-0.15625 0.3125 -0.46875 1.28125q-0.28125 0.359375 -0.609375 0.984375q-0.3125 0.609375 -0.4375 1.171875q-0.3125 0.6875 -0.625 1.234375q-0.296875 0.53125 -0.40625 0.53125q0.03125 0.234375 0.140625 0.3125q0.125 0.078125 0.40625 0.078125q0.203125 0 0.5 -0.03125q0.3125 -0.046875 0.75 -0.046875q0.390625 -0.03125 0.6875 -0.109375q0.3125 -0.09375 0.59375 -0.09375q0.1875 0 0.46875 0.125q0.40625 0.515625 0.40625 1.078125q0 0.4375 -0.359375 0.640625q-0.203125 0.046875 -0.890625 0.25q-0.671875 0.1875 -1.46875 0.234375l-2.125 0.203125l-0.671875 1.359375q-0.28125 0.46875 -0.484375 0.921875q-0.203125 0.4375 -0.28125 0.515625q0 0.203125 -0.328125 0.796875q-0.3125 0.59375 -0.46875 0.953125q-0.203125 0.5625 -0.484375 1.109375q-0.28125 0.53125 -0.359375 0.703125q-0.125 0 -0.140625 0.0625q-0.015625 0.046875 -0.015625 0.171875l0.078125 0.3125q0 0.203125 -0.203125 0.40625q-0.15625 0.078125 -0.296875 0.28125q-0.140625 0.203125 -0.1875 0.28125q0.09375 0.078125 0.09375 0.203125q0 0.28125 -0.28125 0.71875q0 0.671875 -0.5625 2.03125q0.03125 0.71875 0.078125 0.921875q0.046875 0.203125 0.203125 0.15625l0.15625 0l0.515625 -0.03125q0.5625 -0.234375 -0.59375 2.796875l-0.640625 1.078125q-0.046875 0.078125 -0.28125 0.453125q-0.234375 0.390625 -0.40625 0.390625z" fill-rule="nonzero"/><path fill="#000000" fill-opacity="0.0" d="m192.59317 -11.805775l91.71655 0l0 51.086613l-91.71655 0z" fill-rule="evenodd"/><path fill="#000000" d="m206.3588 34.187973q-0.328125 -0.234375 -0.453125 -0.4375q-0.109375 -0.203125 -0.109375 -0.59375q0 -0.359375 0.03125 -0.609375q0.125 -1.359375 0.609375 -3.15625l0.203125 -0.796875q0.109375 -1.0 1.390625 -4.203125q1.28125 -3.203125 2.078125 -4.359375q0.328125 -0.203125 0.6875 -0.203125q0.515625 0 0.875 0.359375q0.234375 0.171875 0.234375 0.609375q0 0.390625 -0.296875 1.171875q-0.296875 0.78125 -1.015625 2.3125q-0.15625 0.3125 -0.546875 1.203125q-0.375 0.875 -0.375 1.03125q0 0.078125 0.046875 0.078125q0.078125 0 0.15625 -0.0625q0.078125 -0.0625 0.15625 -0.09375q0.4375 -0.765625 2.140625 -2.078125q1.703125 -1.328125 2.34375 -1.640625q0.28125 -0.171875 0.71875 -0.328125q0.4375 -0.15625 0.59375 -0.234375q0.640625 -0.328125 1.53125 -0.328125q0.546875 0 0.96875 0.1875q0.421875 0.171875 0.578125 0.53125q0.046875 0.28125 0.21875 0.453125q0.1875 0.15625 0.265625 0.1875q0.125 0 0.15625 0.109375q0.046875 0.09375 0.046875 0.140625q0 0.28125 -0.328125 0.34375q-0.3125 0.046875 -1.15625 0.09375q-0.4375 0.03125 -0.921875 0.203125q-0.46875 0.15625 -0.953125 0.390625q-2.234375 1.28125 -3.34375 2.0q-1.09375 0.71875 -2.21875 1.96875q-0.4375 0.46875 -1.15625 1.71875q-0.28125 0.28125 -0.578125 1.46875q-0.296875 1.171875 -0.296875 1.453125q-0.046875 0.109375 -0.171875 0.453125q-0.109375 0.34375 -0.359375 0.65625q-0.46875 0.640625 -0.796875 0.640625q-0.359375 0 -0.953125 -0.640625zm17.946869 -16.109375q-0.265625 -0.28125 -0.46875 -0.953125q-0.203125 -0.6875 0 -0.6875q0.3125 -0.046875 0.734375 -0.703125q0.421875 -0.65625 0.375 -1.09375q0 -0.171875 0.125 -0.3125q0.125 -0.140625 0.28125 -0.171875q0.328125 -0.203125 0.5625 -0.203125q0.671875 0 1.234375 0.953125q0.25 0.53125 0.25 0.921875q0 0.359375 -0.203125 0.75q-0.203125 0.375 -0.71875 0.96875q-0.6875 0.921875 -1.28125 0.921875q-0.40625 0 -0.890625 -0.390625zm-3.875 16.234375q-0.5625 -0.5625 -0.5625 -1.59375q0 -0.5625 0.203125 -0.96875q0 -0.203125 0.078125 -0.46875q0.078125 -0.28125 0.078125 -0.375q-0.03125 -0.234375 0.328125 -1.3125q0.71875 -1.59375 1.921875 -5.640625q0 -0.203125 0.15625 -0.34375q0.15625 -0.140625 0.484375 -0.171875q0.3125 -0.078125 0.4375 -0.078125q0.234375 0 0.40625 0.1875q0.1875 0.171875 0.515625 0.640625q0.234375 0.25 0.234375 0.71875q0 0.765625 -0.515625 1.84375q-0.515625 1.15625 -0.6875 2.0q-0.46875 1.078125 -0.75 2.0q-0.078125 0.25 -0.25 0.96875q-0.15625 0.71875 -0.4375 1.15625q-0.234375 1.125 -0.4375 1.5625q-0.203125 0.4375 -0.4375 0.4375q-0.28125 0 -0.765625 -0.5625zm10.479996 8.796875q-0.390625 0.046875 -1.28125 -0.171875q-0.875 -0.21875 -1.390625 -0.46875q-0.8125 -0.59375 -1.515625 -1.78125q-0.6875 -1.171875 -0.609375 -1.734375q0 -0.15625 0.28125 -0.15625q0.28125 0 0.609375 0.15625q0.34375 0.15625 0.515625 0.40625q0.515625 0.671875 1.3125 1.1875q0.796875 0.53125 1.234375 0.453125q0.921875 -0.171875 1.578125 -0.9375q0.671875 -0.75 1.265625 -2.109375q0.4375 -1.203125 0.703125 -2.203125q0.265625 -1.0 0.625 -2.5625q0.28125 -1.28125 0.390625 -1.71875q0.15625 -0.75 0.203125 -1.03125q0.046875 -0.28125 0 -0.3125q-0.046875 -0.046875 -0.078125 -0.09375l-2.59375 1.40625q-1.453125 0.46875 -2.765625 0.46875q-0.5625 0 -1.125 -0.15625q-0.4375 -0.203125 -0.859375 -1.03125q-0.421875 -0.84375 -0.34375 -1.4375q0.046875 -0.5625 1.078125 -2.328125q1.046875 -1.765625 1.203125 -1.71875q0.203125 0 0.203125 -0.40625q0.078125 -0.359375 2.203125 -2.03125q1.4375 -1.328125 2.546875 -1.984375q1.125 -0.65625 2.046875 -0.734375q0.28125 0.03125 0.5 0.03125q0.21875 0 0.3125 0q0.078125 0.046875 0.3125 0.1875q0.234375 0.140625 0.640625 0.296875q0.84375 0.359375 1.484375 1.4375q0.640625 1.078125 0.71875 2.15625q-0.078125 0.890625 -0.40625 1.734375q-0.3125 0.828125 -0.640625 0.796875q-0.3125 -0.046875 -0.78125 0.28125q-0.453125 0.3125 -0.453125 0.46875q0 0.4375 -0.640625 1.171875l-0.609375 2.796875q-0.625 2.84375 -0.671875 3.234375q-0.484375 1.875 -1.0 3.203125q-0.15625 1.125 -0.421875 1.703125q-0.265625 0.578125 -0.8125 1.296875q-0.5625 0.953125 -1.421875 1.546875q-0.859375 0.609375 -1.546875 0.6875zm-1.640625 -13.4375q0.046875 0.28125 0.6875 0.28125q1.109375 0 2.390625 -0.671875q0.328125 -0.171875 0.5625 -0.28125q0.25 -0.125 0.4375 -0.203125q0.71875 -0.328125 1.078125 -0.515625q0.359375 -0.203125 0.53125 -0.53125q0.359375 -0.59375 0.796875 -1.953125q0.03125 -0.15625 0.21875 -0.375q0.1875 -0.234375 0.34375 -0.265625l0.15625 0q0.203125 0 0.640625 0.15625q0.203125 -0.078125 0.28125 -0.390625q0.078125 -0.328125 0.03125 -0.734375q-0.03125 -0.28125 -0.421875 -0.75q-0.375 -0.484375 -0.890625 -0.765625q-0.234375 -0.078125 -0.359375 -0.078125q-0.40625 0 -0.921875 0.390625q-0.515625 0.375 -1.40625 1.25q-0.1875 0.15625 -0.359375 0.328125q-0.15625 0.15625 -0.3125 0.265625q-1.59375 1.484375 -2.625 2.78125q-1.015625 1.296875 -0.859375 2.0625zm26.324982 5.046875q-0.515625 0.15625 -0.875 0.15625q-0.28125 0 -0.546875 -0.140625q-0.265625 -0.140625 -0.65625 -0.546875q-0.125 -0.15625 -0.421875 -0.578125q-0.296875 -0.421875 -0.4375 -0.921875q-0.140625 -0.5 -0.140625 -1.25q0 -0.5625 0.03125 -0.953125q0.046875 -0.40625 0.078125 -0.65625l0.09375 -1.15625q0.265625 -1.234375 0.265625 -2.203125q0 -1.078125 -0.265625 -1.078125q-0.609375 -0.109375 -2.65625 1.796875q-2.03125 1.890625 -4.4375 4.640625l-0.71875 1.046875q-0.078125 0.125 -0.40625 0.5625q-0.3125 0.4375 -0.421875 0.4375q-0.453125 0.03125 -1.21875 -0.421875q-0.75 -0.453125 -0.78125 -0.8125q0 -0.25 0.609375 -2.21875q0.625 -1.984375 0.984375 -3.109375l1.765625 -5.203125q0.3125 -1.0 1.15625 -3.0l0.765625 -1.953125l0.46875 -1.203125l1.84375 -4.875l0 -0.171875q0 -0.671875 0.28125 -0.953125l0.5625 -0.046875q0 -0.078125 0.3125 0.1875q0.328125 0.265625 0.625 0.609375q0.296875 0.328125 0.296875 0.53125q0.125 0.28125 0.125 0.640625q0 0.921875 -0.921875 3.15625q-0.359375 0.515625 -1.078125 2.515625q-0.40625 1.125 -0.609375 1.5625q-0.46875 0.890625 -1.65625 3.625q-1.171875 2.734375 -1.65625 4.5q-0.328125 0.765625 -0.328125 1.125q0 0.1875 0.125 0.1875q0.28125 0 0.875 -0.75q2.53125 -2.6875 4.046875 -4.046875q1.515625 -1.359375 2.4375 -1.28125q0.484375 0.125 1.171875 0.90625q0.703125 0.78125 0.984375 1.5q0.25 0.875 0.25 1.640625q0 0.671875 -0.125 2.484375l-0.078125 0.90625q-0.328125 2.0 -0.328125 2.328125q0 0.359375 0.09375 0.515625q0.109375 0.15625 0.4375 0.4375q0.64064026 0.53125 0.64064026 0.890625q0 0.3125 -0.56251526 0.640625zm7.3943634 0.59375q-0.640625 -0.125 -1.296875 -0.859375q-0.65625 -0.734375 -0.859375 -1.375q0 -0.078125 -0.078125 -0.171875q-0.078125 -0.109375 -0.125 -0.15625q-0.15625 -0.109375 -0.15625 -1.3125q0 -0.96875 0.09375 -2.0q0.109375 -1.046875 0.265625 -1.6875l0.71875 -2.109375l0.5625 -1.609375l1.078125 -2.3125l-1.59375 -0.4375q-0.28125 -0.046875 -0.46875 -0.28125q-0.171875 -0.25 -0.171875 -0.453125q0 -0.3125 0.328125 -0.765625q0.34375 -0.46875 0.546875 -0.46875q0.125 0.046875 0.640625 0.046875q1.203125 0 1.796875 -0.125q0.40625 -0.15625 0.5625 -0.640625q0.15625 -0.3125 0.375 -0.796875q0.21875 -0.484375 0.421875 -0.890625q0.125 -0.234375 0.375 -0.734375q0.265625 -0.5 0.671875 -1.140625q0.078125 -0.125 0.359375 -0.578125q0.28125 -0.453125 0.671875 -0.78125q0.28125 -0.28125 0.6875 -0.28125q0.390625 0 1.03125 0.515625q0.09375 0.125 0.21875 0.328125q0.140625 0.203125 0.140625 0.359375q0 0.15625 -0.3125 0.6875q-0.234375 0.46875 -0.46875 0.859375q-0.21875 0.375 -0.375 0.65625q-0.484375 0.796875 -0.671875 1.203125q-0.40625 0.515625 -0.40625 0.796875q0 0.28125 0.515625 0.28125q0.5625 0 1.890625 -0.25q0.5625 -0.078125 0.75 -0.078125q1.40625 0 1.53125 1.15625q0.03125 0.25 0.03125 0.5625q0 0.5625 -0.375 0.6875q-0.375 0.125 -1.703125 0.125q-1.28125 0.1875 -2.640625 0.1875q-0.234375 0 -0.546875 0.03125q-0.296875 0.015625 -0.609375 0.09375q-0.328125 0.078125 -0.46875 0.25q-0.140625 0.15625 -0.296875 0.515625q-0.109375 0.109375 -0.5625 0.921875q-0.546875 1.15625 -0.71875 1.390625q-1.078125 3.203125 -1.59375 6.5625q-0.078125 0.640625 -0.078125 0.796875q0 0.609375 0.390625 0.84375q0.40625 0.234375 1.359375 0.234375q1.359375 0 2.359375 -0.28125q1.203125 -0.515625 1.8125 -0.875q0.359375 -0.203125 0.65625 -0.375q0.296875 -0.1875 0.421875 -0.265625q0.109375 -0.234375 0.28125 -0.234375q0.3125 0 0.5625 0.640625q0 0.640625 -0.28125 1.125q-0.28125 0.46875 -1.40625 1.109375q-2.3125 1.484375 -4.640625 1.484375q-0.640625 0 -1.203125 -0.125z" fill-rule="nonzero"/><path fill="#b6d7a8" d="m448.80597 140.60762l3.1638489 -3.1638489l3.3609009 3.3608856l3.3608704 -3.3608856l3.1638489 3.1638489l-3.3608704 3.3608856l3.3608704 3.3608856l-3.1638489 3.1638489l-3.3608704 -3.3608856l-3.3609009 3.3608856l-3.1638489 -3.1638489l3.3609009 -3.3608856z" fill-rule="evenodd"/><path stroke="#000000" stroke-width="1.0" stroke-linejoin="round" stroke-linecap="butt" d="m448.80597 140.60762l3.1638489 -3.1638489l3.3609009 3.3608856l3.3608704 -3.3608856l3.1638489 3.1638489l-3.3608704 3.3608856l3.3608704 3.3608856l-3.1638489 3.1638489l-3.3608704 -3.3608856l-3.3609009 3.3608856l-3.1638489 -3.1638489l3.3609009 -3.3608856z" fill-rule="evenodd"/><path fill="#000000" fill-opacity="0.0" d="m394.56168 104.34121l135.11813 0l0 32.598427l-135.11813 0z" fill-rule="evenodd"/><path fill="#000000" d="m404.18668 126.41746q0 -2.6875 1.484375 -3.96875q1.25 -1.078125 3.046875 -1.078125q2.0 0 3.265625 1.3125q1.265625 1.296875 1.265625 3.609375q0 1.8593674 -0.5625 2.9374924q-0.5625 1.0625 -1.640625 1.65625q-1.0625 0.59375 -2.328125 0.59375q-2.03125 0 -3.28125 -1.296875q-1.25 -1.3125 -1.25 -3.7656174zm1.6875 0q0 1.8593674 0.796875 2.7968674q0.8125 0.921875 2.046875 0.921875q1.21875 0 2.03125 -0.921875q0.8125 -0.9375 0.8125 -2.8437424q0 -1.796875 -0.8125 -2.71875q-0.8125 -0.921875 -2.03125 -0.921875q-1.234375 0 -2.046875 0.921875q-0.796875 0.90625 -0.796875 2.765625zm9.297607 4.8437424l0 -9.671867l1.46875 0l0 1.375q1.0625 -1.59375 3.078125 -1.59375q0.875 0 1.609375 0.3125q0.734375 0.3125 1.09375 0.828125q0.375 0.5 0.515625 1.203125q0.09375 0.453125 0.09375 1.59375l0 5.9531174l-1.640625 0l0 -5.8906174q0 -1.0 -0.203125 -1.484375q-0.1875 -0.5 -0.671875 -0.796875q-0.484375 -0.296875 -1.140625 -0.296875q-1.046875 0 -1.8125 0.671875q-0.75 0.65625 -0.75 2.515625l0 5.2812424l-1.640625 0zm17.000702 -3.109375l1.6875 0.203125q-0.40625 1.484375 -1.484375 2.3125q-1.078125 0.8125 -2.765625 0.8125q-2.125 0 -3.375 -1.296875q-1.234375 -1.3125 -1.234375 -3.6718674q0 -2.453125 1.25 -3.796875q1.265625 -1.34375 3.265625 -1.34375q1.9375 0 3.15625 1.328125q1.234375 1.3125 1.234375 3.703125q0 0.15625 0 0.4375l-7.21875 0q0.09375 1.5937424 0.90625 2.4531174q0.8125 0.84375 2.015625 0.84375q0.90625 0 1.546875 -0.46875q0.640625 -0.484375 1.015625 -1.515625zm-5.390625 -2.6562424l5.40625 0q-0.109375 -1.21875 -0.625 -1.828125q-0.78125 -0.953125 -2.03125 -0.953125q-1.125 0 -1.90625 0.765625q-0.765625 0.75 -0.84375 2.015625zm13.934021 1.46875l1.65625 -0.140625q0.125 1.0 0.546875 1.6406174q0.4375 0.640625 1.34375 1.046875q0.921875 0.390625 2.0625 0.390625q1.0 0 1.78125 -0.296875q0.78125 -0.296875 1.15625 -0.8125q0.375 -0.53125 0.375 -1.1562424q0 -0.625 -0.375 -1.09375q-0.359375 -0.46875 -1.1875 -0.796875q-0.546875 -0.203125 -2.390625 -0.640625q-1.828125 -0.453125 -2.5625 -0.84375q-0.96875 -0.5 -1.4375 -1.234375q-0.46875 -0.75 -0.46875 -1.671875q0 -1.0 0.578125 -1.875q0.578125 -0.890625 1.671875 -1.34375q1.109375 -0.453125 2.453125 -0.453125q1.484375 0 2.609375 0.484375q1.140625 0.46875 1.75 1.40625q0.609375 0.921875 0.65625 2.09375l-1.6875 0.125q-0.140625 -1.265625 -0.9375 -1.90625q-0.78125 -0.65625 -2.3125 -0.65625q-1.609375 0 -2.34375 0.59375q-0.734375 0.59375 -0.734375 1.421875q0 0.71875 0.53125 1.171875q0.5 0.46875 2.65625 0.96875q2.15625 0.484375 2.953125 0.84375q1.171875 0.53125 1.71875 1.359375q0.5625 0.828125 0.5625 1.90625q0 1.0624924 -0.609375 2.0156174q-0.609375 0.9375 -1.75 1.46875q-1.140625 0.515625 -2.578125 0.515625q-1.8125 0 -3.046875 -0.53125q-1.21875 -0.53125 -1.921875 -1.59375q-0.6875 -1.0625 -0.71875 -2.4062424zm16.443573 4.2968674l0 -11.781242l-4.40625 0l0 -1.578125l10.578125 0l0 1.578125l-4.40625 0l0 11.781242l-1.765625 0zm8.083496 0l0 -13.359367l9.015625 0l0 1.578125l-7.25 0l0 4.140625l6.265625 0l0 1.578125l-6.265625 0l0 6.0624924l-1.765625 0zm14.708466 0l0 -11.781242l-4.40625 0l0 -1.578125l10.578125 0l0 1.578125l-4.40625 0l0 11.781242l-1.765625 0zm14.46991 0l-1.515625 0l0 -13.359367l1.640625 0l0 4.765625q1.046875 -1.296875 2.65625 -1.296875q0.890625 0 1.6875 0.359375q0.796875 0.359375 1.3125 1.015625q0.515625 0.640625 0.796875 1.5625q0.296875 0.921875 0.296875 1.96875q0 2.4843674 -1.234375 3.8437424q-1.21875 1.359375 -2.953125 1.359375q-1.703125 0 -2.6875 -1.4375l0 1.21875zm-0.015625 -4.9062424q0 1.7343674 0.484375 2.5156174q0.765625 1.265625 2.09375 1.265625q1.078125 0 1.859375 -0.9375q0.78125 -0.9375 0.78125 -2.7812424q0 -1.890625 -0.75 -2.796875q-0.75 -0.90625 -1.828125 -0.90625q-1.0625 0 -1.859375 0.9375q-0.78125 0.9375 -0.78125 2.703125zm8.891357 -6.5625l0 -1.890625l1.640625 0l0 1.890625l-1.640625 0zm0 11.468742l0 -9.671867l1.640625 0l0 9.671867l-1.640625 0zm4.144806 0l0 -9.671867l1.46875 0l0 1.375q1.0625 -1.59375 3.078125 -1.59375q0.8750305 0 1.6094055 0.3125q0.734375 0.3125 1.09375 0.828125q0.375 0.5 0.515625 1.203125q0.09375 0.453125 0.09375 1.59375l0 5.9531174l-1.640625 0l0 -5.8906174q0 -1.0 -0.203125 -1.484375q-0.1875 -0.5 -0.671875 -0.796875q-0.484375 -0.296875 -1.1406555 -0.296875q-1.046875 0 -1.8125 0.671875q-0.75 0.65625 -0.75 2.515625l0 5.2812424l-1.640625 0z" fill-rule="nonzero"/></g></svg>