<svg version="1.1" viewBox="0.0 0.0 252.64304461942257 575.1994750656168" fill="none" stroke="none" stroke-linecap="square" stroke-miterlimit="10" xmlns:xlink="http://www.w3.org/1999/xlink" xmlns="http://www.w3.org/2000/svg"><clipPath id="p.0"><path d="m0 0l252.64305 0l0 575.19946l-252.64305 0l0 -575.19946z" clip-rule="nonzero"/></clipPath><g clip-path="url(#p.0)"><path fill="#000000" fill-opacity="0.0" d="m0 0l252.64305 0l0 575.19946l-252.64305 0z" fill-rule="evenodd"/><path fill="#000000" fill-opacity="0.0" d="m122.215225 572.7227l-1.1023636 -578.5827" fill-rule="evenodd"/><path stroke="#d9d9d9" stroke-width="24.0" stroke-linejoin="round" stroke-linecap="butt" d="m122.215225 572.7227l-1.1023636 -578.5827" fill-rule="evenodd"/><path fill="#ffffff" d="m54.130524 236.71774l137.19685 0l0 48.850372l-137.19685 0z" fill-rule="evenodd"/><path stroke="#000000" stroke-width="3.0" stroke-linejoin="round" stroke-linecap="butt" d="m54.130524 236.71774l137.19685 0l0 48.850372l-137.19685 0z" fill-rule="evenodd"/><path fill="#fce5cd" d="m62.772892 250.71571l117.51181 0l0 18.992111l-117.51181 0z" fill-rule="evenodd"/><path stroke="#000000" stroke-width="1.0" stroke-linejoin="round" stroke-linecap="butt" d="m62.772892 250.71571l117.51181 0l0 18.992111l-117.51181 0z" fill-rule="evenodd"/><path fill="#ffffff" d="m54.130524 181.35175l0 0c0 -7.6189117 6.1763535 -13.795273 13.795273 -13.795273l109.60631 0c3.658722 0 7.1676025 1.4534302 9.75473 4.0405426c2.5871124 2.5871124 4.0405426 6.0960083 4.0405426 9.75473l0 0l0 0c0 7.618927 -6.176361 13.795288 -13.795273 13.795288l-109.60631 0c-7.6189194 0 -13.795273 -6.176361 -13.795273 -13.795288z" fill-rule="evenodd"/><path stroke="#000000" stroke-width="3.0" stroke-linejoin="round" stroke-linecap="butt" d="m54.130524 181.35175l0 0c0 -7.6189117 6.1763535 -13.795273 13.795273 -13.795273l109.60631 0c3.658722 0 7.1676025 1.4534302 9.75473 4.0405426c2.5871124 2.5871124 4.0405426 6.0960083 4.0405426 9.75473l0 0l0 0c0 7.618927 -6.176361 13.795288 -13.795273 13.795288l-109.60631 0c-7.6189194 0 -13.795273 -6.176361 -13.795273 -13.795288z" fill-rule="evenodd"/><path fill="#000000" fill-opacity="0.0" d="m101.45598 184.03297l81.19685 0" fill-rule="evenodd"/><path stroke="#b7b7b7" stroke-width="4.0" stroke-linejoin="round" stroke-linecap="butt" d="m101.45598 184.03297l81.19685 0" fill-rule="evenodd"/><path fill="#000000" fill-opacity="0.0" d="m142.06436 173.17192l0.31497192 18.992126" fill-rule="evenodd"/><path stroke="#b7b7b7" stroke-width="4.0" stroke-linejoin="round" stroke-linecap="butt" d="m142.06436 173.17192l0.31497192 18.992126" fill-rule="evenodd"/><path fill="#000000" fill-opacity="0.0" d="m103.28319 183.86983l38.777634 0l39.689163 -12.014145" fill-rule="evenodd"/><path stroke="#ff0000" stroke-width="2.0" stroke-linejoin="round" stroke-linecap="butt" d="m103.28319 183.86983l38.777634 0l39.689163 -12.014145" fill-rule="evenodd"/><path fill="#000000" fill-opacity="0.0" d="m53.47173 165.61028l58.299213 0l0 24.503937l-58.299213 0z" fill-rule="evenodd"/><path fill="#000000" d="m63.518604 187.41028l0 -9.546875l4.234379 0q1.265625 0 1.921875 0.265625q0.671875 0.25 1.0625 0.90625q0.40625 0.65625 0.40625 1.4375q0 1.015625 -0.65625 1.71875q-0.65625 0.6875 -2.03125 0.875q0.5 0.25 0.765625 0.484375q0.546875 0.5 1.046875 1.265625l1.65625 2.59375l-1.578125 0l-1.265625 -1.984375q-0.5625 -0.859375 -0.921875 -1.3125q-0.34375 -0.453125 -0.640625 -0.640625q-0.28125 -0.1875 -0.5625 -0.25q-0.21875 -0.046875 -0.703125 -0.046875l-1.46875 0l0 4.234375l-1.2656288 0zm1.2656288 -5.328125l2.71875 0q0.859375 0 1.34375 -0.171875q0.484375 -0.1875 0.734375 -0.578125q0.265625 -0.390625 0.265625 -0.859375q0 -0.671875 -0.5 -1.109375q-0.484375 -0.4375 -1.546875 -0.4375l-3.015625 0l0 3.15625zm12.922028 3.109375l1.203125 0.140625q-0.28125 1.0625 -1.0625 1.65625q-0.765625 0.578125 -1.96875 0.578125q-1.515625 0 -2.40625 -0.9375q-0.890625 -0.9375 -0.890625 -2.609375q0 -1.75 0.890625 -2.703125q0.90625 -0.96875 2.34375 -0.96875q1.390625 0 2.265625 0.9375q0.875 0.9375 0.875 2.65625q0 0.109375 0 0.3125l-5.15625 0q0.0625 1.140625 0.640625 1.75q0.578125 0.59375 1.4375 0.59375q0.65625 0 1.109375 -0.328125q0.453125 -0.34375 0.71875 -1.078125zm-3.84375 -1.90625l3.859375 0q-0.078125 -0.859375 -0.4375 -1.296875q-0.5625 -0.6875 -1.453125 -0.6875q-0.8125 0 -1.359375 0.546875q-0.546875 0.53125 -0.609375 1.4375zm6.6156006 4.125l0 -9.546875l1.265625 0l0 8.421875l4.703125 0l0 1.125l-5.96875 0zm13.724976 -9.546875l1.265625 0l0 5.515625q0 1.4375 -0.328125 2.296875q-0.3125 0.84375 -1.171875 1.375q-0.84375 0.515625 -2.21875 0.515625q-1.34375 0 -2.203125 -0.453125q-0.84375 -0.46875 -1.21875 -1.34375q-0.359375 -0.875 -0.359375 -2.390625l0 -5.515625l1.265625 0l0 5.515625q0 1.234375 0.21875 1.828125q0.234375 0.59375 0.796875 0.921875q0.5625 0.3125 1.390625 0.3125q1.390625 0 1.96875 -0.625q0.59375 -0.640625 0.59375 -2.4375l0 -5.515625z" fill-rule="nonzero"/><path fill="#000000" fill-opacity="0.0" d="m184.6749 98.91683l61.32283 0l0 38.267708l-61.32283 0z" fill-rule="evenodd"/><path fill="#000000" d="m201.7374 121.91746l0 1.359375l-7.578125 0q-0.015625 -0.515625 0.171875 -0.984375q0.28125 -0.765625 0.921875 -1.515625q0.640625 -0.75 1.84375 -1.734375q1.859375 -1.53125 2.515625 -2.421875q0.65625 -0.90625 0.65625 -1.703125q0 -0.828125 -0.59375 -1.40625q-0.59375 -0.578125 -1.5625 -0.578125q-1.015625 0 -1.625 0.609375q-0.609375 0.609375 -0.609375 1.6875l-1.453125 -0.140625q0.15625 -1.625 1.125 -2.46875q0.96875 -0.84375 2.59375 -0.84375q1.65625 0 2.609375 0.921875q0.96875 0.90625 0.96875 2.25q0 0.6875 -0.28125 1.359375q-0.28125 0.65625 -0.9375 1.390625q-0.65625 0.734375 -2.171875 2.015625q-1.265625 1.0625 -1.625 1.453125q-0.359375 0.375 -0.59375 0.75l5.625 0zm1.5078125 -4.296875q0 -2.03125 0.40625 -3.265625q0.421875 -1.234375 1.25 -1.90625q0.828125 -0.671875 2.078125 -0.671875q0.921875 0 1.609375 0.375q0.703125 0.359375 1.15625 1.0625q0.453125 0.703125 0.703125 1.703125q0.265625 1.0 0.265625 2.703125q0 2.015625 -0.421875 3.265625q-0.40625 1.234375 -1.234375 1.921875q-0.828125 0.671875 -2.078125 0.671875q-1.65625 0 -2.609375 -1.203125q-1.125 -1.421875 -1.125 -4.65625zm1.4375 0q0 2.828125 0.65625 3.765625q0.671875 0.921875 1.640625 0.921875q0.96875 0 1.625 -0.9375q0.65625 -0.9375 0.65625 -3.75q0 -2.828125 -0.65625 -3.75q-0.65625 -0.9375 -1.640625 -0.9375q-0.96875 0 -1.546875 0.828125q-0.734375 1.046875 -0.734375 3.859375zm11.9609375 5.65625l0 -2.75l-4.96875 0l0 -1.28125l5.234375 -7.421875l1.140625 0l0 7.421875l1.546875 0l0 1.28125l-1.546875 0l0 2.75l-1.40625 0zm0 -4.03125l0 -5.171875l-3.578125 5.171875l3.578125 0zm6.5546875 -2.1875q-0.875 -0.3125 -1.296875 -0.90625q-0.421875 -0.59375 -0.421875 -1.421875q0 -1.25 0.890625 -2.09375q0.90625 -0.859375 2.40625 -0.859375q1.5 0 2.40625 0.875q0.921875 0.859375 0.921875 2.109375q0 0.796875 -0.421875 1.390625q-0.421875 0.59375 -1.265625 0.90625q1.046875 0.34375 1.59375 1.109375q0.5625 0.765625 0.5625 1.828125q0 1.46875 -1.046875 2.484375q-1.03125 1.0 -2.734375 1.0q-1.6875 0 -2.734375 -1.0q-1.03125 -1.015625 -1.03125 -2.515625q0 -1.125 0.5625 -1.875q0.5625 -0.75 1.609375 -1.03125zm-0.28125 -2.375q0 0.8125 0.515625 1.328125q0.53125 0.515625 1.375 0.515625q0.8125 0 1.328125 -0.515625q0.515625 -0.515625 0.515625 -1.25q0 -0.78125 -0.53125 -1.296875q-0.53125 -0.53125 -1.328125 -0.53125q-0.8125 0 -1.34375 0.515625q-0.53125 0.515625 -0.53125 1.234375zm-0.453125 5.28125q0 0.609375 0.28125 1.171875q0.296875 0.5625 0.859375 0.875q0.5625 0.296875 1.203125 0.296875q1.015625 0 1.671875 -0.640625q0.65625 -0.65625 0.65625 -1.65625q0 -1.015625 -0.6875 -1.671875q-0.671875 -0.671875 -1.6875 -0.671875q-0.984375 0 -1.640625 0.65625q-0.65625 0.65625 -0.65625 1.640625z" fill-rule="nonzero"/><path fill="#ffffff" d="m52.824146 111.2773l137.19685 0l0 43.842514l-137.19685 0z" fill-rule="evenodd"/><path stroke="#000000" stroke-width="3.0" stroke-linejoin="round" stroke-linecap="butt" d="m52.824146 111.2773l137.19685 0l0 43.842514l-137.19685 0z" fill-rule="evenodd"/><path fill="#fce5cd" d="m60.808018 119.37159l117.51181 0l0 27.590553l-117.51181 0z" fill-rule="evenodd"/><path stroke="#000000" stroke-width="1.0" stroke-linejoin="round" stroke-linecap="butt" d="m60.808018 119.37159l117.51181 0l0 27.590553l-117.51181 0z" fill-rule="evenodd"/><path fill="#000000" fill-opacity="0.0" d="m184.16524 130.58487l52.25197 0l0 38.267715l-52.25197 0z" fill-rule="evenodd"/><path fill="#000000" d="m193.83711 151.94487l1.46875 -0.125q0.171875 1.078125 0.765625 1.625q0.59375 0.53125 1.4375 0.53125q1.015625 0 1.71875 -0.765625q0.703125 -0.765625 0.703125 -2.03125q0 -1.203125 -0.671875 -1.890625q-0.671875 -0.703125 -1.765625 -0.703125q-0.6875 0 -1.234375 0.3125q-0.546875 0.3125 -0.859375 0.796875l-1.3125 -0.171875l1.109375 -5.875l5.6875 0l0 1.34375l-4.5625 0l-0.625 3.078125q1.03125 -0.71875 2.171875 -0.71875q1.5 0 2.53125 1.046875q1.03125 1.03125 1.03125 2.65625q0 1.5625 -0.90625 2.6875q-1.109375 1.40625 -3.015625 1.40625q-1.5625 0 -2.546875 -0.875q-0.984375 -0.890625 -1.125 -2.328125zm14.1953125 3.0l-1.40625 0l0 -8.96875q-0.515625 0.484375 -1.34375 0.96875q-0.8125 0.484375 -1.46875 0.734375l0 -1.359375q1.171875 -0.5625 2.046875 -1.34375q0.890625 -0.796875 1.265625 -1.53125l0.90625 0l0 11.5zm10.9921875 -1.359375l0 1.359375l-7.578125 0q-0.015625 -0.515625 0.171875 -0.984375q0.28125 -0.765625 0.921875 -1.515625q0.640625 -0.75 1.84375 -1.734375q1.859375 -1.53125 2.515625 -2.421875q0.65625 -0.90625 0.65625 -1.703125q0 -0.828125 -0.59375 -1.40625q-0.59375 -0.578125 -1.5625 -0.578125q-1.015625 0 -1.625 0.609375q-0.609375 0.609375 -0.609375 1.6875l-1.453125 -0.140625q0.15625 -1.625 1.125 -2.46875q0.96875 -0.84375 2.59375 -0.84375q1.65625 0 2.609375 0.921875q0.96875 0.90625 0.96875 2.25q0 0.6875 -0.28125 1.359375q-0.28125 0.65625 -0.9375 1.390625q-0.65625 0.734375 -2.171875 2.015625q-1.265625 1.0625 -1.625 1.453125q-0.359375 0.375 -0.59375 0.75l5.625 0z" fill-rule="nonzero"/><path fill="#ffffff" d="m53.47769 482.6546l137.19685 0l0 43.84253l-137.19685 0z" fill-rule="evenodd"/><path stroke="#000000" stroke-width="3.0" stroke-linejoin="round" stroke-linecap="butt" d="m53.47769 482.6546l137.19685 0l0 43.84253l-137.19685 0z" fill-rule="evenodd"/><path fill="#fce5cd" d="m61.46246 491.03128l117.51181 0l0 27.590546l-117.51181 0z" fill-rule="evenodd"/><path stroke="#000000" stroke-width="1.0" stroke-linejoin="round" stroke-linecap="butt" d="m61.46246 491.03128l117.51181 0l0 27.590546l-117.51181 0z" fill-rule="evenodd"/><path fill="#000000" fill-opacity="0.0" d="m184.29008 503.3256l61.32283 0l0 38.26773l-61.32283 0z" fill-rule="evenodd"/><path fill="#000000" d="m201.35258 526.32623l0 1.359375l-7.578125 0q-0.015625 -0.515625 0.171875 -0.984375q0.28125 -0.765625 0.921875 -1.515625q0.640625 -0.75 1.84375 -1.734375q1.859375 -1.53125 2.515625 -2.421875q0.65625 -0.90625 0.65625 -1.703125q0 -0.828125 -0.59375 -1.40625q-0.59375 -0.578125 -1.5625 -0.578125q-1.015625 0 -1.625 0.609375q-0.609375 0.609375 -0.609375 1.6875l-1.453125 -0.140625q0.15625 -1.625 1.125 -2.46875q0.96875 -0.84375 2.59375 -0.84375q1.65625 0 2.609375 0.921875q0.96875 0.90625 0.96875 2.25q0 0.6875 -0.28125 1.359375q-0.28125 0.65625 -0.9375 1.390625q-0.65625 0.734375 -2.171875 2.015625q-1.265625 1.0625 -1.625 1.453125q-0.359375 0.375 -0.59375 0.75l5.625 0zm1.5078125 -4.296875q0 -2.03125 0.40625 -3.265625q0.421875 -1.234375 1.25 -1.90625q0.828125 -0.671875 2.078125 -0.671875q0.921875 0 1.609375 0.375q0.703125 0.359375 1.15625 1.0625q0.453125 0.703125 0.703125 1.703125q0.265625 1.0 0.265625 2.703125q0 2.015625 -0.421875 3.265625q-0.40625 1.234375 -1.234375 1.921875q-0.828125 0.671875 -2.078125 0.671875q-1.65625 0 -2.609375 -1.203125q-1.125 -1.421875 -1.125 -4.65625zm1.4375 0q0 2.828125 0.65625 3.765625q0.671875 0.921875 1.640625 0.921875q0.96875 0 1.625 -0.9375q0.65625 -0.9375 0.65625 -3.75q0 -2.828125 -0.65625 -3.75q-0.65625 -0.9375 -1.640625 -0.9375q-0.96875 0 -1.546875 0.828125q-0.734375 1.046875 -0.734375 3.859375zm11.9609375 5.65625l0 -2.75l-4.96875 0l0 -1.28125l5.234375 -7.421875l1.140625 0l0 7.421875l1.546875 0l0 1.28125l-1.546875 0l0 2.75l-1.40625 0zm0 -4.03125l0 -5.171875l-3.578125 5.171875l3.578125 0zm6.5546875 -2.1875q-0.875 -0.3125 -1.296875 -0.90625q-0.421875 -0.59375 -0.421875 -1.421875q0 -1.25 0.890625 -2.09375q0.90625 -0.859375 2.40625 -0.859375q1.5 0 2.40625 0.875q0.921875 0.859375 0.921875 2.109375q0 0.796875 -0.421875 1.390625q-0.421875 0.59375 -1.265625 0.90625q1.046875 0.34375 1.59375 1.109375q0.5625 0.765625 0.5625 1.828125q0 1.46875 -1.046875 2.484375q-1.03125 1.0 -2.734375 1.0q-1.6875 0 -2.734375 -1.0q-1.03125 -1.015625 -1.03125 -2.515625q0 -1.125 0.5625 -1.875q0.5625 -0.75 1.609375 -1.03125zm-0.28125 -2.375q0 0.8125 0.515625 1.328125q0.53125 0.515625 1.375 0.515625q0.8125 0 1.328125 -0.515625q0.515625 -0.515625 0.515625 -1.25q0 -0.78125 -0.53125 -1.296875q-0.53125 -0.53125 -1.328125 -0.53125q-0.8125 0 -1.34375 0.515625q-0.53125 0.515625 -0.53125 1.234375zm-0.453125 5.28125q0 0.609375 0.28125 1.171875q0.296875 0.5625 0.859375 0.875q0.5625 0.296875 1.203125 0.296875q1.015625 0 1.671875 -0.640625q0.65625 -0.65625 0.65625 -1.65625q0 -1.015625 -0.6875 -1.671875q-0.671875 -0.671875 -1.6875 -0.671875q-0.984375 0 -1.640625 0.65625q-0.65625 0.65625 -0.65625 1.640625z" fill-rule="nonzero"/><path fill="#000000" fill-opacity="0.0" d="m183.83202 469.151l52.25197 0l0 27.590576l-52.25197 0z" fill-rule="evenodd"/><path fill="#000000" d="m193.50389 490.51102l1.46875 -0.125q0.171875 1.078125 0.765625 1.625q0.59375 0.53125 1.4375 0.53125q1.015625 0 1.71875 -0.765625q0.703125 -0.765625 0.703125 -2.03125q0 -1.203125 -0.671875 -1.890625q-0.671875 -0.703125 -1.765625 -0.703125q-0.6875 0 -1.234375 0.3125q-0.546875 0.3125 -0.859375 0.796875l-1.3125 -0.171875l1.109375 -5.875l5.6875 0l0 1.34375l-4.5625 0l-0.625 3.078125q1.03125 -0.71875 2.171875 -0.71875q1.5 0 2.53125 1.046875q1.03125 1.03125 1.03125 2.65625q0 1.5625 -0.90625 2.6875q-1.109375 1.40625 -3.015625 1.40625q-1.5625 0 -2.546875 -0.875q-0.984375 -0.890625 -1.125 -2.328125zm14.1953125 3.0l-1.40625 0l0 -8.96875q-0.515625 0.484375 -1.34375 0.96875q-0.8125 0.484375 -1.46875 0.734375l0 -1.359375q1.171875 -0.5625 2.046875 -1.34375q0.890625 -0.796875 1.265625 -1.53125l0.90625 0l0 11.5zm10.9921875 -1.359375l0 1.359375l-7.578125 0q-0.015625 -0.515625 0.171875 -0.984375q0.28125 -0.765625 0.921875 -1.515625q0.640625 -0.75 1.84375 -1.734375q1.859375 -1.53125 2.515625 -2.421875q0.65625 -0.90625 0.65625 -1.703125q0 -0.828125 -0.59375 -1.40625q-0.59375 -0.578125 -1.5625 -0.578125q-1.015625 0 -1.625 0.609375q-0.609375 0.609375 -0.609375 1.6875l-1.453125 -0.140625q0.15625 -1.625 1.125 -2.46875q0.96875 -0.84375 2.59375 -0.84375q1.65625 0 2.609375 0.921875q0.96875 0.90625 0.96875 2.25q0 0.6875 -0.28125 1.359375q-0.28125 0.65625 -0.9375 1.390625q-0.65625 0.734375 -2.171875 2.015625q-1.265625 1.0625 -1.625 1.453125q-0.359375 0.375 -0.59375 0.75l5.625 0z" fill-rule="nonzero"/><path fill="#ffffff" d="m52.823437 425.43185l0 0c0 -7.618927 6.1763535 -13.795288 13.795277 -13.795288l109.60629 0c3.6587372 0 7.167618 1.4534302 9.75473 4.040558c2.5871277 2.5871277 4.040558 6.0960083 4.040558 9.75473l0 0l0 0c0 7.618927 -6.176361 13.795288 -13.795288 13.795288l-109.60629 0c-7.618923 0 -13.795277 -6.176361 -13.795277 -13.795288z" fill-rule="evenodd"/><path stroke="#000000" stroke-width="3.0" stroke-linejoin="round" stroke-linecap="butt" d="m52.823437 425.43185l0 0c0 -7.618927 6.1763535 -13.795288 13.795277 -13.795288l109.60629 0c3.6587372 0 7.167618 1.4534302 9.75473 4.040558c2.5871277 2.5871277 4.040558 6.0960083 4.040558 9.75473l0 0l0 0c0 7.618927 -6.176361 13.795288 -13.795288 13.795288l-109.60629 0c-7.618923 0 -13.795277 -6.176361 -13.795277 -13.795288z" fill-rule="evenodd"/><path fill="#000000" fill-opacity="0.0" d="m98.98163 426.00552l81.19685 0" fill-rule="evenodd"/><path stroke="#b7b7b7" stroke-width="4.0" stroke-linejoin="round" stroke-linecap="butt" d="m98.98163 426.00552l81.19685 0" fill-rule="evenodd"/><path fill="#000000" fill-opacity="0.0" d="m57.592373 407.25198l54.70866 0l0 27.590576l-54.70866 0z" fill-rule="evenodd"/><path fill="#000000" d="m70.02987 428.00513l0.171875 1.03125q-0.5 0.109375 -0.890625 0.109375q-0.640625 0 -1.0 -0.203125q-0.34375 -0.203125 -0.484375 -0.53125q-0.140625 -0.328125 -0.140625 -1.390625l0 -3.96875l-0.859375 0l0 -0.90625l0.859375 0l0 -1.71875l1.171875 -0.703125l0 2.421875l1.171875 0l0 0.90625l-1.171875 0l0 4.046875q0 0.5 0.046875 0.640625q0.0625 0.140625 0.203125 0.234375q0.140625 0.078125 0.40625 0.078125q0.203125 0 0.515625 -0.046875zm5.6561127 0.1875q-0.65625 0.5625 -1.265625 0.796875q-0.59375 0.21875 -1.28125 0.21875q-1.140625 0 -1.75 -0.546875q-0.609375 -0.5625 -0.609375 -1.4375q0 -0.5 0.21875 -0.921875q0.234375 -0.421875 0.609375 -0.671875q0.375 -0.25 0.84375 -0.390625q0.34375 -0.078125 1.046875 -0.171875q1.421875 -0.171875 2.09375 -0.40625q0 -0.234375 0 -0.296875q0 -0.71875 -0.328125 -1.015625q-0.453125 -0.390625 -1.34375 -0.390625q-0.8125 0 -1.21875 0.296875q-0.390625 0.28125 -0.578125 1.015625l-1.140625 -0.15625q0.15625 -0.734375 0.515625 -1.1875q0.359375 -0.453125 1.03125 -0.6875q0.671875 -0.25 1.5625 -0.25q0.890625 0 1.4375 0.203125q0.5625 0.203125 0.8125 0.53125q0.265625 0.3125 0.375 0.796875q0.046875 0.296875 0.046875 1.078125l0 1.5625q0 1.625 0.078125 2.0625q0.078125 0.4375 0.296875 0.828125l-1.21875 0q-0.1875 -0.359375 -0.234375 -0.859375zm-0.09375 -2.609375q-0.640625 0.265625 -1.921875 0.4375q-0.71875 0.109375 -1.015625 0.25q-0.296875 0.125 -0.46875 0.375q-0.15625 0.25 -0.15625 0.546875q0 0.46875 0.34375 0.78125q0.359375 0.3125 1.046875 0.3125q0.671875 0 1.203125 -0.296875q0.53125 -0.296875 0.78125 -0.8125q0.1875 -0.390625 0.1875 -1.171875l0 -0.421875zm2.9906006 3.46875l0 -6.90625l1.0625 0l0 0.984375q0.75 -1.140625 2.1875 -1.140625q0.625 0 1.15625 0.21875q0.53125 0.21875 0.78125 0.59375q0.265625 0.359375 0.375 0.859375q0.0625 0.328125 0.0625 1.140625l0 4.25l-1.171875 0l0 -4.203125q0 -0.71875 -0.140625 -1.0625q-0.140625 -0.359375 -0.484375 -0.5625q-0.34375 -0.21875 -0.8125 -0.21875q-0.75 0 -1.296875 0.46875q-0.546875 0.46875 -0.546875 1.796875l0 3.78125l-1.171875 0zm7.4124756 0l0 -9.546875l1.171875 0l0 3.421875q0.828125 -0.9375 2.078125 -0.9375q0.765625 0 1.328125 0.296875q0.5625 0.296875 0.8125 0.84375q0.25 0.53125 0.25 1.546875l0 4.375l-1.171875 0l0 -4.375q0 -0.890625 -0.390625 -1.28125q-0.375 -0.40625 -1.078125 -0.40625q-0.515625 0 -0.984375 0.28125q-0.453125 0.265625 -0.65625 0.734375q-0.1875 0.453125 -0.1875 1.265625l0 3.78125l-1.171875 0z" fill-rule="nonzero"/><path fill="#000000" fill-opacity="0.0" d="m139.58005 415.85043l0.9133911 18.992126" fill-rule="evenodd"/><path stroke="#b7b7b7" stroke-width="4.0" stroke-linejoin="round" stroke-linecap="butt" d="m139.58005 415.85043l0.9133911 18.992126" fill-rule="evenodd"/><path fill="#000000" fill-opacity="0.0" d="m100.3547 433.35718c19.842514 0 29.763771 -3.535431 39.685036 -7.070862c9.921265 -3.535431 19.842514 -7.0708923 39.685043 -7.0708923" fill-rule="evenodd"/><path stroke="#ff0000" stroke-width="2.0" stroke-linejoin="round" stroke-linecap="butt" d="m100.3547 433.35718c19.842514 0 29.763771 -3.535431 39.685036 -7.070862c9.921265 -3.535431 19.842514 -7.0708923 39.685043 -7.0708923" fill-rule="evenodd"/><path fill="#ffffff" d="m54.130524 22.330196l0 0c0 -7.6189203 6.1763535 -13.795276 13.795273 -13.795276l109.60631 0c3.658722 0 7.1676025 1.4534264 9.75473 4.0405426c2.5871124 2.5871162 4.0405426 6.095998 4.0405426 9.754733l0 0l0 0c0 7.6189194 -6.176361 13.795277 -13.795273 13.795277l-109.60631 0c-7.6189194 0 -13.795273 -6.1763573 -13.795273 -13.795277z" fill-rule="evenodd"/><path stroke="#000000" stroke-width="3.0" stroke-linejoin="round" stroke-linecap="butt" d="m54.130524 22.330196l0 0c0 -7.6189203 6.1763535 -13.795276 13.795273 -13.795276l109.60631 0c3.658722 0 7.1676025 1.4534264 9.75473 4.0405426c2.5871124 2.5871162 4.0405426 6.095998 4.0405426 9.754733l0 0l0 0c0 7.6189194 -6.176361 13.795277 -13.795273 13.795277l-109.60631 0c-7.6189194 0 -13.795273 -6.1763573 -13.795273 -13.795277z" fill-rule="evenodd"/><path fill="#000000" fill-opacity="0.0" d="m101.45598 25.011415l81.19685 0" fill-rule="evenodd"/><path stroke="#b7b7b7" stroke-width="4.0" stroke-linejoin="round" stroke-linecap="butt" d="m101.45598 25.011415l81.19685 0" fill-rule="evenodd"/><path fill="#000000" fill-opacity="0.0" d="m142.06436 14.15037l0.31497192 18.992125" fill-rule="evenodd"/><path stroke="#b7b7b7" stroke-width="4.0" stroke-linejoin="round" stroke-linecap="butt" d="m142.06436 14.15037l0.31497192 18.992125" fill-rule="evenodd"/><path fill="#000000" fill-opacity="0.0" d="m103.28319 24.848278l38.777634 0l39.689163 -12.014145" fill-rule="evenodd"/><path stroke="#ff0000" stroke-width="2.0" stroke-linejoin="round" stroke-linecap="butt" d="m103.28319 24.848278l38.777634 0l39.689163 -12.014145" fill-rule="evenodd"/><path fill="#000000" fill-opacity="0.0" d="m53.47173 6.5887265l58.299213 0l0 24.503937l-58.299213 0z" fill-rule="evenodd"/><path fill="#000000" d="m63.518604 28.388725l0 -9.546875l4.234379 0q1.265625 0 1.921875 0.265625q0.671875 0.25 1.0625 0.90625q0.40625 0.65625 0.40625 1.4375q0 1.015625 -0.65625 1.71875q-0.65625 0.6875 -2.03125 0.875q0.5 0.25 0.765625 0.484375q0.546875 0.5 1.046875 1.265625l1.65625 2.59375l-1.578125 0l-1.265625 -1.984375q-0.5625 -0.859375 -0.921875 -1.3125q-0.34375 -0.453125 -0.640625 -0.640625q-0.28125 -0.1875 -0.5625 -0.25q-0.21875 -0.046875 -0.703125 -0.046875l-1.46875 0l0 4.234375l-1.2656288 0zm1.2656288 -5.328125l2.71875 0q0.859375 0 1.34375 -0.171875q0.484375 -0.1875 0.734375 -0.578125q0.265625 -0.390625 0.265625 -0.859375q0 -0.671875 -0.5 -1.109375q-0.484375 -0.4375 -1.546875 -0.4375l-3.015625 0l0 3.15625zm12.922028 3.109375l1.203125 0.140625q-0.28125 1.0625 -1.0625 1.65625q-0.765625 0.578125 -1.96875 0.578125q-1.515625 0 -2.40625 -0.9375q-0.890625 -0.9375 -0.890625 -2.609375q0 -1.75 0.890625 -2.703125q0.90625 -0.96875 2.34375 -0.96875q1.390625 0 2.265625 0.9375q0.875 0.9375 0.875 2.65625q0 0.109375 0 0.3125l-5.15625 0q0.0625 1.140625 0.640625 1.75q0.578125 0.59375 1.4375 0.59375q0.65625 0 1.109375 -0.328125q0.453125 -0.34375 0.71875 -1.078125zm-3.84375 -1.90625l3.859375 0q-0.078125 -0.859375 -0.4375 -1.296875q-0.5625 -0.6875 -1.453125 -0.6875q-0.8125 0 -1.359375 0.546875q-0.546875 0.53125 -0.609375 1.4375zm6.6156006 4.125l0 -9.546875l1.265625 0l0 8.421875l4.703125 0l0 1.125l-5.96875 0zm13.724976 -9.546875l1.265625 0l0 5.515625q0 1.4375 -0.328125 2.296875q-0.3125 0.84375 -1.171875 1.375q-0.84375 0.515625 -2.21875 0.515625q-1.34375 0 -2.203125 -0.453125q-0.84375 -0.46875 -1.21875 -1.34375q-0.359375 -0.875 -0.359375 -2.390625l0 -5.515625l1.265625 0l0 5.515625q0 1.234375 0.21875 1.828125q0.234375 0.59375 0.796875 0.921875q0.5625 0.3125 1.390625 0.3125q1.390625 0 1.96875 -0.625q0.59375 -0.640625 0.59375 -2.4375l0 -5.515625z" fill-rule="nonzero"/><path fill="#ffffff" d="m88.19554 537.90753l0 0c0 -2.5396729 2.0588226 -4.5985107 4.5985107 -4.5985107l59.212418 0c1.2196045 0 2.3892517 0.48449707 3.251648 1.3468628c0.862381 0.8623657 1.3468628 2.0320435 1.3468628 3.251648l0 18.393494c0 2.539734 -2.0588226 4.5985107 -4.5985107 4.5985107l-59.212418 0l0 0c-2.539688 0 -4.5985107 -2.0587769 -4.5985107 -4.5985107z" fill-rule="evenodd"/><path stroke="#000000" stroke-width="1.0" stroke-linejoin="round" stroke-linecap="butt" d="m88.19554 537.90753l0 0c0 -2.5396729 2.0588226 -4.5985107 4.5985107 -4.5985107l59.212418 0c1.2196045 0 2.3892517 0.48449707 3.251648 1.3468628c0.862381 0.8623657 1.3468628 2.0320435 1.3468628 3.251648l0 18.393494c0 2.539734 -2.0588226 4.5985107 -4.5985107 4.5985107l-59.212418 0l0 0c-2.539688 0 -4.5985107 -2.0587769 -4.5985107 -4.5985107z" fill-rule="evenodd"/><path fill="#d9d9d9" d="m95.375885 544.00116l2.8582535 -2.6809082l2.8999252 3.0917969l2.8999252 -3.0917969l2.8582535 2.6809082l-3.0718002 3.2750244l3.0718002 3.2750244l-2.8582535 2.6809082l-2.8999252 -3.0917969l-2.8999252 3.0917969l-2.8582535 -2.6809082l3.0717926 -3.2750244z" fill-rule="evenodd"/><path stroke="#000000" stroke-width="1.0" stroke-linejoin="round" stroke-linecap="butt" d="m95.375885 544.00116l2.8582535 -2.6809082l2.8999252 3.0917969l2.8999252 -3.0917969l2.8582535 2.6809082l-3.0718002 3.2750244l3.0718002 3.2750244l-2.8582535 2.6809082l-2.8999252 -3.0917969l-2.8999252 3.0917969l-2.8582535 -2.6809082l3.0717926 -3.2750244z" fill-rule="evenodd"/><path fill="#fce5cd" d="m112.88976 538.3944l4.9133835 0l0 17.763733l-4.9133835 0z" fill-rule="evenodd"/><path stroke="#000000" stroke-width="1.0" stroke-linejoin="round" stroke-linecap="butt" d="m112.88976 538.3944l4.9133835 0l0 17.763733l-4.9133835 0z" fill-rule="evenodd"/><path fill="#d9d9d9" d="m124.0689 545.0514l4.2406387 0l0 -3.9975586l3.7631989 0l0 3.9975586l4.240631 0l0 3.7632446l-4.240631 0l0 3.9975586l-3.7631989 0l0 -3.9975586l-4.2406387 0z" fill-rule="evenodd"/><path stroke="#000000" stroke-width="1.0" stroke-linejoin="round" stroke-linecap="butt" d="m124.0689 545.0514l4.2406387 0l0 -3.9975586l3.7631989 0l0 3.9975586l4.240631 0l0 3.7632446l-4.240631 0l0 3.9975586l-3.7631989 0l0 -3.9975586l-4.2406387 0z" fill-rule="evenodd"/><path fill="#fce5cd" d="m142.58005 538.05054l4.913391 0l0 17.763794l-4.913391 0z" fill-rule="evenodd"/><path stroke="#000000" stroke-width="1.0" stroke-linejoin="round" stroke-linecap="butt" d="m142.58005 538.05054l4.913391 0l0 17.763794l-4.913391 0z" fill-rule="evenodd"/><path fill="#f3f3f3" d="m58.43832 452.14798l0 0c0 -2.5396729 2.0588264 -4.5985107 4.5985184 -4.5985107l119.59036 0c1.2196045 0 2.389267 0.48449707 3.251648 1.3468933c0.86239624 0.8623657 1.346878 2.0320435 1.346878 3.2516174l0 18.393524c0 2.5397034 -2.0588226 4.5985107 -4.598526 4.5985107l-119.59036 0c-2.539692 0 -4.5985184 -2.0588074 -4.5985184 -4.5985107z" fill-rule="evenodd"/><path stroke="#000000" stroke-width="1.0" stroke-linejoin="round" stroke-linecap="butt" d="m58.43832 452.14798l0 0c0 -2.5396729 2.0588264 -4.5985107 4.5985184 -4.5985107l119.59036 0c1.2196045 0 2.389267 0.48449707 3.251648 1.3468933c0.86239624 0.8623657 1.346878 2.0320435 1.346878 3.2516174l0 18.393524c0 2.5397034 -2.0588226 4.5985107 -4.598526 4.5985107l-119.59036 0c-2.539692 0 -4.5985184 -2.0588074 -4.5985184 -4.5985107z" fill-rule="evenodd"/><path fill="#d9d9d9" d="m65.61867 458.24115l2.8582535 -2.6808777l2.8999252 3.0917969l2.8999252 -3.0917969l2.8582535 2.6808777l-3.0718002 3.275055l3.0718002 3.2750244l-2.8582535 2.6808777l-2.8999252 -3.0917969l-2.8999252 3.0917969l-2.8582535 -2.6808777l3.0717926 -3.2750244z" fill-rule="evenodd"/><path stroke="#000000" stroke-width="1.0" stroke-linejoin="round" stroke-linecap="butt" d="m65.61867 458.24115l2.8582535 -2.6808777l2.8999252 3.0917969l2.8999252 -3.0917969l2.8582535 2.6808777l-3.0718002 3.275055l3.0718002 3.2750244l-2.8582535 2.6808777l-2.8999252 -3.0917969l-2.8999252 3.0917969l-2.8582535 -2.6808777l3.0717926 -3.2750244z" fill-rule="evenodd"/><path fill="#d9d9d9" d="m83.132545 452.6344l4.9133835 0l0 17.763794l-4.9133835 0z" fill-rule="evenodd"/><path stroke="#000000" stroke-width="1.0" stroke-linejoin="round" stroke-linecap="butt" d="m83.132545 452.6344l4.9133835 0l0 17.763794l-4.9133835 0z" fill-rule="evenodd"/><path fill="#d9d9d9" d="m94.31168 459.29144l4.2406387 0l0 -3.9976196l3.7631989 0l0 3.9976196l4.2406387 0l0 3.7631836l-4.2406387 0l0 3.9976196l-3.7631989 0l0 -3.9976196l-4.2406387 0z" fill-rule="evenodd"/><path stroke="#000000" stroke-width="1.0" stroke-linejoin="round" stroke-linecap="butt" d="m94.31168 459.29144l4.2406387 0l0 -3.9976196l3.7631989 0l0 3.9976196l4.2406387 0l0 3.7631836l-4.2406387 0l0 3.9976196l-3.7631989 0l0 -3.9976196l-4.2406387 0z" fill-rule="evenodd"/><path fill="#d9d9d9" d="m112.82284 452.29056l4.9133835 0l0 17.763794l-4.9133835 0z" fill-rule="evenodd"/><path stroke="#000000" stroke-width="1.0" stroke-linejoin="round" stroke-linecap="butt" d="m112.82284 452.29056l4.9133835 0l0 17.763794l-4.9133835 0z" fill-rule="evenodd"/><path fill="#000000" fill-opacity="0.0" d="m113.59313 443.28168l81.039375 0l0 27.590546l-81.039375 0z" fill-rule="evenodd"/><path fill="#000000" d="m123.45251 465.0817l0 -9.546875l1.171875 0l0 9.546875l-1.171875 0zm7.4923477 -0.859375q-0.65625 0.5625 -1.265625 0.796875q-0.59375 0.21875 -1.28125 0.21875q-1.1406326 0 -1.7500076 -0.546875q-0.609375 -0.5625 -0.609375 -1.4375q0 -0.5 0.21875 -0.921875q0.234375 -0.421875 0.609375 -0.671875q0.375 -0.25 0.84375 -0.390625q0.34375763 -0.078125 1.0468826 -0.171875q1.421875 -0.171875 2.09375 -0.40625q0 -0.234375 0 -0.296875q0 -0.71875 -0.328125 -1.015625q-0.453125 -0.390625 -1.34375 -0.390625q-0.8125 0 -1.2187576 0.296875q-0.390625 0.28125 -0.578125 1.015625l-1.140625 -0.15625q0.15625 -0.734375 0.515625 -1.1875q0.359375 -0.453125 1.03125 -0.6875q0.6718826 -0.25 1.5625076 -0.25q0.890625 0 1.4375 0.203125q0.5625 0.203125 0.8125 0.53125q0.265625 0.3125 0.375 0.796875q0.046875 0.296875 0.046875 1.078125l0 1.5625q0 1.625 0.078125 2.0625q0.078125 0.4375 0.296875 0.828125l-1.21875 0q-0.1875 -0.359375 -0.234375 -0.859375zm-0.09375 -2.609375q-0.640625 0.265625 -1.921875 0.4375q-0.71875 0.109375 -1.0156326 0.25q-0.296875 0.125 -0.46875 0.375q-0.15625 0.25 -0.15625 0.546875q0 0.46875 0.34375 0.78125q0.359375 0.3125 1.0468826 0.3125q0.671875 0 1.203125 -0.296875q0.53125 -0.296875 0.78125 -0.8125q0.1875 -0.390625 0.1875 -1.171875l0 -0.421875zm2.9437256 6.125l-0.125 -1.09375q0.375 0.109375 0.65625 0.109375q0.390625 0 0.625 -0.140625q0.234375 -0.125 0.390625 -0.359375q0.109375 -0.171875 0.359375 -0.875q0.03125 -0.09375 0.109375 -0.28125l-2.625 -6.921875l1.265625 0l1.4375 4.0q0.28125 0.765625 0.5 1.59375q0.203125 -0.796875 0.46875 -1.578125l1.484375 -4.015625l1.171875 0l-2.625 7.015625q-0.421875 1.140625 -0.65625 1.578125q-0.3125 0.578125 -0.71875 0.84375q-0.40625 0.28125 -0.96875 0.28125q-0.328125 0 -0.75 -0.15625zm11.4453125 -4.875l1.203125 0.140625q-0.28125 1.0625 -1.0625 1.65625q-0.765625 0.578125 -1.96875 0.578125q-1.515625 0 -2.40625 -0.9375q-0.890625 -0.9375 -0.890625 -2.609375q0 -1.75 0.890625 -2.703125q0.90625 -0.96875 2.34375 -0.96875q1.390625 0 2.265625 0.9375q0.875 0.9375 0.875 2.65625q0 0.109375 0 0.3125l-5.15625 0q0.0625 1.140625 0.640625 1.75q0.578125 0.59375 1.4375 0.59375q0.65625 0 1.109375 -0.328125q0.453125 -0.34375 0.71875 -1.078125zm-3.84375 -1.90625l3.859375 0q-0.078125 -0.859375 -0.4375 -1.296875q-0.5625 -0.6875 -1.453125 -0.6875q-0.8125 0 -1.359375 0.546875q-0.546875 0.53125 -0.609375 1.4375zm6.5062256 4.125l0 -6.90625l1.0625 0l0 1.046875q0.40625 -0.734375 0.734375 -0.96875q0.34375 -0.234375 0.765625 -0.234375q0.59375 0 1.203125 0.375l-0.40625 1.078125q-0.4375 -0.25 -0.859375 -0.25q-0.390625 0 -0.703125 0.234375q-0.296875 0.234375 -0.421875 0.640625q-0.203125 0.625 -0.203125 1.359375l0 3.625l-1.171875 0zm4.4539948 0l0 -6.90625l1.0625 0l0 0.984375q0.75 -1.140625 2.1875 -1.140625q0.625 0 1.15625 0.21875q0.53125 0.21875 0.78125 0.59375q0.265625 0.359375 0.375 0.859375q0.0625 0.328125 0.0625 1.140625l0 4.25l-1.171875 0l0 -4.203125q0 -0.71875 -0.140625 -1.0625q-0.140625 -0.359375 -0.484375 -0.5625q-0.34375 -0.21875 -0.8125 -0.21875q-0.75 0 -1.296875 0.46875q-0.546875 0.46875 -0.546875 1.796875l0 3.78125l-1.171875 0zm6.9749756 -3.453125q0 -1.921875 1.078125 -2.84375q0.890625 -0.765625 2.171875 -0.765625q1.421875 0 2.328125 0.9375q0.90625 0.921875 0.90625 2.578125q0 1.328125 -0.40625 2.09375q-0.390625 0.765625 -1.15625 1.1875q-0.765625 0.421875 -1.671875 0.421875q-1.453125 0 -2.359375 -0.921875q-0.890625 -0.9375 -0.890625 -2.6875zm1.203125 0q0 1.328125 0.578125 1.984375q0.59375 0.65625 1.46875 0.65625q0.875 0 1.453125 -0.65625q0.578125 -0.671875 0.578125 -2.03125q0 -1.28125 -0.59375 -1.9375q-0.578125 -0.65625 -1.4375 -0.65625q-0.875 0 -1.46875 0.65625q-0.578125 0.65625 -0.578125 1.984375zm6.6312256 3.453125l0 -6.90625l1.0625 0l0 1.046875q0.40625 -0.734375 0.734375 -0.96875q0.34375 -0.234375 0.765625 -0.234375q0.59375 0 1.203125 0.375l-0.40625 1.078125q-0.4375 -0.25 -0.859375 -0.25q-0.390625 0 -0.703125 0.234375q-0.296875 0.234375 -0.421875 0.640625q-0.203125 0.625 -0.203125 1.359375l0 3.625l-1.171875 0zm4.4539948 0l0 -6.90625l1.046875 0l0 0.96875q0.328125 -0.515625 0.859375 -0.8125q0.546875 -0.3125 1.234375 -0.3125q0.78125 0 1.265625 0.3125q0.484375 0.3125 0.6875 0.890625q0.828125 -1.203125 2.140625 -1.203125q1.03125 0 1.578125 0.578125q0.5625 0.5625 0.5625 1.734375l0 4.75l-1.171875 0l0 -4.359375q0 -0.703125 -0.125 -1.0q-0.109375 -0.3125 -0.40625 -0.5q-0.296875 -0.1875 -0.703125 -0.1875q-0.71875 0 -1.203125 0.484375q-0.484375 0.484375 -0.484375 1.546875l0 4.015625l-1.171875 0l0 -4.484375q0 -0.78125 -0.296875 -1.171875q-0.28125 -0.390625 -0.921875 -0.390625q-0.5 0 -0.921875 0.265625q-0.421875 0.25 -0.609375 0.75q-0.1875 0.5 -0.1875 1.453125l0 3.578125l-1.171875 0z" fill-rule="nonzero"/><path fill="#f3f3f3" d="m8.574499 312.3041l0 0c0 -10.118164 8.202402 -18.320587 18.320576 -18.320587l199.61081 0c4.858917 0 9.518829 1.9302063 12.954605 5.365967c3.4357758 3.435791 5.365967 8.095703 5.365967 12.95462l0 73.28009c0 10.118195 -8.202393 18.320587 -18.320572 18.320587l-199.61081 0c-10.118174 0 -18.320576 -8.202393 -18.320576 -18.320587z" fill-rule="evenodd"/><path stroke="#000000" stroke-width="2.0" stroke-linejoin="round" stroke-linecap="butt" d="m8.574499 312.3041l0 0c0 -10.118164 8.202402 -18.320587 18.320576 -18.320587l199.61081 0c4.858917 0 9.518829 1.9302063 12.954605 5.365967c3.4357758 3.435791 5.365967 8.095703 5.365967 12.95462l0 73.28009c0 10.118195 -8.202393 18.320587 -18.320572 18.320587l-199.61081 0c-10.118174 0 -18.320576 -8.202393 -18.320576 -18.320587z" fill-rule="evenodd"/><path fill="#ffffff" d="m39.11972 366.68066l0 -60.881897l169.5433 0l0 60.881897z" fill-rule="evenodd"/><path stroke="#000000" stroke-width="3.0" stroke-linejoin="round" stroke-linecap="butt" d="m39.11972 366.68066l0 -60.881897l169.5433 0l0 60.881897z" fill-rule="evenodd"/><path fill="#fce5cd" d="m46.061977 327.88727l152.18898 0l0 30.362213l-152.18898 0z" fill-rule="evenodd"/><path stroke="#000000" stroke-width="1.0" stroke-linejoin="round" stroke-linecap="butt" d="m46.061977 327.88727l152.18898 0l0 30.362213l-152.18898 0z" fill-rule="evenodd"/><path fill="#000000" fill-opacity="0.0" d="m209.17555 360.65872l34.64566 0l0 34.740143l-34.64566 0z" fill-rule="evenodd"/><path fill="#000000" d="m228.80055 384.66745q1.078125 0.734375 1.59375 1.6875q0.53125 0.953125 0.53125 2.140625q0 1.265625 -0.703125 2.359375q-0.6875 1.078125 -2.015625 1.640625q-1.328125 0.5625 -3.46875 0.5625q-2.78125 0 -4.1875 -0.875q-0.796875 -0.5 -0.796875 -1.171875q0 -0.515625 0.34375 -0.875q0.359375 -0.359375 0.84375 -0.359375q0.34375 0 0.703125 0.234375q0.515625 0.359375 0.96875 0.46875q0.703125 0.171875 1.9375 0.171875q2.09375 0 3.03125 -0.546875q0.9375 -0.546875 0.9375 -1.546875q0 -0.734375 -0.546875 -1.421875q-0.53125 -0.6875 -1.453125 -1.0625q-0.53125 -0.203125 -1.78125 -0.296875q-0.59375 -0.03125 -0.921875 -0.359375q-0.3125 -0.34375 -0.3125 -0.828125q0 -0.515625 0.34375 -0.859375q0.359375 -0.359375 0.890625 -0.359375q1.203125 0 1.28125 -0.015625q0.46875 -0.046875 0.9375 -0.296875q0.46875 -0.265625 0.75 -0.71875q0.296875 -0.453125 0.296875 -0.921875q0 -0.765625 -0.6875 -1.3125q-0.671875 -0.5625 -2.015625 -0.5625q-1.734375 0 -2.640625 1.0q-0.28125 0.296875 -0.4375 0.375q-0.25 0.125 -0.546875 0.125q-0.5 0 -0.859375 -0.34375q-0.34375 -0.359375 -0.34375 -0.875q0 -0.796875 1.078125 -1.5625q1.578125 -1.109375 3.921875 -1.109375q2.234375 0 3.578125 1.265625q1.34375 1.265625 1.34375 3.046875q0 0.921875 -0.40625 1.734375q-0.390625 0.796875 -1.1875 1.46875z" fill-rule="nonzero"/><path fill="#000000" d="m198.38544 381.71802l4.0543823 -4.0960693l4.405014 4.3601685l4.404999 -4.3601685l4.0543976 4.0960693l-4.3631134 4.318695l4.3631134 4.318695l-4.0543976 4.0961l-4.404999 -4.360199l-4.405014 4.360199l-4.0543823 -4.0961l4.363098 -4.318695z" fill-rule="evenodd"/><path stroke="#000000" stroke-width="1.0" stroke-linejoin="round" stroke-linecap="butt" d="m198.38544 381.71802l4.0543823 -4.0960693l4.405014 4.3601685l4.404999 -4.3601685l4.0543976 4.0960693l-4.3631134 4.318695l4.3631134 4.318695l-4.0543976 4.0961l-4.404999 -4.360199l-4.405014 4.360199l-4.0543823 -4.0961l4.363098 -4.318695z" fill-rule="evenodd"/><path fill="#000000" fill-opacity="0.0" d="m23.633207 317.70306l199.1811 -0.28344727" fill-rule="evenodd"/><path stroke="#d5a6bd" stroke-width="8.0" stroke-linejoin="round" stroke-linecap="butt" d="m23.633207 317.70306l199.1811 -0.28344727" fill-rule="evenodd"/><path fill="#f3f3f3" d="m58.43832 206.24248l0 0c0 -2.539688 2.0588264 -4.5985107 4.5985184 -4.5985107l119.59036 0c1.2196045 0 2.389267 0.4844818 3.251648 1.346878c0.86239624 0.862381 1.346878 2.0320282 1.346878 3.2516327l0 18.393524c0 2.539688 -2.0588226 4.5985107 -4.598526 4.5985107l-119.59036 0c-2.539692 0 -4.5985184 -2.0588226 -4.5985184 -4.5985107z" fill-rule="evenodd"/><path stroke="#000000" stroke-width="1.0" stroke-linejoin="round" stroke-linecap="butt" d="m58.43832 206.24248l0 0c0 -2.539688 2.0588264 -4.5985107 4.5985184 -4.5985107l119.59036 0c1.2196045 0 2.389267 0.4844818 3.251648 1.346878c0.86239624 0.862381 1.346878 2.0320282 1.346878 3.2516327l0 18.393524c0 2.539688 -2.0588226 4.5985107 -4.598526 4.5985107l-119.59036 0c-2.539692 0 -4.5985184 -2.0588226 -4.5985184 -4.5985107z" fill-rule="evenodd"/><path fill="#d9d9d9" d="m65.61867 212.33565l2.8582535 -2.6808777l2.8999252 3.0917969l2.8999252 -3.0917969l2.8582535 2.6808777l-3.0718002 3.2750397l3.0718002 3.2750244l-2.8582535 2.680893l-2.8999252 -3.0917969l-2.8999252 3.0917969l-2.8582535 -2.680893l3.0717926 -3.2750244z" fill-rule="evenodd"/><path stroke="#000000" stroke-width="1.0" stroke-linejoin="round" stroke-linecap="butt" d="m65.61867 212.33565l2.8582535 -2.6808777l2.8999252 3.0917969l2.8999252 -3.0917969l2.8582535 2.6808777l-3.0718002 3.2750397l3.0718002 3.2750244l-2.8582535 2.680893l-2.8999252 -3.0917969l-2.8999252 3.0917969l-2.8582535 -2.680893l3.0717926 -3.2750244z" fill-rule="evenodd"/><path fill="#d9d9d9" d="m83.132545 206.7289l4.9133835 0l0 17.763779l-4.9133835 0z" fill-rule="evenodd"/><path stroke="#000000" stroke-width="1.0" stroke-linejoin="round" stroke-linecap="butt" d="m83.132545 206.7289l4.9133835 0l0 17.763779l-4.9133835 0z" fill-rule="evenodd"/><path fill="#d9d9d9" d="m94.31168 213.38593l4.2406387 0l0 -3.9976044l3.7631989 0l0 3.9976044l4.2406387 0l0 3.7631989l-4.2406387 0l0 3.9976044l-3.7631989 0l0 -3.9976044l-4.2406387 0z" fill-rule="evenodd"/><path stroke="#000000" stroke-width="1.0" stroke-linejoin="round" stroke-linecap="butt" d="m94.31168 213.38593l4.2406387 0l0 -3.9976044l3.7631989 0l0 3.9976044l4.2406387 0l0 3.7631989l-4.2406387 0l0 3.9976044l-3.7631989 0l0 -3.9976044l-4.2406387 0z" fill-rule="evenodd"/><path fill="#d9d9d9" d="m112.82284 206.38506l4.9133835 0l0 17.763779l-4.9133835 0z" fill-rule="evenodd"/><path stroke="#000000" stroke-width="1.0" stroke-linejoin="round" stroke-linecap="butt" d="m112.82284 206.38506l4.9133835 0l0 17.763779l-4.9133835 0z" fill-rule="evenodd"/><path fill="#000000" fill-opacity="0.0" d="m113.59313 197.37617l81.039375 0l0 27.590546l-81.039375 0z" fill-rule="evenodd"/><path fill="#000000" d="m123.45251 219.17618l0 -9.546875l1.171875 0l0 9.546875l-1.171875 0zm7.4923477 -0.859375q-0.65625 0.5625 -1.265625 0.796875q-0.59375 0.21875 -1.28125 0.21875q-1.1406326 0 -1.7500076 -0.546875q-0.609375 -0.5625 -0.609375 -1.4375q0 -0.5 0.21875 -0.921875q0.234375 -0.421875 0.609375 -0.671875q0.375 -0.25 0.84375 -0.390625q0.34375763 -0.078125 1.0468826 -0.171875q1.421875 -0.171875 2.09375 -0.40625q0 -0.234375 0 -0.296875q0 -0.71875 -0.328125 -1.015625q-0.453125 -0.390625 -1.34375 -0.390625q-0.8125 0 -1.2187576 0.296875q-0.390625 0.28125 -0.578125 1.015625l-1.140625 -0.15625q0.15625 -0.734375 0.515625 -1.1875q0.359375 -0.453125 1.03125 -0.6875q0.6718826 -0.25 1.5625076 -0.25q0.890625 0 1.4375 0.203125q0.5625 0.203125 0.8125 0.53125q0.265625 0.3125 0.375 0.796875q0.046875 0.296875 0.046875 1.078125l0 1.5625q0 1.625 0.078125 2.0625q0.078125 0.4375 0.296875 0.828125l-1.21875 0q-0.1875 -0.359375 -0.234375 -0.859375zm-0.09375 -2.609375q-0.640625 0.265625 -1.921875 0.4375q-0.71875 0.109375 -1.0156326 0.25q-0.296875 0.125 -0.46875 0.375q-0.15625 0.25 -0.15625 0.546875q0 0.46875 0.34375 0.78125q0.359375 0.3125 1.0468826 0.3125q0.671875 0 1.203125 -0.296875q0.53125 -0.296875 0.78125 -0.8125q0.1875 -0.390625 0.1875 -1.171875l0 -0.421875zm2.9437256 6.125l-0.125 -1.09375q0.375 0.109375 0.65625 0.109375q0.390625 0 0.625 -0.140625q0.234375 -0.125 0.390625 -0.359375q0.109375 -0.171875 0.359375 -0.875q0.03125 -0.09375 0.109375 -0.28125l-2.625 -6.921875l1.265625 0l1.4375 4.0q0.28125 0.765625 0.5 1.59375q0.203125 -0.796875 0.46875 -1.578125l1.484375 -4.015625l1.171875 0l-2.625 7.015625q-0.421875 1.140625 -0.65625 1.578125q-0.3125 0.578125 -0.71875 0.84375q-0.40625 0.28125 -0.96875 0.28125q-0.328125 0 -0.75 -0.15625zm11.4453125 -4.875l1.203125 0.140625q-0.28125 1.0625 -1.0625 1.65625q-0.765625 0.578125 -1.96875 0.578125q-1.515625 0 -2.40625 -0.9375q-0.890625 -0.9375 -0.890625 -2.609375q0 -1.75 0.890625 -2.703125q0.90625 -0.96875 2.34375 -0.96875q1.390625 0 2.265625 0.9375q0.875 0.9375 0.875 2.65625q0 0.109375 0 0.3125l-5.15625 0q0.0625 1.140625 0.640625 1.75q0.578125 0.59375 1.4375 0.59375q0.65625 0 1.109375 -0.328125q0.453125 -0.34375 0.71875 -1.078125zm-3.84375 -1.90625l3.859375 0q-0.078125 -0.859375 -0.4375 -1.296875q-0.5625 -0.6875 -1.453125 -0.6875q-0.8125 0 -1.359375 0.546875q-0.546875 0.53125 -0.609375 1.4375zm6.5062256 4.125l0 -6.90625l1.0625 0l0 1.046875q0.40625 -0.734375 0.734375 -0.96875q0.34375 -0.234375 0.765625 -0.234375q0.59375 0 1.203125 0.375l-0.40625 1.078125q-0.4375 -0.25 -0.859375 -0.25q-0.390625 0 -0.703125 0.234375q-0.296875 0.234375 -0.421875 0.640625q-0.203125 0.625 -0.203125 1.359375l0 3.625l-1.171875 0zm4.4539948 0l0 -6.90625l1.0625 0l0 0.984375q0.75 -1.140625 2.1875 -1.140625q0.625 0 1.15625 0.21875q0.53125 0.21875 0.78125 0.59375q0.265625 0.359375 0.375 0.859375q0.0625 0.328125 0.0625 1.140625l0 4.25l-1.171875 0l0 -4.203125q0 -0.71875 -0.140625 -1.0625q-0.140625 -0.359375 -0.484375 -0.5625q-0.34375 -0.21875 -0.8125 -0.21875q-0.75 0 -1.296875 0.46875q-0.546875 0.46875 -0.546875 1.796875l0 3.78125l-1.171875 0zm6.9749756 -3.453125q0 -1.921875 1.078125 -2.84375q0.890625 -0.765625 2.171875 -0.765625q1.421875 0 2.328125 0.9375q0.90625 0.921875 0.90625 2.578125q0 1.328125 -0.40625 2.09375q-0.390625 0.765625 -1.15625 1.1875q-0.765625 0.421875 -1.671875 0.421875q-1.453125 0 -2.359375 -0.921875q-0.890625 -0.9375 -0.890625 -2.6875zm1.203125 0q0 1.328125 0.578125 1.984375q0.59375 0.65625 1.46875 0.65625q0.875 0 1.453125 -0.65625q0.578125 -0.671875 0.578125 -2.03125q0 -1.28125 -0.59375 -1.9375q-0.578125 -0.65625 -1.4375 -0.65625q-0.875 0 -1.46875 0.65625q-0.578125 0.65625 -0.578125 1.984375zm6.6312256 3.453125l0 -6.90625l1.0625 0l0 1.046875q0.40625 -0.734375 0.734375 -0.96875q0.34375 -0.234375 0.765625 -0.234375q0.59375 0 1.203125 0.375l-0.40625 1.078125q-0.4375 -0.25 -0.859375 -0.25q-0.390625 0 -0.703125 0.234375q-0.296875 0.234375 -0.421875 0.640625q-0.203125 0.625 -0.203125 1.359375l0 3.625l-1.171875 0zm4.4539948 0l0 -6.90625l1.046875 0l0 0.96875q0.328125 -0.515625 0.859375 -0.8125q0.546875 -0.3125 1.234375 -0.3125q0.78125 0 1.265625 0.3125q0.484375 0.3125 0.6875 0.890625q0.828125 -1.203125 2.140625 -1.203125q1.03125 0 1.578125 0.578125q0.5625 0.5625 0.5625 1.734375l0 4.75l-1.171875 0l0 -4.359375q0 -0.703125 -0.125 -1.0q-0.109375 -0.3125 -0.40625 -0.5q-0.296875 -0.1875 -0.703125 -0.1875q-0.71875 0 -1.203125 0.484375q-0.484375 0.484375 -0.484375 1.546875l0 4.015625l-1.171875 0l0 -4.484375q0 -0.78125 -0.296875 -1.171875q-0.28125 -0.390625 -0.921875 -0.390625q-0.5 0 -0.921875 0.265625q-0.421875 0.25 -0.609375 0.75q-0.1875 0.5 -0.1875 1.453125l0 3.578125l-1.171875 0z" fill-rule="nonzero"/><path fill="#f3f3f3" d="m58.43832 80.25685l0 0c0 -2.539688 2.0588264 -4.5985184 4.5985184 -4.5985184l119.59036 0c1.2196045 0 2.389267 0.48448944 3.251648 1.346878c0.86239624 0.8623886 1.346878 2.0320358 1.346878 3.2516403l0 18.393517c0 2.5396957 -2.0588226 4.5985184 -4.598526 4.5985184l-119.59036 0c-2.539692 0 -4.5985184 -2.0588226 -4.5985184 -4.5985184z" fill-rule="evenodd"/><path stroke="#000000" stroke-width="1.0" stroke-linejoin="round" stroke-linecap="butt" d="m58.43832 80.25685l0 0c0 -2.539688 2.0588264 -4.5985184 4.5985184 -4.5985184l119.59036 0c1.2196045 0 2.389267 0.48448944 3.251648 1.346878c0.86239624 0.8623886 1.346878 2.0320358 1.346878 3.2516403l0 18.393517c0 2.5396957 -2.0588226 4.5985184 -4.598526 4.5985184l-119.59036 0c-2.539692 0 -4.5985184 -2.0588226 -4.5985184 -4.5985184z" fill-rule="evenodd"/><path fill="#d9d9d9" d="m65.61867 86.35002l2.8582535 -2.6808777l2.8999252 3.0917892l2.8999252 -3.0917892l2.8582535 2.6808777l-3.0718002 3.275032l3.0718002 3.275032l-2.8582535 2.6808853l-2.8999252 -3.0917969l-2.8999252 3.0917969l-2.8582535 -2.6808853l3.0717926 -3.275032z" fill-rule="evenodd"/><path stroke="#000000" stroke-width="1.0" stroke-linejoin="round" stroke-linecap="butt" d="m65.61867 86.35002l2.8582535 -2.6808777l2.8999252 3.0917892l2.8999252 -3.0917892l2.8582535 2.6808777l-3.0718002 3.275032l3.0718002 3.275032l-2.8582535 2.6808853l-2.8999252 -3.0917969l-2.8999252 3.0917969l-2.8582535 -2.6808853l3.0717926 -3.275032z" fill-rule="evenodd"/><path fill="#d9d9d9" d="m83.132545 80.74326l4.9133835 0l0 17.763779l-4.9133835 0z" fill-rule="evenodd"/><path stroke="#000000" stroke-width="1.0" stroke-linejoin="round" stroke-linecap="butt" d="m83.132545 80.74326l4.9133835 0l0 17.763779l-4.9133835 0z" fill-rule="evenodd"/><path fill="#d9d9d9" d="m94.31168 87.40029l4.2406387 0l0 -3.9975967l3.7631989 0l0 3.9975967l4.2406387 0l0 3.7631989l-4.2406387 0l0 3.9976044l-3.7631989 0l0 -3.9976044l-4.2406387 0z" fill-rule="evenodd"/><path stroke="#000000" stroke-width="1.0" stroke-linejoin="round" stroke-linecap="butt" d="m94.31168 87.40029l4.2406387 0l0 -3.9975967l3.7631989 0l0 3.9975967l4.2406387 0l0 3.7631989l-4.2406387 0l0 3.9976044l-3.7631989 0l0 -3.9976044l-4.2406387 0z" fill-rule="evenodd"/><path fill="#d9d9d9" d="m112.82284 80.39943l4.9133835 0l0 17.763779l-4.9133835 0z" fill-rule="evenodd"/><path stroke="#000000" stroke-width="1.0" stroke-linejoin="round" stroke-linecap="butt" d="m112.82284 80.39943l4.9133835 0l0 17.763779l-4.9133835 0z" fill-rule="evenodd"/><path fill="#000000" fill-opacity="0.0" d="m113.59313 71.39055l81.039375 0l0 27.590546l-81.039375 0z" fill-rule="evenodd"/><path fill="#000000" d="m123.45251 93.190544l0 -9.546875l1.171875 0l0 9.546875l-1.171875 0zm7.4923477 -0.859375q-0.65625 0.5625 -1.265625 0.796875q-0.59375 0.21875 -1.28125 0.21875q-1.1406326 0 -1.7500076 -0.546875q-0.609375 -0.5625 -0.609375 -1.4375q0 -0.5 0.21875 -0.921875q0.234375 -0.421875 0.609375 -0.671875q0.375 -0.25 0.84375 -0.390625q0.34375763 -0.078125 1.0468826 -0.171875q1.421875 -0.171875 2.09375 -0.40625q0 -0.234375 0 -0.296875q0 -0.71875 -0.328125 -1.015625q-0.453125 -0.390625 -1.34375 -0.390625q-0.8125 0 -1.2187576 0.296875q-0.390625 0.28125 -0.578125 1.015625l-1.140625 -0.15625q0.15625 -0.734375 0.515625 -1.1875q0.359375 -0.453125 1.03125 -0.6875q0.6718826 -0.25 1.5625076 -0.25q0.890625 0 1.4375 0.203125q0.5625 0.203125 0.8125 0.53125q0.265625 0.3125 0.375 0.796875q0.046875 0.296875 0.046875 1.078125l0 1.5625q0 1.625 0.078125 2.0625q0.078125 0.4375 0.296875 0.828125l-1.21875 0q-0.1875 -0.359375 -0.234375 -0.859375zm-0.09375 -2.609375q-0.640625 0.265625 -1.921875 0.4375q-0.71875 0.109375 -1.0156326 0.25q-0.296875 0.125 -0.46875 0.375q-0.15625 0.25 -0.15625 0.546875q0 0.46875 0.34375 0.78125q0.359375 0.3125 1.0468826 0.3125q0.671875 0 1.203125 -0.296875q0.53125 -0.296875 0.78125 -0.8125q0.1875 -0.390625 0.1875 -1.171875l0 -0.421875zm2.9437256 6.125l-0.125 -1.09375q0.375 0.109375 0.65625 0.109375q0.390625 0 0.625 -0.140625q0.234375 -0.125 0.390625 -0.359375q0.109375 -0.171875 0.359375 -0.875q0.03125 -0.09375 0.109375 -0.28125l-2.625 -6.921875l1.265625 0l1.4375 4.0q0.28125 0.765625 0.5 1.59375q0.203125 -0.796875 0.46875 -1.578125l1.484375 -4.015625l1.171875 0l-2.625 7.015625q-0.421875 1.140625 -0.65625 1.578125q-0.3125 0.578125 -0.71875 0.84375q-0.40625 0.28125 -0.96875 0.28125q-0.328125 0 -0.75 -0.15625zm11.4453125 -4.875l1.203125 0.140625q-0.28125 1.0625 -1.0625 1.65625q-0.765625 0.578125 -1.96875 0.578125q-1.515625 0 -2.40625 -0.9375q-0.890625 -0.9375 -0.890625 -2.609375q0 -1.75 0.890625 -2.703125q0.90625 -0.96875 2.34375 -0.96875q1.390625 0 2.265625 0.9375q0.875 0.9375 0.875 2.65625q0 0.109375 0 0.3125l-5.15625 0q0.0625 1.140625 0.640625 1.75q0.578125 0.59375 1.4375 0.59375q0.65625 0 1.109375 -0.328125q0.453125 -0.34375 0.71875 -1.078125zm-3.84375 -1.90625l3.859375 0q-0.078125 -0.859375 -0.4375 -1.296875q-0.5625 -0.6875 -1.453125 -0.6875q-0.8125 0 -1.359375 0.546875q-0.546875 0.53125 -0.609375 1.4375zm6.5062256 4.125l0 -6.90625l1.0625 0l0 1.046875q0.40625 -0.734375 0.734375 -0.96875q0.34375 -0.234375 0.765625 -0.234375q0.59375 0 1.203125 0.375l-0.40625 1.078125q-0.4375 -0.25 -0.859375 -0.25q-0.390625 0 -0.703125 0.234375q-0.296875 0.234375 -0.421875 0.640625q-0.203125 0.625 -0.203125 1.359375l0 3.625l-1.171875 0zm4.4539948 0l0 -6.90625l1.0625 0l0 0.984375q0.75 -1.140625 2.1875 -1.140625q0.625 0 1.15625 0.21875q0.53125 0.21875 0.78125 0.59375q0.265625 0.359375 0.375 0.859375q0.0625 0.328125 0.0625 1.140625l0 4.25l-1.171875 0l0 -4.203125q0 -0.71875 -0.140625 -1.0625q-0.140625 -0.359375 -0.484375 -0.5625q-0.34375 -0.21875 -0.8125 -0.21875q-0.75 0 -1.296875 0.46875q-0.546875 0.46875 -0.546875 1.796875l0 3.78125l-1.171875 0zm6.9749756 -3.453125q0 -1.921875 1.078125 -2.84375q0.890625 -0.765625 2.171875 -0.765625q1.421875 0 2.328125 0.9375q0.90625 0.921875 0.90625 2.578125q0 1.328125 -0.40625 2.09375q-0.390625 0.765625 -1.15625 1.1875q-0.765625 0.421875 -1.671875 0.421875q-1.453125 0 -2.359375 -0.921875q-0.890625 -0.9375 -0.890625 -2.6875zm1.203125 0q0 1.328125 0.578125 1.984375q0.59375 0.65625 1.46875 0.65625q0.875 0 1.453125 -0.65625q0.578125 -0.671875 0.578125 -2.03125q0 -1.28125 -0.59375 -1.9375q-0.578125 -0.65625 -1.4375 -0.65625q-0.875 0 -1.46875 0.65625q-0.578125 0.65625 -0.578125 1.984375zm6.6312256 3.453125l0 -6.90625l1.0625 0l0 1.046875q0.40625 -0.734375 0.734375 -0.96875q0.34375 -0.234375 0.765625 -0.234375q0.59375 0 1.203125 0.375l-0.40625 1.078125q-0.4375 -0.25 -0.859375 -0.25q-0.390625 0 -0.703125 0.234375q-0.296875 0.234375 -0.421875 0.640625q-0.203125 0.625 -0.203125 1.359375l0 3.625l-1.171875 0zm4.4539948 0l0 -6.90625l1.046875 0l0 0.96875q0.328125 -0.515625 0.859375 -0.8125q0.546875 -0.3125 1.234375 -0.3125q0.78125 0 1.265625 0.3125q0.484375 0.3125 0.6875 0.890625q0.828125 -1.203125 2.140625 -1.203125q1.03125 0 1.578125 0.578125q0.5625 0.5625 0.5625 1.734375l0 4.75l-1.171875 0l0 -4.359375q0 -0.703125 -0.125 -1.0q-0.109375 -0.3125 -0.40625 -0.5q-0.296875 -0.1875 -0.703125 -0.1875q-0.71875 0 -1.203125 0.484375q-0.484375 0.484375 -0.484375 1.546875l0 4.015625l-1.171875 0l0 -4.484375q0 -0.78125 -0.296875 -1.171875q-0.28125 -0.390625 -0.921875 -0.390625q-0.5 0 -0.921875 0.265625q-0.421875 0.25 -0.609375 0.75q-0.1875 0.5 -0.1875 1.453125l0 3.578125l-1.171875 0z" fill-rule="nonzero"/><path fill="#ffffff" d="m88.19554 46.926598l0 0c0 -2.539692 2.0588226 -4.5985184 4.5985107 -4.5985184l59.212418 0c1.2196045 0 2.3892517 0.48448563 3.251648 1.3468742c0.862381 0.8623886 1.3468628 2.0320396 1.3468628 3.2516441l0 18.393517c0 2.539688 -2.0588226 4.5985184 -4.5985107 4.5985184l-59.212418 0l0 0c-2.539688 0 -4.5985107 -2.0588303 -4.5985107 -4.5985184z" fill-rule="evenodd"/><path stroke="#000000" stroke-width="1.0" stroke-linejoin="round" stroke-linecap="butt" d="m88.19554 46.926598l0 0c0 -2.539692 2.0588226 -4.5985184 4.5985107 -4.5985184l59.212418 0c1.2196045 0 2.3892517 0.48448563 3.251648 1.3468742c0.862381 0.8623886 1.3468628 2.0320396 1.3468628 3.2516441l0 18.393517c0 2.539688 -2.0588226 4.5985184 -4.5985107 4.5985184l-59.212418 0l0 0c-2.539688 0 -4.5985107 -2.0588303 -4.5985107 -4.5985184z" fill-rule="evenodd"/><path fill="#d9d9d9" d="m95.375885 53.020206l2.8582535 -2.6808777l2.8999252 3.091793l2.8999252 -3.091793l2.8582535 2.6808777l-3.0718002 3.2750359l3.0718002 3.275032l-2.8582535 2.6808815l-2.8999252 -3.091793l-2.8999252 3.091793l-2.8582535 -2.6808815l3.0717926 -3.275032z" fill-rule="evenodd"/><path stroke="#000000" stroke-width="1.0" stroke-linejoin="round" stroke-linecap="butt" d="m95.375885 53.020206l2.8582535 -2.6808777l2.8999252 3.091793l2.8999252 -3.091793l2.8582535 2.6808777l-3.0718002 3.2750359l3.0718002 3.275032l-2.8582535 2.6808815l-2.8999252 -3.091793l-2.8999252 3.091793l-2.8582535 -2.6808815l3.0717926 -3.275032z" fill-rule="evenodd"/><path fill="#fce5cd" d="m112.88976 47.413452l4.9133835 0l0 17.763779l-4.9133835 0z" fill-rule="evenodd"/><path stroke="#000000" stroke-width="1.0" stroke-linejoin="round" stroke-linecap="butt" d="m112.88976 47.413452l4.9133835 0l0 17.763779l-4.9133835 0z" fill-rule="evenodd"/><path fill="#d9d9d9" d="m124.0689 54.07048l4.2406387 0l0 -3.9976006l3.7631989 0l0 3.9976006l4.240631 0l0 3.7631989l-4.240631 0l0 3.9976006l-3.7631989 0l0 -3.9976006l-4.2406387 0z" fill-rule="evenodd"/><path stroke="#000000" stroke-width="1.0" stroke-linejoin="round" stroke-linecap="butt" d="m124.0689 54.07048l4.2406387 0l0 -3.9976006l3.7631989 0l0 3.9976006l4.240631 0l0 3.7631989l-4.240631 0l0 3.9976006l-3.7631989 0l0 -3.9976006l-4.2406387 0z" fill-rule="evenodd"/><path fill="#fce5cd" d="m142.58005 47.06962l4.913391 0l0 17.763779l-4.913391 0z" fill-rule="evenodd"/><path stroke="#000000" stroke-width="1.0" stroke-linejoin="round" stroke-linecap="butt" d="m142.58005 47.06962l4.913391 0l0 17.763779l-4.913391 0z" fill-rule="evenodd"/><path fill="#f4cccc" d="m5.4409447 548.7718l0 0c0 -13.489624 10.702862 -24.42517 23.905512 -24.42517l0 0c6.3401356 0 12.420595 2.5733643 16.90375 7.1539917c4.4831543 4.5805664 7.0017624 10.793213 7.0017624 17.27118l0 0c0 13.489685 -10.702862 24.425232 -23.905512 24.425232l0 0c-13.20265 0 -23.905512 -10.935547 -23.905512 -24.425232z" fill-rule="evenodd"/><path stroke="#000000" stroke-width="1.0" stroke-linejoin="round" stroke-linecap="butt" d="m5.4409447 548.7718l0 0c0 -13.489624 10.702862 -24.42517 23.905512 -24.42517l0 0c6.3401356 0 12.420595 2.5733643 16.90375 7.1539917c4.4831543 4.5805664 7.0017624 10.793213 7.0017624 17.27118l0 0c0 13.489685 -10.702862 24.425232 -23.905512 24.425232l0 0c-13.20265 0 -23.905512 -10.935547 -23.905512 -24.425232z" fill-rule="evenodd"/><path fill="#000000" fill-opacity="0.0" d="m-2.6629605 528.96826l71.90552 0l0 20.409485l-71.90552 0z" fill-rule="evenodd"/><path fill="#000000" d="m7.1182895 547.7501q0 -2.859375 1.5312495 -4.46875q1.53125 -1.609375 3.953125 -1.609375q1.578125 0 2.84375 0.765625q1.281251 0.75 1.953126 2.109375q0.671875 1.34375 0.671875 3.0625q0 1.75 -0.703125 3.125q-0.703125 1.375 -2.000001 2.09375q-1.28125 0.703125 -2.78125 0.703125q-1.609375 0 -2.890625 -0.78125q-1.265625 -0.796875 -1.9218745 -2.140625q-0.65625 -1.359375 -0.65625 -2.859375zm1.5624995 0.015625q0 2.078125 1.109375 3.265625q1.109375 1.1875 2.796875 1.1875q1.703125 0 2.8125 -1.203125q1.109376 -1.203125 1.109376 -3.40625q0 -1.40625 -0.484375 -2.4375q-0.46875095 -1.046875 -1.375001 -1.625q-0.90625 -0.578125 -2.046875 -0.578125q-1.609375 0 -2.765625 1.109375q-1.15625 1.109375 -1.15625 3.6875zm10.820313 1.875l1.4375 -0.125q0.09375 0.859375 0.46875 1.421875q0.375 0.546875 1.15625 0.890625q0.78125 0.328125 1.75 0.328125q0.875 0 1.53125 -0.25q0.671875 -0.265625 0.984375 -0.703125q0.328125 -0.453125 0.328125 -0.984375q0 -0.546875 -0.3125 -0.9375q-0.3125 -0.40625 -1.03125 -0.6875q-0.453125 -0.171875 -2.03125 -0.546875q-1.578125 -0.390625 -2.21875 -0.71875q-0.8125 -0.4375 -1.21875 -1.0625q-0.40625 -0.640625 -0.40625 -1.4375q0 -0.859375 0.484375 -1.609375q0.5 -0.765625 1.4375 -1.15625q0.953125 -0.390625 2.109375 -0.390625q1.28125 0 2.25 0.421875q0.96875 0.40625 1.484375 1.203125q0.53125 0.796875 0.578125 1.796875l-1.453125 0.109375q-0.125 -1.078125 -0.796875 -1.625q-0.671875 -0.5625 -2.0 -0.5625q-1.375 0 -2.0 0.5q-0.625 0.5 -0.625 1.21875q0 0.609375 0.4375 1.015625q0.4375 0.390625 2.28125 0.8125q1.859375 0.421875 2.546875 0.734375q1.0 0.453125 1.46875 1.171875q0.484375 0.703125 0.484375 1.625q0 0.90625 -0.53125 1.71875q-0.515625 0.8125 -1.5 1.265625q-0.984375 0.453125 -2.203125 0.453125q-1.5625 0 -2.609375 -0.453125q-1.046875 -0.46875 -1.65625 -1.375q-0.59375 -0.90625 -0.625 -2.0625zm18.703125 -7.765625l1.515625 0l0 6.609375q0 1.734375 -0.390625 2.75q-0.390625 1.015625 -1.40625 1.65625q-1.015625 0.640625 -2.671875 0.640625q-1.609375 0 -2.640625 -0.5625q-1.015625 -0.5625 -1.453125 -1.609375q-0.4375 -1.046875 -0.4375 -2.875l0 -6.609375l1.515625 0l0 6.609375q0 1.484375 0.265625 2.203125q0.28125 0.703125 0.953125 1.09375q0.6875 0.375 1.65625 0.375q1.671875 0 2.375 -0.75q0.71875 -0.765625 0.71875 -2.921875l0 -6.609375zm10.8671875 10.09375l0 1.359375l-7.578125 0q-0.015625 -0.515625 0.171875 -0.984375q0.28125 -0.765625 0.921875 -1.515625q0.640625 -0.75 1.84375 -1.734375q1.859375 -1.53125 2.515625 -2.421875q0.65625 -0.90625 0.65625 -1.703125q0 -0.828125 -0.59375 -1.40625q-0.59375 -0.578125 -1.5625 -0.578125q-1.015625 0 -1.625 0.609375q-0.609375 0.609375 -0.609375 1.6875l-1.453125 -0.140625q0.15625 -1.625 1.125 -2.46875q0.96875 -0.84375 2.59375 -0.84375q1.65625 0 2.609375 0.921875q0.96875 0.90625 0.96875 2.25q0 0.6875 -0.28125 1.359375q-0.28125 0.65625 -0.9375 1.390625q-0.65625 0.734375 -2.171875 2.015625q-1.265625 1.0625 -1.625 1.453125q-0.359375 0.375 -0.59375 0.75l5.625 0z" fill-rule="nonzero"/></g></svg>