<svg version="1.1" viewBox="0.0 0.0 977.1968503937007 815.0393700787401" fill="none" stroke="none" stroke-linecap="square" stroke-miterlimit="10" xmlns:xlink="http://www.w3.org/1999/xlink" xmlns="http://www.w3.org/2000/svg"><clipPath id="p.0"><path d="m0 0l977.19684 0l0 815.03937l-977.19684 0l0 -815.03937z" clip-rule="nonzero"/></clipPath><g clip-path="url(#p.0)"><path fill="#000000" fill-opacity="0.0" d="m0 0l977.19684 0l0 815.03937l-977.19684 0z" fill-rule="evenodd"/><path fill="#ffffff" d="m44.97113 600.53314l0 0c0 -9.578918 7.765251 -17.344177 17.344177 -17.344177l478.06757 0c4.5999146 0 9.011475 1.8273315 12.26416 5.080017c3.2526855 3.2526245 5.080017 7.6641846 5.080017 12.26416l0 69.37463c0 9.578918 -7.765259 17.344177 -17.344177 17.344177l-478.06757 0l0 0c-9.578926 0 -17.344177 -7.765259 -17.344177 -17.344177z" fill-rule="evenodd"/><path stroke="#d9d9d9" stroke-width="1.0" stroke-linejoin="round" stroke-linecap="butt" d="m44.97113 600.53314l0 0c0 -9.578918 7.765251 -17.344177 17.344177 -17.344177l478.06757 0c4.5999146 0 9.011475 1.8273315 12.26416 5.080017c3.2526855 3.2526245 5.080017 7.6641846 5.080017 12.26416l0 69.37463c0 9.578918 -7.765259 17.344177 -17.344177 17.344177l-478.06757 0l0 0c-9.578926 0 -17.344177 -7.765259 -17.344177 -17.344177z" fill-rule="evenodd"/><path fill="#ffffff" d="m44.97113 488.53314l0 0c0 -9.578918 7.765251 -17.344177 17.344177 -17.344177l511.67383 0c4.5999756 0 9.011536 1.8273315 12.264221 5.080017c3.2526245 3.252655 5.079956 7.664215 5.079956 12.26416l0 69.37463c0 9.578918 -7.765259 17.344177 -17.344177 17.344177l-511.67383 0l0 0c-9.578926 0 -17.344177 -7.765259 -17.344177 -17.344177z" fill-rule="evenodd"/><path stroke="#d9d9d9" stroke-width="1.0" stroke-linejoin="round" stroke-linecap="butt" d="m44.97113 488.53314l0 0c0 -9.578918 7.765251 -17.344177 17.344177 -17.344177l511.67383 0c4.5999756 0 9.011536 1.8273315 12.264221 5.080017c3.2526245 3.252655 5.079956 7.664215 5.079956 12.26416l0 69.37463c0 9.578918 -7.765259 17.344177 -17.344177 17.344177l-511.67383 0l0 0c-9.578926 0 -17.344177 -7.765259 -17.344177 -17.344177z" fill-rule="evenodd"/><path fill="#e6b8af" d="m45.553806 378.8674l0 0c0 -9.578949 7.765251 -17.344208 17.344177 -17.344208l325.94156 0c4.5999756 0 9.011536 1.8273315 12.264191 5.080017c3.252655 3.252655 5.0799866 7.664215 5.0799866 12.264191l0 69.37463c0 9.578918 -7.7652283 17.344177 -17.344177 17.344177l-325.94156 0c-9.578926 0 -17.344177 -7.765259 -17.344177 -17.344177z" fill-rule="evenodd"/><path stroke="#d9d9d9" stroke-width="1.0" stroke-linejoin="round" stroke-linecap="butt" d="m45.553806 378.8674l0 0c0 -9.578949 7.765251 -17.344208 17.344177 -17.344208l325.94156 0c4.5999756 0 9.011536 1.8273315 12.264191 5.080017c3.252655 3.252655 5.0799866 7.664215 5.0799866 12.264191l0 69.37463c0 9.578918 -7.7652283 17.344177 -17.344177 17.344177l-325.94156 0c-9.578926 0 -17.344177 -7.765259 -17.344177 -17.344177z" fill-rule="evenodd"/><path fill="#ffffff" d="m44.97113 269.20377l0 0c0 -9.578949 7.765251 -17.344193 17.344177 -17.344193l363.13843 0c4.599945 0 9.011505 1.8273315 12.26416 5.080002c3.2526855 3.252655 5.080017 7.664215 5.080017 12.264191l0 69.37463c0 9.578918 -7.765259 17.344177 -17.344177 17.344177l-363.13843 0c-9.578926 0 -17.344177 -7.765259 -17.344177 -17.344177z" fill-rule="evenodd"/><path stroke="#d9d9d9" stroke-width="1.0" stroke-linejoin="round" stroke-linecap="butt" d="m44.97113 269.20377l0 0c0 -9.578949 7.765251 -17.344193 17.344177 -17.344193l363.13843 0c4.599945 0 9.011505 1.8273315 12.26416 5.080002c3.2526855 3.252655 5.080017 7.664215 5.080017 12.264191l0 69.37463c0 9.578918 -7.765259 17.344177 -17.344177 17.344177l-363.13843 0c-9.578926 0 -17.344177 -7.765259 -17.344177 -17.344177z" fill-rule="evenodd"/><path fill="#ffffff" d="m44.97113 159.79825l0 0c0 -9.578934 7.765251 -17.344177 17.344177 -17.344177l438.3825 0c4.5999756 0 9.011536 1.8273315 12.26416 5.0799866c3.2526855 3.2526703 5.080017 7.6642303 5.080017 12.264191l0 69.37463c0 9.578918 -7.765259 17.344177 -17.344177 17.344177l-438.3825 0c-9.578926 0 -17.344177 -7.765259 -17.344177 -17.344177z" fill-rule="evenodd"/><path stroke="#d9d9d9" stroke-width="1.0" stroke-linejoin="round" stroke-linecap="butt" d="m44.97113 159.79825l0 0c0 -9.578934 7.765251 -17.344177 17.344177 -17.344177l438.3825 0c4.5999756 0 9.011536 1.8273315 12.26416 5.0799866c3.2526855 3.2526703 5.080017 7.6642303 5.080017 12.264191l0 69.37463c0 9.578918 -7.765259 17.344177 -17.344177 17.344177l-438.3825 0c-9.578926 0 -17.344177 -7.765259 -17.344177 -17.344177z" fill-rule="evenodd"/><path fill="#f3f3f3" d="m58.1421 153.04242l35.086613 0l0 81.98425l-35.086613 0z" fill-rule="evenodd"/><path stroke="#d9d9d9" stroke-width="1.0" stroke-linejoin="round" stroke-linecap="butt" d="m58.1421 153.04242l35.086613 0l0 81.98425l-35.086613 0z" fill-rule="evenodd"/><path fill="#f3f3f3" d="m95.64447 153.04242l35.08661 0l0 81.98425l-35.08661 0z" fill-rule="evenodd"/><path stroke="#d9d9d9" stroke-width="1.0" stroke-linejoin="round" stroke-linecap="butt" d="m95.64447 153.04242l35.08661 0l0 81.98425l-35.08661 0z" fill-rule="evenodd"/><path fill="#f3f3f3" d="m133.14684 153.04242l35.08661 0l0 81.98425l-35.08661 0z" fill-rule="evenodd"/><path stroke="#d9d9d9" stroke-width="1.0" stroke-linejoin="round" stroke-linecap="butt" d="m133.14684 153.04242l35.08661 0l0 81.98425l-35.08661 0z" fill-rule="evenodd"/><path fill="#f3f3f3" d="m170.6492 153.04242l35.08661 0l0 81.98425l-35.08661 0z" fill-rule="evenodd"/><path stroke="#d9d9d9" stroke-width="1.0" stroke-linejoin="round" stroke-linecap="butt" d="m170.6492 153.04242l35.08661 0l0 81.98425l-35.08661 0z" fill-rule="evenodd"/><path fill="#f3f3f3" d="m208.15157 153.04242l35.08661 0l0 81.98425l-35.08661 0z" fill-rule="evenodd"/><path stroke="#d9d9d9" stroke-width="1.0" stroke-linejoin="round" stroke-linecap="butt" d="m208.15157 153.04242l35.08661 0l0 81.98425l-35.08661 0z" fill-rule="evenodd"/><path fill="#f3f3f3" d="m245.65393 153.04242l35.08661 0l0 81.98425l-35.08661 0z" fill-rule="evenodd"/><path stroke="#d9d9d9" stroke-width="1.0" stroke-linejoin="round" stroke-linecap="butt" d="m245.65393 153.04242l35.08661 0l0 81.98425l-35.08661 0z" fill-rule="evenodd"/><path fill="#f3f3f3" d="m283.15628 153.04242l35.08664 0l0 81.98425l-35.08664 0z" fill-rule="evenodd"/><path stroke="#d9d9d9" stroke-width="1.0" stroke-linejoin="round" stroke-linecap="butt" d="m283.15628 153.04242l35.08664 0l0 81.98425l-35.08664 0z" fill-rule="evenodd"/><path fill="#f3f3f3" d="m320.65866 153.04242l35.08661 0l0 81.98425l-35.08661 0z" fill-rule="evenodd"/><path stroke="#d9d9d9" stroke-width="1.0" stroke-linejoin="round" stroke-linecap="butt" d="m320.65866 153.04242l35.08661 0l0 81.98425l-35.08661 0z" fill-rule="evenodd"/><path fill="#f3f3f3" d="m358.161 153.04242l35.08664 0l0 81.98425l-35.08664 0z" fill-rule="evenodd"/><path stroke="#d9d9d9" stroke-width="1.0" stroke-linejoin="round" stroke-linecap="butt" d="m358.161 153.04242l35.08664 0l0 81.98425l-35.08664 0z" fill-rule="evenodd"/><path fill="#f3f3f3" d="m395.6634 153.04242l35.08661 0l0 81.98425l-35.08661 0z" fill-rule="evenodd"/><path stroke="#d9d9d9" stroke-width="1.0" stroke-linejoin="round" stroke-linecap="butt" d="m395.6634 153.04242l35.08661 0l0 81.98425l-35.08661 0z" fill-rule="evenodd"/><path fill="#f3f3f3" d="m433.16574 153.04242l35.08664 0l0 81.98425l-35.08664 0z" fill-rule="evenodd"/><path stroke="#d9d9d9" stroke-width="1.0" stroke-linejoin="round" stroke-linecap="butt" d="m433.16574 153.04242l35.08664 0l0 81.98425l-35.08664 0z" fill-rule="evenodd"/><path fill="#f3f3f3" d="m470.66812 153.04242l35.08661 0l0 81.98425l-35.08661 0z" fill-rule="evenodd"/><path stroke="#d9d9d9" stroke-width="1.0" stroke-linejoin="round" stroke-linecap="butt" d="m470.66812 153.04242l35.08661 0l0 81.98425l-35.08661 0z" fill-rule="evenodd"/><path fill="#f3f3f3" d="m58.1421 261.9232l35.086613 0l0 81.98425l-35.086613 0z" fill-rule="evenodd"/><path stroke="#d9d9d9" stroke-width="1.0" stroke-linejoin="round" stroke-linecap="butt" d="m58.1421 261.9232l35.086613 0l0 81.98425l-35.086613 0z" fill-rule="evenodd"/><path fill="#f3f3f3" d="m95.64447 261.9232l35.08661 0l0 81.98425l-35.08661 0z" fill-rule="evenodd"/><path stroke="#d9d9d9" stroke-width="1.0" stroke-linejoin="round" stroke-linecap="butt" d="m95.64447 261.9232l35.08661 0l0 81.98425l-35.08661 0z" fill-rule="evenodd"/><path fill="#f3f3f3" d="m133.14684 261.9232l35.08661 0l0 81.98425l-35.08661 0z" fill-rule="evenodd"/><path stroke="#d9d9d9" stroke-width="1.0" stroke-linejoin="round" stroke-linecap="butt" d="m133.14684 261.9232l35.08661 0l0 81.98425l-35.08661 0z" fill-rule="evenodd"/><path fill="#f3f3f3" d="m170.6492 261.9232l35.08661 0l0 81.98425l-35.08661 0z" fill-rule="evenodd"/><path stroke="#d9d9d9" stroke-width="1.0" stroke-linejoin="round" stroke-linecap="butt" d="m170.6492 261.9232l35.08661 0l0 81.98425l-35.08661 0z" fill-rule="evenodd"/><path fill="#f3f3f3" d="m208.15157 261.9232l35.08661 0l0 81.98425l-35.08661 0z" fill-rule="evenodd"/><path stroke="#d9d9d9" stroke-width="1.0" stroke-linejoin="round" stroke-linecap="butt" d="m208.15157 261.9232l35.08661 0l0 81.98425l-35.08661 0z" fill-rule="evenodd"/><path fill="#f3f3f3" d="m245.65393 261.9232l35.08661 0l0 81.98425l-35.08661 0z" fill-rule="evenodd"/><path stroke="#d9d9d9" stroke-width="1.0" stroke-linejoin="round" stroke-linecap="butt" d="m245.65393 261.9232l35.08661 0l0 81.98425l-35.08661 0z" fill-rule="evenodd"/><path fill="#f3f3f3" d="m283.15628 261.9232l35.08664 0l0 81.98425l-35.08664 0z" fill-rule="evenodd"/><path stroke="#d9d9d9" stroke-width="1.0" stroke-linejoin="round" stroke-linecap="butt" d="m283.15628 261.9232l35.08664 0l0 81.98425l-35.08664 0z" fill-rule="evenodd"/><path fill="#f3f3f3" d="m320.65866 261.9232l35.08661 0l0 81.98425l-35.08661 0z" fill-rule="evenodd"/><path stroke="#d9d9d9" stroke-width="1.0" stroke-linejoin="round" stroke-linecap="butt" d="m320.65866 261.9232l35.08661 0l0 81.98425l-35.08661 0z" fill-rule="evenodd"/><path fill="#f3f3f3" d="m358.161 261.9232l35.08664 0l0 81.98425l-35.08664 0z" fill-rule="evenodd"/><path stroke="#d9d9d9" stroke-width="1.0" stroke-linejoin="round" stroke-linecap="butt" d="m358.161 261.9232l35.08664 0l0 81.98425l-35.08664 0z" fill-rule="evenodd"/><path fill="#f3f3f3" d="m395.6634 261.9232l35.08661 0l0 81.98425l-35.08661 0z" fill-rule="evenodd"/><path stroke="#d9d9d9" stroke-width="1.0" stroke-linejoin="round" stroke-linecap="butt" d="m395.6634 261.9232l35.08661 0l0 81.98425l-35.08661 0z" fill-rule="evenodd"/><path fill="#f3f3f3" d="m58.1421 372.6196l35.086613 0l0 81.98425l-35.086613 0z" fill-rule="evenodd"/><path stroke="#d9d9d9" stroke-width="1.0" stroke-linejoin="round" stroke-linecap="butt" d="m58.1421 372.6196l35.086613 0l0 81.98425l-35.086613 0z" fill-rule="evenodd"/><path fill="#f3f3f3" d="m95.64447 372.6196l35.08661 0l0 81.98425l-35.08661 0z" fill-rule="evenodd"/><path stroke="#d9d9d9" stroke-width="1.0" stroke-linejoin="round" stroke-linecap="butt" d="m95.64447 372.6196l35.08661 0l0 81.98425l-35.08661 0z" fill-rule="evenodd"/><path fill="#f3f3f3" d="m133.14684 372.6196l35.08661 0l0 81.98425l-35.08661 0z" fill-rule="evenodd"/><path stroke="#d9d9d9" stroke-width="1.0" stroke-linejoin="round" stroke-linecap="butt" d="m133.14684 372.6196l35.08661 0l0 81.98425l-35.08661 0z" fill-rule="evenodd"/><path fill="#f3f3f3" d="m170.6492 372.6196l35.08661 0l0 81.98425l-35.08661 0z" fill-rule="evenodd"/><path stroke="#d9d9d9" stroke-width="1.0" stroke-linejoin="round" stroke-linecap="butt" d="m170.6492 372.6196l35.08661 0l0 81.98425l-35.08661 0z" fill-rule="evenodd"/><path fill="#f3f3f3" d="m208.15157 372.6196l35.08661 0l0 81.98425l-35.08661 0z" fill-rule="evenodd"/><path stroke="#d9d9d9" stroke-width="1.0" stroke-linejoin="round" stroke-linecap="butt" d="m208.15157 372.6196l35.08661 0l0 81.98425l-35.08661 0z" fill-rule="evenodd"/><path fill="#f3f3f3" d="m245.65393 372.6196l35.08661 0l0 81.98425l-35.08661 0z" fill-rule="evenodd"/><path stroke="#d9d9d9" stroke-width="1.0" stroke-linejoin="round" stroke-linecap="butt" d="m245.65393 372.6196l35.08661 0l0 81.98425l-35.08661 0z" fill-rule="evenodd"/><path fill="#a61c00" d="m283.15628 372.6196l35.08664 0l0 81.98425l-35.08664 0z" fill-rule="evenodd"/><path stroke="#d9d9d9" stroke-width="1.0" stroke-linejoin="round" stroke-linecap="butt" d="m283.15628 372.6196l35.08664 0l0 81.98425l-35.08664 0z" fill-rule="evenodd"/><path fill="#f3f3f3" d="m320.65866 372.6196l35.08661 0l0 81.98425l-35.08661 0z" fill-rule="evenodd"/><path stroke="#d9d9d9" stroke-width="1.0" stroke-linejoin="round" stroke-linecap="butt" d="m320.65866 372.6196l35.08661 0l0 81.98425l-35.08661 0z" fill-rule="evenodd"/><path fill="#f3f3f3" d="m358.161 372.6196l35.08664 0l0 81.98425l-35.08664 0z" fill-rule="evenodd"/><path stroke="#d9d9d9" stroke-width="1.0" stroke-linejoin="round" stroke-linecap="butt" d="m358.161 372.6196l35.08664 0l0 81.98425l-35.08664 0z" fill-rule="evenodd"/><path fill="#f3f3f3" d="m58.317196 481.50137l35.086613 0l0 81.98428l-35.086613 0z" fill-rule="evenodd"/><path stroke="#d9d9d9" stroke-width="1.0" stroke-linejoin="round" stroke-linecap="butt" d="m58.317196 481.50137l35.086613 0l0 81.98428l-35.086613 0z" fill-rule="evenodd"/><path fill="#f3f3f3" d="m95.819565 481.50137l35.08661 0l0 81.98428l-35.08661 0z" fill-rule="evenodd"/><path stroke="#d9d9d9" stroke-width="1.0" stroke-linejoin="round" stroke-linecap="butt" d="m95.819565 481.50137l35.08661 0l0 81.98428l-35.08661 0z" fill-rule="evenodd"/><path fill="#f3f3f3" d="m133.32193 481.50137l35.08661 0l0 81.98428l-35.08661 0z" fill-rule="evenodd"/><path stroke="#d9d9d9" stroke-width="1.0" stroke-linejoin="round" stroke-linecap="butt" d="m133.32193 481.50137l35.08661 0l0 81.98428l-35.08661 0z" fill-rule="evenodd"/><path fill="#f3f3f3" d="m170.8243 481.50137l35.08661 0l0 81.98428l-35.08661 0z" fill-rule="evenodd"/><path stroke="#d9d9d9" stroke-width="1.0" stroke-linejoin="round" stroke-linecap="butt" d="m170.8243 481.50137l35.08661 0l0 81.98428l-35.08661 0z" fill-rule="evenodd"/><path fill="#f3f3f3" d="m208.32666 481.50137l35.08661 0l0 81.98428l-35.08661 0z" fill-rule="evenodd"/><path stroke="#d9d9d9" stroke-width="1.0" stroke-linejoin="round" stroke-linecap="butt" d="m208.32666 481.50137l35.08661 0l0 81.98428l-35.08661 0z" fill-rule="evenodd"/><path fill="#f3f3f3" d="m245.82903 481.50137l35.086624 0l0 81.98428l-35.086624 0z" fill-rule="evenodd"/><path stroke="#d9d9d9" stroke-width="1.0" stroke-linejoin="round" stroke-linecap="butt" d="m245.82903 481.50137l35.086624 0l0 81.98428l-35.086624 0z" fill-rule="evenodd"/><path fill="#f3f3f3" d="m283.3314 481.50137l35.08661 0l0 81.98428l-35.08661 0z" fill-rule="evenodd"/><path stroke="#d9d9d9" stroke-width="1.0" stroke-linejoin="round" stroke-linecap="butt" d="m283.3314 481.50137l35.08661 0l0 81.98428l-35.08661 0z" fill-rule="evenodd"/><path fill="#f3f3f3" d="m320.83374 481.50137l35.08664 0l0 81.98428l-35.08664 0z" fill-rule="evenodd"/><path stroke="#d9d9d9" stroke-width="1.0" stroke-linejoin="round" stroke-linecap="butt" d="m320.83374 481.50137l35.08664 0l0 81.98428l-35.08664 0z" fill-rule="evenodd"/><path fill="#f3f3f3" d="m358.33612 481.50137l35.08661 0l0 81.98428l-35.08661 0z" fill-rule="evenodd"/><path stroke="#d9d9d9" stroke-width="1.0" stroke-linejoin="round" stroke-linecap="butt" d="m358.33612 481.50137l35.08661 0l0 81.98428l-35.08661 0z" fill-rule="evenodd"/><path fill="#f3f3f3" d="m395.83847 481.50137l35.08664 0l0 81.98428l-35.08664 0z" fill-rule="evenodd"/><path stroke="#d9d9d9" stroke-width="1.0" stroke-linejoin="round" stroke-linecap="butt" d="m395.83847 481.50137l35.08664 0l0 81.98428l-35.08664 0z" fill-rule="evenodd"/><path fill="#f3f3f3" d="m433.34085 481.50137l35.08661 0l0 81.98428l-35.08661 0z" fill-rule="evenodd"/><path stroke="#d9d9d9" stroke-width="1.0" stroke-linejoin="round" stroke-linecap="butt" d="m433.34085 481.50137l35.08661 0l0 81.98428l-35.08661 0z" fill-rule="evenodd"/><path fill="#f3f3f3" d="m470.8432 481.50137l35.08664 0l0 81.98428l-35.08664 0z" fill-rule="evenodd"/><path stroke="#d9d9d9" stroke-width="1.0" stroke-linejoin="round" stroke-linecap="butt" d="m470.8432 481.50137l35.08664 0l0 81.98428l-35.08664 0z" fill-rule="evenodd"/><path fill="#f3f3f3" d="m508.34558 481.50137l35.08661 0l0 81.98428l-35.08661 0z" fill-rule="evenodd"/><path stroke="#d9d9d9" stroke-width="1.0" stroke-linejoin="round" stroke-linecap="butt" d="m508.34558 481.50137l35.08661 0l0 81.98428l-35.08661 0z" fill-rule="evenodd"/><path fill="#f3f3f3" d="m545.84796 481.50137l35.08661 0l0 81.98428l-35.08661 0z" fill-rule="evenodd"/><path stroke="#d9d9d9" stroke-width="1.0" stroke-linejoin="round" stroke-linecap="butt" d="m545.84796 481.50137l35.08661 0l0 81.98428l-35.08661 0z" fill-rule="evenodd"/><path fill="#f3f3f3" d="m59.95879 594.0155l35.086613 0l0 81.98425l-35.086613 0z" fill-rule="evenodd"/><path stroke="#d9d9d9" stroke-width="1.0" stroke-linejoin="round" stroke-linecap="butt" d="m59.95879 594.0155l35.086613 0l0 81.98425l-35.086613 0z" fill-rule="evenodd"/><path fill="#f3f3f3" d="m97.46116 594.0155l35.086617 0l0 81.98425l-35.086617 0z" fill-rule="evenodd"/><path stroke="#d9d9d9" stroke-width="1.0" stroke-linejoin="round" stroke-linecap="butt" d="m97.46116 594.0155l35.086617 0l0 81.98425l-35.086617 0z" fill-rule="evenodd"/><path fill="#f3f3f3" d="m134.96352 594.0155l35.086624 0l0 81.98425l-35.086624 0z" fill-rule="evenodd"/><path stroke="#d9d9d9" stroke-width="1.0" stroke-linejoin="round" stroke-linecap="butt" d="m134.96352 594.0155l35.086624 0l0 81.98425l-35.086624 0z" fill-rule="evenodd"/><path fill="#f3f3f3" d="m172.46588 594.0155l35.086624 0l0 81.98425l-35.086624 0z" fill-rule="evenodd"/><path stroke="#d9d9d9" stroke-width="1.0" stroke-linejoin="round" stroke-linecap="butt" d="m172.46588 594.0155l35.086624 0l0 81.98425l-35.086624 0z" fill-rule="evenodd"/><path fill="#f3f3f3" d="m209.96825 594.0155l35.086624 0l0 81.98425l-35.086624 0z" fill-rule="evenodd"/><path stroke="#d9d9d9" stroke-width="1.0" stroke-linejoin="round" stroke-linecap="butt" d="m209.96825 594.0155l35.086624 0l0 81.98425l-35.086624 0z" fill-rule="evenodd"/><path fill="#f3f3f3" d="m247.47061 594.0155l35.08661 0l0 81.98425l-35.08661 0z" fill-rule="evenodd"/><path stroke="#d9d9d9" stroke-width="1.0" stroke-linejoin="round" stroke-linecap="butt" d="m247.47061 594.0155l35.08661 0l0 81.98425l-35.08661 0z" fill-rule="evenodd"/><path fill="#f3f3f3" d="m284.973 594.0155l35.08661 0l0 81.98425l-35.08661 0z" fill-rule="evenodd"/><path stroke="#d9d9d9" stroke-width="1.0" stroke-linejoin="round" stroke-linecap="butt" d="m284.973 594.0155l35.08661 0l0 81.98425l-35.08661 0z" fill-rule="evenodd"/><path fill="#f3f3f3" d="m322.47534 594.0155l35.08661 0l0 81.98425l-35.08661 0z" fill-rule="evenodd"/><path stroke="#d9d9d9" stroke-width="1.0" stroke-linejoin="round" stroke-linecap="butt" d="m322.47534 594.0155l35.08661 0l0 81.98425l-35.08661 0z" fill-rule="evenodd"/><path fill="#f3f3f3" d="m359.97772 594.0155l35.08661 0l0 81.98425l-35.08661 0z" fill-rule="evenodd"/><path stroke="#d9d9d9" stroke-width="1.0" stroke-linejoin="round" stroke-linecap="butt" d="m359.97772 594.0155l35.08661 0l0 81.98425l-35.08661 0z" fill-rule="evenodd"/><path fill="#f3f3f3" d="m397.48007 594.0155l35.08661 0l0 81.98425l-35.08661 0z" fill-rule="evenodd"/><path stroke="#d9d9d9" stroke-width="1.0" stroke-linejoin="round" stroke-linecap="butt" d="m397.48007 594.0155l35.08661 0l0 81.98425l-35.08661 0z" fill-rule="evenodd"/><path fill="#f3f3f3" d="m434.98245 594.0155l35.08661 0l0 81.98425l-35.08661 0z" fill-rule="evenodd"/><path stroke="#d9d9d9" stroke-width="1.0" stroke-linejoin="round" stroke-linecap="butt" d="m434.98245 594.0155l35.08661 0l0 81.98425l-35.08661 0z" fill-rule="evenodd"/><path fill="#f3f3f3" d="m472.4848 594.0155l35.08661 0l0 81.98425l-35.08661 0z" fill-rule="evenodd"/><path stroke="#d9d9d9" stroke-width="1.0" stroke-linejoin="round" stroke-linecap="butt" d="m472.4848 594.0155l35.08661 0l0 81.98425l-35.08661 0z" fill-rule="evenodd"/><path fill="#f3f3f3" d="m509.98718 594.0155l35.08661 0l0 81.98425l-35.08661 0z" fill-rule="evenodd"/><path stroke="#d9d9d9" stroke-width="1.0" stroke-linejoin="round" stroke-linecap="butt" d="m509.98718 594.0155l35.08661 0l0 81.98425l-35.08661 0z" fill-rule="evenodd"/><path fill="#000000" fill-opacity="0.0" d="m39.5233 -9.919725l630.1102 0l0 137.44882l-630.1102 0z" fill-rule="evenodd"/><path fill="#000000" d="m60.8983 41.37902l0.609375 3.734375q-1.78125 0.375 -3.1875 0.375q-2.296875 0 -3.5625 -0.71875q-1.265625 -0.734375 -1.78125 -1.921875q-0.515625 -1.1875 -0.515625 -4.984375l0 -14.312498l-3.09375 0l0 -3.28125l3.09375 0l0 -6.171875l4.203125 -2.53125l0 8.703125l4.234375 0l0 3.28125l-4.234375 0l0 14.546873q0 1.8125 0.21875 2.328125q0.21875 0.515625 0.71875 0.828125q0.515625 0.296875 1.453125 0.296875q0.703125 0 1.84375 -0.171875zm4.0859375 3.78125l0 -24.890623l3.796875 0l0 3.765625q1.453125 -2.640625 2.671875 -3.484375q1.234375 -0.84375 2.71875 -0.84375q2.125 0 4.328125 1.359375l-1.453125 3.90625q-1.546875 -0.90625 -3.09375 -0.90625q-1.375 0 -2.484375 0.828125q-1.09375 0.828125 -1.5625 2.3125q-0.703125 2.25 -0.703125 4.921873l0 13.03125l-4.21875 0zm32.265625 -3.078125q-2.34375 2.0 -4.515625 2.828125q-2.15625 0.8125 -4.640625 0.8125q-4.109375 0 -6.3125 -2.0q-2.203125 -2.015625 -2.203125 -5.125q0 -1.828125 0.828125 -3.34375q0.84375 -1.515625 2.1875 -2.421875q1.34375 -0.9218731 3.03125 -1.3906231q1.25 -0.328125 3.75 -0.625q5.109375 -0.609375 7.53125 -1.453125q0.015625 -0.875 0.015625 -1.109375q0 -2.578125 -1.1875 -3.625q-1.625 -1.4375 -4.8125 -1.4375q-2.96875 0 -4.390625 1.046875q-1.421875 1.046875 -2.09375 3.6875l-4.125 -0.5625q0.5625 -2.640625 1.84375 -4.265625q1.296875 -1.640625 3.734375 -2.515625q2.4375 -0.875 5.640625 -0.875q3.1875 0 5.171875 0.75q2.0 0.75 2.9375 1.890625q0.9375 1.125 1.3125 2.859375q0.21875 1.078125 0.21875 3.890625l0 5.624998q0 5.890625 0.265625 7.453125q0.265625 1.546875 1.0625 2.984375l-4.40625 0q-0.65625 -1.3125 -0.84375 -3.078125zm-0.34375 -9.421875q-2.296875 0.9375 -6.890625 1.59375q-2.609375 0.375 -3.6875 0.84375q-1.078125 0.46875 -1.671875 1.375q-0.578125 0.90625 -0.578125 2.0q0 1.6875 1.28125 2.8125q1.28125 1.125 3.734375 1.125q2.4375 0 4.328125 -1.0625q1.90625 -1.0625 2.796875 -2.921875q0.6875 -1.421875 0.6875 -4.21875l0 -1.546875zm27.039062 3.375l4.15625 0.546875q-0.6875 4.28125 -3.484375 6.71875q-2.796875 2.421875 -6.875 2.421875q-5.109375 0 -8.21875 -3.34375q-3.109375 -3.34375 -3.109375 -9.578125q0 -4.031248 1.328125 -7.046873q1.34375 -3.03125 4.078125 -4.53125q2.734375 -1.515625 5.9375 -1.515625q4.0625 0 6.640625 2.046875q2.578125 2.046875 3.296875 5.828125l-4.09375 0.625q-0.59375 -2.5 -2.078125 -3.765625q-1.484375 -1.265625 -3.59375 -1.265625q-3.1875 0 -5.1875 2.28125q-1.984375 2.28125 -1.984375 7.234373q0 5.015625 1.921875 7.296875q1.921875 2.265625 5.015625 2.265625q2.484375 0 4.140625 -1.515625q1.671875 -1.53125 2.109375 -4.703125zm7.78125 9.125l0 -34.359375l4.21875 0l0 19.59375l9.984375 -10.125l5.46875 0l-9.515625 9.234375l10.46875 15.656248l-5.203125 0l-8.21875 -12.734375l-2.984375 2.859375l0 9.875l-4.21875 0zm22.296875 -7.4375l4.171875 -0.65625q0.34375 2.515625 1.953125 3.859375q1.609375 1.328125 4.484375 1.328125q2.90625 0 4.3125 -1.1875q1.40625 -1.1875 1.40625 -2.78125q0 -1.421875 -1.234375 -2.25q-0.875 -0.5625 -4.3125 -1.421875q-4.640625 -1.171875 -6.4375 -2.03125q-1.796875 -0.8593731 -2.71875 -2.359373q-0.921875 -1.515625 -0.921875 -3.34375q0 -1.671875 0.75 -3.078125q0.765625 -1.421875 2.078125 -2.359375q0.984375 -0.734375 2.6875 -1.234375q1.703125 -0.5 3.640625 -0.5q2.9375 0 5.140625 0.84375q2.21875 0.84375 3.265625 2.28125q1.0625 1.4375 1.46875 3.859375l-4.125 0.5625q-0.28125 -1.921875 -1.640625 -3.0q-1.34375 -1.078125 -3.796875 -1.078125q-2.90625 0 -4.15625 0.96875q-1.234375 0.953125 -1.234375 2.234375q0 0.828125 0.515625 1.484375q0.515625 0.671875 1.609375 1.125q0.640625 0.234375 3.734375 1.078125q4.46875 1.1875 6.234375 1.9531231q1.78125 0.765625 2.78125 2.21875q1.015625 1.453125 1.015625 3.609375q0 2.109375 -1.234375 3.96875q-1.234375 1.859375 -3.5625 2.890625q-2.3125 1.015625 -5.234375 1.015625q-4.859375 0 -7.40625 -2.015625q-2.53125 -2.015625 -3.234375 -5.984375z" fill-rule="nonzero"/><path fill="#93c47d" d="m197.64049 45.16027l-7.625 -24.890623l4.359375 0l3.96875 14.359373l1.46875 5.34375q0.09375 -0.390625 1.296875 -5.125l3.953125 -14.578123l4.34375 0l3.71875 14.437498l1.25 4.75l1.421875 -4.796875l4.265625 -14.390623l4.109375 0l-7.78125 24.890623l-4.390625 0l-3.953125 -14.906248l-0.96875 -4.25l-5.03125 19.156248l-4.40625 0zm30.085938 -29.515623l0 -4.84375l4.21875 0l0 4.84375l-4.21875 0zm0 29.515623l0 -24.890623l4.21875 0l0 24.890623l-4.21875 0zm19.851562 -3.78125l0.609375 3.734375q-1.78125 0.375 -3.1875 0.375q-2.296875 0 -3.5625 -0.71875q-1.265625 -0.734375 -1.78125 -1.921875q-0.515625 -1.1875 -0.515625 -4.984375l0 -14.312498l-3.09375 0l0 -3.28125l3.09375 0l0 -6.171875l4.203125 -2.53125l0 8.703125l4.234375 0l0 3.28125l-4.234375 0l0 14.546873q0 1.8125 0.21875 2.328125q0.21875 0.515625 0.71875 0.828125q0.515625 0.296875 1.453125 0.296875q0.703125 0 1.84375 -0.171875zm4.1328125 3.78125l0 -34.359375l4.21875 0l0 12.328125q2.9531097 -3.421875 7.4531097 -3.421875q2.765625 0 4.796875 1.09375q2.046875 1.078125 2.921875 3.0q0.875 1.921875 0.875 5.578125l0 15.781248l-4.21875 0l0 -15.781248q0 -3.15625 -1.375 -4.59375q-1.359375 -1.453125 -3.875 -1.453125q-1.875 0 -3.53125 0.984375q-1.640625 0.96875 -2.34375 2.640625q-0.70310974 1.65625 -0.70310974 4.578125l0 13.624998l-4.21875 0z" fill-rule="nonzero"/><path fill="#000000" d="m291.69516 45.16027l0 -24.890623l3.796875 0l0 3.765625q1.453125 -2.640625 2.671875 -3.484375q1.234375 -0.84375 2.71875 -0.84375q2.125 0 4.328125 1.359375l-1.453125 3.90625q-1.546875 -0.90625 -3.09375 -0.90625q-1.375 0 -2.484375 0.828125q-1.09375 0.828125 -1.5625 2.3125q-0.703125 2.25 -0.703125 4.921873l0 13.03125l-4.21875 0zm33.0625 -8.015625l4.359375 0.53125q-1.03125 3.828125 -3.828125 5.9375q-2.78125 2.109375 -7.109375 2.109375q-5.46875 0 -8.671875 -3.359375q-3.1875 -3.375 -3.1875 -9.4375q0 -6.281248 3.234375 -9.749998q3.234375 -3.46875 8.390625 -3.46875q4.984375 0 8.140625 3.40625q3.171875 3.390625 3.171875 9.546873q0 0.375 -0.015625 1.125l-18.5625 0q0.234375 4.109375 2.3125 6.296875q2.09375 2.171875 5.203125 2.171875q2.328125 0 3.96875 -1.21875q1.640625 -1.21875 2.59375 -3.890625zm-13.84375 -6.828123l13.890625 0q-0.28125 -3.140625 -1.59375 -4.703125q-2.015625 -2.4375 -5.21875 -2.4375q-2.90625 0 -4.890625 1.953125q-1.984375 1.9375 -2.1875 5.1875zm23.507812 24.390627l0 -34.4375l3.84375 0l0 3.234375q1.359375 -1.90625 3.0625 -2.84375q1.71875 -0.953125 4.15625 -0.953125q3.1875 0 5.625 1.640625q2.4375 1.640625 3.671875 4.625q1.25 2.984375 1.25 6.546873q0 3.828125 -1.375 6.890625q-1.375 3.046875 -3.984375 4.6875q-2.609375 1.625 -5.5 1.625q-2.109375 0 -3.78125 -0.890625q-1.671875 -0.890625 -2.75 -2.25l0 12.125004l-4.21875 0zm3.8125 -21.859379q0 4.8125 1.9375 7.109375q1.953125 2.296875 4.71875 2.296875q2.8125 0 4.8125 -2.375q2.015625 -2.390625 2.015625 -7.375q0 -4.765623 -1.96875 -7.124998q-1.953125 -2.375 -4.671875 -2.375q-2.6875 0 -4.765625 2.53125q-2.078125 2.515625 -2.078125 7.312498zm22.789062 12.3125l0 -34.359375l4.21875 0l0 34.359375l-4.21875 0zm26.992188 -3.078125q-2.34375 2.0 -4.515625 2.828125q-2.15625 0.8125 -4.640625 0.8125q-4.109375 0 -6.3125 -2.0q-2.203125 -2.015625 -2.203125 -5.125q0 -1.828125 0.828125 -3.34375q0.84375 -1.515625 2.1875 -2.421875q1.34375 -0.9218731 3.03125 -1.3906231q1.25 -0.328125 3.75 -0.625q5.109375 -0.609375 7.53125 -1.453125q0.015625 -0.875 0.015625 -1.109375q0 -2.578125 -1.1875 -3.625q-1.625 -1.4375 -4.8125 -1.4375q-2.96875 0 -4.390625 1.046875q-1.421875 1.046875 -2.09375 3.6875l-4.125 -0.5625q0.5625 -2.640625 1.84375 -4.265625q1.296875 -1.640625 3.734375 -2.515625q2.4375 -0.875 5.640625 -0.875q3.1875 0 5.171875 0.75q2.0 0.75 2.9375 1.890625q0.9375 1.125 1.3125 2.859375q0.21875 1.078125 0.21875 3.890625l0 5.624998q0 5.890625 0.265625 7.453125q0.265625 1.546875 1.0625 2.984375l-4.40625 0q-0.65625 -1.3125 -0.84375 -3.078125zm-0.34375 -9.421875q-2.296875 0.9375 -6.890625 1.59375q-2.609375 0.375 -3.6875 0.84375q-1.078125 0.46875 -1.671875 1.375q-0.578125 0.90625 -0.578125 2.0q0 1.6875 1.28125 2.8125q1.28125 1.125 3.734375 1.125q2.4375 0 4.328125 -1.0625q1.90625 -1.0625 2.796875 -2.921875q0.6875 -1.421875 0.6875 -4.21875l0 -1.546875zm27.039062 3.375l4.15625 0.546875q-0.6875 4.28125 -3.484375 6.71875q-2.796875 2.421875 -6.875 2.421875q-5.109375 0 -8.21875 -3.34375q-3.109375 -3.34375 -3.109375 -9.578125q0 -4.031248 1.328125 -7.046873q1.34375 -3.03125 4.078125 -4.53125q2.734375 -1.515625 5.9375 -1.515625q4.0625 0 6.640625 2.046875q2.578125 2.046875 3.296875 5.828125l-4.09375 0.625q-0.59375 -2.5 -2.078125 -3.765625q-1.484375 -1.265625 -3.59375 -1.265625q-3.1875 0 -5.1875 2.28125q-1.984375 2.28125 -1.984375 7.234373q0 5.015625 1.921875 7.296875q1.921875 2.265625 5.015625 2.265625q2.484375 0 4.140625 -1.515625q1.671875 -1.53125 2.109375 -4.703125zm24.796875 1.109375l4.359375 0.53125q-1.03125 3.828125 -3.828125 5.9375q-2.78125 2.109375 -7.109375 2.109375q-5.46875 0 -8.671875 -3.359375q-3.1875 -3.375 -3.1875 -9.4375q0 -6.281248 3.234375 -9.749998q3.234375 -3.46875 8.390625 -3.46875q4.984375 0 8.140625 3.40625q3.171875 3.390625 3.171875 9.546873q0 0.375 -0.015625 1.125l-18.5625 0q0.234375 4.109375 2.3125 6.296875q2.09375 2.171875 5.203125 2.171875q2.328125 0 3.96875 -1.21875q1.640625 -1.21875 2.59375 -3.890625zm-13.84375 -6.828123l13.890625 0q-0.28125 -3.140625 -1.59375 -4.703125q-2.015625 -2.4375 -5.21875 -2.4375q-2.90625 0 -4.890625 1.953125q-1.984375 1.9375 -2.1875 5.1875zm23.507812 14.843748l0 -24.890623l3.765625 0l0 3.484375q1.171875 -1.828125 3.109375 -2.9375q1.953125 -1.109375 4.4375 -1.109375q2.765625 0 4.53125 1.15625q1.78125 1.140625 2.5 3.203125q2.953125 -4.359375 7.6875 -4.359375q3.703125 0 5.6875 2.046875q2.0 2.046875 2.0 6.3125l0 17.093748l-4.1875 0l0 -15.687498q0 -2.53125 -0.421875 -3.640625q-0.40625 -1.109375 -1.484375 -1.78125q-1.078125 -0.6875 -2.53125 -0.6875q-2.625 0 -4.359375 1.75q-1.734375 1.734375 -1.734375 5.578125l0 14.468748l-4.21875 0l0 -16.171873q0 -2.8125 -1.03125 -4.21875q-1.03125 -1.40625 -3.375 -1.40625q-1.78125 0 -3.296875 0.9375q-1.5 0.9375 -2.1875 2.75q-0.671875 1.796875 -0.671875 5.187498l0 12.921875l-4.21875 0zm57.015625 -8.015625l4.359375 0.53125q-1.03125 3.828125 -3.828125 5.9375q-2.78125 2.109375 -7.109375 2.109375q-5.46875 0 -8.671875 -3.359375q-3.1875 -3.375 -3.1875 -9.4375q0 -6.281248 3.234375 -9.749998q3.234375 -3.46875 8.390625 -3.46875q4.984375 0 8.140625 3.40625q3.171875 3.390625 3.171875 9.546873q0 0.375 -0.015625 1.125l-18.5625 0q0.234375 4.109375 2.3125 6.296875q2.09375 2.171875 5.203125 2.171875q2.328125 0 3.96875 -1.21875q1.640625 -1.21875 2.59375 -3.890625zm-13.84375 -6.828123l13.890625 0q-0.28125 -3.140625 -1.59375 -4.703125q-2.015625 -2.4375 -5.21875 -2.4375q-2.90625 0 -4.890625 1.953125q-1.984375 1.9375 -2.1875 5.1875zm23.507843 14.843748l0 -24.890623l3.796875 0l0 3.53125q2.734375 -4.09375 7.921875 -4.09375q2.25 0 4.125 0.8125q1.890625 0.796875 2.828125 2.109375q0.9375 1.3125 1.3125 3.125q0.234375 1.171875 0.234375 4.09375l0 15.312498l-4.21875 0l0 -15.140623q0 -2.578125 -0.5 -3.859375q-0.484375 -1.28125 -1.734375 -2.03125q-1.25 -0.765625 -2.9375 -0.765625q-2.703125 0 -4.65625 1.71875q-1.953125 1.703125 -1.953125 6.484375l0 13.593748l-4.21875 0zm35.898438 -3.78125l0.609375 3.734375q-1.78125 0.375 -3.1875 0.375q-2.296875 0 -3.5625 -0.71875q-1.265625 -0.734375 -1.78125 -1.921875q-0.515625 -1.1875 -0.515625 -4.984375l0 -14.312498l-3.09375 0l0 -3.28125l3.09375 0l0 -6.171875l4.203125 -2.53125l0 8.703125l4.234375 0l0 3.28125l-4.234375 0l0 14.546873q0 1.8125 0.21875 2.328125q0.21875 0.515625 0.71875 0.828125q0.515625 0.296875 1.453125 0.296875q0.703125 0 1.84375 -0.171875z" fill-rule="nonzero"/><path fill="#000000" d="m50.007675 95.72278l4.171875 -0.65625q0.34375 2.515625 1.953125 3.859375q1.609375 1.328125 4.484375 1.328125q2.90625 0 4.3125 -1.1875q1.40625 -1.1875 1.40625 -2.78125q0 -1.421875 -1.234375 -2.25q-0.875 -0.5625 -4.3125 -1.421875q-4.640625 -1.171875 -6.4375 -2.03125q-1.796875 -0.859375 -2.71875 -2.359375q-0.921875 -1.515625 -0.921875 -3.34375q0 -1.671875 0.75 -3.078125q0.765625 -1.421875 2.078125 -2.359375q0.984375 -0.734375 2.6875 -1.234375q1.703125 -0.5 3.640625 -0.5q2.9375 0 5.140625 0.84375q2.21875 0.84375 3.265625 2.28125q1.0625 1.4375 1.46875 3.859375l-4.125 0.5625q-0.28125 -1.921875 -1.640625 -3.0q-1.34375 -1.078125 -3.796875 -1.078125q-2.90625 0 -4.15625 0.96875q-1.234375 0.953125 -1.234375 2.234375q0 0.828125 0.515625 1.484375q0.515625 0.671875 1.609375 1.125q0.640625 0.234375 3.734375 1.078125q4.46875 1.1875 6.234375 1.953125q1.78125 0.765625 2.78125 2.21875q1.015625 1.453125 1.015625 3.609375q0 2.109375 -1.234375 3.96875q-1.234375 1.859375 -3.5625 2.890625q-2.3125 1.015625 -5.234375 1.015625q-4.859375 0 -7.40625 -2.015625q-2.53125 -2.015625 -3.234375 -5.984375zm41.921875 4.359375q-2.34375 2.0 -4.515625 2.828125q-2.15625 0.8125 -4.640625 0.8125q-4.109375 0 -6.3125 -2.0q-2.203125 -2.015625 -2.203125 -5.125q0 -1.828125 0.828125 -3.34375q0.84375 -1.515625 2.1875 -2.421875q1.34375 -0.921875 3.03125 -1.390625q1.25 -0.328125 3.75 -0.625q5.109375 -0.609375 7.53125 -1.453125q0.015625 -0.875 0.015625 -1.109375q0 -2.578125 -1.1875 -3.625q-1.625 -1.4375 -4.8125 -1.4375q-2.96875 0 -4.390625 1.046875q-1.421875 1.046875 -2.09375 3.6875l-4.125 -0.5625q0.5625 -2.640625 1.84375 -4.265625q1.296875 -1.640625 3.734375 -2.515625q2.4375 -0.875 5.640625 -0.875q3.1875 0 5.171875 0.75q2.0 0.75 2.9375 1.890625q0.9375 1.125 1.3125 2.859375q0.21875 1.078125 0.21875 3.890625l0 5.625q0 5.890625 0.265625 7.453125q0.265625 1.546875 1.0625 2.984375l-4.40625 0q-0.65625 -1.3125 -0.84375 -3.078125zm-0.34375 -9.421875q-2.296875 0.9375 -6.890625 1.59375q-2.609375 0.375 -3.6875 0.84375q-1.078125 0.46875 -1.671875 1.375q-0.578125 0.90625 -0.578125 2.0q0 1.6875 1.28125 2.8125q1.28125 1.125 3.734375 1.125q2.4375 0 4.328125 -1.0625q1.90625 -1.0625 2.796875 -2.921875q0.6875 -1.421875 0.6875 -4.21875l0 -1.546875zm10.8046875 12.5l0 -24.890625l3.765625 0l0 3.484375q1.171875 -1.828125 3.109375 -2.9375q1.953125 -1.109375 4.4375 -1.109375q2.765625 0 4.53125 1.15625q1.78125 1.140625 2.5 3.203125q2.953125 -4.359375 7.6875 -4.359375q3.703125 0 5.6875 2.046875q2.0 2.046875 2.0 6.3125l0 17.09375l-4.1875 0l0 -15.6875q0 -2.53125 -0.421875 -3.640625q-0.40625 -1.109375 -1.484375 -1.78125q-1.078125 -0.6875 -2.53125 -0.6875q-2.625 0 -4.359375 1.75q-1.734375 1.734375 -1.734375 5.578125l0 14.46875l-4.21875 0l0 -16.171875q0 -2.8125 -1.03125 -4.21875q-1.03125 -1.40625 -3.375 -1.40625q-1.78125 0 -3.296875 0.9375q-1.5 0.9375 -2.1875 2.75q-0.671875 1.796875 -0.671875 5.1875l0 12.921875l-4.21875 0zm39.984375 9.546875l0 -34.4375l3.84375 0l0 3.234375q1.359375 -1.90625 3.0625 -2.84375q1.71875 -0.953125 4.15625 -0.953125q3.1875 0 5.625 1.640625q2.4375 1.640625 3.671875 4.625q1.25 2.984375 1.25 6.546875q0 3.828125 -1.375 6.890625q-1.375 3.046875 -3.984375 4.6875q-2.609375 1.625 -5.5 1.625q-2.109375 0 -3.78125 -0.890625q-1.671875 -0.890625 -2.75 -2.25l0 12.125l-4.21875 0zm3.8125 -21.859375q0 4.8125 1.9375 7.109375q1.953125 2.296875 4.71875 2.296875q2.8125 0 4.8125 -2.375q2.015625 -2.390625 2.015625 -7.375q0 -4.765625 -1.96875 -7.125q-1.953125 -2.375 -4.671875 -2.375q-2.6875 0 -4.765625 2.53125q-2.078125 2.515625 -2.078125 7.3125zm22.789062 12.3125l0 -34.359375l4.21875 0l0 34.359375l-4.21875 0zm27.789062 -8.015625l4.359375 0.53125q-1.03125 3.828125 -3.828125 5.9375q-2.78125 2.109375 -7.109375 2.109375q-5.46875 0 -8.671875 -3.359375q-3.1875 -3.375 -3.1875 -9.4375q0 -6.28125 3.234375 -9.75q3.234375 -3.46875 8.390625 -3.46875q4.984375 0 8.140625 3.40625q3.171875 3.390625 3.171875 9.546875q0 0.375 -0.015625 1.125l-18.5625 0q0.234375 4.109375 2.3125 6.296875q2.09375 2.171875 5.203125 2.171875q2.328125 0 3.96875 -1.21875q1.640625 -1.21875 2.59375 -3.890625zm-13.84375 -6.828125l13.890625 0q-0.28125 -3.140625 -1.59375 -4.703125q-2.015625 -2.4375 -5.21875 -2.4375q-2.90625 0 -4.890625 1.953125q-1.984375 1.9375 -2.1875 5.1875zm21.820312 7.40625l4.171875 -0.65625q0.34375 2.515625 1.953125 3.859375q1.609375 1.328125 4.484375 1.328125q2.90625 0 4.3125 -1.1875q1.40625 -1.1875 1.40625 -2.78125q0 -1.421875 -1.234375 -2.25q-0.875 -0.5625 -4.3125 -1.421875q-4.640625 -1.171875 -6.4375 -2.03125q-1.796875 -0.859375 -2.71875 -2.359375q-0.921875 -1.515625 -0.921875 -3.34375q0 -1.671875 0.75 -3.078125q0.765625 -1.421875 2.078125 -2.359375q0.984375 -0.734375 2.6875 -1.234375q1.703125 -0.5 3.640625 -0.5q2.9375 0 5.140625 0.84375q2.21875 0.84375 3.265625 2.28125q1.0625 1.4375 1.46875 3.859375l-4.125 0.5625q-0.28125 -1.921875 -1.640625 -3.0q-1.34375 -1.078125 -3.796875 -1.078125q-2.90625 0 -4.15625 0.96875q-1.234375 0.953125 -1.234375 2.234375q0 0.828125 0.515625 1.484375q0.515625 0.671875 1.609375 1.125q0.640625 0.234375 3.734375 1.078125q4.46875 1.1875 6.234375 1.953125q1.78125 0.765625 2.78125 2.21875q1.015625 1.453125 1.015625 3.609375q0 2.109375 -1.234375 3.96875q-1.234375 1.859375 -3.5625 2.890625q-2.3125 1.015625 -5.234375 1.015625q-4.859375 0 -7.40625 -2.015625q-2.53125 -2.015625 -3.234375 -5.984375z" fill-rule="nonzero"/><path fill="#93c47d" d="m248.35924 103.16028l-7.625 -24.890625l4.359375 0l3.96875 14.359375l1.46875 5.34375q0.09375 -0.390625 1.296875 -5.125l3.953125 -14.578125l4.3437347 0l3.71875 14.4375l1.25 4.75l1.421875 -4.796875l4.265625 -14.390625l4.109375 0l-7.78125 24.890625l-4.390625 0l-3.953125 -14.90625l-0.96875 -4.25l-5.0312347 19.15625l-4.40625 0zm30.085922 -29.515625l0 -4.84375l4.21875 0l0 4.84375l-4.21875 0zm0 29.515625l0 -24.890625l4.21875 0l0 24.890625l-4.21875 0zm19.851562 -3.78125l0.609375 3.734375q-1.78125 0.375 -3.1875 0.375q-2.296875 0 -3.5625 -0.71875q-1.265625 -0.734375 -1.78125 -1.921875q-0.515625 -1.1875 -0.515625 -4.984375l0 -14.3125l-3.09375 0l0 -3.28125l3.09375 0l0 -6.171875l4.203125 -2.53125l0 8.703125l4.234375 0l0 3.28125l-4.234375 0l0 14.546875q0 1.8125 0.21875 2.328125q0.21875 0.515625 0.71875 0.828125q0.515625 0.296875 1.453125 0.296875q0.703125 0 1.84375 -0.171875zm4.1328125 3.78125l0 -34.359375l4.21875 0l0 12.328125q2.953125 -3.421875 7.453125 -3.421875q2.765625 0 4.796875 1.09375q2.046875 1.078125 2.921875 3.0q0.875 1.921875 0.875 5.578125l0 15.78125l-4.21875 0l0 -15.78125q0 -3.15625 -1.375 -4.59375q-1.359375 -1.453125 -3.875 -1.453125q-1.875 0 -3.53125 0.984375q-1.640625 0.96875 -2.34375 2.640625q-0.703125 1.65625 -0.703125 4.578125l0 13.625l-4.21875 0z" fill-rule="nonzero"/><path fill="#000000" d="m342.4139 103.16028l0 -24.890625l3.796875 0l0 3.765625q1.453125 -2.640625 2.671875 -3.484375q1.234375 -0.84375 2.71875 -0.84375q2.125 0 4.328125 1.359375l-1.453125 3.90625q-1.546875 -0.90625 -3.09375 -0.90625q-1.375 0 -2.484375 0.828125q-1.09375 0.828125 -1.5625 2.3125q-0.703125 2.25 -0.703125 4.921875l0 13.03125l-4.21875 0zm33.0625 -8.015625l4.359375 0.53125q-1.03125 3.828125 -3.828125 5.9375q-2.78125 2.109375 -7.109375 2.109375q-5.46875 0 -8.671875 -3.359375q-3.1875 -3.375 -3.1875 -9.4375q0 -6.28125 3.234375 -9.75q3.234375 -3.46875 8.390625 -3.46875q4.984375 0 8.140625 3.40625q3.171875 3.390625 3.171875 9.546875q0 0.375 -0.015625 1.125l-18.5625 0q0.234375 4.109375 2.3125 6.296875q2.09375 2.171875 5.203125 2.171875q2.328125 0 3.96875 -1.21875q1.640625 -1.21875 2.59375 -3.890625zm-13.84375 -6.828125l13.890625 0q-0.28125 -3.140625 -1.59375 -4.703125q-2.015625 -2.4375 -5.21875 -2.4375q-2.90625 0 -4.890625 1.953125q-1.984375 1.9375 -2.1875 5.1875zm23.507812 24.390625l0 -34.4375l3.84375 0l0 3.234375q1.359375 -1.90625 3.0625 -2.84375q1.71875 -0.953125 4.15625 -0.953125q3.1875 0 5.625 1.640625q2.4375 1.640625 3.671875 4.625q1.25 2.984375 1.25 6.546875q0 3.828125 -1.375 6.890625q-1.375 3.046875 -3.984375 4.6875q-2.609375 1.625 -5.5 1.625q-2.109375 0 -3.78125 -0.890625q-1.671875 -0.890625 -2.75 -2.25l0 12.125l-4.21875 0zm3.8125 -21.859375q0 4.8125 1.9375 7.109375q1.953125 2.296875 4.71875 2.296875q2.8125 0 4.8125 -2.375q2.015625 -2.390625 2.015625 -7.375q0 -4.765625 -1.96875 -7.125q-1.953125 -2.375 -4.671875 -2.375q-2.6875 0 -4.765625 2.53125q-2.078125 2.515625 -2.078125 7.3125zm22.789062 12.3125l0 -34.359375l4.21875 0l0 34.359375l-4.21875 0zm26.992188 -3.078125q-2.34375 2.0 -4.515625 2.828125q-2.15625 0.8125 -4.640625 0.8125q-4.109375 0 -6.3125 -2.0q-2.203125 -2.015625 -2.203125 -5.125q0 -1.828125 0.828125 -3.34375q0.84375 -1.515625 2.1875 -2.421875q1.34375 -0.921875 3.03125 -1.390625q1.25 -0.328125 3.75 -0.625q5.109375 -0.609375 7.53125 -1.453125q0.015625 -0.875 0.015625 -1.109375q0 -2.578125 -1.1875 -3.625q-1.625 -1.4375 -4.8125 -1.4375q-2.96875 0 -4.390625 1.046875q-1.421875 1.046875 -2.09375 3.6875l-4.125 -0.5625q0.5625 -2.640625 1.84375 -4.265625q1.296875 -1.640625 3.734375 -2.515625q2.4375 -0.875 5.640625 -0.875q3.1875 0 5.171875 0.75q2.0 0.75 2.9375 1.890625q0.9375 1.125 1.3125 2.859375q0.21875 1.078125 0.21875 3.890625l0 5.625q0 5.890625 0.265625 7.453125q0.265625 1.546875 1.0625 2.984375l-4.40625 0q-0.65625 -1.3125 -0.84375 -3.078125zm-0.34375 -9.421875q-2.296875 0.9375 -6.890625 1.59375q-2.609375 0.375 -3.6875 0.84375q-1.078125 0.46875 -1.671875 1.375q-0.578125 0.90625 -0.578125 2.0q0 1.6875 1.28125 2.8125q1.28125 1.125 3.734375 1.125q2.4375 0 4.328125 -1.0625q1.90625 -1.0625 2.796875 -2.921875q0.6875 -1.421875 0.6875 -4.21875l0 -1.546875zm27.039062 3.375l4.15625 0.546875q-0.6875 4.28125 -3.484375 6.71875q-2.796875 2.421875 -6.875 2.421875q-5.109375 0 -8.21875 -3.34375q-3.109375 -3.34375 -3.109375 -9.578125q0 -4.03125 1.328125 -7.046875q1.34375 -3.03125 4.078125 -4.53125q2.734375 -1.515625 5.9375 -1.515625q4.0625 0 6.640625 2.046875q2.578125 2.046875 3.296875 5.828125l-4.09375 0.625q-0.59375 -2.5 -2.078125 -3.765625q-1.484375 -1.265625 -3.59375 -1.265625q-3.1875 0 -5.1875 2.28125q-1.984375 2.28125 -1.984375 7.234375q0 5.015625 1.921875 7.296875q1.921875 2.265625 5.015625 2.265625q2.484375 0 4.140625 -1.515625q1.671875 -1.53125 2.109375 -4.703125zm24.796875 1.109375l4.359375 0.53125q-1.03125 3.828125 -3.828125 5.9375q-2.78125 2.109375 -7.109375 2.109375q-5.46875 0 -8.671875 -3.359375q-3.1875 -3.375 -3.1875 -9.4375q0 -6.28125 3.234375 -9.75q3.234375 -3.46875 8.390625 -3.46875q4.984375 0 8.140625 3.40625q3.171875 3.390625 3.171875 9.546875q0 0.375 -0.015625 1.125l-18.5625 0q0.234375 4.109375 2.3125 6.296875q2.09375 2.171875 5.203125 2.171875q2.328125 0 3.96875 -1.21875q1.640625 -1.21875 2.59375 -3.890625zm-13.84375 -6.828125l13.890625 0q-0.28125 -3.140625 -1.59375 -4.703125q-2.015625 -2.4375 -5.21875 -2.4375q-2.90625 0 -4.890625 1.953125q-1.984375 1.9375 -2.1875 5.1875zm23.507812 14.84375l0 -24.890625l3.765625 0l0 3.484375q1.171875 -1.828125 3.109375 -2.9375q1.953125 -1.109375 4.4375 -1.109375q2.7656555 0 4.5312805 1.15625q1.78125 1.140625 2.5 3.203125q2.953125 -4.359375 7.6875 -4.359375q3.703125 0 5.6875 2.046875q2.0 2.046875 2.0 6.3125l0 17.09375l-4.1875 0l0 -15.6875q0 -2.53125 -0.421875 -3.640625q-0.40625 -1.109375 -1.484375 -1.78125q-1.078125 -0.6875 -2.53125 -0.6875q-2.625 0 -4.359375 1.75q-1.734375 1.734375 -1.734375 5.578125l0 14.46875l-4.21875 0l0 -16.171875q0 -2.8125 -1.03125 -4.21875q-1.03125 -1.40625 -3.3750305 -1.40625q-1.78125 0 -3.296875 0.9375q-1.5 0.9375 -2.1875 2.75q-0.671875 1.796875 -0.671875 5.1875l0 12.921875l-4.21875 0zm57.015656 -8.015625l4.359375 0.53125q-1.03125 3.828125 -3.828125 5.9375q-2.78125 2.109375 -7.109375 2.109375q-5.46875 0 -8.671875 -3.359375q-3.1875 -3.375 -3.1875 -9.4375q0 -6.28125 3.234375 -9.75q3.234375 -3.46875 8.390625 -3.46875q4.984375 0 8.140625 3.40625q3.171875 3.390625 3.171875 9.546875q0 0.375 -0.015625 1.125l-18.5625 0q0.234375 4.109375 2.3125 6.296875q2.09375 2.171875 5.203125 2.171875q2.328125 0 3.96875 -1.21875q1.640625 -1.21875 2.59375 -3.890625zm-13.84375 -6.828125l13.890625 0q-0.28125 -3.140625 -1.59375 -4.703125q-2.015625 -2.4375 -5.21875 -2.4375q-2.90625 0 -4.890625 1.953125q-1.984375 1.9375 -2.1875 5.1875zm23.507812 14.84375l0 -24.890625l3.796875 0l0 3.53125q2.734375 -4.09375 7.921875 -4.09375q2.25 0 4.125 0.8125q1.890625 0.796875 2.828125 2.109375q0.9375 1.3125 1.3125 3.125q0.234375 1.171875 0.234375 4.09375l0 15.3125l-4.21875 0l0 -15.140625q0 -2.578125 -0.5 -3.859375q-0.484375 -1.28125 -1.734375 -2.03125q-1.25 -0.765625 -2.9375 -0.765625q-2.703125 0 -4.65625 1.71875q-1.953125 1.703125 -1.953125 6.484375l0 13.59375l-4.21875 0zm35.898438 -3.78125l0.609375 3.734375q-1.78125 0.375 -3.1875 0.375q-2.296875 0 -3.5625 -0.71875q-1.265625 -0.734375 -1.78125 -1.921875q-0.515625 -1.1875 -0.515625 -4.984375l0 -14.3125l-3.09375 0l0 -3.28125l3.09375 0l0 -6.171875l4.203125 -2.53125l0 8.703125l4.234375 0l0 3.28125l-4.234375 0l0 14.546875q0 1.8125 0.21875 2.328125q0.21875 0.515625 0.71875 0.828125q0.515625 0.296875 1.453125 0.296875q0.703125 0 1.84375 -0.171875z" fill-rule="nonzero"/><path fill="#000000" fill-opacity="0.0" d="m-7.7217803 160.5479l69.57481 0l0 54.92914l-69.57481 0z" fill-rule="evenodd"/><path fill="#000000" d="m9.575094 200.2679l0 -20.203125l-7.5468745 0l0 -2.703125l18.15625 0l0 2.703125l-7.578125 0l0 20.203125l-3.03125 0zm23.171877 0l-2.812502 0l0 -17.921875q-1.015625 0.96875 -2.671875 1.9375q-1.640625 0.96875 -2.953125 1.453125l0 -2.71875q2.359375 -1.109375 4.125 -2.6875q1.765625 -1.578125 2.5 -3.0625l1.8125019 0l0 23.0z" fill-rule="nonzero"/><path fill="#000000" fill-opacity="0.0" d="m-7.7217803 272.0789l69.57481 0l0 54.92914l-69.57481 0z" fill-rule="evenodd"/><path fill="#000000" d="m9.575094 311.7989l0 -20.203125l-7.5468745 0l0 -2.703125l18.15625 0l0 2.703125l-7.578125 0l0 20.203125l-3.03125 0zm27.359377 -2.703125l0 2.703125l-15.140627 0q-0.03125 -1.015625 0.328125 -1.953125q0.578125 -1.546875 1.84375 -3.046875q1.28125 -1.5 3.6875 -3.46875q3.734375 -3.0625 5.046877 -4.84375q1.3125 -1.796875 1.3125 -3.390625q0 -1.671875 -1.203125 -2.8125q-1.1875019 -1.15625 -3.109377 -1.15625q-2.03125 0 -3.25 1.21875q-1.21875 1.21875 -1.234375 3.375l-2.890625 -0.296875q0.296875 -3.234375 2.234375 -4.921875q1.9375 -1.703125 5.203125 -1.703125q3.296877 0 5.218752 1.828125q1.921875 1.828125 1.921875 4.53125q0 1.375 -0.5625 2.703125q-0.5625 1.328125 -1.875 2.796875q-1.296875 1.46875 -4.328127 4.03125q-2.53125 2.125 -3.25 2.890625q-0.71875 0.75 -1.1875 1.515625l11.234377 0z" fill-rule="nonzero"/><path fill="#000000" fill-opacity="0.0" d="m-7.7217803 383.66104l69.57481 0l0 54.92914l-69.57481 0z" fill-rule="evenodd"/><path fill="#000000" d="m9.575094 423.38104l0 -20.203125l-7.5468745 0l0 -2.703125l18.15625 0l0 2.703125l-7.578125 0l0 20.203125l-3.03125 0zm12.59375 -6.046875l2.8125 -0.375q0.484375 2.390625 1.640625 3.453125q1.171875 1.046875 2.84375 1.046875q1.984375 0 3.343752 -1.375q1.375 -1.375 1.375 -3.40625q0 -1.9375 -1.265625 -3.1875q-1.2656269 -1.265625 -3.218752 -1.265625q-0.796875 0 -1.984375 0.3125l0.3125 -2.46875q0.28125 0.03125 0.453125 0.03125q1.796875 0 3.234375 -0.9375q1.4375019 -0.9375 1.4375019 -2.890625q0 -1.546875 -1.046875 -2.5625q-1.0468769 -1.015625 -2.703127 -1.015625q-1.640625 0 -2.734375 1.03125q-1.09375 1.03125 -1.40625 3.09375l-2.8125 -0.5q0.515625 -2.828125 2.34375 -4.375q1.828125 -1.5625 4.546875 -1.5625q1.875 0 3.453127 0.8125q1.578125 0.796875 2.40625 2.1875q0.84375 1.390625 0.84375 2.953125q0 1.484375 -0.796875 2.703125q-0.796875 1.21875 -2.359375 1.9375q2.03125 0.46875 3.15625 1.953125q1.125 1.46875 1.125 3.6875q0 3.0 -2.1875 5.09375q-2.1875 2.078125 -5.531252 2.078125q-3.015625 0 -5.015625 -1.796875q-1.984375 -1.796875 -2.265625 -4.65625z" fill-rule="nonzero"/><path fill="#000000" fill-opacity="0.0" d="m-7.7217803 491.3077l69.57481 0l0 54.929108l-69.57481 0z" fill-rule="evenodd"/><path fill="#000000" d="m9.575094 531.0277l0 -20.203125l-7.5468745 0l0 -2.703125l18.15625 0l0 2.703125l-7.578125 0l0 20.203125l-3.03125 0zm21.59375 0l0 -5.484375l-9.9375 0l0 -2.578125l10.453125 -14.84375l2.296877 0l0 14.84375l3.09375 0l0 2.578125l-3.09375 0l0 5.484375l-2.812502 0zm0 -8.0625l0 -10.328125l-7.171875 10.328125l7.171875 0z" fill-rule="nonzero"/><path fill="#000000" fill-opacity="0.0" d="m-7.7217803 601.3029l69.57481 0l0 54.92914l-69.57481 0z" fill-rule="evenodd"/><path fill="#000000" d="m9.575094 641.02295l0 -20.203125l-7.5468745 0l0 -2.703125l18.15625 0l0 2.703125l-7.578125 0l0 20.203125l-3.03125 0zm12.578125 -6.0l2.953125 -0.25q0.328125 2.15625 1.515625 3.25q1.203125 1.078125 2.890625 1.078125q2.03125 0 3.437502 -1.53125q1.40625 -1.53125 1.40625 -4.0625q0 -2.40625 -1.359375 -3.796875q-1.3437519 -1.390625 -3.531252 -1.390625q-1.359375 0 -2.453125 0.625q-1.09375 0.609375 -1.71875 1.59375l-2.640625 -0.34375l2.21875 -11.765625l11.390627 0l0 2.6875l-9.140627 0l-1.234375 6.15625q2.0625 -1.4375 4.328125 -1.4375q3.000002 0 5.062502 2.078125q2.0625 2.078125 2.0625 5.34375q0 3.109375 -1.8125 5.375q-2.203125 2.78125 -6.015627 2.78125q-3.125 0 -5.109375 -1.75q-1.96875 -1.75 -2.25 -4.640625z" fill-rule="nonzero"/><path fill="#ffffff" d="m44.97113 720.53314l0 0c0 -9.578918 7.765251 -17.344177 17.344177 -17.344177l438.3825 0c4.5999756 0 9.011536 1.8273315 12.26416 5.080017c3.2526855 3.2526245 5.080017 7.6641846 5.080017 12.26416l0 69.37463c0 9.578918 -7.765259 17.344177 -17.344177 17.344177l-438.3825 0c-9.578926 0 -17.344177 -7.765259 -17.344177 -17.344177z" fill-rule="evenodd"/><path stroke="#d9d9d9" stroke-width="1.0" stroke-linejoin="round" stroke-linecap="butt" d="m44.97113 720.53314l0 0c0 -9.578918 7.765251 -17.344177 17.344177 -17.344177l438.3825 0c4.5999756 0 9.011536 1.8273315 12.26416 5.080017c3.2526855 3.2526245 5.080017 7.6641846 5.080017 12.26416l0 69.37463c0 9.578918 -7.765259 17.344177 -17.344177 17.344177l-438.3825 0c-9.578926 0 -17.344177 -7.765259 -17.344177 -17.344177z" fill-rule="evenodd"/><path fill="#f3f3f3" d="m59.95879 714.0155l35.086613 0l0 81.98425l-35.086613 0z" fill-rule="evenodd"/><path stroke="#d9d9d9" stroke-width="1.0" stroke-linejoin="round" stroke-linecap="butt" d="m59.95879 714.0155l35.086613 0l0 81.98425l-35.086613 0z" fill-rule="evenodd"/><path fill="#f3f3f3" d="m97.46116 714.0155l35.086617 0l0 81.98425l-35.086617 0z" fill-rule="evenodd"/><path stroke="#d9d9d9" stroke-width="1.0" stroke-linejoin="round" stroke-linecap="butt" d="m97.46116 714.0155l35.086617 0l0 81.98425l-35.086617 0z" fill-rule="evenodd"/><path fill="#f3f3f3" d="m134.96352 714.0155l35.086624 0l0 81.98425l-35.086624 0z" fill-rule="evenodd"/><path stroke="#d9d9d9" stroke-width="1.0" stroke-linejoin="round" stroke-linecap="butt" d="m134.96352 714.0155l35.086624 0l0 81.98425l-35.086624 0z" fill-rule="evenodd"/><path fill="#f3f3f3" d="m172.46588 714.0155l35.086624 0l0 81.98425l-35.086624 0z" fill-rule="evenodd"/><path stroke="#d9d9d9" stroke-width="1.0" stroke-linejoin="round" stroke-linecap="butt" d="m172.46588 714.0155l35.086624 0l0 81.98425l-35.086624 0z" fill-rule="evenodd"/><path fill="#f3f3f3" d="m209.96825 714.0155l35.086624 0l0 81.98425l-35.086624 0z" fill-rule="evenodd"/><path stroke="#d9d9d9" stroke-width="1.0" stroke-linejoin="round" stroke-linecap="butt" d="m209.96825 714.0155l35.086624 0l0 81.98425l-35.086624 0z" fill-rule="evenodd"/><path fill="#f3f3f3" d="m247.47061 714.0155l35.08661 0l0 81.98425l-35.08661 0z" fill-rule="evenodd"/><path stroke="#d9d9d9" stroke-width="1.0" stroke-linejoin="round" stroke-linecap="butt" d="m247.47061 714.0155l35.08661 0l0 81.98425l-35.08661 0z" fill-rule="evenodd"/><path fill="#f3f3f3" d="m284.973 714.0155l35.08661 0l0 81.98425l-35.08661 0z" fill-rule="evenodd"/><path stroke="#d9d9d9" stroke-width="1.0" stroke-linejoin="round" stroke-linecap="butt" d="m284.973 714.0155l35.08661 0l0 81.98425l-35.08661 0z" fill-rule="evenodd"/><path fill="#f3f3f3" d="m322.47534 714.0155l35.08661 0l0 81.98425l-35.08661 0z" fill-rule="evenodd"/><path stroke="#d9d9d9" stroke-width="1.0" stroke-linejoin="round" stroke-linecap="butt" d="m322.47534 714.0155l35.08661 0l0 81.98425l-35.08661 0z" fill-rule="evenodd"/><path fill="#f3f3f3" d="m359.97772 714.0155l35.08661 0l0 81.98425l-35.08661 0z" fill-rule="evenodd"/><path stroke="#d9d9d9" stroke-width="1.0" stroke-linejoin="round" stroke-linecap="butt" d="m359.97772 714.0155l35.08661 0l0 81.98425l-35.08661 0z" fill-rule="evenodd"/><path fill="#f3f3f3" d="m397.48007 714.0155l35.08661 0l0 81.98425l-35.08661 0z" fill-rule="evenodd"/><path stroke="#d9d9d9" stroke-width="1.0" stroke-linejoin="round" stroke-linecap="butt" d="m397.48007 714.0155l35.08661 0l0 81.98425l-35.08661 0z" fill-rule="evenodd"/><path fill="#f3f3f3" d="m434.98245 714.0155l35.08661 0l0 81.98425l-35.08661 0z" fill-rule="evenodd"/><path stroke="#d9d9d9" stroke-width="1.0" stroke-linejoin="round" stroke-linecap="butt" d="m434.98245 714.0155l35.08661 0l0 81.98425l-35.08661 0z" fill-rule="evenodd"/><path fill="#f3f3f3" d="m472.4848 714.0155l35.08661 0l0 81.98425l-35.08661 0z" fill-rule="evenodd"/><path stroke="#d9d9d9" stroke-width="1.0" stroke-linejoin="round" stroke-linecap="butt" d="m472.4848 714.0155l35.08661 0l0 81.98425l-35.08661 0z" fill-rule="evenodd"/><path fill="#000000" fill-opacity="0.0" d="m-7.7217803 721.3029l69.57481 0l0 54.92914l-69.57481 0z" fill-rule="evenodd"/><path fill="#000000" d="m9.575094 761.02295l0 -20.203125l-7.5468745 0l0 -2.703125l18.15625 0l0 2.703125l-7.578125 0l0 20.203125l-3.03125 0zm27.171877 -17.296875l-2.796875 0.21875q-0.375 -1.65625 -1.0625 -2.40625q-1.1406269 -1.203125 -2.812502 -1.203125q-1.34375 0 -2.359375 0.75q-1.328125 0.96875 -2.09375 2.828125q-0.765625 1.859375 -0.796875 5.296875q1.015625 -1.546875 2.484375 -2.296875q1.46875 -0.75 3.078125 -0.75q2.812502 0 4.781252 2.078125q1.984375 2.0625 1.984375 5.34375q0 2.15625 -0.9375 4.015625q-0.921875 1.84375 -2.546875 2.828125q-1.625 0.984375 -3.687502 0.984375q-3.515625 0 -5.734375 -2.578125q-2.21875 -2.59375 -2.21875 -8.53125q0 -6.640625 2.453125 -9.65625q2.140625 -2.625 5.765625 -2.625q2.703127 0 4.421877 1.515625q1.734375 1.515625 2.078125 4.1875zm-11.484377 9.875q0 1.453125 0.609375 2.78125q0.625 1.328125 1.734375 2.03125q1.109375 0.6875 2.328125 0.6875q1.78125 0 3.062502 -1.4375q1.28125 -1.4375 1.28125 -3.90625q0 -2.375 -1.265625 -3.734375q-1.2656269 -1.375 -3.187502 -1.375q-1.90625 0 -3.234375 1.375q-1.328125 1.359375 -1.328125 3.578125z" fill-rule="nonzero"/><path fill="#f3f3f3" d="m658.182 203.3615l35.08661 0l0 81.98427l-35.08661 0z" fill-rule="evenodd"/><path stroke="#d9d9d9" stroke-width="1.0" stroke-linejoin="round" stroke-linecap="butt" d="m658.182 203.3615l35.08661 0l0 81.98427l-35.08661 0z" fill-rule="evenodd"/><path fill="#f3f3f3" d="m698.182 203.3615l35.08661 0l0 81.98427l-35.08661 0z" fill-rule="evenodd"/><path stroke="#d9d9d9" stroke-width="1.0" stroke-linejoin="round" stroke-linecap="butt" d="m698.182 203.3615l35.08661 0l0 81.98427l-35.08661 0z" fill-rule="evenodd"/></g></svg>