<?xml version="1.0" encoding="UTF-8" standalone="no"?><!DOCTYPE svg PUBLIC "-//W3C//DTD SVG 1.1//EN" "http://www.w3.org/Graphics/SVG/1.1/DTD/svg11.dtd"><svg width="100%" height="100%" viewBox="0 0 715 432" version="1.1" xmlns="http://www.w3.org/2000/svg" xmlns:xlink="http://www.w3.org/1999/xlink" xml:space="preserve" xmlns:serif="http://www.serif.com/" style="fill-rule:evenodd;clip-rule:evenodd;stroke-linecap:round;"><g id="axes_1"><rect id="patch_2" x="68.719" y="3.876" width="642.208" height="392.899" style="fill:#fff;"/><text x="147.422px" y="431.646px" style="font-family:'ArialMT', 'Arial', sans-serif;font-size:24px;">non</text><g><text x="364.594px" y="431.397px" style="font-family:'ArialMT', 'Arial', sans-serif;font-size:24px;">ï¬xed</text></g><g><text x="557.493px" y="430.29px" style="font-family:'ArialMT', 'Arial', sans-serif;font-size:24px;">trainable</text></g><g id="matplotlib.axis_2"><g id="ytick_1"><path id="line2d_1" d="M68.719,396.775l642.207,0" style="fill:none;stroke:#ccc;stroke-width:1.5px;"/><path id="ArialMT-30" d="M43.484,396.897c0,-2.096 0.215,-3.782 0.646,-5.058c0.43,-1.279 1.07,-2.264 1.918,-2.955c0.851,-0.694 1.921,-1.04 3.21,-1.04c0.951,0 1.785,0.192 2.502,0.576c0.716,0.381 1.308,0.933 1.775,1.655c0.469,0.719 0.836,1.597 1.102,2.634c0.265,1.033 0.398,2.43 0.398,4.188c0,2.078 -0.214,3.755 -0.642,5.031c-0.425,1.276 -1.063,2.264 -1.914,2.962c-0.848,0.696 -1.922,1.044 -3.221,1.044c-1.707,0 -3.048,-0.612 -4.022,-1.836c-1.168,-1.475 -1.752,-3.875 -1.752,-7.201Zm2.235,0c0,2.908 0.34,4.844 1.021,5.808c0.681,0.962 1.52,1.443 2.518,1.443c1,0 1.84,-0.484 2.521,-1.45c0.681,-0.967 1.021,-2.901 1.021,-5.801c0,-2.919 -0.34,-4.856 -1.021,-5.813c-0.681,-0.959 -1.529,-1.438 -2.545,-1.438c-0.997,0 -1.795,0.423 -2.393,1.268c-0.748,1.078 -1.122,3.072 -1.122,5.983Z" style="fill:#262626;fill-rule:nonzero;"/></g><g id="ytick_2"><path id="line2d_2" d="M68.719,320.245l642.207,0" style="fill:none;stroke:#ccc;stroke-width:1.5px;"/><path id="ArialMT-32" d="M54.915,327.01l0,2.092l-11.71,0c-0.015,-0.523 0.069,-1.027 0.252,-1.512c0.299,-0.796 0.776,-1.581 1.431,-2.355c0.657,-0.773 1.607,-1.668 2.85,-2.684c1.926,-1.577 3.226,-2.828 3.902,-3.751c0.678,-0.923 1.017,-1.795 1.017,-2.618c0,-0.861 -0.309,-1.587 -0.928,-2.177c-0.616,-0.593 -1.42,-0.89 -2.41,-0.89c-1.046,0 -1.884,0.315 -2.513,0.944c-0.629,0.627 -0.948,1.495 -0.955,2.607l-2.236,-0.229c0.153,-1.668 0.727,-2.939 1.725,-3.813c1,-0.874 2.344,-1.311 4.03,-1.311c1.699,0 3.043,0.472 4.033,1.416c0.993,0.941 1.489,2.109 1.489,3.503c0,0.709 -0.146,1.407 -0.437,2.093c-0.289,0.683 -0.769,1.403 -1.442,2.161c-0.673,0.758 -1.791,1.797 -3.353,3.117c-1.307,1.096 -2.146,1.84 -2.518,2.232c-0.368,0.389 -0.674,0.781 -0.916,1.175l8.689,0Z" style="fill:#262626;fill-rule:nonzero;"/></g><g id="ytick_3"><path id="line2d_3" d="M68.719,243.714l642.207,0" style="fill:none;stroke:#ccc;stroke-width:1.5px;"/><path id="ArialMT-34" d="M50.456,252.572l0,-4.242l-7.688,0l0,-1.996l8.087,-11.478l1.775,0l0,11.478l2.394,0l0,1.996l-2.394,0l0,4.242l-2.174,0Zm0,-6.238l0,-7.985l-5.549,7.985l5.549,0Z" style="fill:#262626;fill-rule:nonzero;"/></g><g id="ytick_4"><path id="line2d_4" d="M68.719,167.184l642.207,0" style="fill:none;stroke:#ccc;stroke-width:1.5px;"/><path id="ArialMT-36" d="M54.768,162.665l-2.161,0.166c-0.194,-0.853 -0.467,-1.473 -0.82,-1.86c-0.591,-0.621 -1.316,-0.932 -2.177,-0.932c-0.694,0 -1.302,0.194 -1.826,0.58c-0.683,0.501 -1.223,1.23 -1.62,2.189c-0.395,0.959 -0.6,2.324 -0.615,4.096c0.523,-0.797 1.164,-1.389 1.922,-1.775c0.758,-0.387 1.552,-0.581 2.382,-0.581c1.449,0 2.683,0.534 3.701,1.601c1.021,1.068 1.531,2.447 1.531,4.138c0,1.114 -0.239,2.148 -0.719,3.102c-0.479,0.954 -1.138,1.685 -1.976,2.193c-0.838,0.507 -1.789,0.761 -2.854,0.761c-1.812,0 -3.291,-0.666 -4.436,-1.999c-1.142,-1.333 -1.713,-3.531 -1.713,-6.594c0,-3.423 0.632,-5.912 1.895,-7.467c1.104,-1.354 2.59,-2.03 4.459,-2.03c1.395,0 2.537,0.39 3.426,1.171c0.892,0.782 1.426,1.862 1.601,3.241Zm-8.879,7.638c0,0.747 0.159,1.464 0.476,2.15c0.317,0.683 0.762,1.205 1.334,1.566c0.572,0.359 1.173,0.538 1.802,0.538c0.918,0 1.707,-0.37 2.367,-1.11c0.663,-0.743 0.994,-1.751 0.994,-3.024c0,-1.225 -0.328,-2.189 -0.982,-2.893c-0.653,-0.706 -1.474,-1.06 -2.464,-1.06c-0.982,0 -1.816,0.354 -2.502,1.06c-0.683,0.704 -1.025,1.628 -1.025,2.773Z" style="fill:#262626;fill-rule:nonzero;"/></g><g id="ytick_5"><path id="line2d_5" d="M68.719,90.654l642.207,0" style="fill:none;stroke:#ccc;stroke-width:1.5px;"/><path id="ArialMT-38" d="M46.829,89.905c-0.902,-0.332 -1.571,-0.804 -2.007,-1.415c-0.433,-0.614 -0.65,-1.347 -0.65,-2.201c0,-1.289 0.463,-2.371 1.389,-3.248c0.928,-0.879 2.16,-1.319 3.697,-1.319c1.546,0 2.792,0.45 3.735,1.35c0.944,0.897 1.416,1.99 1.416,3.279c0,0.823 -0.217,1.538 -0.65,2.147c-0.431,0.605 -1.084,1.075 -1.961,1.407c1.088,0.353 1.916,0.926 2.483,1.717c0.567,0.789 0.851,1.732 0.851,2.827c0,1.514 -0.536,2.786 -1.609,3.817c-1.07,1.031 -2.479,1.547 -4.227,1.547c-1.748,0 -3.158,-0.517 -4.23,-1.551c-1.073,-1.036 -1.609,-2.328 -1.609,-3.875c0,-1.152 0.292,-2.116 0.878,-2.892c0.585,-0.779 1.416,-1.309 2.494,-1.59Zm-0.433,-3.689c0,0.838 0.269,1.524 0.808,2.057c0.542,0.531 1.243,0.797 2.104,0.797c0.838,0 1.525,-0.263 2.061,-0.789c0.536,-0.528 0.804,-1.176 0.804,-1.941c0,-0.799 -0.277,-1.471 -0.831,-2.015c-0.552,-0.544 -1.237,-0.816 -2.057,-0.816c-0.83,0 -1.52,0.267 -2.069,0.8c-0.547,0.532 -0.82,1.167 -0.82,1.907Zm-0.7,8.183c0,0.621 0.147,1.222 0.441,1.802c0.294,0.58 0.731,1.03 1.311,1.35c0.58,0.317 1.204,0.475 1.871,0.475c1.039,0 1.897,-0.333 2.572,-1.001c0.678,-0.671 1.017,-1.521 1.017,-2.553c0,-1.046 -0.348,-1.913 -1.044,-2.598c-0.696,-0.686 -1.569,-1.029 -2.618,-1.029c-1.023,0 -1.872,0.339 -2.545,1.017c-0.67,0.676 -1.005,1.521 -1.005,2.537Z" style="fill:#262626;fill-rule:nonzero;"/></g><g id="ytick_6"><path id="line2d_6" d="M68.719,14.123l642.207,0" style="fill:none;stroke:#ccc;stroke-width:1.5px;"/><g id="text_10"><path id="ArialMT-31" d="M37.911,22.981l-2.173,0l0,-13.86c-0.523,0.498 -1.21,0.996 -2.061,1.497c-0.851,0.5 -1.614,0.875 -2.29,1.125l0,-2.104c1.217,-0.572 2.281,-1.264 3.191,-2.076c0.91,-0.815 1.554,-1.605 1.933,-2.371l1.4,0l0,17.789Z" style="fill:#262626;fill-rule:nonzero;"/><path id="ArialMT-301" serif:id="ArialMT-30" d="M43.485,14.245c0,-2.096 0.216,-3.782 0.646,-5.058c0.431,-1.279 1.07,-2.264 1.918,-2.955c0.851,-0.693 1.921,-1.04 3.21,-1.04c0.951,0 1.785,0.192 2.502,0.576c0.717,0.382 1.309,0.933 1.775,1.655c0.469,0.72 0.837,1.597 1.102,2.634c0.266,1.034 0.399,2.43 0.399,4.188c0,2.078 -0.214,3.755 -0.642,5.031c-0.426,1.276 -1.064,2.264 -1.915,2.963c-0.848,0.696 -1.922,1.044 -3.221,1.044c-1.707,0 -3.047,-0.613 -4.022,-1.837c-1.168,-1.475 -1.752,-3.875 -1.752,-7.201Zm2.236,0c0,2.908 0.34,4.844 1.021,5.809c0.68,0.961 1.519,1.442 2.517,1.442c1,0 1.841,-0.483 2.521,-1.45c0.681,-0.967 1.021,-2.901 1.021,-5.801c0,-2.918 -0.34,-4.856 -1.021,-5.812c-0.68,-0.959 -1.528,-1.439 -2.544,-1.439c-0.998,0 -1.796,0.423 -2.394,1.268c-0.748,1.078 -1.121,3.072 -1.121,5.983Z" style="fill:#262626;fill-rule:nonzero;"/></g></g><g id="text_11"><rect id="ArialMT-6c" x="0" y="220.232" width="19.326" height="2.375" style="fill:#262626;fill-rule:nonzero;"/><path id="ArialMT-6f" d="M12.327,217.435c-2.593,0 -4.514,-0.72 -5.763,-2.16c-1.038,-1.203 -1.557,-2.671 -1.557,-4.404c0,-1.924 0.632,-3.496 1.894,-4.717c1.26,-1.223 3.003,-1.835 5.227,-1.835c1.8,0 3.218,0.27 4.253,0.81c1.032,0.54 1.834,1.328 2.405,2.363c0.571,1.032 0.856,2.158 0.856,3.379c0,1.96 -0.629,3.545 -1.886,4.755c-1.257,1.206 -3.067,1.809 -5.429,1.809Zm0,-2.438c1.791,0 3.133,-0.391 4.024,-1.173c0.892,-0.782 1.338,-1.766 1.338,-2.953c0,-1.178 -0.447,-2.159 -1.342,-2.94c-0.897,-0.782 -2.264,-1.173 -4.1,-1.173c-1.733,0 -3.045,0.393 -3.936,1.181c-0.892,0.787 -1.338,1.765 -1.338,2.932c0,1.187 0.445,2.171 1.333,2.953c0.886,0.782 2.226,1.173 4.021,1.173Z" style="fill:#262626;fill-rule:nonzero;"/><path id="ArialMT-73" d="M15.145,202.487l-0.367,-2.346c0.939,-0.132 1.659,-0.499 2.16,-1.101c0.5,-0.602 0.751,-1.444 0.751,-2.527c0,-1.088 -0.221,-1.896 -0.663,-2.422c-0.444,-0.528 -0.966,-0.793 -1.565,-0.793c-0.534,0 -0.956,0.234 -1.265,0.701c-0.211,0.323 -0.478,1.132 -0.802,2.425c-0.441,1.739 -0.823,2.944 -1.143,3.616c-0.321,0.672 -0.764,1.183 -1.329,1.531c-0.568,0.346 -1.195,0.519 -1.882,0.519c-0.621,0 -1.198,-0.142 -1.729,-0.426c-0.535,-0.287 -0.978,-0.676 -1.329,-1.168c-0.27,-0.369 -0.499,-0.871 -0.688,-1.507c-0.191,-0.638 -0.287,-1.323 -0.287,-2.054c0,-1.097 0.159,-2.06 0.477,-2.89c0.315,-0.832 0.744,-1.446 1.287,-1.839c0.54,-0.397 1.261,-0.67 2.164,-0.819l0.316,2.321c-0.72,0.104 -1.281,0.409 -1.683,0.915c-0.405,0.506 -0.607,1.221 -0.607,2.143c0,1.089 0.18,1.866 0.54,2.333c0.36,0.467 0.781,0.7 1.265,0.7c0.307,0 0.584,-0.097 0.831,-0.291c0.253,-0.194 0.464,-0.497 0.633,-0.911c0.087,-0.236 0.288,-0.935 0.603,-2.097c0.45,-1.679 0.819,-2.849 1.106,-3.51c0.284,-0.663 0.699,-1.184 1.244,-1.561c0.543,-0.379 1.219,-0.569 2.029,-0.569c0.791,0 1.536,0.231 2.236,0.692c0.698,0.461 1.238,1.128 1.62,1.999c0.383,0.87 0.574,1.853 0.574,2.949c0,1.82 -0.378,3.207 -1.135,4.16c-0.756,0.954 -1.877,1.562 -3.362,1.827Z" style="fill:#262626;fill-rule:nonzero;"/><path id="ArialMT-731" serif:id="ArialMT-73" d="M15.145,188.987l-0.367,-2.346c0.939,-0.132 1.659,-0.499 2.16,-1.101c0.5,-0.602 0.751,-1.444 0.751,-2.527c0,-1.088 -0.221,-1.896 -0.663,-2.422c-0.444,-0.528 -0.966,-0.793 -1.565,-0.793c-0.534,0 -0.956,0.234 -1.265,0.701c-0.211,0.323 -0.478,1.132 -0.802,2.425c-0.441,1.739 -0.823,2.944 -1.143,3.616c-0.321,0.672 -0.764,1.183 -1.329,1.531c-0.568,0.346 -1.195,0.519 -1.882,0.519c-0.621,0 -1.198,-0.142 -1.729,-0.426c-0.535,-0.287 -0.978,-0.676 -1.329,-1.168c-0.27,-0.369 -0.499,-0.871 -0.688,-1.507c-0.191,-0.638 -0.287,-1.323 -0.287,-2.054c0,-1.097 0.159,-2.06 0.477,-2.89c0.315,-0.832 0.744,-1.446 1.287,-1.839c0.54,-0.397 1.261,-0.67 2.164,-0.819l0.316,2.321c-0.72,0.104 -1.281,0.409 -1.683,0.915c-0.405,0.506 -0.607,1.221 -0.607,2.143c0,1.089 0.18,1.866 0.54,2.333c0.36,0.467 0.781,0.7 1.265,0.7c0.307,0 0.584,-0.097 0.831,-0.291c0.253,-0.194 0.464,-0.497 0.633,-0.911c0.087,-0.236 0.288,-0.935 0.603,-2.097c0.45,-1.679 0.819,-2.849 1.106,-3.51c0.284,-0.663 0.699,-1.184 1.244,-1.561c0.543,-0.379 1.219,-0.569 2.029,-0.569c0.791,0 1.536,0.231 2.236,0.692c0.698,0.461 1.238,1.128 1.62,1.999c0.383,0.87 0.574,1.853 0.574,2.949c0,1.82 -0.378,3.207 -1.135,4.16c-0.756,0.954 -1.877,1.562 -3.362,1.827Z" style="fill:#262626;fill-rule:nonzero;"/></g></g><rect id="patch_3" x="90.125" y="92.04" width="171.255" height="304.735" style="fill:#cb6d67;stroke:#fff;stroke-width:1.5px;stroke-linecap:butt;"/><rect id="patch_4" x="304.195" y="304.179" width="171.255" height="92.596" style="fill:#cb6d67;stroke:#fff;stroke-width:1.5px;stroke-linecap:butt;"/><rect id="patch_5" x="518.264" y="308.805" width="171.255" height="87.97" style="fill:#cb6d67;stroke:#fff;stroke-width:1.5px;stroke-linecap:butt;"/><path id="line2d_7" d="M175.753,147.443l0,-124.857" style="fill:none;stroke:#424242;stroke-width:4.05px;"/><path id="line2d_8" d="M389.822,343.311l0,-76.49" style="fill:none;stroke:#424242;stroke-width:4.05px;"/><path id="line2d_9" d="M603.892,349.388l0,-81.246" style="fill:none;stroke:#424242;stroke-width:4.05px;"/><path id="patch_6" d="M68.719,396.775l0,-392.899" style="fill:none;stroke:#ccc;stroke-width:1.88px;stroke-linecap:square;"/><path id="patch_7" d="M68.719,396.775l642.207,0" style="fill:none;stroke:#ccc;stroke-width:1.88px;stroke-linecap:square;"/></g></svg>